<svg id="Layer_1" data-name="Layer 1" xmlns="http://www.w3.org/2000/svg" viewBox="0 0 54 54"><defs><style>.cls-1{fill:#414042;}</style></defs><title>2FA</title><path class="cls-1" d="M34.75,19.39a4.27,4.27,0,0,0-4.27,4.27v2.4H39v-2.4A4.27,4.27,0,0,0,34.75,19.39Z"/><path class="cls-1" d="M19.25,12.28a3.87,3.87,0,0,0-3.87,3.87v2h7.73v-2A3.87,3.87,0,0,0,19.25,12.28Z"/><path class="cls-1" d="M34.75,30.57a2.25,2.25,0,0,0-1,4.28v3.53h1.92V34.85a2.25,2.25,0,0,0-1-4.28Z"/><path class="cls-1" d="M27,0A27,27,0,1,0,54,27,27,27,0,0,0,27,0ZM22.43,35.85H11a3,3,0,0,1-3-3V18.15h3.71v-2a7.5,7.5,0,1,1,15,0v2h1.4a8.62,8.62,0,0,0-.59.8H26v-2.8a6.7,6.7,0,1,0-13.4,0V19H8.84V32.86A2.19,2.19,0,0,0,11,35H22.43ZM23.92,19H14.58v-2.8a4.67,4.67,0,0,1,9.34,0ZM45.56,39.73a3.22,3.22,0,0,1-3.22,3.22H27.15a3.22,3.22,0,0,1-3.22-3.22V26.05h3.71v-2.4a7.1,7.1,0,1,1,14.2,0v2.4h3.71Z"/></svg>