<svg id="Layer_1" data-name="Layer 1" xmlns="http://www.w3.org/2000/svg" viewBox="0 0 54 54"><defs><style>.cls-1{fill:#414042;}.cls-2{fill:#fff;}</style></defs><title>A B testing</title><circle class="cls-1" cx="27" cy="27" r="27"/><path class="cls-2" d="M32.76,38.76c0,1-.66.82-.66.82H18.52v4.36c0,1.28-1.11.11-1.11.11L8.08,34.46A.86.86,0,0,1,8,33.16c.91-.91,9.63-9.35,9.63-9.35s1.16-1.17,1.16.38v4H32.21s.55,0,.55.7Z"/><path class="cls-2" d="M21.24,15.24c0-1,.66-.82.66-.82H35.48V10.06c0-1.28,1.11-.11,1.11-.11l9.34,9.59a.86.86,0,0,1,.07,1.3c-.91.91-9.63,9.35-9.63,9.35s-1.16,1.17-1.16-.38v-4H21.79s-.55,0-.55-.7Z"/></svg>
