<svg id="Layer_1" data-name="Layer 1" xmlns="http://www.w3.org/2000/svg" viewBox="0 0 54 54"><defs><style>.cls-1{fill:#414042;}</style></defs><title>Active Directory Management</title><rect class="cls-1" x="27" y="23.65" width="15.72" height="1.69" rx="0.77" ry="0.77"/><rect class="cls-1" x="27" y="28.33" width="15.72" height="1.69" rx="0.77" ry="0.77"/><path class="cls-1" d="M18.51,24.14a3.35,3.35,0,1,0-2.44,0A6,6,0,0,0,11.33,30v0H23.25v0A6,6,0,0,0,18.51,24.14Z"/><path class="cls-1" d="M27,0A27,27,0,1,0,54,27,27,27,0,0,0,27,0ZM45.72,36.72a3.51,3.51,0,0,1-3.51,3.51h-5V38.11H38.6a1.12,1.12,0,1,0,0-2.23h-5a1.12,1.12,0,1,0,0,2.23h1.41v2.12H18.94V38.11h1.41a1.12,1.12,0,1,0,0-2.23h-5a1.12,1.12,0,0,0,0,2.23h1.41v2.12h-5a3.51,3.51,0,0,1-3.51-3.51V17.28a3.51,3.51,0,0,1,3.51-3.51H42.21a3.51,3.51,0,0,1,3.51,3.51Z"/><rect class="cls-1" x="27" y="18.98" width="15.72" height="1.69" rx="0.77" ry="0.77"/></svg>
