<svg id="Layer_1" data-name="Layer 1" xmlns="http://www.w3.org/2000/svg" viewBox="0 0 54 54"><defs><style>.cls-1{fill:#414042;}</style></defs><title>Agility</title><path class="cls-1" d="M27,0A27,27,0,1,0,54,27,27,27,0,0,0,27,0Zm.13,7.1L34,15.66h-3.5v.62c0,2.37,0,4.75,0,7.12a1,1,0,0,1-.38.87c-1.06,1-2.09,1.95-3.08,2.88-1.08-1-2.2-2-3.3-3.09a.93.93,0,0,1-.17-.61c0-2.37,0-4.75,0-7.12v-.68h-3.5ZM21.87,37.83a15.26,15.26,0,0,0-7.66-8.2L12.89,32.8,7.65,23.14l10.49-3.2-1.29,3.2c.63.35,1.25.68,1.86,1a23.28,23.28,0,0,1,6.19,5.13.66.66,0,0,1,.07.92,25.47,25.47,0,0,0-2.9,6.9C22,37.32,22,37.52,21.87,37.83Zm19.34-5-1.3-3.15c-.18.08-.33.14-.47.21a15,15,0,0,0-8,10.66c-.42,2.09-.55,4.25-.82,6.38h-6.9c.11-1.54.17-3.08.35-4.61a27.44,27.44,0,0,1,2.65-9.18,22,22,0,0,1,9.74-9.53l.8-.43L36,19.94l10.39,3.29Z"/></svg>