<svg id="Layer_1" data-name="Layer 1" xmlns="http://www.w3.org/2000/svg" viewBox="0 0 54 54"><defs><style>.cls-1{fill:#414042;}</style></defs><title>Application Management </title><circle class="cls-1" cx="11.28" cy="35.91" r="1.2"/><circle class="cls-1" cx="11.28" cy="18.1" r="1.2"/><circle class="cls-1" cx="11.28" cy="27" r="1.2"/><path class="cls-1" d="M38,18.84a5.39,5.39,0,0,0-7.93-.44,6.21,6.21,0,0,0-.46,8.39,5.39,5.39,0,0,0,7.93.44A6.21,6.21,0,0,0,38,18.84Z"/><path class="cls-1" d="M27,0A27,27,0,1,0,54,27,27,27,0,0,0,27,0ZM8.46,17.24c0-1.76,1.88-3.19,4.2-3.19H32.15a5.24,5.24,0,0,1,1.9.36h-.16a7.79,7.79,0,0,0-5.38,2.18,8.6,8.6,0,0,0-2.61,5.57H12.66c-2.32,0-4.2-1.43-4.2-3.19Zm0,8.9c0-1.76,1.88-3.19,4.2-3.19H25.88a8.59,8.59,0,0,0,2,5.47A7.86,7.86,0,0,0,32.18,31H12.66c-2.32,0-4.2-1.43-4.2-3.19ZM36.34,36.76c0,1.76-1.88,3.19-4.2,3.19H12.66c-2.32,0-4.2-1.43-4.2-3.19V35c0-1.76,1.88-3.19,4.2-3.19H32.15c2.32,0,4.2,1.43,4.2,3.19Zm9.12-.49-1.3,1.22a.89.89,0,0,1-1.3-.06l-4.51-5.52a1,1,0,0,1,0-1.29l.09-.11-1.07-1.29-.06-.08L37.23,29l-.14.08a6.45,6.45,0,0,1-3.27.9,6.54,6.54,0,0,1-5-2.37,7.5,7.5,0,0,1,.55-10.13,6.46,6.46,0,0,1,9.51.53,7.52,7.52,0,0,1-.21,9.78l-.1.11,1.17,1.41.13-.1a.88.88,0,0,1,1.21.13l4.51,5.52A1.05,1.05,0,0,1,45.47,36.28Z"/></svg>
