<svg id="Layer_1" data-name="Layer 1" xmlns="http://www.w3.org/2000/svg" viewBox="0 0 54 54"><defs><style>.cls-1{fill:#414042;}</style></defs><title>Availability</title><path class="cls-1" d="M42.78,34.83l-2.53-1.49a1.24,1.24,0,0,0-1.7.44,1.24,1.24,0,0,0,.44,1.7L41.52,37a1.24,1.24,0,0,0,1.7-.44A1.25,1.25,0,0,0,42.78,34.83Z"/><path class="cls-1" d="M35.44,39a1.24,1.24,0,0,0-2.15,1.26l1.48,2.53a1.25,1.25,0,0,0,1.7.44,1.25,1.25,0,0,0,.44-1.7Z"/><path class="cls-1" d="M35.38,10.09a1.24,1.24,0,0,0-1-.07,1.23,1.23,0,0,0-.71.62L32.4,13.27a1.24,1.24,0,0,0,2.23,1.11l1.31-2.63a1.24,1.24,0,0,0-.56-1.67Z"/><path class="cls-1" d="M39.79,19.73l2.42-1.66A1.24,1.24,0,0,0,40.81,16l-2.42,1.66a1.24,1.24,0,0,0,1.41,2.05Z"/><path class="cls-1" d="M27,0A27,27,0,1,0,54,27,27,27,0,0,0,27,0ZM20.93,7.88a22.09,22.09,0,0,0-3.79,7.39H10.72A20,20,0,0,1,20.93,7.88Zm-1.87,9.88h6.67v8H18A36.79,36.79,0,0,1,19.07,17.75Zm-9.88,0h7.28a40.24,40.24,0,0,0-1,8H7A19.79,19.79,0,0,1,9.18,17.75ZM7,28.25h8.52a40.13,40.13,0,0,0,1,8H9.18A19.81,19.81,0,0,1,7,28.25Zm3.76,10.49h6.46a21.72,21.72,0,0,0,3.89,7.43A20,20,0,0,1,10.72,38.74Zm15,8c-2.32-1.1-4.43-4-5.87-8h5.88Zm0-10.52H19.1a36.55,36.55,0,0,1-1.13-8h7.77Zm0-21H19.82c1.45-4.12,3.57-7,5.92-8.13ZM28.22,47V29l9,1.59a1.22,1.22,0,0,0,1.45-1,1.24,1.24,0,0,0-1-1.44l-7.85-1.39,7-9.83a1.24,1.24,0,1,0-2-1.43l-6.5,9.17V7a20.06,20.06,0,0,1,0,40Z"/><path class="cls-1" d="M44.59,25.76H41.66a1.24,1.24,0,0,0,0,2.49h2.94a1.24,1.24,0,1,0,0-2.49Z"/></svg>