<?xml version="1.0" encoding="UTF-8" standalone="no"?>
<svg
   id="Layer_1"
   data-name="Layer 1"
   viewBox="0 0 100 100"
   version="1.1"
   sodipodi:docname="EXP___Cabinet.svg"
   inkscape:version="1.1.1 (3bf5ae0d25, 2021-09-20)"
   xmlns:inkscape="http://www.inkscape.org/namespaces/inkscape"
   xmlns:sodipodi="http://sodipodi.sourceforge.net/DTD/sodipodi-0.dtd"
   xmlns="http://www.w3.org/2000/svg"
   xmlns:svg="http://www.w3.org/2000/svg">
  <sodipodi:namedview
     id="namedview773"
     pagecolor="#ffffff"
     bordercolor="#666666"
     borderopacity="1.0"
     inkscape:pageshadow="2"
     inkscape:pageopacity="0.0"
     inkscape:pagecheckerboard="0"
     showgrid="false"
     inkscape:zoom="8.73"
     inkscape:cx="50"
     inkscape:cy="50"
     inkscape:window-width="3840"
     inkscape:window-height="2089"
     inkscape:window-x="3432"
     inkscape:window-y="-8"
     inkscape:window-maximized="1"
     inkscape:current-layer="Layer_1" />
  <defs
     id="defs756">
    <style
       id="style754">.cls-1{font-size:10px;font-family:Inter-Light, Inter;font-weight:300;}.cls-2{fill:#f20505;}</style>
  </defs>
  <path
     d="M65.23,34.63H34.77v.63a.63.63,0,0,1-.63.63H32.87a.64.64,0,0,1-.64-.63V19.77a.64.64,0,0,1,.64-.64h1.27a.64.64,0,0,1,.63.64v.63H65.23v-.63a.64.64,0,0,1,.63-.64h1.27a.64.64,0,0,1,.64.64V35.26a.64.64,0,0,1-.64.63H65.86a.63.63,0,0,1-.63-.63Zm0-2.54V22.94H34.77v9.15Z"
     id="path760" />
  <rect
     class="cls-2"
     x="39.85"
     y="26.23"
     width="20.3"
     height="2.54"
     rx="0.63"
     id="rect762" />
  <path
     d="M65.23,46.51H34.77v.64a.63.63,0,0,1-.63.63H32.87a.64.64,0,0,1-.64-.63V31.66a.64.64,0,0,1,.64-.64h1.27a.64.64,0,0,1,.63.64v.63H65.23v-.63a.64.64,0,0,1,.63-.64h1.27a.64.64,0,0,1,.64.64V47.15a.64.64,0,0,1-.64.63H65.86a.63.63,0,0,1-.63-.63Zm0-2.53V34.83H34.77V44Z"
     id="path764" />
  <rect
     class="cls-2"
     x="39.85"
     y="38.12"
     width="20.3"
     height="2.54"
     rx="0.63"
     id="rect766" />
  <path
     d="M65.23,58.24H34.77v.63a.64.64,0,0,1-.63.64H32.87a.64.64,0,0,1-.64-.64V43.38a.64.64,0,0,1,.64-.63h1.27a.63.63,0,0,1,.63.63V44H65.23v-.64a.63.63,0,0,1,.63-.63h1.27a.64.64,0,0,1,.64.63V58.87a.64.64,0,0,1-.64.64H65.86a.64.64,0,0,1-.63-.64Zm0-2.54V46.55H34.77V55.7Z"
     id="path768" />
  <rect
     class="cls-2"
     x="39.85"
     y="49.85"
     width="20.3"
     height="2.54"
     rx="0.63"
     id="rect770" />
</svg>
