<svg id="Layer_1" data-name="Layer 1" xmlns="http://www.w3.org/2000/svg" viewBox="0 0 54 54"><defs><style>.cls-1{fill:#414042;}</style></defs><title>Calendar</title><path class="cls-1" d="M40.78,38.67H38.22V36.11a1,1,0,0,0-1.93,0v2.56H33.72a1,1,0,0,0,0,1.93h2.56v2.56a1,1,0,0,0,1.93,0V40.61h2.56a1,1,0,0,0,0-1.93Z"/><path class="cls-1" d="M27,0A27,27,0,1,0,54,27,27,27,0,0,0,27,0Zm4.71,10a1.24,1.24,0,1,1,2.48,0v4.1a1.24,1.24,0,1,1-2.48,0Zm-12.2,0A1.24,1.24,0,1,1,22,10v4.1a1.24,1.24,0,1,1-2.48,0ZM15,42.44a3.13,3.13,0,0,1-3.13-3.13V14.8A3.13,3.13,0,0,1,15,11.67h3.28v2.41a2.51,2.51,0,1,0,5,0V11.67h7.19v2.41a2.51,2.51,0,1,0,5,0V11.67h3.46A3.13,3.13,0,0,1,42,14.8V33.73A7.64,7.64,0,0,0,41,33V18H12.89V39.3A2.07,2.07,0,0,0,15,41.37H29.84a7.54,7.54,0,0,0,.33,1.07ZM37.52,25.16H32.88a.57.57,0,0,1-.57-.57V20.86a.57.57,0,0,1,.57-.57h4.65a.57.57,0,0,1,.57.57v3.73A.57.57,0,0,1,37.52,25.16Zm.57,2.64v3.73a.57.57,0,0,1-.57.57H32.88a.57.57,0,0,1-.57-.57V27.8a.57.57,0,0,1,.57-.57h4.65A.57.57,0,0,1,38.09,27.8Zm-8.83,4.3H24.61a.57.57,0,0,1-.57-.57V27.8a.57.57,0,0,1,.57-.57h4.65a.57.57,0,0,1,.57.57v3.73A.57.57,0,0,1,29.26,32.11Zm.57,2.64v3.73a.57.57,0,0,1-.57.57H24.61a.57.57,0,0,1-.57-.57V34.75a.57.57,0,0,1,.57-.57h4.65A.57.57,0,0,1,29.83,34.75ZM21,32.11H16.35a.57.57,0,0,1-.57-.57V27.8a.57.57,0,0,1,.57-.57H21a.57.57,0,0,1,.57.57v3.73A.57.57,0,0,1,21,32.11Zm.57,2.64v3.73a.57.57,0,0,1-.57.57H16.35a.57.57,0,0,1-.57-.57V34.75a.57.57,0,0,1,.57-.57H21A.57.57,0,0,1,21.57,34.75ZM37.25,46a6.35,6.35,0,1,1,6.35-6.35A6.35,6.35,0,0,1,37.25,46Zm-8-20.82H24.61a.57.57,0,0,1-.57-.57V20.86a.57.57,0,0,1,.57-.57h4.65a.57.57,0,0,1,.57.57v3.73A.57.57,0,0,1,29.26,25.16Zm-8.26,0H16.35a.57.57,0,0,1-.57-.57V20.86a.57.57,0,0,1,.57-.57H21a.57.57,0,0,1,.57.57v3.73A.57.57,0,0,1,21,25.16Z"/></svg>