<svg id="Layer_1" data-name="Layer 1" xmlns="http://www.w3.org/2000/svg" viewBox="0 0 54 54"><defs><style>.cls-1{fill:#414042;}</style></defs><title>Capacity</title><path class="cls-1" d="M22.16,22.16a6.84,6.84,0,1,0,9.67,0A6.85,6.85,0,0,0,22.16,22.16Zm8,8a4.44,4.44,0,1,1,0-6.27A4.44,4.44,0,0,1,30.14,30.14Z"/><path class="cls-1" d="M27,0A27,27,0,1,0,54,27,27,27,0,0,0,27,0Zm7.22,27.84h0l6.6,6.6L43,32.22c.86-.86.85.43.85.43s.15,9.5.15,10.51a.68.68,0,0,1-.76.68L32.81,44s-1.26,0-.55-.67l2.41-2.41-1-1L28,34.2a7.33,7.33,0,0,1-1.81,0h0l-6.6,6.6L21.78,43c.86.86-.43.85-.43.85s-9.5.15-10.51.15a.68.68,0,0,1-.68-.76L10,32.81s0-1.26.67-.55l2.41,2.41,1-1L19.8,28a7.31,7.31,0,0,1,0-1.94l-5.65-5.65-1-1-2.41,2.41c-.71.71-.67-.55-.67-.55l.14-10.48a.68.68,0,0,1,.68-.76c1,0,10.51.15,10.51.15s1.29,0,.43.85l-2.22,2.22,6.6,6.6h0a7.33,7.33,0,0,1,1.81,0l5.65-5.65,1-1-2.41-2.41c-.71-.71.55-.67.55-.67l10.48.14a.68.68,0,0,1,.76.68c0,1-.15,10.51-.15,10.51s0,1.29-.85.43l-2.22-2.22-6.6,6.6h0A7.29,7.29,0,0,1,34.22,27.84Z"/></svg>