<svg id="Layer_1" data-name="Layer 1" xmlns="http://www.w3.org/2000/svg" viewBox="0 0 54 54"><defs><style>.cls-1{fill:#414042;}</style></defs><title>Capabilities</title><circle class="cls-1" cx="16" cy="26.23" r="3.62"/><circle class="cls-1" cx="34.78" cy="17.51" r="3.62" transform="translate(-1.7 3.89) rotate(-6.25)"/><circle class="cls-1" cx="32.82" cy="38.29" r="3.62" transform="translate(-3.97 3.8) rotate(-6.24)"/><path class="cls-1" d="M27,0A27,27,0,1,0,54,27,27,27,0,0,0,27,0ZM21.56,33.75c.22,1,.15,1-.44,1.36s-.69.32-1.41-.33l-1.29-1.09a7.74,7.74,0,0,1-.78.21l-.57,1.62c-.3,1-.38,1-1.06,1s-.76-.07-1.06-1l-.57-1.59a7.76,7.76,0,0,1-.78-.21L12.28,34.8c-.74.68-.8.64-1.39.3s-.62-.44-.42-1.39l.3-1.67a7.91,7.91,0,0,1-.57-.57l-1.7.31c-1,.22-1,.15-1.35-.44s-.32-.69.33-1.41l1.09-1.29a7.75,7.75,0,0,1-.21-.78l-1.62-.58c-1-.3-1-.38-1-1.06s.07-.76,1-1.06l1.59-.57a7.62,7.62,0,0,1,.21-.78L7.43,22.51c-.68-.74-.64-.8-.3-1.39s.44-.62,1.39-.42l1.67.3a7.91,7.91,0,0,1,.57-.57l-.31-1.7c-.22-1-.15-1,.44-1.35s.69-.32,1.41.33l1.29,1.09a7.76,7.76,0,0,1,.78-.21l.58-1.62c.3-1,.38-1,1.06-1s.76.07,1.06,1l.57,1.59a7.76,7.76,0,0,1,.78.21l1.31-1.12c.74-.68.8-.64,1.39-.3s.62.44.42,1.39l-.3,1.67a7.91,7.91,0,0,1,.57.57l1.7-.31c1-.22,1-.15,1.35.44s.32.69-.33,1.41l-1.09,1.29a7.76,7.76,0,0,1,.21.78l1.62.58c1,.3,1,.38,1,1.06s-.07.76-1,1.06l-1.59.57a7.88,7.88,0,0,1-.21.78L24.57,30c.68.74.64.8.3,1.39s-.44.62-1.39.42l-1.67-.3a7.9,7.9,0,0,1-.57.57Zm20.57,4.59-1.51.74a7.63,7.63,0,0,1-.12.8l1.25,1.18c.75.66.72.73.45,1.35s-.37.67-1.33.57l-1.69-.11a7.79,7.79,0,0,1-.5.62l.5,1.66c.32.95.26,1-.29,1.39s-.65.39-1.44-.17L36,45.43a7.76,7.76,0,0,1-.75.29l-.4,1.67c-.19,1-.27,1-.95,1.06s-.76,0-1.16-.87L32,46.08a7.76,7.76,0,0,1-.8-.12L30,47.21c-.66.75-.73.72-1.35.45s-.67-.37-.57-1.33l.11-1.69a7.85,7.85,0,0,1-.62-.5l-1.66.5c-.95.32-1,.26-1.39-.29s-.4-.65.17-1.44l.94-1.4a7.67,7.67,0,0,1-.29-.75l-1.67-.4c-1-.19-1-.27-1.06-.95s0-.76.87-1.16L25,37.5a7.76,7.76,0,0,1,.12-.8L23.9,35.52c-.75-.66-.72-.73-.45-1.35s.37-.67,1.33-.57l1.69.11a7.79,7.79,0,0,1,.5-.62l-.5-1.66c-.32-.95-.26-1,.29-1.39s.65-.39,1.44.17l1.4.94a7.74,7.74,0,0,1,.75-.29l.4-1.67c.19-1,.27-1,.95-1.06s.76,0,1.16.87l.74,1.51a7.75,7.75,0,0,1,.8.12l1.18-1.25c.66-.75.73-.72,1.35-.45s.67.37.57,1.33l-.11,1.69a8,8,0,0,1,.62.5l1.66-.5c.95-.32,1-.26,1.4.29s.4.65-.17,1.44L40,35.07a7.67,7.67,0,0,1,.29.75l1.67.4c1,.19,1,.27,1.06.95S43,37.94,42.13,38.33Zm2-20.78-1.51.74a7.76,7.76,0,0,1-.12.8l1.25,1.18c.75.66.72.73.45,1.35s-.37.67-1.33.57l-1.69-.11a7.78,7.78,0,0,1-.5.62l.5,1.66c.32.95.26,1-.29,1.4s-.65.39-1.44-.17L38,24.65a7.68,7.68,0,0,1-.75.29l-.4,1.67c-.19,1-.27,1-.95,1.06s-.76,0-1.16-.87L34,25.3a7.78,7.78,0,0,1-.8-.12L32,26.43c-.66.75-.73.72-1.35.45s-.67-.37-.57-1.33l.11-1.69a8,8,0,0,1-.62-.5l-1.66.5c-.95.32-1,.26-1.4-.29s-.39-.65.17-1.44l.94-1.4a7.93,7.93,0,0,1-.29-.75l-1.67-.4c-1-.19-1-.27-1.06-.95s0-.76.87-1.16L27,16.72a7.89,7.89,0,0,1,.12-.8l-1.25-1.18c-.75-.66-.72-.73-.45-1.35s.37-.67,1.33-.57l1.69.11a7.8,7.8,0,0,1,.5-.62l-.5-1.66c-.32-.95-.26-1,.29-1.39s.65-.39,1.44.17l1.4.94a7.76,7.76,0,0,1,.75-.29l.4-1.67c.19-1,.27-1,.95-1.06s.76,0,1.16.87l.74,1.51a7.78,7.78,0,0,1,.8.12l1.18-1.25c.66-.75.73-.72,1.35-.45s.67.37.57,1.33l-.11,1.69a7.92,7.92,0,0,1,.62.5l1.66-.5c.95-.32,1-.26,1.4.29s.39.65-.17,1.44l-.94,1.4a7.91,7.91,0,0,1,.29.75l1.67.4c1,.19,1,.27,1.06.95S45,17.15,44.09,17.55Z"/></svg>