<svg id="Layer_1" data-name="Layer 1" xmlns="http://www.w3.org/2000/svg" viewBox="0 0 54 54"><defs><style>.cls-1{fill:#414042;}</style></defs><title>Checklist</title><path class="cls-1" d="M27.06,7.22a.95.95,0,1,0-.95-.94.95.95,0,0,0,.95.94"/><path class="cls-1" d="M41,10.58v35H13v-37h4.59v2H15V43.52H39V10.58H36.52v-2H41ZM17.82,37.53l.5-.55a.15.15,0,0,1,.2,0l.66.61,1.61-2a.15.15,0,0,1,.2,0l.61.5c.1,0,.1.15.05.15L19.38,39a.15.15,0,0,1-.2,0l-1.36-1.26a.15.15,0,0,1,0-.2m0-5.29.5-.55a.15.15,0,0,1,.2,0l.66.6,1.61-2a.15.15,0,0,1,.2,0l.61.5c.1.05.1.15.05.15L19.38,33.7a.15.15,0,0,1-.2,0l-1.36-1.26a.15.15,0,0,1,0-.2m0-5.24.5-.55a.15.15,0,0,1,.2,0l.66.6,1.61-2a.15.15,0,0,1,.2,0l.61.5c.1.05.1.15.05.15l-2.27,2.77a.15.15,0,0,1-.2,0L17.82,27.2a.15.15,0,0,1,0-.2m0-5.29.5-.55a.15.15,0,0,1,.2,0l.66.6,1.61-2a.15.15,0,0,1,.2,0l.61.5c.1,0,.1.15.05.15l-2.27,2.77a.15.15,0,0,1-.2,0l-1.36-1.26a.15.15,0,0,1,0-.2m0-5.29.5-.55a.15.15,0,0,1,.2,0l.66.6,1.61-2a.15.15,0,0,1,.2,0l.61.5c.1.05.1.15.05.15l-2.27,2.77a.15.15,0,0,1-.2,0l-1.36-1.26a.15.15,0,0,1,0-.2m1.27-8.66c0-.81.61-1.21,1.66-1.21h2.78a2.52,2.52,0,0,0,1.41-.71,3.46,3.46,0,0,0,.4-.37,2.77,2.77,0,0,1,1.37-1,2.84,2.84,0,0,1,.69,0,2.77,2.77,0,0,1,1.37,1,3.46,3.46,0,0,0,.4.37,2.52,2.52,0,0,0,1.41.71h2.78C34.42,6.55,35,7,35,7.76v3.48H19.08ZM22.51,16H36.24v2H22.51Zm0,5.29H36.24v2H22.51Zm0,5.29H36.24v2H22.51ZM36.24,39.09H22.51v-2H36.24ZM22.51,31.77H36.24v2H22.51ZM27,0A27,27,0,1,0,54,27,27,27,0,0,0,27,0"/></svg>