<?xml version="1.0" encoding="UTF-8" standalone="no"?>
<svg
   id="Layer_1"
   data-name="Layer 1"
   viewBox="0 0 100 100"
   version="1.1"
   sodipodi:docname="EXP___CloudNetworkBridge.svg"
   inkscape:version="1.1.1 (3bf5ae0d25, 2021-09-20)"
   xmlns:inkscape="http://www.inkscape.org/namespaces/inkscape"
   xmlns:sodipodi="http://sodipodi.sourceforge.net/DTD/sodipodi-0.dtd"
   xmlns="http://www.w3.org/2000/svg"
   xmlns:svg="http://www.w3.org/2000/svg">
  <sodipodi:namedview
     id="namedview2758"
     pagecolor="#ffffff"
     bordercolor="#666666"
     borderopacity="1.0"
     inkscape:pageshadow="2"
     inkscape:pageopacity="0.0"
     inkscape:pagecheckerboard="0"
     showgrid="false"
     inkscape:zoom="8.73"
     inkscape:cx="50"
     inkscape:cy="50"
     inkscape:window-width="3840"
     inkscape:window-height="2089"
     inkscape:window-x="3432"
     inkscape:window-y="-8"
     inkscape:window-maximized="1"
     inkscape:current-layer="Layer_1" />
  <defs
     id="defs2713">
    <style
       id="style2711">.cls-1{font-size:40.61px;font-family:FontAwesome6Pro-Light, &quot;Font Awesome 6 Pro&quot;;font-weight:300;}.cls-2{fill:#f12800;}.cls-3{fill:#fff;}</style>
  </defs>
  <text
     class="cls-1"
     transform="translate(24.39 49.8)"
     id="text2751"></text>
  <path
     class="cls-2"
     d="M80.4,54.23a3.5,3.5,0,0,1-3.46-3l-1.39-.83a5,5,0,0,1-7.29-2.24H67.2a3.51,3.51,0,1,1,0-4h1.06a5.14,5.14,0,0,1,.67-1.1l-.49-1.05a3.51,3.51,0,1,1,4.42-3.39,3.45,3.45,0,0,1-.34,1.48l.49,1a5.06,5.06,0,0,1,2.61.82l1.29-1c0-.13,0-.25,0-.37a3.51,3.51,0,1,1,3.51,3.51,3.56,3.56,0,0,1-.86-.11l-1.73,1.3a4.39,4.39,0,0,1,.07.82c0,.13,0,.25,0,.38l1.39.84a3.42,3.42,0,0,1,1.14-.2,3.51,3.51,0,0,1,0,7Z"
     id="path2753" />
  <path
     class="cls-3"
     d="M69.34,36.65A2,2,0,0,1,70.82,40l1.28,2.75a3.16,3.16,0,0,1,.76-.09,3.51,3.51,0,0,1,3.52,3.51,3.42,3.42,0,0,1-.2,1.12l3,1.81a2,2,0,1,1-.81,1.6c0-.1,0-.21,0-.31l-3-1.8a3.49,3.49,0,0,1-2.55,1.11,3.51,3.51,0,0,1-2.13-6.3l-1.28-2.76h-.11a2,2,0,1,1,0-4m3.52,11.06a1.51,1.51,0,1,0-1.5-1.51,1.51,1.51,0,0,0,1.5,1.51m7.54-9.05a2,2,0,1,1-2,2,2,2,0,0,1,2-2m-2.56,3.55.6.81-1.5,1.13-.61-.81,1.51-1.13m-13.52,2a2,2,0,1,1-2,2,2,2,0,0,1,2-2m4.27,1.51v1H67.08v-1h1.51m.75-12.05a5,5,0,0,0-4.29,7.59,5.84,5.84,0,0,0-.73-.05A5,5,0,1,0,67.57,50a6.52,6.52,0,0,0,5.29,2.72,6.41,6.41,0,0,0,2.63-.57l.14.08a5,5,0,1,0,4.77-6.52,4,4,0,0,0-.6,0l.13-.09.47,0a5,5,0,1,0-5-5.48,6.43,6.43,0,0,0-1.2-.38,5,5,0,0,0-4.88-6.17Z"
     id="path2755" />
</svg>
