<svg id="Layer_1" data-name="Layer 1" xmlns="http://www.w3.org/2000/svg" viewBox="0 0 54 54"><defs><style>.cls-1{fill:#414042;}</style></defs><title>Collaberation</title><path class="cls-1" d="M44.48,18.55c-2.39-1.16-4.45-1.47-6.09-.89A6.63,6.63,0,0,0,35,21.36a2.67,2.67,0,0,0,.1.5,2.8,2.8,0,0,1,0,2,8.12,8.12,0,0,1-1.75,2.2,7.24,7.24,0,0,0-.66.69,4.66,4.66,0,0,0,.47.32,4.4,4.4,0,0,1,.76.55c.45.44.39,1.28.26,2.26,0,.12,0,.22,0,.28-.05.86.1,1.12.26,1.26a2.46,2.46,0,0,0,1.74.52h0a3.55,3.55,0,0,0,.66-.13,4.5,4.5,0,0,1,1-.18,1.47,1.47,0,0,1,.35,0,1.18,1.18,0,0,1,.79.64c.4.82,0,2.31-.39,3.41,1-.23,2.31-.52,3-.58.21,0,.49,0,.88,0,.6,0,1.31,0,1.86,0-.16-.48-.34-.94-.51-1.37-.46-1.16-.8-2-.4-2.61a9.4,9.4,0,0,1,1.83-1.87c1.85-1.59,4-3.39,2.86-7A6.37,6.37,0,0,0,44.48,18.55Z"/><path class="cls-1" d="M27,0A27,27,0,1,0,54,27,27,27,0,0,0,27,0ZM37.62,12.93a.71.71,0,1,1,.09,1A.71.71,0,0,1,37.62,12.93ZM35,11.25a.71.71,0,1,1,.26,1A.71.71,0,0,1,35,11.25Zm-2.86-1.2a.71.71,0,1,1,.42.91A.71.71,0,0,1,32.15,10.06ZM20.42,9.63a.71.71,0,1,1-.42.91A.71.71,0,0,1,20.42,9.63ZM17.5,11a.71.71,0,1,1-.26,1A.71.71,0,0,1,17.5,11Zm-2.64,1.85a.71.71,0,1,1-.09,1A.71.71,0,0,1,14.86,12.84ZM13.58,39a.71.71,0,1,1,.09-1A.71.71,0,0,1,13.58,39Zm2.28,2.1a.71.71,0,1,1-.09-1A.71.71,0,0,1,15.86,41.07Zm2.61,1.68a.71.71,0,1,1-.26-1A.71.71,0,0,1,18.46,42.75Zm2.86,1.2A.71.71,0,1,1,20.9,43,.71.71,0,0,1,21.32,43.94ZM20.7,28.18c-.35.33-.07,1.79,0,2.16.06,1-.12,1.52-.49,1.86a3.26,3.26,0,0,1-2.25.72c-.53,0-1.52-.42-2-.3-1.39.34.52,4.57.52,4.57s-3.18-.79-4.27-.9c-.92-.09-3.7.06-3.7.06.47-2,1.69-3.91,1.29-4.54-1.42-2.23-6.77-4.1-5-9.89a7.3,7.3,0,0,1,4.12-4.39c2.69-1.31,5-1.64,6.92-1,1.67.59,3.77,3,4,4.41.08.55-.58,1.63-.15,2.47.79,1.53,1.93,2.19,2.54,3S21.3,27.6,20.7,28.18Zm2.83,17a.71.71,0,1,1,.82-.57A.71.71,0,0,1,23.53,45.2Zm.25-35a.71.71,0,1,1,.57-.82A.71.71,0,0,1,23.77,10.19Zm3,35.29a.71.71,0,1,1,.71-.71A.71.71,0,0,1,26.74,45.48Zm0-35.55a.71.71,0,1,1,.71-.71A.71.71,0,0,1,26.74,9.94ZM29.95,45.2a.71.71,0,1,1,.57-.82A.71.71,0,0,1,29.95,45.2Zm-.25-35a.71.71,0,1,1,.82-.57A.71.71,0,0,1,29.7,10.19Zm3.36,34.17a.71.71,0,1,1,.42-.91A.71.71,0,0,1,33.06,44.37ZM36,43a.71.71,0,1,1,.26-1A.71.71,0,0,1,36,43Zm2.64-1.85a.71.71,0,1,1,.09-1A.71.71,0,0,1,38.62,41.16Zm2.28-2.28a.71.71,0,1,1-.09-1A.71.71,0,0,1,40.89,38.88ZM46,30.3a9,9,0,0,0-1.57,1.56,6.27,6.27,0,0,0,.49,1.5,16.25,16.25,0,0,1,.8,2.37l.19.81-.83,0s-1.57-.08-2.67-.08c-.42,0-.65,0-.76,0-1,.09-3.94.83-4,.83l-1.26.31L37,36.4c.65-1.43,1.06-3.08.89-3.47h0a3.85,3.85,0,0,0-.74.14,3.91,3.91,0,0,1-3.55-.68,2.59,2.59,0,0,1-.67-2.27c0-.08,0-.21,0-.36A5.5,5.5,0,0,0,33,28.52a4.38,4.38,0,0,0-.5-.34c-.46-.29-1-.61-1.1-1.18a1.11,1.11,0,0,1,.23-.89,7.31,7.31,0,0,1,.85-.92A7,7,0,0,0,34,23.32a1.83,1.83,0,0,0-.07-1.15,2.55,2.55,0,0,1-.13-1c.24-1.61,2.44-4.07,4.2-4.69,2-.7,4.35-.38,7.06.94A7.57,7.57,0,0,1,49.28,22C50.61,26.37,48,28.64,46,30.3Z"/></svg>
