<svg id="Layer_1" data-name="Layer 1" xmlns="http://www.w3.org/2000/svg" viewBox="0 0 54 54"><defs><style>.cls-1{fill:#414042;}</style></defs><title>Colocation</title><rect class="cls-1" x="27.02" y="27.14" width="5.85" height="0.58"/><rect class="cls-1" x="27.02" y="26.36" width="5.85" height="0.58"/><circle class="cls-1" cx="26.37" cy="26.53" r="0.14"/><path class="cls-1" d="M33.54,22.65H20.46v2.29H33.54Zm-.43,2H20.89V22.9H33.11Z"/><path class="cls-1" d="M33.54,16.15H20.46v2.29H33.54Zm-.43,2H20.89V16.4H33.11Z"/><rect class="cls-1" x="26.15" y="26.94" width="0.43" height="0.25"/><path class="cls-1" d="M33.54,12.9H20.46v2.29H33.54Zm-.43,2H20.89V13.15H33.11Z"/><path class="cls-1" d="M33.54,19.4H20.46v2.29H33.54Zm-.43,2H20.89V19.65H33.11Z"/><circle class="cls-1" cx="25.87" cy="26.53" r="0.14"/><rect class="cls-1" x="26.15" y="27.43" width="0.43" height="0.25"/><rect class="cls-1" x="24.4" y="26.36" width="0.28" height="1.34"/><rect class="cls-1" x="22.76" y="26.36" width="0.28" height="1.34"/><rect class="cls-1" x="24.94" y="26.36" width="0.28" height="1.34"/><rect class="cls-1" x="23.85" y="26.36" width="0.28" height="1.34"/><path class="cls-1" d="M33.54,9.65H20.46v2.29H33.54Zm-.43,2H20.89V9.9H33.11Z"/><circle class="cls-1" cx="25.87" cy="27.57" r="0.14"/><circle class="cls-1" cx="25.87" cy="27.06" r="0.14"/><rect class="cls-1" x="23.31" y="26.36" width="0.28" height="1.34"/><rect class="cls-1" x="26.17" y="10.7" width="0.43" height="0.25"/><circle class="cls-1" cx="25.89" cy="11.34" r="0.14"/><circle class="cls-1" cx="25.89" cy="10.3" r="0.14"/><circle class="cls-1" cx="25.89" cy="10.83" r="0.14"/><rect class="cls-1" x="26.17" y="11.19" width="0.43" height="0.25"/><circle class="cls-1" cx="26.38" cy="10.3" r="0.14"/><rect class="cls-1" x="27.04" y="10.12" width="5.85" height="0.58"/><rect class="cls-1" x="21.15" y="10.12" width="0.28" height="1.34"/><rect class="cls-1" x="27.04" y="10.91" width="5.85" height="0.58"/><rect class="cls-1" x="22.24" y="10.12" width="0.28" height="1.34"/><rect class="cls-1" x="21.69" y="10.12" width="0.28" height="1.34"/><rect class="cls-1" x="24.96" y="10.12" width="0.28" height="1.34"/><rect class="cls-1" x="22.78" y="10.12" width="0.28" height="1.34"/><rect class="cls-1" x="23.33" y="10.12" width="0.28" height="1.34"/><rect class="cls-1" x="24.42" y="10.12" width="0.28" height="1.34"/><rect class="cls-1" x="23.87" y="10.12" width="0.28" height="1.34"/><rect class="cls-1" x="22.76" y="42.61" width="0.28" height="1.34"/><rect class="cls-1" x="24.94" y="42.61" width="0.28" height="1.34"/><circle class="cls-1" cx="25.87" cy="43.31" r="0.14"/><rect class="cls-1" x="23.85" y="42.61" width="0.28" height="1.34"/><rect class="cls-1" x="24.4" y="42.61" width="0.28" height="1.34"/><circle class="cls-1" cx="25.87" cy="43.82" r="0.14"/><circle class="cls-1" cx="26.37" cy="42.78" r="0.14"/><rect class="cls-1" x="26.15" y="43.18" width="0.43" height="0.25"/><rect class="cls-1" x="26.15" y="43.68" width="0.43" height="0.25"/><circle class="cls-1" cx="25.87" cy="42.78" r="0.14"/><path class="cls-1" d="M34.87,8.28H19.13V45.77H34.87Zm-.69,36.88H19.82V8.89H34.18Z"/><path class="cls-1" d="M27,0A27,27,0,1,0,54,27,27,27,0,0,0,27,0Zm9.57,47.29H17.43V6.71H36.57Z"/><rect class="cls-1" x="23.31" y="42.61" width="0.28" height="1.34"/><path class="cls-1" d="M33.54,42.14H20.46v2.29H33.54Zm-.43,2H20.89V42.39H33.11Z"/><rect class="cls-1" x="22.22" y="42.61" width="0.28" height="1.34"/><rect class="cls-1" x="21.67" y="42.61" width="0.28" height="1.34"/><rect class="cls-1" x="21.13" y="42.61" width="0.28" height="1.34"/><rect class="cls-1" x="21.13" y="26.36" width="0.28" height="1.34"/><path class="cls-1" d="M33.54,25.9H20.46v2.29H33.54Zm-.43,2H20.89V26.15H33.11Z"/><path class="cls-1" d="M33.54,29.15H20.46v2.29H33.54Zm-.43,2H20.89V29.4H33.11Z"/><path class="cls-1" d="M33.54,35.64H20.46v2.29H33.54Zm-.43,2H20.89V35.89H33.11Z"/><path class="cls-1" d="M33.54,38.89H20.46v2.29H33.54Zm-.43,2H20.89V39.14H33.11Z"/><rect class="cls-1" x="21.67" y="26.36" width="0.28" height="1.34"/><rect class="cls-1" x="22.22" y="26.36" width="0.28" height="1.34"/><path class="cls-1" d="M33.54,32.4H20.46v2.29H33.54Zm-.43,2H20.89V32.64H33.11Z"/><rect class="cls-1" x="27.02" y="43.39" width="5.85" height="0.58"/><rect class="cls-1" x="27.02" y="42.61" width="5.85" height="0.58"/></svg>