<svg id="Layer_1" data-name="Layer 1" xmlns="http://www.w3.org/2000/svg" viewBox="0 0 54 54"><defs><style>.cls-1{fill:#414042;}</style></defs><title>Compliance</title><path class="cls-1" d="M27,0A27,27,0,1,0,54,27,27,27,0,0,0,27,0Zm0,47.33A33.15,33.15,0,0,1,9.71,12.88S22.16,11.42,27,6.67c5.2,4.61,17.33,6.21,17.33,6.21a33.38,33.38,0,0,1,.4,5.08A33.22,33.22,0,0,1,27,47.33Z"/><polygon class="cls-1" points="24.64 28.1 20.75 23.92 17.86 26.61 24.39 33.61 24.48 33.71 37.89 21.21 35.16 18.29 24.64 28.1"/><path class="cls-1" d="M42,15.05c-3.36-.6-10.37-2.15-15-5.21-4.52,3.19-11.6,4.67-15.09,5.24-.09,1-.14,1.93-.14,2.87A30.68,30.68,0,0,0,27,44.47,30.68,30.68,0,0,0,42.19,18C42.19,17,42.14,16,42,15.05ZM27,42.12A28.85,28.85,0,0,1,13.81,18q0-.58,0-1.18c3.71-.7,9.12-2.07,13.24-4.57a46.35,46.35,0,0,0,13.09,4.51c0,.42,0,.83,0,1.23A28.85,28.85,0,0,1,27,42.12Z"/></svg>