<svg id="Layer_1" data-name="Layer 1" xmlns="http://www.w3.org/2000/svg" viewBox="0 0 54 54"><defs><style>.cls-1{fill:#414042;}</style></defs><title>Connection</title><path class="cls-1" d="M39.72,22.28v-.64A.24.24,0,0,1,40,21.4h2.29a.24.24,0,0,1,.24.24v.64a.24.24,0,0,1-.24.24H40a.24.24,0,0,1-.24-.24m0,10.15v-.64a.24.24,0,0,1,.24-.24h2.29a.24.24,0,0,1,.24.24v.64a.24.24,0,0,1-.24.24H40a.24.24,0,0,1-.24-.24m5.87-4.87A1.54,1.54,0,0,1,47,29.25v5.44a1.54,1.54,0,0,1-1.39,1.69H44.31v4.18a.72.72,0,0,1-.72.72H28.72a.72.72,0,0,1-.72-.72V33.76a.72.72,0,0,1,.72-.72H43.59a.72.72,0,0,1,.72.72v1.5h1.28c.1,0,.28-.22.28-.58V29.25c0-.35-.18-.57-.28-.57H44.31V30.4a.72.72,0,0,1-.72.72H28.72A.72.72,0,0,1,28,30.4V23.6a.72.72,0,0,1,.72-.72H43.59a.72.72,0,0,1,.72.72v1.48h1.28c.1,0,.28-.22.28-.58V19.07c0-.35-.18-.57-.28-.57H44.31v1.74a.72.72,0,0,1-.72.72H28.72a.72.72,0,0,1-.72-.72V13.45a.72.72,0,0,1,.72-.72H43.59a.72.72,0,0,1,.72.72v3.94h1.28A1.54,1.54,0,0,1,47,19.07v5.44a1.54,1.54,0,0,1-1.39,1.69H44.31v1.37ZM14.39,31.79v.64a.24.24,0,0,1-.24.24H11.85a.24.24,0,0,1-.24-.24v-.64a.24.24,0,0,1,.24-.24h2.29a.24.24,0,0,1,.24.24m0-10.15v.64a.24.24,0,0,1-.24.24H11.85a.24.24,0,0,1-.24-.24v-.64a.24.24,0,0,1,.24-.24h2.29a.24.24,0,0,1,.24.24m12.78-4.28H26.1v2.88a.72.72,0,0,1-.72.72H10.51a.72.72,0,0,1-.72-.72V18.5H8.41c-.1,0-.28.22-.28.57v5.44c0,.35.18.58.28.58H9.78V23.6a.72.72,0,0,1,.72-.72H25.38a.72.72,0,0,1,.72.72V26.4h1.07V27.6H26.1V30.4a.72.72,0,0,1-.72.72H10.51a.72.72,0,0,1-.72-.72V28.67H8.41c-.1,0-.28.22-.28.57v5.44c0,.35.18.58.28.58H9.78v-1.5a.72.72,0,0,1,.72-.72H25.38a.72.72,0,0,1,.72.72v2.88h1.07v1.21H26.1v2.71a.72.72,0,0,1-.72.72H10.51a.72.72,0,0,1-.72-.72V36.37H8.41A1.54,1.54,0,0,1,7,34.69V29.25a1.54,1.54,0,0,1,1.39-1.69H9.78V26.2H8.41A1.54,1.54,0,0,1,7,24.51V19.07a1.54,1.54,0,0,1,1.39-1.69H9.78V13.45a.72.72,0,0,1,.72-.72H25.38a.72.72,0,0,1,.72.72v2.7h1.07ZM27,0A27,27,0,1,0,54,27,27,27,0,0,0,27,0"/></svg>