<svg id="Layer_1" data-name="Layer 1" xmlns="http://www.w3.org/2000/svg" viewBox="0 0 54 54"><defs><style>.cls-1{fill:#414042;}</style></defs><title>Control</title><path class="cls-1" d="M27,0A27,27,0,1,0,54,27,27,27,0,0,0,27,0ZM18.58,41.25a.65.65,0,0,1-.65.65H15.34v1.94a.65.65,0,0,1-1.3,0V41.9H11.45a.65.65,0,0,1-.65-.65V33.48a.65.65,0,0,1,.65-.65H14V10.16a.65.65,0,0,1,1.3,0V32.83h2.59a.65.65,0,0,1,.65.65ZM30.89,30.89a.65.65,0,0,1-.65.65H27.65V43.84a.65.65,0,1,1-1.3,0V31.53H23.76a.65.65,0,0,1-.65-.65V23.11a.65.65,0,0,1,.65-.65h2.59V10.16a.65.65,0,1,1,1.3,0V22.47h2.59a.65.65,0,0,1,.65.65ZM43.19,20.52a.65.65,0,0,1-.65.65H40V43.84a.65.65,0,1,1-1.3,0V21.17H36.07a.65.65,0,0,1-.65-.65V12.75a.65.65,0,0,1,.65-.65h2.59V10.16a.65.65,0,1,1,1.3,0V12.1h2.59a.65.65,0,0,1,.65.65Z"/></svg>