<?xml version="1.0" encoding="UTF-8" standalone="no"?>
<svg
   id="Layer_1"
   data-name="Layer 1"
   viewBox="0 0 100 100"
   version="1.1"
   sodipodi:docname="EXP___ContinuousOptimization.svg"
   inkscape:version="1.1.1 (3bf5ae0d25, 2021-09-20)"
   xmlns:inkscape="http://www.inkscape.org/namespaces/inkscape"
   xmlns:sodipodi="http://sodipodi.sourceforge.net/DTD/sodipodi-0.dtd"
   xmlns="http://www.w3.org/2000/svg"
   xmlns:svg="http://www.w3.org/2000/svg">
  <sodipodi:namedview
     id="namedview559"
     pagecolor="#ffffff"
     bordercolor="#666666"
     borderopacity="1.0"
     inkscape:pageshadow="2"
     inkscape:pageopacity="0.0"
     inkscape:pagecheckerboard="0"
     showgrid="false"
     inkscape:zoom="8.73"
     inkscape:cx="50"
     inkscape:cy="50"
     inkscape:window-width="3840"
     inkscape:window-height="2089"
     inkscape:window-x="3432"
     inkscape:window-y="-8"
     inkscape:window-maximized="1"
     inkscape:current-layer="Layer_1" />
  <defs
     id="defs544">
    <style
       id="style542">.cls-1{font-size:40.61px;font-family:FontAwesome6Pro-Light, &quot;Font Awesome 6 Pro&quot;;}.cls-1,.cls-2{font-weight:300;}.cls-2{font-size:10px;font-family:Inter-Light, Inter;}.cls-3{fill:#fff;}.cls-4{fill:#f20505;}</style>
  </defs>
  <text
     class="cls-1"
     transform="translate(24.35 49.61)"
     id="text546"></text>
  <circle
     class="cls-3"
     cx="73.28"
     cy="44.27"
     r="3.55"
     id="circle552" />
  <path
     class="cls-4"
     d="M70.41,55.75A15.12,15.12,0,0,1,68,55.52l-.19,0a2.74,2.74,0,0,1-2-2.57v-.85l-.63-.35-1,.53a2.87,2.87,0,0,1-1.2.27,2.7,2.7,0,0,1-1.88-.75L61,51.67a12.17,12.17,0,0,1-2.53-4.2,2.64,2.64,0,0,1,1.09-3.15l.11-.07.77-.42c0-.1,0-.2,0-.3s0-.2,0-.3l-.77-.42-.11-.07a2.64,2.64,0,0,1-1.09-3.15A12.08,12.08,0,0,1,61,35.39l.09-.09a2.71,2.71,0,0,1,1.88-.76,2.86,2.86,0,0,1,1.2.28l1,.53.63-.35v-.85a2.74,2.74,0,0,1,2-2.57l.19,0a14.72,14.72,0,0,1,2.46-.23,14.36,14.36,0,0,1,2.51.23l.19,0a2.69,2.69,0,0,1,2,2.57V35c.22.11.45.24.67.37l1-.53a2.71,2.71,0,0,1,3.08.48l.09.09a12.08,12.08,0,0,1,2.53,4.2,2.64,2.64,0,0,1-1.09,3.15l-.11.07-.8.44v.56l.8.44.11.07a2.64,2.64,0,0,1,1.09,3.15,12.08,12.08,0,0,1-2.53,4.2l-.09.09a2.76,2.76,0,0,1-3.08.48l-1-.53c-.22.13-.45.26-.67.37v.83a2.68,2.68,0,0,1-2,2.57l-.19,0A15.2,15.2,0,0,1,70.41,55.75Zm0-13.41a1.2,1.2,0,1,0,0,2.38,1.25,1.25,0,0,0,1.34-1.19A1.28,1.28,0,0,0,70.41,42.34Z"
     id="path554" />
  <path
     class="cls-3"
     d="M70.41,33.31a12.9,12.9,0,0,1,2.18.2.69.69,0,0,1,.5.64v2.16a7.93,7.93,0,0,1,2.54,1.39l2-1.08a.76.76,0,0,1,.33-.08.79.79,0,0,1,.5.2,10.12,10.12,0,0,1,2.13,3.56.62.62,0,0,1-.29.75l-2,1.08a7.6,7.6,0,0,1,0,2.8l2,1.07a.64.64,0,0,1,.29.76,10.12,10.12,0,0,1-2.13,3.56.84.84,0,0,1-.5.19.76.76,0,0,1-.33-.08l-2-1.07a8.13,8.13,0,0,1-2.54,1.39v2.16a.69.69,0,0,1-.5.64,13.39,13.39,0,0,1-2.18.2,12.58,12.58,0,0,1-2.12-.2.73.73,0,0,1-.55-.64V50.75a8.39,8.39,0,0,1-2.5-1.39l-2,1.07a.85.85,0,0,1-.34.08.75.75,0,0,1-.5-.19,10.12,10.12,0,0,1-2.13-3.56A.64.64,0,0,1,60.6,46l2-1.07a5.85,5.85,0,0,1,0-2.8l-2-1.08a.62.62,0,0,1-.29-.75,10.12,10.12,0,0,1,2.13-3.56.71.71,0,0,1,.5-.2.85.85,0,0,1,.34.08l2,1.08a8.18,8.18,0,0,1,2.5-1.39V34.15a.73.73,0,0,1,.55-.64,12.19,12.19,0,0,1,2.12-.2m0,13.41a3.19,3.19,0,1,0-3.34-3.19,3.25,3.25,0,0,0,3.34,3.19m0-17.41a16.25,16.25,0,0,0-2.79.26l-.39.08a4.77,4.77,0,0,0-3.24,3,4.7,4.7,0,0,0-4.31,1.19L59.5,34a14.14,14.14,0,0,0-2.94,4.86,4.62,4.62,0,0,0,.86,4.64,4.62,4.62,0,0,0-.86,4.64A14.14,14.14,0,0,0,59.5,53l.18.18a4.72,4.72,0,0,0,3.26,1.3A4.21,4.21,0,0,0,64,54.39a4.77,4.77,0,0,0,3.24,3l.39.08a16.94,16.94,0,0,0,2.79.26,17.13,17.13,0,0,0,2.84-.26l.39-.08a4.69,4.69,0,0,0,3.2-3,5.19,5.19,0,0,0,1.09.12,4.76,4.76,0,0,0,3.26-1.3l.18-.18a14.14,14.14,0,0,0,2.94-4.86,4.62,4.62,0,0,0-.86-4.64,4.62,4.62,0,0,0,.86-4.64A14.14,14.14,0,0,0,81.37,34l-.18-.18a4.77,4.77,0,0,0-3.26-1.31,5.17,5.17,0,0,0-1.09.13,4.69,4.69,0,0,0-3.2-3l-.39-.08a16.12,16.12,0,0,0-2.84-.26Z"
     id="path556" />
</svg>
