<svg id="Layer_1" data-name="Layer 1" xmlns="http://www.w3.org/2000/svg" viewBox="0 0 54 54"><defs><style>.cls-1{fill:#414042;}</style></defs><title>Data Center</title><rect class="cls-1" x="28.63" y="27.16" width="4.52" height="4.51"/><rect class="cls-1" x="20.91" y="19.68" width="4.51" height="4.52"/><polygon class="cls-1" points="20.91 27.16 20.91 31.68 25.43 31.68 25.43 27.16 25.43 27.16 20.91 27.16 20.91 27.16"/><rect class="cls-1" x="13.19" y="27.16" width="4.51" height="4.51"/><rect class="cls-1" x="13.19" y="19.68" width="4.51" height="4.51"/><rect class="cls-1" x="28.63" y="19.68" width="4.52" height="4.51"/><rect class="cls-1" x="36.3" y="19.68" width="4.51" height="4.51"/><path class="cls-1" d="M27,0A27,27,0,1,0,54,27,27,27,0,0,0,27,0ZM45.5,42.34H29.26v-6H24.73v6H8.49V15H21.62V11.66H32.38V15H45.51Z"/><rect class="cls-1" x="36.3" y="27.16" width="4.51" height="4.51"/></svg>
