<svg id="Layer_1" data-name="Layer 1" xmlns="http://www.w3.org/2000/svg" viewBox="0 0 54 54"><defs><style>.cls-1{fill:#414042;}</style></defs><title>Debt Free</title><path class="cls-1" d="M30.53,25.82a11,11,0,0,0-2.35-1.19,3.74,3.74,0,0,1-1.28-.73,1,1,0,0,1-.32-.67.9.9,0,0,1,.37-.7,1.44,1.44,0,0,1,1-.31,2.92,2.92,0,0,1,2,1l1.49-1.42a6.4,6.4,0,0,0-1.24-1,4.83,4.83,0,0,0-1.27-.47V18.51H27.45v1.76a3.21,3.21,0,0,0-2.15.87,2.61,2.61,0,0,0-.85,2,2.73,2.73,0,0,0,.32,1.3,3.32,3.32,0,0,0,1,1.09,14.78,14.78,0,0,0,2.49,1.32,3.4,3.4,0,0,1,1.22.8,1.47,1.47,0,0,1-.17,2,1.62,1.62,0,0,1-1.16.46,4,4,0,0,1-2.74-1.47L23.91,30a7.33,7.33,0,0,0,1.81,1.41,4.68,4.68,0,0,0,1.72.5v2H28.9v-2a4.15,4.15,0,0,0,1.65-.64,3.16,3.16,0,0,0,.94-1.15,3.49,3.49,0,0,0,.36-1.58,3.31,3.31,0,0,0-1.31-2.72"/><path class="cls-1" d="M45.21,28.5h-.12a14.22,14.22,0,0,1-6.9,9.42l-1.52,4.86a6.9,6.9,0,0,1-4.06.24l-.19-2.86a19.52,19.52,0,0,1-7.27.18L25,43a6.9,6.9,0,0,1-4.06-.24l-1.33-4.24a16.28,16.28,0,0,1-5.13-4h0c-4.56-3-6.56-2.66-6.56-2.66L6.47,26.18A7.51,7.51,0,0,0,12,22.32h0a13.63,13.63,0,0,1,3-5l.29-6.56,3.72,3.48a19.21,19.21,0,0,1,9.28-2.33c8.2,0,15,4.9,16.64,11.41l.25,0a2.61,2.61,0,0,1,0,5.19M27,0A27,27,0,1,0,54,27,27,27,0,0,0,27,0"/></svg>