<svg id="Layer_1" data-name="Layer 1" xmlns="http://www.w3.org/2000/svg" viewBox="0 0 54 54"><defs><style>.cls-1{fill:#414042;}</style></defs><title>Dedicated SAN</title><path class="cls-1" d="M22.09,17.5a17.74,17.74,0,0,0-6.22-1,17.74,17.74,0,0,0-6.22,1c-1.54.61-1.86,1.2-1.86,1.29s.32.68,1.86,1.29a17.74,17.74,0,0,0,6.22,1,17.74,17.74,0,0,0,6.22-1c1.54-.61,1.86-1.2,1.86-1.29S23.63,18.11,22.09,17.5Z"/><path class="cls-1" d="M27,0A27,27,0,1,0,54,27,27,27,0,0,0,27,0ZM25.59,35.27c0,2.14-4.35,3.87-9.72,3.87s-9.72-1.73-9.72-3.87V30.54c0,2.14,4.35,3.87,9.72,3.87s9.72-1.73,9.72-3.87Zm0-5.94c0,2.14-4.35,3.87-9.72,3.87s-9.72-1.73-9.72-3.87V24.6c0,2.14,4.35,3.87,9.72,3.87s9.72-1.73,9.72-3.87Zm0-5.8c0,2.14-4.35,3.87-9.72,3.87s-9.72-1.73-9.72-3.87V18.8h0c0-2.17,4.36-3.94,9.72-3.94s9.72,1.77,9.72,3.94ZM47.84,35.27c0,2.14-4.35,3.87-9.72,3.87s-9.72-1.73-9.72-3.87V30.54c0,2.14,4.35,3.87,9.72,3.87s9.72-1.73,9.72-3.87Zm0-5.94c0,2.14-4.35,3.87-9.72,3.87s-9.72-1.73-9.72-3.87V24.6c0,2.14,4.35,3.87,9.72,3.87s9.72-1.73,9.72-3.87ZM38.13,27.4c-5.37,0-9.72-1.73-9.72-3.87V18.8h0c0-2.17,4.36-3.94,9.72-3.94s9.72,1.77,9.72,3.94v4.73C47.84,25.66,43.49,27.4,38.13,27.4Z"/><path class="cls-1" d="M44.34,17.5a17.74,17.74,0,0,0-6.22-1,17.74,17.74,0,0,0-6.22,1c-1.54.61-1.86,1.2-1.86,1.29s.32.68,1.86,1.29a17.74,17.74,0,0,0,6.22,1,17.74,17.74,0,0,0,6.22-1c1.54-.61,1.86-1.2,1.86-1.29S45.88,18.11,44.34,17.5Z"/></svg>