<svg id="Layer_1" data-name="Layer 1" xmlns="http://www.w3.org/2000/svg" viewBox="0 0 54 54"><defs><style>.cls-1{fill:#414042;}</style></defs><title>Disaster Recovery</title><path class="cls-1" d="M26.7,20a8.79,8.79,0,1,0,8.82,8.77A8.79,8.79,0,0,0,26.7,20Zm1.79,13.82H25V30.5H21.69V27H25V23.71h3.49V27h3.31v3.5H28.47Z"/><path class="cls-1" d="M27,0A27,27,0,1,0,54,27,27,27,0,0,0,27,0ZM22.65,8.54l8,0a4.37,4.37,0,0,1,4.38,4.36v1.84H30.23v-.25a1.31,1.31,0,0,0-1.31-1.31H24.45a1.32,1.32,0,0,0-1.31,1.31v.23H18.29V12.92A4.37,4.37,0,0,1,22.65,8.54ZM41.74,41.4l-29.41.08a2.64,2.64,0,0,1-2.65-2.63L9.63,18.4a2.63,2.63,0,0,1,2.63-2.64l29.41-.09a2.64,2.64,0,0,1,2.64,2.63l.06,20.46A2.64,2.64,0,0,1,41.74,41.4Z"/></svg>