<svg id="Layer_1" data-name="Layer 1" xmlns="http://www.w3.org/2000/svg" viewBox="0 0 54 54"><defs><style>.cls-1{fill:#414042;}</style></defs><title>DNS</title><path class="cls-1" d="M27,0A27,27,0,1,0,54,27,27,27,0,0,0,27,0ZM44.88,23.35a11.65,11.65,0,0,0-3.32-.46,18.07,18.07,0,0,0-2.63.19,1.46,1.46,0,0,0-1.08-.65l0-.14a29.11,29.11,0,0,0-2.56-6.36,1.06,1.06,0,0,0,.09-.14l1,.24a20.45,20.45,0,0,1,7.32,3.51A18.35,18.35,0,0,1,44.88,23.35ZM23.24,15.72l.25-.06a28.44,28.44,0,0,1,4.19-.52,22.82,22.82,0,0,1,1.67,5,24.36,24.36,0,0,1,.52,4.93,1.42,1.42,0,0,0-1,1.44c-.7.36-1.39.73-2.06,1.13-.52.31-1,.63-1.53,1l-.17-.12a1.43,1.43,0,0,0-1.77.27l-.4-.17A21.06,21.06,0,0,1,20.16,27a1.43,1.43,0,0,0-.67-1.62l0,0a31.7,31.7,0,0,1,.89-4.06,36.53,36.53,0,0,1,1.6-4.4A1.89,1.89,0,0,0,23.24,15.72ZM23,14.6c.6-1.17,1.25-2.28,1.93-3.33l.16,0a14.23,14.23,0,0,1,1.77,2.42l.23.41a29.4,29.4,0,0,0-3.86.51l-.2,0Zm5.82.52a28.86,28.86,0,0,1,3.86.23,1.84,1.84,0,0,0,1.48,1,27.92,27.92,0,0,1,2.54,6.23l0,.19-.06.05a1.28,1.28,0,0,0-.33.76,33.35,33.35,0,0,0-5.12,1.77,1.45,1.45,0,0,0-.25-.19l-.07,0a25.4,25.4,0,0,0-.55-5.23A24.21,24.21,0,0,0,28.87,15.12Zm.87,12.61c0,.08,0,.17,0,.25-.07.59-.18,1.19-.3,1.78a1.42,1.42,0,0,0-.92.66,24.92,24.92,0,0,1-2.65-.69,1.41,1.41,0,0,0,0-.16c.51-.33,1-.66,1.56-1s1.32-.74,2-1.09a1.45,1.45,0,0,0,.24.17ZM19.31,21a33,33,0,0,0-.93,4.25,1.44,1.44,0,0,0-.27.11A15.94,15.94,0,0,1,16.8,24a13.46,13.46,0,0,1-2.27-3.73A1.78,1.78,0,0,0,14.7,20a1.68,1.68,0,0,0,.23-.87,22.33,22.33,0,0,1,5.54-2.69,1.08,1.08,0,0,0,.35.31A37.42,37.42,0,0,0,19.31,21Zm-.12,7a1.43,1.43,0,0,0,.32-.14,22,22,0,0,0,3,1.73l.5.23a1.43,1.43,0,0,0,.07.38A35,35,0,0,0,19.75,33a1.75,1.75,0,0,0-.37-.19A23.85,23.85,0,0,1,19.19,28Zm1.11,8a44.11,44.11,0,0,1,4.38,2.28,1.27,1.27,0,0,0,.18.91,22.4,22.4,0,0,1-2.13,2.18,19.47,19.47,0,0,1-2.56-5.19A1.73,1.73,0,0,0,20.3,35.93Zm.35-1a2.25,2.25,0,0,0-.2-1A33.77,33.77,0,0,1,23.77,31a1.43,1.43,0,0,0,1.64-.27,26,26,0,0,0,2.92.77,1.42,1.42,0,0,0,.42.7,20.54,20.54,0,0,1-2.45,5,1.48,1.48,0,0,0-1,.13A45.24,45.24,0,0,0,20.65,34.89Zm9.13-2.3a1.43,1.43,0,0,0,1.16-.68,24.39,24.39,0,0,0,6-.13,1.11,1.11,0,0,0,.8.83q0,.93-.15,1.87a1.51,1.51,0,0,0-.91.89,18.64,18.64,0,0,0-2.34,1.27A18.85,18.85,0,0,0,30,40.53h0c-.76-.61-1.61-1.23-2.5-1.83a1.29,1.29,0,0,0-.26-.93A21.61,21.61,0,0,0,29.78,32.58Zm7.31-1.93a23.16,23.16,0,0,1-6,.17,1.42,1.42,0,0,0-.62-.87c.13-.61.23-1.23.31-1.84,0-.12,0-.23,0-.35a1.41,1.41,0,0,0,.92-1.4,32.08,32.08,0,0,1,5-1.72,1.56,1.56,0,0,0,.14.16,1.51,1.51,0,0,0,.43.28,31.65,31.65,0,0,1,.5,4.73A1.87,1.87,0,0,0,37.09,30.65Zm-1-19.49a18.16,18.16,0,0,1,6.5,6.32A22.86,22.86,0,0,0,36.62,15c-.41-.11-.82-.21-1.24-.3a1.83,1.83,0,0,0-1.65-1.17,25.38,25.38,0,0,0-4.05-4.57A18.19,18.19,0,0,1,36.07,11.16ZM26,9.78c.25-.35.5-.7.76-1h1a24.11,24.11,0,0,1,5,5.26,1.1,1.1,0,0,0-.11.21,30.09,30.09,0,0,0-4.3-.2q-.24-.47-.5-.91A15,15,0,0,0,26,10.56,1.08,1.08,0,0,0,26,10.4.81.81,0,0,0,26,9.78Zm-.67-.95-.41.56-.13,0c-.21-.17-.42-.32-.63-.46Q24.74,8.89,25.33,8.83ZM13.66,14.55a18.22,18.22,0,0,1,8.79-5.22A5.57,5.57,0,0,1,24,10.2l0,0a.84.84,0,0,0,0,.54c-.69,1.08-1.35,2.22-2,3.42a1.91,1.91,0,0,0-1.64,1.14,23.56,23.56,0,0,0-6,2.86,1,1,0,0,0-.5-.09A12.72,12.72,0,0,1,13.66,14.55Zm-2.5,3.39a18.41,18.41,0,0,1,1.35-2,13.35,13.35,0,0,0,.37,2.79,1.77,1.77,0,0,0-.15.22,1.71,1.71,0,0,0-.22.71c-.38.32-.74.65-1.09,1a18.41,18.41,0,0,0-2.31,2.8A18.22,18.22,0,0,1,11.16,17.93ZM8.77,26.2a17.14,17.14,0,0,1,3.42-4.82c.25-.24.51-.47.77-.7l0,0a1,1,0,0,0,.56.11A14.66,14.66,0,0,0,16,24.72a17.1,17.1,0,0,0,1.44,1.46,1.43,1.43,0,0,0,.65,1.67h0a25,25,0,0,0,.18,4.93,1.61,1.61,0,0,0-.83.72l0,.1c-2.94-1-5.7-1.37-7.71-.8A18.31,18.31,0,0,1,8.77,26.2Zm5.82,14.18a18.17,18.17,0,0,1-4.51-6.55c1.77-.49,4.34-.07,7.13.87a2.26,2.26,0,0,0,.23.83,19.8,19.8,0,0,0-2.07,3.11A14.56,14.56,0,0,0,14.59,40.38Zm3.34,2.46a18.39,18.39,0,0,1-2.45-1.68,13,13,0,0,1,.86-2,18.46,18.46,0,0,1,1.84-2.8,1.6,1.6,0,0,0,1,.25,20.5,20.5,0,0,0,2.43,5,.72.72,0,0,0-.18.26.75.75,0,0,0,0,.51c-.59.45-1.2.9-1.86,1.32A18.49,18.49,0,0,1,17.93,42.84Zm2.89,1.33c.5-.34,1-.69,1.43-1h0a1.51,1.51,0,0,0,.56.09,22.34,22.34,0,0,0,1.69,1.86A18.1,18.1,0,0,1,20.82,44.17Zm8-2a7.82,7.82,0,0,0-1.06,3q-.76,0-1.52,0a22,22,0,0,1-2.57-2.64A.83.83,0,0,0,23.6,42a23.39,23.39,0,0,0,2.15-2.22,1.47,1.47,0,0,0,1.13-.15c.74.5,1.43,1,2.08,1.51a1,1,0,0,0-.14.88.9.9,0,0,0,.07.15Zm.06,3a7,7,0,0,1,.9-2.41l.05-.08a1.43,1.43,0,0,0,.47-.08,1.35,1.35,0,0,0,.21-.12l.57.53a14.09,14.09,0,0,1,1.29,1.44A18.34,18.34,0,0,1,28.91,45.15Zm6.62-2a18.41,18.41,0,0,1-2.09.93v0c-.33.12-.66.23-1,.34.33-.1.65-.23,1-.36a13.25,13.25,0,0,0-1.57-1.84c-.21-.21-.46-.43-.69-.64a.91.91,0,0,0,0-.4.88.88,0,0,0-.09-.17,17.63,17.63,0,0,1,5.73-4.46,1,1,0,0,0,.49.38,34.73,34.73,0,0,1-1.39,5.26Q35.72,42.66,35.54,43.13Zm7.3-7.06A18.16,18.16,0,0,1,37,42.25a35.84,35.84,0,0,0,1.41-5.59,1.54,1.54,0,0,0,.55-1,10,10,0,0,1,2.72-.48,6.38,6.38,0,0,1,1.55.15C43.12,35.57,43,35.82,42.84,36.07Zm.89-1.77a7.39,7.39,0,0,0-2-.23,11,11,0,0,0-2.95.5c.08-.74.13-1.48.16-2.22a1.93,1.93,0,0,0,.72-1.14,17.54,17.54,0,0,0,5.57-2.63A18.12,18.12,0,0,1,43.72,34.3Zm-4.26-4.17a1.07,1.07,0,0,0-.57-.47,32.81,32.81,0,0,0-.48-4.56,1.24,1.24,0,0,0,.73-.93A17,17,0,0,1,41.55,24a10,10,0,0,1,3.54.59,18.21,18.21,0,0,1,.16,2.56A16.07,16.07,0,0,1,39.47,30.13Z"/></svg>