<?xml version="1.0" encoding="UTF-8" standalone="no"?>
<svg
   id="Layer_1"
   data-name="Layer 1"
   viewBox="0 0 100 100"
   version="1.1"
   sodipodi:docname="EXP___EdgeCloud.svg"
   inkscape:version="1.1.1 (3bf5ae0d25, 2021-09-20)"
   xmlns:inkscape="http://www.inkscape.org/namespaces/inkscape"
   xmlns:sodipodi="http://sodipodi.sourceforge.net/DTD/sodipodi-0.dtd"
   xmlns="http://www.w3.org/2000/svg"
   xmlns:svg="http://www.w3.org/2000/svg">
  <sodipodi:namedview
     id="namedview3082"
     pagecolor="#ffffff"
     bordercolor="#666666"
     borderopacity="1.0"
     inkscape:pageshadow="2"
     inkscape:pageopacity="0.0"
     inkscape:pagecheckerboard="0"
     showgrid="false"
     inkscape:zoom="8.73"
     inkscape:cx="50"
     inkscape:cy="50"
     inkscape:window-width="3840"
     inkscape:window-height="2089"
     inkscape:window-x="3432"
     inkscape:window-y="-8"
     inkscape:window-maximized="1"
     inkscape:current-layer="Layer_1" />
  <defs
     id="defs3065">
    <style
       id="style3063">.cls-1{font-size:10px;font-family:Inter-Light, Inter;}.cls-1,.cls-2{font-weight:300;}.cls-2{font-size:40.61px;font-family:FontAwesome6Pro-Light, &quot;Font Awesome 6 Pro&quot;;}.cls-3{fill:#f20505;}.cls-4{fill:none;}.cls-5{fill:#fff;}</style>
  </defs>
  <text
     class="cls-2"
     transform="translate(75.04 24.22) rotate(180)"
     id="text3069"></text>
  <path
     class="cls-3"
     d="M68.38,56.08a9,9,0,1,1,9-9A9,9,0,0,1,68.38,56.08Z"
     id="path3071" />
  <path
     d="M68.38,39.22a7.87,7.87,0,1,1-7.87,7.87,7.86,7.86,0,0,1,7.87-7.87m0-2.25A10.12,10.12,0,1,0,78.49,47.09,10.13,10.13,0,0,0,68.38,37Z"
     id="path3073" />
  <circle
     class="cls-4"
     cx="68.31"
     cy="47.79"
     r="1.92"
     id="circle3075" />
  <path
     class="cls-4"
     d="M68.38,39.22a7.87,7.87,0,0,0-.76,15.7c-3.29-4.77-3.91-5.33-3.91-7.13a4.61,4.61,0,1,1,9.21,0c0,1.8-.63,2.36-3.92,7.13a7.86,7.86,0,0,0-.62-15.7Z"
     id="path3077" />
  <path
     class="cls-5"
     d="M68.31,43.18a4.6,4.6,0,0,0-4.6,4.61c0,1.8.62,2.36,3.91,7.13.25,0,.5,0,.76,0s.41,0,.62,0c3.29-4.77,3.92-5.33,3.92-7.13A4.61,4.61,0,0,0,68.31,43.18Zm0,6.52a1.92,1.92,0,1,1,1.92-1.91A1.92,1.92,0,0,1,68.31,49.7Z"
     id="path3079" />
</svg>
