<svg id="Layer_1" data-name="Layer 1" xmlns="http://www.w3.org/2000/svg" viewBox="0 0 54 54"><defs><style>.cls-1{fill:#414042;}.cls-2{fill:#fff;}</style></defs><title>Eliminate</title><circle class="cls-1" cx="27" cy="27" r="27"/><path class="cls-2" d="M27,6.31A20.69,20.69,0,1,0,47.69,27,20.72,20.72,0,0,0,27,6.31Zm0,36.78A16.09,16.09,0,1,1,43.09,27,16.11,16.11,0,0,1,27,43.09Z"/><polygon class="cls-2" points="31.6 19.14 27 23.74 22.4 19.14 19.14 22.4 23.74 27 19.14 31.6 22.4 34.86 27 30.26 31.6 34.86 34.86 31.6 30.26 27 34.86 22.4 31.6 19.14"/></svg>