<?xml version="1.0" encoding="UTF-8" standalone="no"?>
<svg
   id="Layer_1"
   data-name="Layer 1"
   viewBox="0 0 100 100"
   version="1.1"
   sodipodi:docname="EXP___EndpointSecurity.svg"
   inkscape:version="1.1.1 (3bf5ae0d25, 2021-09-20)"
   xmlns:inkscape="http://www.inkscape.org/namespaces/inkscape"
   xmlns:sodipodi="http://sodipodi.sourceforge.net/DTD/sodipodi-0.dtd"
   xmlns="http://www.w3.org/2000/svg"
   xmlns:svg="http://www.w3.org/2000/svg">
  <sodipodi:namedview
     id="namedview1237"
     pagecolor="#ffffff"
     bordercolor="#666666"
     borderopacity="1.0"
     inkscape:pageshadow="2"
     inkscape:pageopacity="0.0"
     inkscape:pagecheckerboard="0"
     showgrid="false"
     inkscape:zoom="8.73"
     inkscape:cx="50"
     inkscape:cy="50"
     inkscape:window-width="3840"
     inkscape:window-height="2089"
     inkscape:window-x="3432"
     inkscape:window-y="-8"
     inkscape:window-maximized="1"
     inkscape:current-layer="Layer_1" />
  <defs
     id="defs1216">
    <style
       id="style1214">.cls-1{font-size:10px;font-family:Inter-Light, Inter;}.cls-1,.cls-3{font-weight:300;}.cls-2{letter-spacing:-0.01em;}.cls-3{font-size:40.61px;font-family:FontAwesome5Pro-Light, &quot;Font Awesome 5 Pro&quot;;}.cls-4{fill:#f20505;}.cls-5{fill:#fff;}</style>
  </defs>
  <text
     class="cls-3"
     transform="translate(19.74 47.21)"
     id="text1226"></text>
  <path
     class="cls-4"
     d="M55.66,54.29V36.09h5.42L61,26.67l9.46.11,5.17-.06-.06,9.37H81v18.2Zm14.21-18.2,0-3.55-3.13,0,0,3.52Z"
     id="path1228" />
  <path
     class="cls-5"
     d="M61.78,27.43l8.69.1,4.42-.05,0,9.36h5.42v16.7H56.41V36.84h5.43l-.06-9.41m4.28,9.41h4.55l0-5.06-4.65,0,0,5M60.27,25.91v1.53l0,7.9H54.91V55H81.76V35.34H76.34l0-7.85V26l-1.52,0L70.45,26l-8.65-.1-1.53,0Zm7.26,7.4h1.62l0,2H67.54v-2Z"
     id="path1230" />
  <path
     class="cls-5"
     d="M70.12,42.74a2.52,2.52,0,1,1-3.56,0A2.52,2.52,0,0,1,70.12,42.74Z"
     id="path1232" />
  <rect
     class="cls-5"
     x="67.13"
     y="33.21"
     width="3.14"
     height="2.97"
     id="rect1234" />
</svg>
