<svg id="Layer_1" data-name="Layer 1" xmlns="http://www.w3.org/2000/svg" viewBox="0 0 54 54"><defs><style>.cls-1{fill:#414042;}</style></defs><title>Evermore</title><ellipse class="cls-1" cx="27" cy="30.95" rx="4.87" ry="1.94"/><ellipse class="cls-1" cx="40.06" cy="16.71" rx="4.87" ry="1.94"/><ellipse class="cls-1" cx="13.94" cy="16.71" rx="4.87" ry="1.94"/><path class="cls-1" d="M13.94,14.4c-3.34,0-6.06,1.08-6.06,2.4s2.72,2.4,6.06,2.4S20,18.13,20,16.8,17.29,14.4,13.94,14.4Zm0,4.56c-3.11,0-5.64-1-5.64-2.24s2.52-2.24,5.64-2.24,5.64,1,5.64,2.24S17.06,19,13.94,19Z"/><path class="cls-1" d="M27,28.63c-3.34,0-6.06,1.08-6.06,2.4s2.72,2.4,6.06,2.4,6.06-1.08,6.06-2.4S30.34,28.63,27,28.63Zm0,4.56c-3.11,0-5.64-1-5.64-2.24s2.52-2.24,5.64-2.24,5.64,1,5.64,2.24S30.11,33.2,27,33.2Z"/><path class="cls-1" d="M40.06,14.4c-3.34,0-6.06,1.08-6.06,2.4s2.72,2.4,6.06,2.4,6.06-1.08,6.06-2.4S43.4,14.4,40.06,14.4Zm0,4.56c-3.11,0-5.64-1-5.64-2.24s2.52-2.24,5.64-2.24,5.64,1,5.64,2.24S43.17,19,40.06,19Z"/><path class="cls-1" d="M27,0A27,27,0,1,0,54,27,27,27,0,0,0,27,0ZM23.29,21.37c0-.27.18-.23.18-.23h3.71V20c0-.35.3,0,.3,0L30,22.55a.24.24,0,0,1,0,.35l-2.63,2.56s-.32.32-.32-.1v-1.1H23.44s-.15,0-.15-.19ZM18.37,36.52l-2.22,1.53c-.23.16-.29,0-.29,0L14,35.41,13.75,35l-1,.68c-.29.2-.2-.23-.2-.23l.71-3.59a.24.24,0,0,1,.28-.22l3.6.71s.44.08.1.32l-.9.62.26.38,1.82,2.63S18.53,36.41,18.37,36.52Zm1.73-9.29c0,1.35-2.75,2.45-6.15,2.45s-6.15-1.1-6.15-2.45v-3c0,1.35,2.75,2.45,6.15,2.45s6.15-1.1,6.15-2.45Zm0-3.76c0,1.35-2.75,2.45-6.15,2.45s-6.15-1.1-6.15-2.45v-3c0,1.35,2.75,2.45,6.15,2.45s6.15-1.1,6.15-2.45Zm0-3.67c0,1.35-2.75,2.45-6.15,2.45s-6.15-1.1-6.15-2.45v-3h0c0-1.37,2.76-2.49,6.15-2.49s6.15,1.12,6.15,2.49ZM33.15,41.47c0,1.35-2.75,2.45-6.15,2.45s-6.15-1.1-6.15-2.45v-3c0,1.35,2.75,2.45,6.15,2.45s6.15-1.1,6.15-2.45Zm0-3.76c0,1.35-2.75,2.45-6.15,2.45s-6.15-1.1-6.15-2.45v-3c0,1.35,2.75,2.45,6.15,2.45s6.15-1.1,6.15-2.45Zm0-3.67c0,1.35-2.75,2.45-6.15,2.45s-6.15-1.1-6.15-2.45V31h0c0-1.37,2.76-2.49,6.15-2.49s6.15,1.12,6.15,2.49Zm7.7-1.33L39,35.34l-.26.38.9.62c.35.24-.1.32-.1.32l-3.6.71a.24.24,0,0,1-.28-.22L35,33.56s-.09-.43.2-.23l1,.68.29-.42L38.27,31s.06-.18.29,0l2.22,1.53C40.94,32.58,40.85,32.7,40.85,32.7Zm5.36-5.47c0,1.35-2.75,2.45-6.15,2.45s-6.15-1.1-6.15-2.45v-3c0,1.35,2.75,2.45,6.15,2.45s6.15-1.1,6.15-2.45Zm0-3.76c0,1.35-2.75,2.45-6.15,2.45s-6.15-1.1-6.15-2.45v-3c0,1.35,2.75,2.45,6.15,2.45s6.15-1.1,6.15-2.45Zm-6.15-1.22c-3.4,0-6.15-1.1-6.15-2.45v-3h0c0-1.37,2.76-2.49,6.15-2.49s6.15,1.12,6.15,2.49v3C46.21,21.15,43.45,22.24,40.06,22.24Z"/></svg>