<?xml version="1.0" encoding="UTF-8"?><svg id="Layer_1" xmlns="http://www.w3.org/2000/svg" viewBox="0 0 200 131.09"><defs><style>.cls-1{fill:none;}.cls-2{fill:#fff;}.cls-3{fill:#f20505;}</style></defs><g><path class="cls-1" d="M100.96,99.43v-4.61h24.46c-.01-.36-.05-.72-.05-1.09,0-7.22,2.1-13.95,5.66-19.67h-59.09s-15.43-15.44-15.43-15.44l3.26-3.26,14.09,14.09h60.55c2.02-2.35,4.32-4.44,6.86-6.23h-42.69v-21.83h4.61v17.22h47c3.91-1.4,8.11-2.2,12.5-2.2,3.85,0,7.57,.59,11.07,1.68,2.64-4.72,4.16-10.16,4.16-15.95,0-18.11-14.67-32.77-32.78-32.77H37.46c-15.51,0-28.09,12.58-28.09,28.09,0,10.77,6.06,20.13,14.98,24.84,3.92,2.34,5.85,6.61,4.65,11.12-.59,1.78-.91,3.92-.91,6.17,0,12.93,10.47,23.41,23.41,23.41,3.6,0,7-.82,10.04-2.25,4.1-1.96,9.04-.64,11.68,3.07,7.63,10.85,20.22,17.91,34.47,17.91,8.88,0,17.09-2.77,23.88-7.45-2.91-4.39-4.88-9.43-5.72-14.85h-24.89Z"/><path class="cls-3" d="M177.66,68.91c-2.83-1.71-5.96-2.97-9.32-3.64-1.83-.36-3.72-.56-5.66-.56-16.03,0-29.02,12.99-29.02,29.02,0,5.55,1.59,10.72,4.29,15.13,1.65,2.69,3.71,5.11,6.12,7.13,5.04,4.22,11.52,6.76,18.61,6.76,16.03,0,29.02-12.99,29.02-29.02,0-10.54-5.64-19.74-14.04-24.82Zm-35.31,24.82l6.83-6.91,1.2-1.21,2.61,2.66-5.41,5.5,5.41,5.5-2.61,2.66-4.47-4.57-3.56-3.64Zm13.83,3.19c-.32,.1-.64,.2-1,.2-1.88,0-3.39-1.51-3.39-3.39s1.51-3.39,3.39-3.39c1.06,0,1.96,.51,2.58,1.26,.48,.59,.81,1.31,.81,2.13,0,1.53-1.02,2.76-2.4,3.19Zm6.52,.2c-1.88,0-3.39-1.51-3.39-3.39s1.51-3.39,3.39-3.39,3.39,1.51,3.39,3.39-1.51,3.39-3.39,3.39Zm4.08-3.39c0-1.88,1.51-3.39,3.39-3.39s3.39,1.51,3.39,3.39-1.51,3.39-3.39,3.39-3.39-1.51-3.39-3.39Zm8.21,8.12l-2.61-2.66,5.41-5.5-5.41-5.5,2.61-2.66,8.02,8.21-8.02,8.12Z"/><g><polygon class="cls-2" points="174.99 85.52 172.38 88.18 177.79 93.68 172.38 99.19 174.99 101.85 183.01 93.73 174.99 85.52"/><path class="cls-2" d="M162.7,90.34c-1.88,0-3.39,1.51-3.39,3.39s1.51,3.39,3.39,3.39,3.39-1.51,3.39-3.39-1.51-3.39-3.39-3.39Z"/><path class="cls-2" d="M173.57,93.73c0-1.88-1.51-3.39-3.39-3.39s-3.39,1.51-3.39,3.39,1.51,3.39,3.39,3.39,3.39-1.51,3.39-3.39Z"/><path class="cls-2" d="M155.18,90.34c-1.88,0-3.39,1.51-3.39,3.39s1.51,3.39,3.39,3.39c.35,0,.68-.1,1-.2,1.38-.43,2.4-1.67,2.4-3.19,0-.82-.33-1.55-.81-2.13-.62-.75-1.53-1.26-2.58-1.26Z"/><polygon class="cls-2" points="152.98 88.27 150.37 85.61 149.17 86.82 142.35 93.73 145.9 97.37 150.37 101.94 152.98 99.28 147.57 93.78 152.98 88.27"/></g><path d="M182.27,62.03c3.18-5.93,5.01-12.69,5.01-19.89,0-23.26-18.86-42.14-42.14-42.14H37.46C16.77,0,0,16.77,0,37.46c0,14.37,8.11,26.86,19.99,33.12-.82,3.13-1.26,5.88-1.26,9.01,0,18.12,14.66,32.78,32.77,32.78,5.04,0,9.81-1.13,14.05-3.16,9.33,13.24,24.73,21.89,42.14,21.89,11.22,0,21.56-3.63,30.02-9.72,6.62,5.99,15.37,9.67,24.98,9.67,20.58,0,37.32-16.74,37.32-37.32,0-13.39-7.11-25.12-17.73-31.7Zm-19.59,60.72c-7.09,0-13.57-2.55-18.61-6.76-2.41-2.02-4.47-4.43-6.12-7.13-2.7-4.41-4.29-9.58-4.29-15.13,0-16.03,12.99-29.02,29.02-29.02,1.94,0,3.83,.2,5.66,.56,3.36,.66,6.49,1.93,9.32,3.64,8.4,5.08,14.04,14.28,14.04,24.82,0,16.03-12.99,29.02-29.02,29.02Zm-55-1.02c-14.25,0-26.83-7.06-34.47-17.91-2.63-3.71-7.58-5.03-11.68-3.07-3.04,1.43-6.43,2.25-10.04,2.25-12.93,0-23.41-10.48-23.41-23.41,0-2.25,.32-4.39,.91-6.17,1.2-4.51-.73-8.78-4.65-11.12-8.93-4.71-14.98-14.07-14.98-24.84,0-15.51,12.58-28.09,28.09-28.09h107.68c18.1,0,32.78,14.66,32.78,32.77,0,5.8-1.52,11.23-4.16,15.95-3.5-1.09-7.22-1.68-11.07-1.68-4.39,0-8.58,.8-12.5,2.2h-47v-17.22h-4.61v21.83h42.69c-2.54,1.79-4.84,3.88-6.86,6.23h-60.55l-14.09-14.09-3.26,3.26,15.43,15.43h0s59.09,0,59.09,0c-3.57,5.72-5.66,12.45-5.66,19.67,0,.37,.04,.72,.05,1.09h-24.46v4.61s24.89,0,24.89,0c.84,5.42,2.81,10.46,5.72,14.85-6.79,4.68-15,7.45-23.88,7.45Z"/></g><g><path class="cls-3" d="M57.24,36.67c-4.58,0-8.3,3.71-8.3,8.3,0,3.35,1.17,4.28,7.45,13.39,.41,.59,1.29,.59,1.71,0,6.28-9.11,7.45-10.04,7.45-13.39,0-4.59-3.72-8.3-8.3-8.3Zm0,11.76c-1.91,0-3.46-1.55-3.46-3.46s1.55-3.46,3.46-3.46,3.46,1.55,3.46,3.46-1.55,3.46-3.46,3.46Z"/><path class="cls-3" d="M101.75,43.98c6.28-9.1,7.45-10.04,7.45-13.39,0-4.58-3.72-8.3-8.3-8.3s-8.3,3.72-8.3,8.3c0,3.35,1.17,4.28,7.45,13.39,.41,.6,1.29,.6,1.71,0Zm-4.31-13.39c0-1.91,1.55-3.46,3.46-3.46s3.46,1.55,3.46,3.46-1.55,3.46-3.46,3.46-3.46-1.55-3.46-3.46Z"/><path class="cls-3" d="M100.96,77.29c-4.58,0-8.3,3.71-8.3,8.3,0,3.35,1.17,4.28,7.45,13.39,.41,.59,1.29,.59,1.71,0,6.28-9.11,7.45-10.04,7.45-13.39,0-4.59-3.72-8.3-8.3-8.3Zm0,11.76c-1.91,0-3.46-1.55-3.46-3.46s1.55-3.46,3.46-3.46,3.46,1.55,3.46,3.46-1.55,3.46-3.46,3.46Z"/></g></svg>