<svg id="Layer_1" data-name="Layer 1" xmlns="http://www.w3.org/2000/svg" viewBox="0 0 100 100"><defs><style>.cls-1{font-size:10px;font-family:Inter-Light, Inter;font-weight:300;}.cls-2{letter-spacing:0.02em;}.cls-3{fill:#f20505;}</style></defs><path d="M75.38,36.54v1.27a.64.64,0,0,1-.63.64H25.25a.64.64,0,0,1-.63-.64V36.54a.63.63,0,0,1,.63-.63h49.5A.63.63,0,0,1,75.38,36.54Zm-38.07-7H29.7v-12a.64.64,0,0,1,.63-.64h6.34a.64.64,0,0,1,.64.64ZM29.7,44.79h7.61V56.85a.64.64,0,0,1-.64.63H30.33a.63.63,0,0,1-.63-.63ZM47.46,29.56H42.39v-12a.64.64,0,0,1,.63-.64h3.81a.64.64,0,0,1,.63.64ZM42.39,44.79h5.07V56.85a.63.63,0,0,1-.63.63H43a.63.63,0,0,1-.63-.63ZM55.08,29.56H52.54v-12a.64.64,0,0,1,.63-.64h1.27a.64.64,0,0,1,.64.64ZM52.54,44.79h2.54V56.85a.64.64,0,0,1-.64.63H53.17a.63.63,0,0,1-.63-.63ZM62.69,29.56H57.61v-12a.64.64,0,0,1,.64-.64h3.81a.64.64,0,0,1,.63.64ZM57.61,44.79h5.08V56.85a.63.63,0,0,1-.63.63H58.25a.64.64,0,0,1-.64-.63ZM70.3,29.56H65.23v-12a.64.64,0,0,1,.63-.64h3.81a.64.64,0,0,1,.63.64ZM65.23,44.79H70.3V56.85a.63.63,0,0,1-.63.63H65.86a.63.63,0,0,1-.63-.63Z"/><text class="cls-1" transform="translate(25.05 79.93)">Enc<tspan class="cls-2" x="17.29" y="0">r</tspan><tspan x="21.03" y="0">yption</tspan></text><rect class="cls-3" x="24.62" y="35.91" width="50.76" height="2.54" rx="0.63"/></svg>