<svg id="Layer_1" data-name="Layer 1" xmlns="http://www.w3.org/2000/svg" viewBox="0 0 100 100"><defs><style>.cls-1{font-size:10px;font-family:Inter-Light, Inter;font-weight:300;}.cls-2{letter-spacing:-0.01em;}.cls-3{letter-spacing:-0.02em;}.cls-4{letter-spacing:-0.01em;}.cls-5{letter-spacing:-0.02em;}.cls-6{fill:#f20505;}</style></defs><text class="cls-1" transform="translate(30.36 67.54)">Me<tspan class="cls-2" x="14.61" y="0">t</tspan><tspan x="18.14" y="0">e</tspan><tspan class="cls-3" x="23.95" y="0">r</tspan><tspan x="27.34" y="0">ed</tspan><tspan class="cls-4" x="5.06" y="12">P</tspan><tspan class="cls-5" x="11.26" y="12">ow</tspan><tspan x="24.85" y="12">er</tspan></text><path d="M72.84,21.07v1.27h.64a1.9,1.9,0,0,1,1.9,1.9V35.66a1.91,1.91,0,0,1-1.9,1.91h-.64v1.27a3.8,3.8,0,0,1-3.8,3.8H28.43a3.8,3.8,0,0,1-3.81-3.8V21.07a3.81,3.81,0,0,1,3.81-3.81H69A3.81,3.81,0,0,1,72.84,21.07ZM28.43,19.8a1.27,1.27,0,0,0-1.27,1.27V38.84a1.27,1.27,0,0,0,1.27,1.26H69a1.26,1.26,0,0,0,1.26-1.26V35h2.54V24.88H70.3V21.07A1.26,1.26,0,0,0,69,19.8Z"/><rect class="cls-6" x="31.55" y="25.02" width="2.54" height="10.15" rx="0.48"/><rect class="cls-6" x="36.62" y="25.02" width="2.54" height="10.15" rx="0.48"/><rect class="cls-6" x="41.7" y="25.02" width="2.54" height="10.15" rx="0.48"/><rect class="cls-6" x="46.78" y="25.02" width="2.54" height="10.15" rx="0.48"/><rect class="cls-6" x="51.85" y="25.02" width="2.54" height="10.15" rx="0.48"/><rect class="cls-6" x="56.93" y="25.02" width="2.54" height="10.15" rx="0.48"/></svg>