<svg id="Layer_1" data-name="Layer 1" xmlns="http://www.w3.org/2000/svg" viewBox="0 0 100 100"><defs><style>.cls-1{fill:#f20505;}.cls-2{font-size:40.61px;font-family:FontAwesome5Pro-Light, "Font Awesome 5 Pro";font-weight:300;}.cls-3{font-size:10.99px;fill:#fff;font-family:Inter-Bold, Inter;font-weight:700;}.cls-4{letter-spacing:-0.09em;}</style></defs><rect class="cls-1" x="33.07" y="13.77" width="33.85" height="13.38"/><text class="cls-2" transform="translate(32.23 47.13)"></text><text class="cls-3" transform="translate(39.72 25.02)">2<tspan class="cls-4" x="6.92" y="0">F</tspan><tspan x="12.35" y="0">A</tspan></text><rect x="34.31" y="27.15" width="31.38" height="2.59"/><path d="M23.53,67.4h5.28V68H26.5v6.69h-.67V68h-2.3Z"/><path d="M29.1,69.22h.67l1.29,4.5h.05l1.29-4.5h.67l1.28,4.49h0l1.29-4.49h.67l-1.65,5.46h-.65l-1.3-4.48H32.7l-1.3,4.48h-.65Z"/><path d="M37.12,72c0-1.67,1-2.83,2.4-2.83S41.93,70.3,41.93,72a2.52,2.52,0,0,1-2.41,2.82C38.11,74.79,37.12,73.63,37.12,72Zm4.17,0c0-1.22-.63-2.25-1.77-2.25s-1.76,1-1.76,2.25.63,2.24,1.76,2.24S41.29,73.19,41.29,72Z"/><path d="M46.26,71.85h-3v-.59h3Z"/><path d="M48,67.4h4.22V68H48.64v2.74h3.22v.6H48.64v3.35H48Z"/><path d="M53.44,73.15c0-1.08.86-1.42,2.09-1.58.92-.11,1.43-.12,1.43-.53v-.13a1.14,1.14,0,0,0-1.28-1.2,1.53,1.53,0,0,0-1.49.87l-.6-.22a2.1,2.1,0,0,1,2.07-1.22A1.74,1.74,0,0,1,57.6,71v3.71H57v-.87h0a1.79,1.79,0,0,1-1.69,1A1.64,1.64,0,0,1,53.44,73.15ZM57,72.58v-.79a4,4,0,0,1-1.43.34c-.92.11-1.46.39-1.46,1.05s.53,1,1.25,1A1.58,1.58,0,0,0,57,72.58Z"/><path d="M59,72c0-1.64,1-2.83,2.4-2.83a2,2,0,0,1,2.09,1.7h-.64a1.41,1.41,0,0,0-1.44-1.12c-1,0-1.78.91-1.78,2.23s.71,2.26,1.78,2.26a1.41,1.41,0,0,0,1.45-1.13h.64a2,2,0,0,1-2.09,1.71C59.94,74.79,59,73.6,59,72Z"/><path d="M67,69.77H65.83v3.48c0,.69.39.89.82.89a1.09,1.09,0,0,0,.37,0l.14.57a1.43,1.43,0,0,1-.56.1,1.35,1.35,0,0,1-1.41-1.36V69.77h-.81v-.55h.81V67.91h.64v1.31H67Z"/><path d="M68.08,72c0-1.67,1-2.83,2.4-2.83S72.89,70.3,72.89,72a2.52,2.52,0,0,1-2.41,2.82C69.07,74.79,68.08,73.63,68.08,72Zm4.17,0c0-1.22-.63-2.25-1.77-2.25s-1.76,1-1.76,2.25.63,2.24,1.76,2.24S72.25,73.19,72.25,72Z"/><path d="M74.27,69.22h.61v.83h.05a1.57,1.57,0,0,1,1.49-.92h.34v.65a2.3,2.3,0,0,0-.38,0,1.39,1.39,0,0,0-1.48,1.4v3.53h-.63Z"/><path d="M16.23,86.68l2.65-7.28h.71l2.65,7.28h-.7l-.77-2.2H17.71l-.78,2.2Zm4.32-2.79-1.29-3.63h-.05l-1.29,3.63Z"/><path d="M26.82,81.22h.63v5.46h-.63v-.91h-.05a1.73,1.73,0,0,1-1.63,1,1.76,1.76,0,0,1-1.79-2V81.22H24v3.49a1.32,1.32,0,0,0,1.35,1.42,1.48,1.48,0,0,0,1.49-1.54Z"/><path d="M31.27,81.77H30.11v3.48c0,.69.4.89.83.89a1.18,1.18,0,0,0,.37,0l.13.57a1.43,1.43,0,0,1-.56.1,1.34,1.34,0,0,1-1.4-1.36V81.77h-.82v-.55h.82V79.91h.63v1.31h1.16Z"/><path d="M33.44,86.68h-.63V79.4h.63v2.67h.06a1.65,1.65,0,0,1,1.62-.93,1.78,1.78,0,0,1,1.86,2v3.54h-.63v-3.5A1.33,1.33,0,0,0,35,81.72a1.45,1.45,0,0,0-1.52,1.54Z"/><path d="M38.37,84c0-1.65,1-2.84,2.39-2.84a2.37,2.37,0,0,1,2.31,2.68v.31H39a1.87,1.87,0,0,0,1.85,2.08,1.51,1.51,0,0,0,1.48-.9l.61.2a2.11,2.11,0,0,1-2.09,1.28A2.51,2.51,0,0,1,38.37,84Zm4.05-.4a1.71,1.71,0,0,0-1.66-1.86A1.83,1.83,0,0,0,39,83.58Z"/><path d="M45.09,86.68h-.64V81.22h.62v.85h0a1.66,1.66,0,0,1,1.61-.93,1.78,1.78,0,0,1,1.85,2v3.54H48v-3.5a1.33,1.33,0,0,0-1.38-1.46,1.43,1.43,0,0,0-1.48,1.54Z"/><path d="M52.4,81.77H51.24v3.48c0,.69.4.89.83.89a1.13,1.13,0,0,0,.37,0l.13.57a1.43,1.43,0,0,1-.56.1,1.34,1.34,0,0,1-1.4-1.36V81.77h-.82v-.55h.82V79.91h.63v1.31H52.4Z"/><path d="M53.69,79.82a.46.46,0,0,1,.47-.45.47.47,0,0,1,.48.45.48.48,0,0,1-.48.46A.47.47,0,0,1,53.69,79.82Zm.15,1.4h.64v5.46h-.64Z"/><path d="M55.87,84c0-1.64,1-2.83,2.4-2.83a2,2,0,0,1,2.09,1.7h-.64a1.41,1.41,0,0,0-1.44-1.12c-1.05,0-1.77.91-1.77,2.23s.7,2.26,1.77,2.26a1.41,1.41,0,0,0,1.45-1.13h.64a2,2,0,0,1-2.09,1.71C56.82,86.79,55.87,85.6,55.87,84Z"/><path d="M61.44,85.15c0-1.08.87-1.42,2.1-1.58.92-.11,1.43-.12,1.43-.53v-.13a1.14,1.14,0,0,0-1.28-1.2,1.52,1.52,0,0,0-1.49.87l-.6-.22a2.1,2.1,0,0,1,2.07-1.22A1.73,1.73,0,0,1,65.6,83v3.71H65v-.87h0a1.79,1.79,0,0,1-1.69,1A1.65,1.65,0,0,1,61.44,85.15ZM65,84.58v-.79a4,4,0,0,1-1.43.34c-.92.11-1.46.39-1.46,1.05s.53,1,1.25,1A1.58,1.58,0,0,0,65,84.58Z"/><path d="M69.43,81.77H68.27v3.48c0,.69.4.89.83.89a1.13,1.13,0,0,0,.37,0l.13.57a1.39,1.39,0,0,1-.56.1,1.34,1.34,0,0,1-1.4-1.36V81.77h-.82v-.55h.82V79.91h.63v1.31h1.16Z"/><path d="M70.72,79.82a.46.46,0,0,1,.47-.45.47.47,0,0,1,.48.45.48.48,0,0,1-.48.46A.47.47,0,0,1,70.72,79.82Zm.15,1.4h.64v5.46h-.64Z"/><path d="M72.9,84c0-1.67,1-2.83,2.4-2.83S77.71,82.3,77.71,84a2.52,2.52,0,0,1-2.41,2.82C73.89,86.79,72.9,85.63,72.9,84Zm4.17,0c0-1.22-.63-2.25-1.77-2.25s-1.76,1-1.76,2.25.63,2.24,1.76,2.24S77.07,85.19,77.07,84Z"/><path d="M79.72,86.68h-.63V81.22h.62v.85h.05a1.66,1.66,0,0,1,1.61-.93,1.78,1.78,0,0,1,1.85,2v3.54h-.63v-3.5a1.33,1.33,0,0,0-1.38-1.46,1.44,1.44,0,0,0-1.49,1.54Z"/></svg>