<svg id="Layer_1" data-name="Layer 1" xmlns="http://www.w3.org/2000/svg" viewBox="0 0 100 100"><defs><style>.cls-1{font-size:10px;font-family:Inter-Light, Inter;font-weight:300;}.cls-2{letter-spacing:-0.01em;}.cls-3{fill:#f20505;}</style></defs><text class="cls-1" transform="translate(25.02 77.86)">Moni<tspan class="cls-2" x="22.83" y="0">t</tspan><tspan x="26.36" y="0">oring</tspan></text><path d="M72.84,21.48V57a2.54,2.54,0,0,1-2.54,2.54H29.69A2.54,2.54,0,0,1,27.16,57V21.48a2.54,2.54,0,0,1,2.53-2.54H70.3A2.54,2.54,0,0,1,72.84,21.48Zm-2.54,0H29.69V38H41.12a1.37,1.37,0,0,1,1.13.7l2.44,4.87,4.1-12.32a1.32,1.32,0,0,1,2.41,0L53.45,38H64.59a.64.64,0,0,1,.64.63v1.27a.64.64,0,0,1-.64.63H52.54a1.27,1.27,0,0,1-1.21-.86l-1.33-4L46.13,47.26a1.29,1.29,0,0,1-1.12.87h-.09a1.26,1.26,0,0,1-1.13-.7l-3.46-6.91H29.69V57H70.3Z"/><path class="cls-3" d="M29.75,21.48V38H41.17a1.4,1.4,0,0,1,1.14.7l2.43,4.87,4.11-12.32a1.32,1.32,0,0,1,2.41,0L53.51,38H64.65a.63.63,0,0,1,.63.63v1.27a.63.63,0,0,1-.63.63H52.59a1.26,1.26,0,0,1-1.2-.86l-1.34-4L46.18,47.26a1.27,1.27,0,0,1-1.11.87H45a1.28,1.28,0,0,1-1.14-.7l-3.45-6.91H29.75V57"/></svg>