<svg id="Layer_1" data-name="Layer 1" xmlns="http://www.w3.org/2000/svg" viewBox="0 0 100 100"><defs><style>.cls-1{fill:#f20505;}.cls-2{font-size:10px;font-family:Inter-Light, Inter;font-weight:300;}.cls-3{letter-spacing:0.02em;}.cls-4{letter-spacing:-0.02em;}.cls-5{fill:#fff;}</style></defs><path class="cls-1" d="M50.06,44.67a9,9,0,1,1,9-9A9,9,0,0,1,50.06,44.67Z"/><path d="M50.06,27.82a7.87,7.87,0,1,1-7.86,7.86,7.86,7.86,0,0,1,7.86-7.86m0-2.25A10.12,10.12,0,1,0,60.18,35.68,10.12,10.12,0,0,0,50.06,25.57Z"/><text class="cls-2" transform="translate(24.05 70.08)">Application<tspan x="-4.71" y="12">Obse</tspan><tspan class="cls-3" x="19.92" y="12">r</tspan><tspan class="cls-4" x="23.66" y="12">v</tspan><tspan x="28.94" y="12">ability</tspan></text><path d="M58.38,16.79l1.14,3h7a3.81,3.81,0,0,1,3.8,3.81V46.45a3.81,3.81,0,0,1-3.8,3.81h-33a3.82,3.82,0,0,1-3.81-3.81V23.61A3.82,3.82,0,0,1,33.5,19.8h7l1-2.61A3.82,3.82,0,0,1,45,14.72H55.42A3.15,3.15,0,0,1,58.38,16.79ZM45,17.26a1.25,1.25,0,0,0-1.19.83l-1.6,4.25H33.5a1.27,1.27,0,0,0-1.27,1.27V46.45a1.27,1.27,0,0,0,1.27,1.27h33a1.28,1.28,0,0,0,1.27-1.27V23.61a1.28,1.28,0,0,0-1.27-1.27H57.76L56,17.67a.64.64,0,0,0-.59-.41Z"/><path class="cls-5" d="M46.51,33.14a1.29,1.29,0,0,1,0-1.8,5.08,5.08,0,0,1,7.18,0,1.27,1.27,0,1,1-1.79,1.8,2.54,2.54,0,0,0-3.59,0A1.29,1.29,0,0,1,46.51,33.14Z"/></svg>