<svg id="Layer_1" data-name="Layer 1" xmlns="http://www.w3.org/2000/svg" viewBox="0 0 100 100"><defs><style>.cls-1{fill:#f20505;}</style></defs><path d="M40.62,65.08a2.22,2.22,0,0,0-2.22-1.75c-1.38,0-2.5,1.1-2.5,3.12s1.12,3.11,2.5,3.11a2.21,2.21,0,0,0,2.22-1.75h.66a2.83,2.83,0,0,1-2.88,2.38c-1.84,0-3.14-1.46-3.14-3.74s1.3-3.74,3.14-3.74a2.82,2.82,0,0,1,2.88,2.37Z"/><path d="M42.44,68.56c0-1.08.86-1.42,2.1-1.58.91-.11,1.43-.12,1.43-.53v-.13a1.14,1.14,0,0,0-1.29-1.2A1.5,1.5,0,0,0,43.2,66l-.6-.21a2.09,2.09,0,0,1,2.06-1.23,1.74,1.74,0,0,1,1.94,1.83v3.71H46v-.86h0a1.82,1.82,0,0,1-1.7,1A1.63,1.63,0,0,1,42.44,68.56ZM46,68v-.78a3.91,3.91,0,0,1-1.43.33c-.93.11-1.47.39-1.47,1s.53,1,1.25,1A1.59,1.59,0,0,0,46,68Z"/><path d="M48.22,71.15l.52-.34a1.69,1.69,0,0,0,1.62.87A1.41,1.41,0,0,0,52,70.19V69h0A1.72,1.72,0,0,1,50.24,70C48.93,70,48,69,48,67.34s.91-2.79,2.26-2.79a1.76,1.76,0,0,1,1.68,1.12H52v-1h.62v5.6c0,1.39-1,2-2.25,2A2.23,2.23,0,0,1,48.22,71.15ZM52,67.33c0-1.28-.61-2.2-1.68-2.2s-1.68,1-1.68,2.2.6,2.12,1.68,2.12S52,68.65,52,67.33Z"/><path d="M54,67.39c0-1.65,1-2.84,2.39-2.84a2.37,2.37,0,0,1,2.31,2.68v.32H54.64a1.86,1.86,0,0,0,1.85,2.07A1.52,1.52,0,0,0,58,68.73l.6.19a2.11,2.11,0,0,1-2.08,1.28A2.51,2.51,0,0,1,54,67.39Zm4.06-.4a1.72,1.72,0,0,0-1.67-1.86A1.84,1.84,0,0,0,54.64,67Z"/><path d="M59.81,67.37c0-1.68.91-2.82,2.25-2.82a1.73,1.73,0,0,1,1.67,1.12h.06V62.81h.64v7.28h-.62v-1h-.08a1.75,1.75,0,0,1-1.68,1.12C60.71,70.2,59.81,69.07,59.81,67.37Zm4,0c0-1.31-.6-2.23-1.67-2.23s-1.69,1-1.69,2.23.6,2.26,1.69,2.26S63.8,68.68,63.8,67.36Z"/><path d="M23.18,74.81h4.21v.59H23.84v2.75h3.22v.59H23.84v3.35h-.66Z"/><path d="M29.54,82.09h-.63V74.81h.63Z"/><path d="M30.93,79.38c0-1.67,1-2.83,2.4-2.83s2.41,1.16,2.41,2.83-1,2.82-2.41,2.82S30.93,81.05,30.93,79.38Zm4.17,0c0-1.22-.63-2.25-1.77-2.25s-1.76,1-1.76,2.25.63,2.24,1.76,2.24S35.1,80.61,35.1,79.38Z"/><path d="M36.84,79.38c0-1.67,1-2.83,2.4-2.83s2.41,1.16,2.41,2.83-1,2.82-2.41,2.82S36.84,81.05,36.84,79.38Zm4.17,0c0-1.22-.63-2.25-1.77-2.25s-1.77,1-1.77,2.25.64,2.24,1.77,2.24S41,80.61,41,79.38Z"/><path d="M43,76.63h.61v.84h0a1.57,1.57,0,0,1,1.49-.92h.34v.64a2.3,2.3,0,0,0-.38,0,1.39,1.39,0,0,0-1.48,1.4v3.53H43Z"/><path d="M51.76,75.3c-1,0-1.72.57-1.72,1.36s.74,1.12,1.45,1.32l.77.22c.92.26,2,.75,2,2s-.94,2.06-2.52,2.06-2.42-.79-2.5-1.94h.68c.07.86.84,1.34,1.82,1.34s1.88-.59,1.88-1.47S53,79.06,52.07,78.8l-.87-.26c-1.14-.33-1.8-.92-1.8-1.86a2.41,2.41,0,0,1,4.74-.05h-.65A1.56,1.56,0,0,0,51.76,75.3Z"/><path d="M55.69,76.63h.61v1h.08a1.73,1.73,0,0,1,1.67-1.12c1.35,0,2.26,1.14,2.26,2.82s-.91,2.83-2.25,2.83a1.75,1.75,0,0,1-1.68-1.12h-.06v3.06h-.63Zm2.29,5c1.09,0,1.69-1,1.69-2.26s-.59-2.23-1.69-2.23-1.67.92-1.67,2.23S56.93,81.62,58,81.62Z"/><path d="M61.42,80.56c0-1.08.86-1.42,2.1-1.58.91-.11,1.43-.12,1.43-.53v-.13a1.14,1.14,0,0,0-1.29-1.2,1.51,1.51,0,0,0-1.48.87l-.6-.21a2.09,2.09,0,0,1,2.06-1.23,1.74,1.74,0,0,1,1.94,1.83v3.71H65v-.86h0a1.8,1.8,0,0,1-1.69,1A1.64,1.64,0,0,1,61.42,80.56ZM65,80v-.78a3.86,3.86,0,0,1-1.43.33c-.93.11-1.47.39-1.47,1s.54,1,1.25,1A1.59,1.59,0,0,0,65,80Z"/><path d="M67,79.38a2.54,2.54,0,0,1,2.41-2.83,2,2,0,0,1,2.09,1.7h-.64a1.42,1.42,0,0,0-1.44-1.12c-1,0-1.78.91-1.78,2.23s.71,2.26,1.78,2.26a1.4,1.4,0,0,0,1.44-1.12h.64a2,2,0,0,1-2.08,1.7C67.92,82.2,67,81,67,79.38Z"/><path d="M72.54,79.39c0-1.65,1-2.84,2.39-2.84a2.37,2.37,0,0,1,2.31,2.68v.32H73.17A1.87,1.87,0,0,0,75,81.62a1.52,1.52,0,0,0,1.48-.89l.6.19A2.11,2.11,0,0,1,75,82.2,2.51,2.51,0,0,1,72.54,79.39ZM76.6,79a1.72,1.72,0,0,0-1.67-1.86A1.84,1.84,0,0,0,73.18,79Z"/><path d="M74.11,17.25V47.71h.64a.64.64,0,0,1,.63.64v1.26a.64.64,0,0,1-.63.64H25.25a.64.64,0,0,1-.63-.64V48.35a.64.64,0,0,1,.63-.64h.64V17.25h-.64a.63.63,0,0,1-.63-.63V15.35a.63.63,0,0,1,.63-.63h49.5a.63.63,0,0,1,.63.63v1.27a.63.63,0,0,1-.63.63Zm-2.54,0H28.43V47.71H71.57Z"/><rect class="cls-1" x="33.5" y="22.33" width="2.54" height="20.3" rx="0.63"/><rect class="cls-1" x="41.12" y="22.33" width="2.54" height="20.3" rx="0.63"/><rect class="cls-1" x="48.73" y="22.33" width="2.54" height="20.3" rx="0.63"/><rect class="cls-1" x="56.34" y="22.33" width="2.54" height="20.3" rx="0.63"/><rect class="cls-1" x="63.96" y="22.33" width="2.54" height="20.3" rx="0.63"/></svg>