<?xml version="1.0" encoding="utf-8"?>
<!-- Generator: Adobe Illustrator 23.1.1, SVG Export Plug-In . SVG Version: 6.00 Build 0)  -->
<svg version="1.1" id="Layer_1" xmlns="http://www.w3.org/2000/svg" xmlns:xlink="http://www.w3.org/1999/xlink" x="0px" y="0px"
	 width="595.3px" height="516.2px" viewBox="0 0 595.3 516.2" style="enable-background:new 0 0 595.3 516.2;" xml:space="preserve"
	>
<style type="text/css">
	.st0{fill:#191816;}
	.st1{fill:#FFFFFF;}
	.st2{fill:#F20505;}
	.st3{fill:#F20505;stroke:#191816;stroke-width:9.2572;stroke-miterlimit:10;}
	.st4{fill:none;stroke:#191816;stroke-width:9.2386;stroke-miterlimit:10;}
	.st5{fill:#FFFFFF;stroke:#191816;stroke-width:9.514;stroke-miterlimit:10;}
	.st6{fill:#FFFFFF;stroke:#191816;stroke-width:9.2386;stroke-miterlimit:10;}
	.st7{fill:#F20505;stroke:#191816;stroke-width:9.2547;stroke-miterlimit:10;}
	.st8{fill:#181715;}
	.st9{fill:#E62F25;}
</style>
<g>
	<g>
		<path class="st0" d="M81.3,235.6l0.1-0.9c6.3-47,38.8-85.1,81-96.7c0.4-30.4,11.6-56.1,32.4-74.5c19.5-17.2,46.7-26.8,76.5-26.9
			h0.5c26.9,0,50.9,6.8,69.3,19.8c15.8,11.1,27.2,26.4,33.7,45c11-3.9,22.6-6,34.2-6h0.3c28.3,0,54.4,11.5,73.5,32.3
			c20.5,22.3,30.5,53.6,27.7,85.7l-1.1,12.9h-5.5c0.7,3.7,1.2,7.7,0.3,11.8l-2.3,11.2L306,249.9l-14.2,0.1L169.9,450.9L81,452.2
			L81.3,235.6z"/>
		<g>
			<path class="st0" d="M272,50.6c46.6,0,85.5,22.4,93.5,70.4c13.1-7.4,27.9-11.6,43.7-11.7c0.1,0,0.2,0,0.3,0
				c52.5,0,92.2,45.9,87.2,102.7c0,0,0,0,0,0c-14.3,0-4.5,15.6-6.1,23.1l-173.8,0.6l-10.9,0l-22.1,0.1l-121.9,201l-59.2,0.9
				l-7.7,0.1l0.3-201.4c6.1-45.4,39.4-81.2,81.6-87.2c-0.3-3.1-0.4-6.2-0.4-9.4c-0.2-56.9,42.3-89.1,94.9-89.3
				C271.6,50.6,271.8,50.6,272,50.6 M272,22.4h-0.6c-33.3,0.1-63.7,10.9-85.8,30.4c-11.9,10.5-21.2,23.3-27.5,37.9
				c-4.9,11.4-8,23.7-9.2,36.8c-17.5,6.5-33.6,17.3-46.8,31.3c-18.9,20.2-30.8,45.8-34.6,73.9l-0.2,1.8v1.9l-0.3,201.3l0,28.6
				l28.6-0.4l7.7-0.1l59.1-0.9l15.6-0.2l8.1-13.3L299.8,264l6.3,0l10.9,0l173.8-0.6l22.8-0.1l4.7-22.4c0-0.2,0.1-0.4,0.1-0.6h4.2
				l2.3-25.7c1.6-18.3-0.4-36.1-5.9-52.9c-5.4-16.4-14-31.1-25.4-43.6c-21.8-23.8-51.6-36.9-83.9-36.9h-0.4c-8.7,0-17.5,1.1-26,3
				C364.1,45.4,324,22.4,272,22.4L272,22.4z"/>
		</g>
	</g>
	<g>
		<path class="st1" d="M101.6,230.2l0-0.2c6.1-48.8,39.2-87.6,81-95.6c-0.1-2.5-0.2-4.8-0.2-7.2c-0.1-29.6,9.8-54,28.7-70.5
			c17.3-15.1,41.3-23.2,69.3-23.3h0.6c25.6,0,46.8,5.5,62.9,16.5c17.2,11.6,28.2,29,32.8,51.8c12.8-6.8,26.9-10.4,41-10.5h0.3
			c54.1,0,98.3,50.8,98.5,113.2c0,8.4-0.8,16.9-2.4,25.3l-0.5,2.8l-220.2,0.7l-191.8,54.6L101.6,230.2z"/>
		<g>
			<path class="st0" d="M281,36.9c46.5,0,85.1,18.9,93.2,70.2c13-7.9,27.8-12.4,43.5-12.4c0.1,0,0.2,0,0.3,0
				c52.3,0,94.8,49.1,95,109.8c0,8.5-0.8,16.7-2.3,24.6l-185,0.6l-10.8,0l-22,0.1L105,283.2l0.1-52.8c6-48.5,39.3-86.7,81.3-93.2
				c-0.3-3.3-0.4-6.6-0.4-10c-0.2-60.8,42.1-90.1,94.6-90.3C280.7,36.9,280.9,36.9,281,36.9 M281,30h-0.6
				c-28.9,0.1-53.6,8.4-71.6,24.1c-19.7,17.2-30,42.5-29.9,73.1c0,1.4,0,2.9,0.1,4.4c-19.6,4.5-37.9,15.6-52.1,31.9
				c-15.7,18-25.7,40.9-28.8,66l-0.1,0.4v0.4L98,283.2l0,9.2l8.8-2.5l187-53.2l21-0.1l10.8,0l185-0.6l5.7,0l1.1-5.6
				c1.7-8.6,2.5-17.3,2.5-26c-0.1-31-10.6-60.2-29.6-82.2C471,100,445.4,87.7,418,87.7h-0.3c-13.2,0-26.4,3.1-38.6,8.9
				C368.5,53.5,334.1,30,281,30L281,30z"/>
		</g>
	</g>
	<g>
		<g>
			<path class="st0" d="M257.9,52.1l2,7.9c9.9-3.9,20.7-6,31.9-6c13.2,0,25.8,3,37,8.2c-13.5-8.5-29.5-13.5-46.6-13.5
				C273.8,48.7,265.6,49.9,257.9,52.1z"/>
		</g>
		<g>
			<path class="st0" d="M416.4,105.2c0.8,2.8,1.4,5.6,1.9,8.5c9.2-2.2,19-2.2,28.7,0.2c8.5,2.1,16.2,5.9,22.8,10.9
				c-8-8.7-18.5-15.3-30.8-18.3C431.4,104.6,423.7,104.3,416.4,105.2z"/>
		</g>
	</g>
	<g>
		<path class="st0" d="M229.6,249.9v-15.5l137.2-82.1c0.4,27.2,1.7,116.3,2.1,140.9L229.6,249.9z"/>
		<path class="st0" d="M362.2,160.3c0.4,27.8,1.3,85.8,1.9,126.6l-129.9-40.4V237L362.2,160.3 M371.2,144.1
			C371.2,144.1,371.2,144.1,371.2,144.1l-146.3,87.6v21.6l148.6,46.2C373.5,299.5,371.2,144.1,371.2,144.1L371.2,144.1z"/>
	</g>
	<path class="st2" d="M371.2,155.6l-146.3,87.6v21.6l148.6,46.2C373.5,310.9,371.2,153.8,371.2,155.6z"/>
	<g>
		<polygon class="st0" points="357.4,166.6 211.1,254.1 211.1,275.7 357.4,321.2 		"/>
	</g>
	<polygon class="st3" points="219.7,206.5 73.4,272.7 73.4,432.9 219.7,432.9 516.8,432.9 516.8,318.9 	"/>
	<polygon class="st1" points="368.4,264.2 222.2,208.5 220.3,430.5 367.1,431.2 	"/>
	<line class="st4" x1="219.7" y1="430.5" x2="219.7" y2="209.2"/>
	<polyline class="st5" points="517.6,428.2 517.6,198.3 516.8,197.5 371.8,149.3 367.5,152.7 367.5,462.9 	"/>
	<line class="st4" x1="164.2" y1="430.5" x2="164.2" y2="232.3"/>
	<line class="st4" x1="118" y1="435.2" x2="118" y2="250.8"/>
	<line class="st4" x1="313.6" y1="430.5" x2="313.6" y2="241.5"/>
	<line class="st4" x1="263.8" y1="435.2" x2="263.8" y2="225.4"/>
	<line class="st4" x1="426.6" y1="465.2" x2="426.6" y2="165"/>
	<line class="st4" x1="367.6" y1="465.2" x2="367.6" y2="261.6"/>
	<line class="st4" x1="475.8" y1="465.2" x2="475.8" y2="181.6"/>
	<line class="st4" x1="221.6" y1="289.3" x2="516" y2="354.3"/>
	<line class="st4" x1="221.6" y1="360.4" x2="516" y2="395.2"/>
	<line class="st4" x1="220.1" y1="208.8" x2="514.5" y2="312.3"/>
	<path class="st6" d="M516.1,405.1"/>
	<path class="st6" d="M219.7,338.2"/>
	<g>
		<polygon class="st0" points="107.8,424.1 79.6,423.9 79.6,277.7 107.8,265.2 		"/>
	</g>
	<g>
		<polygon class="st0" points="154.1,423.6 124.5,423.9 124.5,257.6 154.1,243.8 		"/>
	</g>
	<g>
		<polygon class="st0" points="209.2,423.9 170.8,423.2 170.8,236.8 209.2,219.3 		"/>
	</g>
	<path class="st1" d="M196.9,238.7c0.3,1.3-0.5,2.7-1.9,3.2c-1.4,0.5-2.7-0.1-3-1.3s0.5-2.7,1.9-3.2
		C195.2,236.8,196.6,237.4,196.9,238.7 M203.7,236l-4.5,7.7l-2.3-1l3-5.2l-4.8-2.1l1.5-2.5L203.7,236z M186,242.9
		c0.3,1.3-0.5,2.7-1.9,3.2c-1.4,0.5-2.7-0.1-3-1.3c-0.3-1.3,0.5-2.7,1.9-3.2C184.4,241.1,185.7,241.7,186,242.9 M191.5,240.8
		c0.3,1.3-0.5,2.7-1.9,3.2c-1.4,0.5-2.7-0.1-3-1.3c-0.3-1.3,0.5-2.7,1.9-3.2C189.8,239,191.1,239.6,191.5,240.8 M174.3,247.5
		l4.5-7.7l2.3,1l-3,5.2l4.8,2.1l-1.5,2.5L174.3,247.5z"/>
	<path class="st7" d="M71.6,431.1v52.1h27.7c37-4.5,110.9-7.6,195.9-7.6s158.9,3.1,195.9,7.6h26.7v-52.1H71.6z"/>
	<g>
		<polygon class="st2" points="186.8,270.8 177.4,275 177.4,268.6 186.8,264.5 		"/>
		<polygon class="st2" points="186.8,334.2 177.4,338.4 177.4,323.6 186.8,319.5 		"/>
		<polygon class="st2" points="200.9,285.2 191.5,289.3 191.5,274.6 200.9,270.5 		"/>
		<polygon class="st2" points="187.1,313.4 177.6,317.5 177.6,295.9 187.1,291.7 		"/>
		<polygon class="st2" points="200.9,328.5 191.5,332.7 191.5,314.1 200.9,310 		"/>
		<polygon class="st2" points="186.8,356.2 177.4,360.3 177.4,345.6 186.8,341.5 		"/>
		<polygon class="st2" points="200.9,264.7 191.5,268.8 191.5,262.5 200.9,258.3 		"/>
	</g>
	<g>
		<polygon class="st2" points="95.7,335.6 103.5,332.2 103.5,362.7 95.7,366.1 		"/>
		<polygon class="st2" points="95.7,318.8 103.5,315.4 103.5,327.5 95.7,330.9 		"/>
		<polygon class="st2" points="84.1,314.6 91.9,311.2 91.9,326.5 84.1,329.9 		"/>
		<polygon class="st2" points="95.7,283.9 103.5,280.5 103.5,292.6 95.7,296 		"/>
	</g>
	<g>
		<polygon class="st2" points="137.3,281.3 129,284.9 129,279.3 137.3,275.7 		"/>
		<polygon class="st2" points="137.3,319.1 129,322.7 129,290 137.3,286.4 		"/>
		<polygon class="st2" points="137.3,337.2 129,340.8 129,327.8 137.3,324.2 		"/>
		<polygon class="st2" points="137.3,374.7 129,378.3 129,365.3 137.3,361.7 		"/>
	</g>
	<rect x="79.1" y="438.2" class="st8" width="430.6" height="40.9"/>
	<g>
		<g>
			<path class="st1" d="M120.5,455.2c1.8,0,2.7-0.1,4.6-0.1c0,1.2,0,1.8,0,3c-1.8,0.1-2.7,0.1-4.6,0.2c0,2.5,0,3.7,0,6.1
				c2.3-0.1,3.4-0.2,5.7-0.3c0,1.2,0,1.8,0,2.9c-3.6,0.2-5.4,0.3-9,0.5c0-8.4,0-12.7,0-21.1c3.6,0,5.4,0,9,0c0,1.2,0,1.8,0,2.9
				c-2.3,0-3.4,0-5.7,0C120.5,451.7,120.5,452.8,120.5,455.2z"/>
			<path class="st1" d="M142.7,446.4c-1.4,3.8-2.1,5.7-3.5,9.6c1.5,4,2.2,6,3.7,10c-1.4,0.1-2.1,0.1-3.5,0.2
				c-1.1-3.1-1.6-4.6-2.7-7.8c0,0,0,0-0.1,0c-1.1,3.2-1.6,4.8-2.7,8c-1.2,0.1-1.9,0.1-3.1,0.2c1.5-4.3,2.2-6.4,3.7-10.5
				c-1.4-3.9-2.1-5.8-3.5-9.8c1.4,0,2.1,0,3.4,0c1,3,1.5,4.4,2.5,7.4c0,0,0,0,0.1,0c1-3,1.5-4.4,2.5-7.4
				C140.8,446.4,141.4,446.4,142.7,446.4z"/>
			<path class="st1" d="M157.7,451c0,1,0,1.5,0,2.5c0,3-1.6,4.7-4.9,4.8c-0.6,0-0.9,0-1.6,0c0,2.9,0,4.3,0,7.2
				c-1.3,0.1-2,0.1-3.3,0.2c0-7.8,0-11.6,0-19.4c1.9,0,2.9,0,4.9,0C156.1,446.3,157.7,448,157.7,451z M151.2,449.1
				c0,2.6,0,3.9,0,6.5c0.6,0,0.9,0,1.6,0c1.1,0,1.6-0.5,1.6-1.8c0-1.1,0-1.7,0-2.9c0-1.4-0.6-1.8-1.6-1.8
				C152.1,449.1,151.8,449.1,151.2,449.1z"/>
			<path class="st1" d="M165.9,454.1c1.8,0,2.7,0,4.6-0.1c0,1,0,1.6,0,2.6c-1.8,0-2.7,0.1-4.6,0.1c0,2.2,0,3.2,0,5.4
				c2.3-0.1,3.4-0.1,5.7-0.2c0,1,0,1.6,0,2.6c-3.6,0.2-5.4,0.2-9,0.4c0-7.5,0-11.2,0-18.7c3.6,0,5.4,0,9,0c0,1,0,1.6,0,2.6
				c-2.3,0-3.4,0-5.7,0C165.9,451,165.9,452.1,165.9,454.1z"/>
			<path class="st1" d="M176.9,446.3c2.1,0,3.1,0,5.2,0c3.3,0,4.9,1.5,4.9,4.4c0,3.6,0,5.4,0,8.9c0,2.8-1.6,4.4-4.9,4.5
				c-2.1,0.1-3.1,0.1-5.2,0.2C176.9,457.2,176.9,453.5,176.9,446.3z M180.3,448.9c0,5.1,0,7.7,0,12.8c0.8,0,1.1,0,1.9-0.1
				c1.1,0,1.7-0.5,1.7-1.8c0-3.7,0-5.5,0-9.2c0-1.3-0.6-1.7-1.7-1.7C181.4,448.9,181,448.9,180.3,448.9z"/>
			<path class="st1" d="M192.6,446.3c1.3,0,2,0,3.3,0c0,6.9,0,10.4,0,17.3c-1.3,0-2,0.1-3.3,0.1
				C192.5,456.8,192.5,453.3,192.6,446.3z"/>
			<path class="st1" d="M204.9,453.5c1.8,0,2.7,0,4.6-0.1c0,1,0,1.5,0,2.4c-1.8,0-2.7,0-4.6,0.1c0,2,0,3,0,5
				c2.3-0.1,3.4-0.1,5.7-0.1c0,1,0,1.5,0,2.4c-3.6,0.1-5.4,0.2-9,0.3c0-6.9,0-10.3,0-17.1c3.6,0,5.4,0,9,0c0,1,0,1.5,0,2.4
				c-2.3,0-3.4,0-5.7,0C204.9,450.6,204.9,451.6,204.9,453.5z"/>
			<path class="st1" d="M219,450.9C219,450.9,219,450.9,219,450.9c-0.1,4.8-0.1,7.2-0.1,12c-1.2,0-1.8,0-3,0.1c0-6.7,0-10,0-16.7
				c1.7,0,2.5,0,4.2,0c1.3,4,2,6,3.3,9.9c0,0,0,0,0.1,0c0-4,0-5.9,0-9.9c1.2,0,1.8,0,2.9,0c0,6.6,0,9.9,0,16.4c-1.4,0-2,0-3.4,0.1
				C221.4,458.1,220.6,455.7,219,450.9z"/>
			<path class="st1" d="M231.2,446.3c4.1,0,6.1,0,10.2,0c0,0.9,0,1.4,0,2.3c-1.4,0-2.1,0-3.5,0c0,5.5,0,8.3,0,13.9
				c-1.3,0-2,0-3.3,0.1c0-5.6,0-8.4,0-13.9c-1.4,0-2.1,0-3.5,0C231.2,447.7,231.2,447.2,231.2,446.3z"/>
			<path class="st1" d="M257.5,453c1.8,0,2.7,0,4.5,0c0,0.9,0,1.4,0,2.3c-1.8,0-2.7,0-4.5,0c0,1.9,0,2.8,0,4.6c2.3,0,3.4,0,5.7-0.1
				c0,0.9,0,1.4,0,2.3c-3.6,0-5.4,0.1-9,0.1c0-6.4,0-9.5,0-15.9c3.6,0,5.4,0,9,0c0,0.9,0,1.4,0,2.3c-2.3,0-3.4,0-5.7,0
				C257.5,450.3,257.5,451.2,257.5,453z"/>
			<path class="st1" d="M271.6,450.6C271.6,450.6,271.6,450.6,271.6,450.6c-0.1,4.5-0.1,6.8-0.1,11.4c-1.2,0-1.8,0-3,0
				c0-6.3,0-9.5,0-15.8c1.7,0,2.5,0,4.2,0c1.3,3.8,2,5.6,3.3,9.4c0,0,0,0,0.1,0c0-3.8,0-5.6,0-9.4c1.2,0,1.8,0,3,0
				c0,6.3,0,9.4,0,15.7c-1.4,0-2,0-3.4,0C274,457.5,273.2,455.2,271.6,450.6z"/>
			<path class="st1" d="M283.8,446.3c4.1,0,6.1,0,10.2,0c0,0.9,0,1.3,0,2.2c-1.4,0-2.1,0-3.5,0c0,5.4,0,8,0,13.4c-1.3,0-2,0-3.3,0
				c0-5.4,0-8,0-13.4c-1.4,0-2.1,0-3.5,0C283.8,447.6,283.8,447.2,283.8,446.3z"/>
			<path class="st1" d="M302.1,452.9c1.8,0,2.7,0,4.5,0c0,0.9,0,1.3,0,2.2c-1.8,0-2.7,0-4.5,0c0,1.8,0,2.8,0,4.6c2.3,0,3.4,0,5.7,0
				c0,0.9,0,1.3,0,2.2c-3.6,0-5.4,0-9,0c0-6.2,0-9.4,0-15.6c3.6,0,5.4,0,9,0c0,0.9,0,1.3,0,2.2c-2.3,0-3.4,0-5.7,0
				C302.1,450.3,302.1,451.1,302.1,452.9z"/>
			<path class="st1" d="M320.2,462c-0.2-0.4-0.3-0.6-0.3-1.9c0-1,0-1.5,0-2.5c0-1.5-0.7-2-2.2-2c-0.5,0-0.7,0-1.1,0
				c0,2.6,0,3.8,0,6.4c-1.3,0-2,0-3.3,0c0-6.3,0-9.4,0-15.7c2,0,3,0,5,0c3.4,0,4.9,1.2,4.9,3.6c0,0.5,0,0.7,0,1.2
				c0,1.6-0.7,2.6-2.2,3.2c0,0,0,0,0,0c1.7,0.5,2.2,1.7,2.2,3.3c0,1,0,1.5,0,2.4c0,0.8,0,1.3,0.4,1.9C322.2,462,321.5,462,320.2,462
				z M316.5,448.5c0,1.9,0,2.9,0,4.8c0.5,0,0.8,0,1.3,0c1.2,0,2-0.4,2-1.6c0-0.6,0-0.9,0-1.5c0-1.1-0.5-1.6-1.7-1.6
				C317.5,448.5,317.2,448.5,316.5,448.5z"/>
			<path class="st1" d="M338.5,450.2c0,0.8,0,1.2,0,2.1c0,2.5-1.6,3.9-4.9,3.9c-0.6,0-0.9,0-1.6,0c0,2.4,0,3.6,0,6c-1.3,0-2,0-3.3,0
				c0-6.3,0-9.5,0-15.8c2,0,2.9,0,4.9,0C336.8,446.3,338.5,447.7,338.5,450.2z M332,448.6c0,2.1,0,3.2,0,5.4c0.6,0,0.9,0,1.6,0
				c1,0,1.6-0.4,1.6-1.5c0-1,0-1.4,0-2.4c0-1.1-0.6-1.5-1.6-1.5C332.9,448.6,332.6,448.6,332,448.6z"/>
			<path class="st1" d="M350.3,462.4c-0.2-0.4-0.3-0.7-0.3-2c0-1,0-1.5,0-2.5c0-1.5-0.7-2.1-2.2-2.1c-0.5,0-0.7,0-1.1,0
				c0,2.6,0,3.9,0,6.5c-1.3,0-2,0-3.3-0.1c0-6.4,0-9.6,0-16c2,0,3,0,5,0c3.4,0,4.9,1.2,4.9,3.7c0,0.5,0,0.8,0,1.3
				c0,1.7-0.7,2.7-2.2,3.2c0,0,0,0,0,0c1.7,0.5,2.2,1.8,2.2,3.5c0,1,0,1.5,0,2.5c0,0.8,0,1.4,0.4,2
				C352.3,462.5,351.6,462.5,350.3,462.4z M346.6,448.6c0,2,0,3,0,4.9c0.5,0,0.8,0,1.3,0c1.2,0,2-0.4,2-1.7c0-0.6,0-1,0-1.6
				c0-1.1-0.5-1.7-1.7-1.7C347.6,448.6,347.3,448.6,346.6,448.6z"/>
			<path class="st1" d="M358.7,446.3c1.3,0,2,0,3.3,0c0,6.5,0,9.8,0,16.4c-1.3,0-2,0-3.3-0.1C358.8,456.1,358.8,452.8,358.7,446.3z"
				/>
			<path class="st1" d="M372.2,446.1c3.2,0,4.9,1.5,4.9,4.2c0,0.2,0,0.3,0,0.5c-1.2,0-1.9,0-3.1,0c0-0.3,0-0.4,0-0.7
				c0-1.2-0.6-1.6-1.7-1.6s-1.7,0.4-1.6,1.6c0,1.2,0.7,2.1,2.8,3.6c2.8,2,3.6,3.4,3.7,5.3c0,2.7-1.7,4.2-4.9,4.1
				c-3.3-0.1-5-1.6-5-4.3c0-0.4,0-0.6,0-1c1.2,0,1.9,0,3.1,0.1c0,0.5,0,0.7,0,1.2c0,1.2,0.7,1.6,1.7,1.6s1.7-0.4,1.7-1.6
				c0-1.2-0.7-2.1-2.8-3.7c-2.8-2-3.6-3.3-3.7-5.2C367.4,447.6,369,446.1,372.2,446.1z"/>
			<path class="st1" d="M385.7,453.5c1.8,0,2.7,0,4.5,0.1c0,1,0,1.5,0,2.5c-1.8,0-2.7,0-4.5-0.1c0,2,0,3,0,5
				c2.3,0.1,3.4,0.1,5.7,0.2c0,1,0,1.5,0,2.5c-3.6-0.1-5.4-0.2-9-0.3c0-6.8,0-10.1,0-16.9c3.6,0,5.4,0,9,0c0,1,0,1.5,0,2.5
				c-2.3,0-3.4,0-5.7,0C385.7,450.6,385.7,451.6,385.7,453.5z"/>
			<path class="st1" d="M414.4,457.6c0,1,0,1.4,0,2.4c0,2.9-1.7,4.5-4.9,4.3s-4.9-1.8-5-4.6c0-3.7,0-5.5,0-9.2
				c0-2.8,1.7-4.4,4.9-4.4s4.9,1.6,5,4.5c0,0.7,0,1,0,1.8c-1.2,0-1.9,0-3.1,0c0-0.8,0-1.1,0-1.9c0-1.3-0.7-1.8-1.7-1.8
				s-1.7,0.5-1.7,1.7c0,3.8,0,5.8,0,9.6c0,1.3,0.7,1.8,1.7,1.8s1.7-0.4,1.7-1.7c0-1,0-1.5,0-2.6
				C412.5,457.6,413.1,457.6,414.4,457.6z"/>
			<path class="st1" d="M419.7,446.3c1.3,0,2,0,3.3,0c0,6.3,0,9.5,0,15.8c2.2,0.1,3.3,0.1,5.5,0.2c0,1.1,0,1.6,0,2.7
				c-3.5-0.2-5.3-0.2-8.8-0.4C419.7,457.3,419.7,453.6,419.7,446.3z"/>
			<path class="st1" d="M433,450.9c0-3,1.8-4.7,5-4.7c3.2,0,5,1.8,5,4.9c0,4,0,6,0,10.1c0,3.1-1.8,4.8-5,4.6s-5-2-5-5
				C433,456.8,433,454.8,433,450.9z M436.3,461c0,1.4,0.7,1.9,1.7,2s1.7-0.5,1.7-1.8c0-4.1,0-6.2,0-10.4c0-1.4-0.7-1.9-1.7-1.9
				s-1.7,0.5-1.7,1.9C436.3,454.8,436.3,456.9,436.3,461z"/>
			<path class="st1" d="M451.6,446.4c0,6.1,0,9.2,0,15.3c0,1.4,0.7,2,1.7,2c1,0,1.7-0.4,1.7-1.9c0-6.2,0-9.2,0-15.4
				c1.2,0,1.9,0,3.1,0c0,6.1,0,9.2,0,15.4c0,3.2-1.7,5-4.9,4.8s-4.9-2.1-4.9-5.2c0-6,0-9,0-15C449.6,446.4,450.3,446.4,451.6,446.4z
				"/>
			<path class="st1" d="M463.8,446.4c2.1,0,3.1,0,5.2,0c3.3,0,4.9,1.8,4.9,5.2c0,4.3,0,6.4,0,10.7c0,3.4-1.6,5.1-4.9,4.9
				c-2.1-0.1-3.1-0.2-5.2-0.3C463.8,458.6,463.8,454.5,463.8,446.4z M467.1,449.3c0,5.9,0,8.9,0,14.8c0.8,0,1.1,0.1,1.9,0.1
				c1,0,1.7-0.5,1.7-1.9c0-4.4,0-6.5,0-10.9c0-1.5-0.6-2-1.7-2C468.2,449.3,467.8,449.3,467.1,449.3z"/>
		</g>
	</g>
	<rect x="82.2" y="437.1" class="st2" width="10" height="40.4"/>
	<rect x="95.7" y="437.1" class="st2" width="2.9" height="40.4"/>
	<rect x="101.7" y="437.1" class="st2" width="2.9" height="39.1"/>
	<rect x="489.2" y="437.1" class="st2" width="2.9" height="40.4"/>
	<rect x="495.2" y="437.1" class="st2" width="2.9" height="40.4"/>
	<path class="st9" d="M293.2,471.1c-106.6,0-195.6,2.9-216.9,6.7v2c21.3-3.8,110.4-6.7,216.9-6.7c112.9,0,206.1,3.2,220,7.4v-2
		C499.1,474.3,406,471.1,293.2,471.1z"/>
</g>
</svg>
