<svg id="Layer_1" data-name="Layer 1" xmlns="http://www.w3.org/2000/svg" viewBox="0 0 100 100"><defs><style>.cls-1{font-size:40.61px;font-family:FontAwesome6Pro-Light, "Font Awesome 6 Pro";font-weight:300;}.cls-2{fill:#f20505;}.cls-3{fill:none;}.cls-4{fill:#fff;}</style></defs><path d="M32.62,64.34h.66v3.34h4.13V64.34h.67v7.28h-.67V68.28H33.28v3.34h-.66Z"/><path d="M39.59,68.91c0-1.67,1-2.83,2.4-2.83s2.41,1.16,2.41,2.83-1,2.83-2.41,2.83S39.59,70.58,39.59,68.91Zm4.17,0c0-1.22-.63-2.25-1.77-2.25s-1.76,1-1.76,2.25.63,2.25,1.76,2.25S43.76,70.14,43.76,68.91Z"/><path d="M48.87,67.52a1.22,1.22,0,0,0-1.27-.88c-.74,0-1.27.39-1.27,1s.32.74,1,.91l.82.21c.92.22,1.38.71,1.38,1.44,0,.92-.83,1.59-2,1.59a1.8,1.8,0,0,1-2-1.41l.6-.15a1.25,1.25,0,0,0,1.37,1c.84,0,1.38-.43,1.38-1s-.28-.74-.89-.88l-.89-.22c-1-.23-1.39-.72-1.39-1.46,0-.9.8-1.53,1.9-1.53a1.78,1.78,0,0,1,1.85,1.28Z"/><path d="M53.06,66.71H51.9V70.2a.77.77,0,0,0,.83.88,1.18,1.18,0,0,0,.37,0l.13.58a1.7,1.7,0,0,1-.56.09,1.33,1.33,0,0,1-1.4-1.36V66.71h-.82v-.55h.82V64.85h.63v1.31h1.16Z"/><path d="M54.15,68.92c0-1.65,1-2.84,2.4-2.84a2.38,2.38,0,0,1,2.31,2.69v.31H54.79a1.88,1.88,0,0,0,1.85,2.08,1.52,1.52,0,0,0,1.48-.9l.6.19a2.11,2.11,0,0,1-2.08,1.29A2.52,2.52,0,0,1,54.15,68.92Zm4.06-.4a1.72,1.72,0,0,0-1.66-1.86,1.84,1.84,0,0,0-1.76,1.86Z"/><path d="M60,68.91c0-1.69.91-2.83,2.26-2.83a1.71,1.71,0,0,1,1.66,1.12h.06V64.34h.64v7.28H64v-1h-.08a1.74,1.74,0,0,1-1.67,1.13C60.87,71.74,60,70.6,60,68.91Zm4,0c0-1.3-.6-2.23-1.67-2.23s-1.68,1-1.68,2.23.59,2.27,1.68,2.27S64,70.21,64,68.89Z"/><path d="M14.36,82.76h.07l2.27-6.42h.7l-2.65,7.28H14l-2.65-7.28h.7Z"/><path d="M18.37,76.77a.47.47,0,0,1,.47-.46.46.46,0,1,1,0,.91A.47.47,0,0,1,18.37,76.77Zm.15,1.39h.63v5.46h-.63Z"/><path d="M20.83,78.16h.61V79h0A1.57,1.57,0,0,1,23,78.08h.34v.64c-.06,0-.22,0-.38,0a1.39,1.39,0,0,0-1.48,1.39v3.53h-.63Z"/><path d="M26.88,78.71H25.73V82.2c0,.68.39.88.82.88a1.09,1.09,0,0,0,.37,0l.14.58a1.7,1.7,0,0,1-.56.09,1.34,1.34,0,0,1-1.41-1.36V78.71h-.81v-.55h.81V76.85h.64v1.31h1.15Z"/><path d="M31.79,78.16h.63v5.46h-.63v-.91h-.05a1.71,1.71,0,0,1-1.63,1,1.76,1.76,0,0,1-1.79-2V78.16H29v3.5a1.32,1.32,0,0,0,1.34,1.42,1.48,1.48,0,0,0,1.5-1.55Z"/><path d="M33.81,82.1c0-1.09.87-1.43,2.1-1.58.92-.12,1.43-.12,1.43-.54v-.12a1.14,1.14,0,0,0-1.29-1.21,1.52,1.52,0,0,0-1.48.88l-.6-.22A2.11,2.11,0,0,1,36,78.08,1.74,1.74,0,0,1,38,79.91v3.71h-.63v-.86h0a1.8,1.8,0,0,1-1.69,1A1.64,1.64,0,0,1,33.81,82.1Zm3.53-.57v-.79a3.81,3.81,0,0,1-1.43.33c-.92.12-1.46.39-1.46,1.05s.53,1,1.24,1A1.59,1.59,0,0,0,37.34,81.53Z"/><path d="M40.28,83.62h-.63V76.34h.63Z"/><path d="M45.56,83.62h-.67V76.34h.67Z"/><path d="M48,83.62h-.63V78.16H48V79H48a1.66,1.66,0,0,1,1.61-.93,1.77,1.77,0,0,1,1.85,2v3.54h-.63v-3.5a1.32,1.32,0,0,0-1.38-1.45A1.43,1.43,0,0,0,48,80.21Z"/><path d="M56.24,79.52A1.22,1.22,0,0,0,55,78.64c-.73,0-1.26.39-1.26,1s.31.74,1,.91l.83.21c.91.22,1.37.71,1.37,1.44,0,.92-.82,1.59-2,1.59a1.8,1.8,0,0,1-2-1.41l.61-.15a1.24,1.24,0,0,0,1.36,1c.84,0,1.39-.43,1.39-1s-.29-.74-.89-.88l-.89-.22c-.95-.23-1.4-.72-1.4-1.46,0-.9.8-1.53,1.9-1.53a1.77,1.77,0,0,1,1.85,1.28Z"/><path d="M60.43,78.71H59.28V82.2c0,.68.39.88.82.88a1.13,1.13,0,0,0,.37,0l.14.58a1.7,1.7,0,0,1-.56.09,1.33,1.33,0,0,1-1.41-1.36V78.71h-.81v-.55h.81V76.85h.64v1.31h1.15Z"/><path d="M61.59,82.1c0-1.09.87-1.43,2.1-1.58.92-.12,1.43-.12,1.43-.54v-.12a1.14,1.14,0,0,0-1.29-1.21,1.53,1.53,0,0,0-1.48.88l-.6-.22a2.11,2.11,0,0,1,2.07-1.23,1.74,1.74,0,0,1,1.93,1.83v3.71h-.63v-.86h0a1.8,1.8,0,0,1-1.69,1A1.64,1.64,0,0,1,61.59,82.1Zm3.53-.57v-.79a3.81,3.81,0,0,1-1.43.33c-.92.12-1.46.39-1.46,1.05s.53,1,1.24,1A1.59,1.59,0,0,0,65.12,81.53Z"/><path d="M68.06,83.62h-.63V78.16H68V79h.06a1.66,1.66,0,0,1,1.61-.93,1.77,1.77,0,0,1,1.85,2v3.54h-.63v-3.5a1.32,1.32,0,0,0-1.38-1.45,1.43,1.43,0,0,0-1.49,1.54Z"/><path d="M72.94,80.91a2.54,2.54,0,0,1,2.41-2.83,2,2,0,0,1,2.09,1.7H76.8a1.42,1.42,0,0,0-1.44-1.12c-1,0-1.78.91-1.78,2.23s.71,2.27,1.78,2.27A1.4,1.4,0,0,0,76.8,82h.64a2,2,0,0,1-2.08,1.71C73.89,83.74,72.94,82.54,72.94,80.91Z"/><path d="M78.51,80.92c0-1.65,1-2.84,2.39-2.84,1.19,0,2.31.86,2.31,2.69v.31H79.14A1.88,1.88,0,0,0,81,83.16a1.53,1.53,0,0,0,1.48-.9l.6.19A2.12,2.12,0,0,1,81,83.74,2.52,2.52,0,0,1,78.51,80.92Zm4.06-.4a1.72,1.72,0,0,0-1.67-1.86,1.84,1.84,0,0,0-1.75,1.86Z"/><path d="M87.68,79.52a1.22,1.22,0,0,0-1.26-.88c-.74,0-1.27.39-1.27,1s.32.74,1,.91l.82.21c.91.22,1.37.71,1.37,1.44,0,.92-.82,1.59-2,1.59a1.82,1.82,0,0,1-2-1.41l.61-.15a1.25,1.25,0,0,0,1.37,1c.83,0,1.38-.43,1.38-1s-.29-.74-.89-.88l-.89-.22c-1-.23-1.4-.72-1.4-1.46,0-.9.8-1.53,1.91-1.53a1.76,1.76,0,0,1,1.84,1.28Z"/><text class="cls-1" transform="translate(74.32 18.26) rotate(180)"></text><path class="cls-2" d="M68.2,50.45a9,9,0,1,1,9-9A9,9,0,0,1,68.2,50.45Z"/><path d="M68.2,33.59a7.87,7.87,0,1,1-7.87,7.87,7.87,7.87,0,0,1,7.87-7.87m0-2.25A10.12,10.12,0,1,0,78.31,41.46,10.13,10.13,0,0,0,68.2,31.34Z"/><path class="cls-3" d="M62,40.57a1.17,1.17,0,0,1,.75-1.08l4.87-1.84a1.27,1.27,0,0,1,.52-.1,1.32,1.32,0,0,1,.53.1l4.87,1.84a1.16,1.16,0,0,1,.74,1.08v5.88a7.79,7.79,0,0,0,1.79-5A7.87,7.87,0,1,0,62,46.28Z"/><polygon class="cls-3" points="68.13 39.09 64.15 40.6 68.13 42.11 72.12 40.6 68.13 39.09"/><polygon class="cls-3" points="68.9 48.01 72.74 46.55 72.74 42.01 68.9 43.45 68.9 48.01"/><path class="cls-4" d="M73.53,39.49l-4.87-1.84a1.32,1.32,0,0,0-.53-.1,1.27,1.27,0,0,0-.52.1l-4.87,1.84A1.17,1.17,0,0,0,62,40.57v5.71a7.84,7.84,0,0,0,12.28.17V40.57A1.16,1.16,0,0,0,73.53,39.49Zm-5.4,2.62-4-1.51,4-1.51,4,1.51Zm4.61,4.44L68.9,48V43.45L72.74,42Z"/></svg>