<?xml version="1.0" encoding="utf-8"?>
<!-- Generator: Adobe Illustrator 23.1.1, SVG Export Plug-In . SVG Version: 6.00 Build 0)  -->
<svg version="1.1" id="Layer_1" xmlns="http://www.w3.org/2000/svg" xmlns:xlink="http://www.w3.org/1999/xlink" x="0px" y="0px"
	 width="595.3px" height="516.2px" viewBox="0 0 595.3 516.2" style="enable-background:new 0 0 595.3 516.2;" xml:space="preserve"
	>
<style type="text/css">
	.st0{fill:#F20505;}
</style>
<path class="st0" d="M570.6,260.4l-109,110.3l-35.7-35.9l73.4-74.4l-73.4-74.4l35.7-35.9L570.6,260.4z M249,260.4
	c0-25.6,20.6-46.3,45.9-46.3c25.4,0,46,20.8,46,46.3c0,25.6-20.6,46.3-46,46.3C269.5,306.8,249,286,249,260.4z M350.6,260.4
	c0-25.6,20.6-46.3,46-46.3c25.4,0,45.9,20.8,45.9,46.3c0,25.6-20.6,46.3-45.9,46.3C371.2,306.8,350.6,286,350.6,260.4z M19.3,260.4
	l109-110.3l35.7,35.9l-73.4,74.3l73.4,74.4l-35.7,35.9L19.3,260.4z M147.3,260.4c0-25.6,20.6-46.3,46-46.3
	c25.3,0,45.9,20.8,45.9,46.3c0,25.6-20.6,46.3-45.9,46.3C167.9,306.8,147.3,286,147.3,260.4z"/>
</svg>
