<svg id="Layer_1" data-name="Layer 1" xmlns="http://www.w3.org/2000/svg" viewBox="0 0 100 100"><defs><style>.cls-1{font-size:40.61px;font-family:FontAwesome5Pro-Light, "Font Awesome 5 Pro";font-weight:300;}.cls-2{fill:#f20505;}</style></defs><path d="M40.7,72.91H40V66.33h0l-1.71,1.13v-.69L40,65.63h.7Z"/><path d="M42.74,69.27c0-2.35.9-3.74,2.43-3.74s2.43,1.39,2.43,3.74S46.7,73,45.17,73,42.74,71.63,42.74,69.27Zm4.21,0c0-2-.67-3.15-1.78-3.15s-1.79,1.16-1.79,3.15.67,3.14,1.79,3.14S47,71.26,47,69.27Z"/><path d="M48.87,69.27c0-2.35.91-3.74,2.43-3.74s2.43,1.39,2.43,3.74S52.83,73,51.3,73,48.87,71.63,48.87,69.27Zm4.22,0c0-2-.67-3.15-1.79-3.15s-1.79,1.16-1.79,3.15.67,3.14,1.79,3.14S53.09,71.26,53.09,69.27Z"/><path d="M55.19,67a1.35,1.35,0,1,1,2.69,0v.33a1.35,1.35,0,1,1-2.69,0Zm5.33-1.35h.63l-5,7.28h-.63Zm-4.77,1.68c0,.54.27,1,.79,1s.78-.43.78-1V67c0-.54-.26-1-.78-1s-.79.43-.79,1Zm3.11,3.92a1.35,1.35,0,1,1,2.69,0v.33a1.35,1.35,0,1,1-2.69,0Zm.56.33c0,.54.27,1,.79,1s.77-.43.77-1v-.33c0-.54-.25-1-.77-1s-.79.43-.79,1Z"/><path d="M43.72,78.12c-1,0-1.72.58-1.72,1.36s.74,1.12,1.45,1.32l.77.22c.92.26,2,.75,2,2s-1,2-2.53,2-2.42-.79-2.5-1.94h.68c.07.86.84,1.34,1.82,1.34s1.88-.59,1.88-1.47-.62-1.08-1.52-1.34l-.87-.25c-1.14-.34-1.8-.93-1.8-1.86a2.13,2.13,0,0,1,2.38-2,2.14,2.14,0,0,1,2.36,1.92h-.65A1.56,1.56,0,0,0,43.72,78.12Z"/><path d="M47.79,77.63h.67v6.68h3.47v.6H47.79Z"/><path d="M53.19,84.91l2.64-7.28h.71l2.65,7.28H58.5l-.78-2.19H54.66l-.78,2.19Zm4.31-2.79-1.29-3.63h-.05l-1.29,3.63Z"/><text class="cls-1" transform="translate(29.69 48.9)"></text><path class="cls-2" d="M48.88,36a1,1,0,0,1-.39-.77V22.56a1,1,0,0,1,.95-.95h1.11a1,1,0,0,1,1,.95V34.17l5.59,4.07a.94.94,0,0,1,.2,1.33l-.65.9a1,1,0,0,1-1.33.2Z"/></svg>