<svg id="Layer_1" data-name="Layer 1" xmlns="http://www.w3.org/2000/svg" viewBox="0 0 100 100"><defs><style>.cls-1{fill:#f20505;}.cls-2{font-size:10.99px;fill:#fff;font-family:Inter-Bold, Inter;font-weight:700;}</style></defs><path d="M45.45,71.45c-1.84,0-3.15-1.47-3.15-3.74S43.61,64,45.45,64s3.15,1.46,3.15,3.74S47.29,71.45,45.45,71.45Zm0-6.86c-1.43,0-2.5,1.16-2.5,3.12s1.06,3.11,2.5,3.11S48,69.67,48,67.71,46.89,64.59,45.45,64.59Z"/><path d="M52.42,64.56c-1,0-1.72.57-1.72,1.36s.74,1.12,1.45,1.32l.77.22c.92.26,2,.75,2,2s-.94,2-2.52,2-2.42-.79-2.5-1.94h.68c.07.86.84,1.34,1.82,1.34s1.88-.59,1.88-1.47-.62-1.08-1.52-1.34l-.87-.26c-1.14-.33-1.8-.92-1.8-1.86a2.41,2.41,0,0,1,4.74,0h-.65A1.56,1.56,0,0,0,52.42,64.56Z"/><path d="M19.67,76.07l2.65,6.34h.06L25,76.07h.77v7.28h-.63V77.47h-.05l-2.46,5.88h-.6l-2.46-5.88h-.06v5.88h-.62V76.07Z"/><path d="M27.31,81.82c0-1.08.87-1.42,2.1-1.57.92-.12,1.43-.13,1.43-.54v-.13a1.14,1.14,0,0,0-1.29-1.2,1.51,1.51,0,0,0-1.48.87l-.6-.21a2.09,2.09,0,0,1,2.06-1.23,1.74,1.74,0,0,1,1.94,1.83v3.71h-.63v-.86h0a1.8,1.8,0,0,1-1.69,1A1.64,1.64,0,0,1,27.31,81.82Zm3.53-.57v-.78a3.86,3.86,0,0,1-1.43.33c-.93.11-1.47.39-1.47,1s.54,1,1.25,1A1.59,1.59,0,0,0,30.84,81.25Z"/><path d="M33.78,83.35h-.63V77.89h.61v.86h.06a1.64,1.64,0,0,1,1.61-.93,1.77,1.77,0,0,1,1.85,2v3.54h-.64v-3.5a1.32,1.32,0,0,0-1.38-1.45,1.42,1.42,0,0,0-1.48,1.54Z"/><path d="M38.67,81.82c0-1.08.86-1.42,2.1-1.57.92-.12,1.43-.13,1.43-.54v-.13a1.14,1.14,0,0,0-1.29-1.2,1.51,1.51,0,0,0-1.48.87l-.6-.21a2.09,2.09,0,0,1,2.06-1.23,1.74,1.74,0,0,1,1.94,1.83v3.71H42.2v-.86h0a1.8,1.8,0,0,1-1.69,1A1.64,1.64,0,0,1,38.67,81.82Zm3.53-.57v-.78a3.86,3.86,0,0,1-1.43.33c-.93.11-1.47.39-1.47,1s.54,1,1.25,1A1.59,1.59,0,0,0,42.2,81.25Z"/><path d="M44.46,84.42l.51-.35a1.7,1.7,0,0,0,1.62.87c1,0,1.62-.47,1.62-1.49V82.22h-.06a1.72,1.72,0,0,1-1.68,1.07c-1.31,0-2.25-1-2.25-2.69s.91-2.79,2.26-2.79a1.74,1.74,0,0,1,1.68,1.12h.06v-1h.62v5.6c0,1.39-1,2-2.25,2A2.22,2.22,0,0,1,44.46,84.42Zm3.76-3.83c0-1.28-.6-2.2-1.67-2.2s-1.69,1-1.69,2.2.6,2.12,1.69,2.12S48.22,81.91,48.22,80.59Z"/><path d="M50.23,80.65c0-1.65,1-2.84,2.4-2.84a2.37,2.37,0,0,1,2.31,2.68v.32H50.87a1.86,1.86,0,0,0,1.85,2.07A1.51,1.51,0,0,0,54.2,82l.6.19a2.1,2.1,0,0,1-2.08,1.28A2.51,2.51,0,0,1,50.23,80.65Zm4.06-.4a1.72,1.72,0,0,0-1.66-1.86,1.84,1.84,0,0,0-1.76,1.86Z"/><path d="M56.32,77.89h.61v.84H57a1.61,1.61,0,0,1,2.94.08h0a1.63,1.63,0,0,1,1.62-1c1,0,1.64.65,1.64,1.87v3.66h-.63V79.69A1.14,1.14,0,0,0,61.4,78.4a1.24,1.24,0,0,0-1.3,1.35v3.6h-.64V79.63a1.12,1.12,0,0,0-1.18-1.23A1.35,1.35,0,0,0,57,79.85v3.5h-.63Z"/><path d="M64.62,80.65c0-1.65,1-2.84,2.39-2.84a2.37,2.37,0,0,1,2.31,2.68v.32H65.26a1.86,1.86,0,0,0,1.85,2.07A1.52,1.52,0,0,0,68.59,82l.6.19a2.11,2.11,0,0,1-2.08,1.28A2.51,2.51,0,0,1,64.62,80.65Zm4.06-.4A1.72,1.72,0,0,0,67,78.39a1.84,1.84,0,0,0-1.75,1.86Z"/><path d="M71.34,83.35h-.63V77.89h.61v.86h.06a1.64,1.64,0,0,1,1.6-.93,1.78,1.78,0,0,1,1.86,2v3.54H74.2v-3.5a1.32,1.32,0,0,0-1.37-1.45,1.43,1.43,0,0,0-1.49,1.54Z"/><path d="M78.65,78.44H77.5v3.48c0,.69.39.89.82.89a1.13,1.13,0,0,0,.37,0l.14.58a1.72,1.72,0,0,1-.57.09,1.34,1.34,0,0,1-1.4-1.36V78.44h-.81v-.55h.81V76.58h.64v1.31h1.15Z"/><path d="M44.19,48.63V45.08l1.27-.45a10.47,10.47,0,0,0,3.28-1.9l1-.87,3.08,1.78A14.35,14.35,0,0,0,55,39.85L52,38.08l.24-1.33a10.55,10.55,0,0,0,0-3.8L52,31.63,55,29.85a14.29,14.29,0,0,0-2.19-3.78l-3.08,1.78-1-.88a10.36,10.36,0,0,0-3.28-1.89l-1.27-.46V21.08a13.92,13.92,0,0,0-4.37,0v3.55l-1.27.45A10.31,10.31,0,0,0,35.28,27l-1,.87-3.08-1.77A14,14,0,0,0,29,29.86l3.07,1.78L31.82,33a10.55,10.55,0,0,0,0,3.8l.24,1.32L29,39.86a13.84,13.84,0,0,0,2.18,3.78l3.08-1.77,1,.87a10.23,10.23,0,0,0,3.27,1.9l1.27.45v3.54A13.92,13.92,0,0,0,44.19,48.63Zm26.7-1.32a1,1,0,0,1-.94.81H68.67a6.81,6.81,0,0,1-1.23,2.12l.64,1.1a1,1,0,0,1-.22,1.22A8.71,8.71,0,0,1,65.37,54a1,1,0,0,1-1.16-.42l-.64-1.1a6.73,6.73,0,0,1-2.45,0l-.63,1.1a1,1,0,0,1-1.17.42,8.71,8.71,0,0,1-2.49-1.44,1,1,0,0,1-.21-1.22l.63-1.1A6.81,6.81,0,0,1,56,48.12H54.74a1,1,0,0,1-.94-.8,8.91,8.91,0,0,1,0-2.87,1,1,0,0,1,.94-.81H56a6.7,6.7,0,0,1,1.23-2.12l-.63-1.11a.94.94,0,0,1,.21-1.21,8.71,8.71,0,0,1,2.49-1.44,1,1,0,0,1,1.17.42l.63,1.1a6.73,6.73,0,0,1,2.45,0l.64-1.1a.93.93,0,0,1,1.16-.42,8.71,8.71,0,0,1,2.49,1.44,1,1,0,0,1,.22,1.21l-.64,1.11a6.7,6.7,0,0,1,1.23,2.12H70a1,1,0,0,1,.94.79A8.7,8.7,0,0,1,70.89,47.31Zm0-24.24a1,1,0,0,1-.94.81H68.68A6.81,6.81,0,0,1,67.45,26l.63,1.1a1,1,0,0,1-.21,1.22,8.71,8.71,0,0,1-2.49,1.44,1,1,0,0,1-1.17-.42l-.63-1.1a6.73,6.73,0,0,1-2.45,0l-.64,1.1a.94.94,0,0,1-1.16.42,8.45,8.45,0,0,1-2.49-1.44,1,1,0,0,1-.22-1.22l.64-1.1A6.81,6.81,0,0,1,56,23.88H54.75a1,1,0,0,1-.94-.8,8.91,8.91,0,0,1,0-2.87,1,1,0,0,1,.94-.81H56a6.81,6.81,0,0,1,1.23-2.12l-.64-1.11A1,1,0,0,1,56.84,15a8.45,8.45,0,0,1,2.49-1.44,1,1,0,0,1,1.16.42l.64,1.1a6.73,6.73,0,0,1,2.45,0l.63-1.1a1,1,0,0,1,1.17-.42A8.66,8.66,0,0,1,67.86,15a1,1,0,0,1,.22,1.21l-.64,1.11a6.81,6.81,0,0,1,1.23,2.12H70a1,1,0,0,1,.94.8A8.91,8.91,0,0,1,70.9,23.07Zm-6-1.43a2.54,2.54,0,1,0-2.54,2.54A2.54,2.54,0,0,0,64.88,21.64Zm0,24.24a2.54,2.54,0,1,0-2.54,2.54A2.54,2.54,0,0,0,64.88,45.88Z"/><circle class="cls-1" cx="42.04" cy="34.75" r="9.9"/><path d="M42,25.72a9,9,0,1,1-9,9,9,9,0,0,1,9-9M42,24A10.78,10.78,0,1,0,52.81,34.75,10.79,10.79,0,0,0,42,24Z"/><text class="cls-2" transform="translate(35.08 37.49)">O</text><text class="cls-2" transform="translate(41.06 40.06)">S</text></svg>