<svg id="Layer_1" data-name="Layer 1" xmlns="http://www.w3.org/2000/svg" viewBox="0 0 100 100"><defs><style>.cls-1{fill:#f20505;}</style></defs><path d="M24.27,64.07h.66V68H25l3.55-3.92h.88l-3.11,3.37,3.09,3.91H28.6L25.9,67.9l-1,1.08v2.37h-.66Z"/><path d="M33.67,65.89h.63v5.46h-.63v-.91h-.05a1.72,1.72,0,0,1-1.62,1,1.76,1.76,0,0,1-1.8-2V65.89h.63v3.5a1.32,1.32,0,0,0,1.35,1.42,1.48,1.48,0,0,0,1.49-1.55Z"/><path d="M36.1,64.07h.63v2.86h.06a1.73,1.73,0,0,1,1.67-1.12c1.35,0,2.26,1.14,2.26,2.82s-.91,2.83-2.25,2.83a1.74,1.74,0,0,1-1.68-1.12h-.08v1H36.1Zm2.29,6.81c1.09,0,1.69-1,1.69-2.26s-.59-2.23-1.69-2.23-1.67.92-1.67,2.23S37.33,70.88,38.39,70.88Z"/><path d="M41.82,68.65c0-1.65,1-2.84,2.39-2.84a2.37,2.37,0,0,1,2.31,2.68v.32H42.45a1.87,1.87,0,0,0,1.86,2.07A1.52,1.52,0,0,0,45.79,70l.6.19a2.11,2.11,0,0,1-2.08,1.28A2.51,2.51,0,0,1,41.82,68.65Zm4.06-.4a1.72,1.72,0,0,0-1.67-1.86,1.84,1.84,0,0,0-1.75,1.86Z"/><path d="M47.91,65.89h.61v.84h0a1.56,1.56,0,0,1,1.49-.92h.33v.64a2.36,2.36,0,0,0-.38,0,1.38,1.38,0,0,0-1.47,1.39v3.53h-.63Z"/><path d="M52.1,71.35h-.63V65.89h.62v.86h0a1.66,1.66,0,0,1,1.61-.93,1.77,1.77,0,0,1,1.85,2v3.54H55v-3.5a1.32,1.32,0,0,0-1.38-1.45,1.43,1.43,0,0,0-1.49,1.54Z"/><path d="M57,68.65c0-1.65,1-2.84,2.39-2.84a2.37,2.37,0,0,1,2.31,2.68v.32H57.62a1.87,1.87,0,0,0,1.85,2.07A1.51,1.51,0,0,0,61,70l.6.19a2.09,2.09,0,0,1-2.08,1.28A2.5,2.5,0,0,1,57,68.65Zm4-.4a1.72,1.72,0,0,0-1.66-1.86,1.84,1.84,0,0,0-1.76,1.86Z"/><path d="M65.22,66.44H64.07v3.48c0,.69.39.89.82.89a1.13,1.13,0,0,0,.37,0l.14.58a1.7,1.7,0,0,1-.56.09,1.34,1.34,0,0,1-1.41-1.36V66.44h-.81v-.55h.81V64.58h.64v1.31h1.15Z"/><path d="M66.32,68.65c0-1.65,1-2.84,2.39-2.84A2.37,2.37,0,0,1,71,68.49v.32H67a1.87,1.87,0,0,0,1.86,2.07A1.52,1.52,0,0,0,70.29,70l.6.19a2.11,2.11,0,0,1-2.08,1.28A2.51,2.51,0,0,1,66.32,68.65Zm4.05-.4a1.72,1.72,0,0,0-1.66-1.86A1.83,1.83,0,0,0,67,68.25Z"/><path d="M75.49,67.25a1.22,1.22,0,0,0-1.26-.88c-.74,0-1.27.39-1.27.94s.32.75,1,.92l.83.2c.91.23,1.37.72,1.37,1.44,0,.93-.82,1.59-2,1.59a1.81,1.81,0,0,1-2-1.4l.61-.15a1.24,1.24,0,0,0,1.36,1c.84,0,1.39-.42,1.39-1s-.29-.74-.89-.89l-.89-.21c-1-.23-1.4-.73-1.4-1.46,0-.9.8-1.53,1.91-1.53a1.77,1.77,0,0,1,1.84,1.28Z"/><path d="M21.08,76.07l2.64,6.34h.06l2.65-6.34h.76v7.28h-.62V77.47h-.06l-2.45,5.88h-.61L21,77.47h0v5.88h-.63V76.07Z"/><path d="M28.72,81.82c0-1.08.86-1.42,2.09-1.57.92-.12,1.43-.13,1.43-.54v-.13A1.14,1.14,0,0,0,31,78.38a1.53,1.53,0,0,0-1.49.87l-.6-.21a2.1,2.1,0,0,1,2.07-1.23,1.75,1.75,0,0,1,1.94,1.83v3.71h-.64v-.86h0a1.79,1.79,0,0,1-1.69,1A1.63,1.63,0,0,1,28.72,81.82Zm3.52-.56v-.79a3.81,3.81,0,0,1-1.43.33c-.92.11-1.46.39-1.46,1s.53,1,1.25,1A1.58,1.58,0,0,0,32.24,81.26Z"/><path d="M35.19,83.35h-.64V77.89h.62v.86h0a1.66,1.66,0,0,1,1.61-.93,1.77,1.77,0,0,1,1.85,2v3.54h-.63v-3.5a1.32,1.32,0,0,0-1.38-1.45,1.42,1.42,0,0,0-1.48,1.54Z"/><path d="M40.08,81.82c0-1.08.86-1.42,2.1-1.57.91-.12,1.42-.13,1.42-.54v-.13a1.14,1.14,0,0,0-1.28-1.2,1.53,1.53,0,0,0-1.49.87l-.6-.21a2.1,2.1,0,0,1,2.07-1.23,1.75,1.75,0,0,1,1.94,1.83v3.71H43.6v-.86h0a1.79,1.79,0,0,1-1.69,1A1.63,1.63,0,0,1,40.08,81.82Zm3.52-.56v-.79a3.8,3.8,0,0,1-1.42.33c-.93.11-1.47.39-1.47,1s.53,1,1.25,1A1.58,1.58,0,0,0,43.6,81.26Z"/><path d="M45.86,84.42l.52-.35a1.69,1.69,0,0,0,1.62.87,1.41,1.41,0,0,0,1.61-1.49V82.22h0a1.72,1.72,0,0,1-1.68,1.07c-1.31,0-2.25-1-2.25-2.68s.91-2.8,2.26-2.8a1.76,1.76,0,0,1,1.68,1.12h.06v-1h.62v5.6c0,1.39-1,2-2.25,2A2.24,2.24,0,0,1,45.86,84.42Zm3.76-3.83c0-1.28-.6-2.2-1.67-2.2s-1.68,1-1.68,2.2.6,2.12,1.68,2.12S49.62,81.91,49.62,80.59Z"/><path d="M51.64,80.65c0-1.65,1-2.84,2.39-2.84a2.37,2.37,0,0,1,2.31,2.68v.32H52.27a1.87,1.87,0,0,0,1.86,2.07A1.52,1.52,0,0,0,55.61,82l.6.19a2.11,2.11,0,0,1-2.08,1.28A2.51,2.51,0,0,1,51.64,80.65Zm4.06-.4A1.72,1.72,0,0,0,54,78.39a1.84,1.84,0,0,0-1.75,1.86Z"/><path d="M57.73,77.89h.61v.84h.06a1.61,1.61,0,0,1,2.94.08h0a1.64,1.64,0,0,1,1.62-1c1,0,1.64.65,1.64,1.87v3.66H64V79.69a1.14,1.14,0,0,0-1.2-1.29,1.24,1.24,0,0,0-1.3,1.36v3.59h-.65V79.63a1.12,1.12,0,0,0-1.18-1.23,1.34,1.34,0,0,0-1.32,1.45v3.5h-.63Z"/><path d="M66,80.65c0-1.65,1-2.84,2.4-2.84a2.37,2.37,0,0,1,2.31,2.68v.32H66.66a1.87,1.87,0,0,0,1.85,2.07A1.51,1.51,0,0,0,70,82l.6.19a2.09,2.09,0,0,1-2.08,1.28A2.51,2.51,0,0,1,66,80.65Zm4.06-.4a1.72,1.72,0,0,0-1.66-1.86,1.83,1.83,0,0,0-1.75,1.86Z"/><path d="M72.74,83.35h-.63V77.89h.62v.86h0a1.66,1.66,0,0,1,1.61-.93,1.77,1.77,0,0,1,1.85,2v3.54h-.63v-3.5a1.32,1.32,0,0,0-1.38-1.45,1.43,1.43,0,0,0-1.49,1.54Z"/><path d="M80.06,78.44H78.9v3.48c0,.69.4.89.83.89a1.18,1.18,0,0,0,.37,0l.13.58a1.7,1.7,0,0,1-.56.09,1.33,1.33,0,0,1-1.4-1.36V78.44h-.82v-.55h.82V76.58h.63v1.31h1.16Z"/><path d="M72.49,36.75a1,1,0,0,1-.68,1.62H67.68C66.25,45.65,58.8,51.06,50,51.06c-8.34,0-16.18-5-17.68-12.69H28.19a1,1,0,0,1-.68-1.62l5.32-5.32a1,1,0,0,1,1.35,0l5.31,5.32a1,1,0,0,1-.67,1.62h-3.9c1.35,5.46,6.95,9.65,13.81,10.11V28.68H44.61a1,1,0,0,1-1-.95V27.1a1,1,0,0,1,1-1h4.12V23.45a5.08,5.08,0,1,1,2.54,0v2.69h4.12a1,1,0,0,1,1,1v.63a.94.94,0,0,1-1,.95H51.27v19.8c6.86-.46,12.46-4.65,13.81-10.11h-3.9a1,1,0,0,1-.67-1.62l5.31-5.32a1,1,0,0,1,1.35,0ZM35,35.84,33.5,34.35,32,35.84ZM50,21.07a2.54,2.54,0,1,0-2.54-2.54A2.54,2.54,0,0,0,50,21.07ZM68,35.84,66.5,34.35,65,35.84Z"/><path class="cls-1" d="M50.14,23.82a5.29,5.29,0,1,1,3.73-1.55A5.26,5.26,0,0,1,50.14,23.82Z"/><path d="M50.14,14.38A4.16,4.16,0,1,1,47.2,15.6a4.12,4.12,0,0,1,2.94-1.22m0-2.25A6.33,6.33,0,0,0,45.61,14a6.41,6.41,0,1,0,4.53-1.88Z"/></svg>