<svg id="Layer_1" data-name="Layer 1" xmlns="http://www.w3.org/2000/svg" viewBox="0 0 100 100"><defs><style>.cls-1{fill:#f20505;}.cls-2{font-size:10px;font-family:Inter-Light, Inter;font-weight:300;}</style></defs><path d="M68.35,29.22a2,2,0,0,1,2,2v7a2,2,0,0,1-2,2H31.65a2,2,0,0,1-2-2v-7a2,2,0,0,1,2-2h36.7m0-1H31.65a3,3,0,0,0-3,3v7a3,3,0,0,0,3,3h36.7a3,3,0,0,0,3-3v-7a3,3,0,0,0-3-3Z"/><path d="M70.3,29.22a2.86,2.86,0,0,1,1,2.18v6.65a4,4,0,0,1-1,2.66,4,4,0,0,1,1,2.66V50a4,4,0,0,1-4,4H32.75a4,4,0,0,1-4-4V43.37a4,4,0,0,1,1-2.66,3.93,3.93,0,0,1-1-2.66V31.4a3.12,3.12,0,0,1,1-2.31m3,1a1.33,1.33,0,0,0-1.33,1.33v6.65a1.33,1.33,0,0,0,1.33,1.33H67.32a1.33,1.33,0,0,0,1.33-1.33V31.4a1.33,1.33,0,0,0-1.33-1.33ZM67.32,42H32.75a1.33,1.33,0,0,0-1.33,1.33V50a1.33,1.33,0,0,0,1.33,1.33H67.32A1.33,1.33,0,0,0,68.65,50V43.37A1.33,1.33,0,0,0,67.32,42ZM58.68,46.7a2,2,0,1,1-2-2A2,2,0,0,1,58.68,46.7Zm3.32-14a2,2,0,1,1-2,2A2,2,0,0,1,62,32.73Zm2,14a2,2,0,1,1-2-2A2,2,0,0,1,64,46.7Z"/><path d="M41.57,12.91l-5.32,9.31a1.33,1.33,0,0,1-1.15.67,1.3,1.3,0,0,1-.66-.17,1.33,1.33,0,0,1-.5-1.81l5.32-9.31a1.33,1.33,0,1,1,2.31,1.31Zm7.2,0-5.32,9.31a1.34,1.34,0,0,1-1.15.67,1.3,1.3,0,0,1-.66-.17,1.33,1.33,0,0,1-.5-1.81l5.32-9.31a1.33,1.33,0,1,1,2.31,1.31Zm8.1,0-5.32,9.31a1.34,1.34,0,0,1-1.15.67,1.3,1.3,0,0,1-.66-.17,1.32,1.32,0,0,1-.5-1.81l5.32-9.31a1.33,1.33,0,1,1,2.31,1.31Zm7.15,0L58.7,22.22a1.33,1.33,0,0,1-1.15.67,1.3,1.3,0,0,1-.66-.17,1.33,1.33,0,0,1-.5-1.81l5.32-9.31A1.33,1.33,0,1,1,64,12.91Zm7.1,0L65.8,22.22a1.34,1.34,0,0,1-1.15.67,1.3,1.3,0,0,1-.66-.17,1.33,1.33,0,0,1-.5-1.81l5.32-9.31a1.33,1.33,0,1,1,2.31,1.31Z"/><path class="cls-1" d="M32.18,25.35A1.32,1.32,0,0,1,33.52,24l32.79,0a1.32,1.32,0,0,1,1.33,1.33,1.48,1.48,0,0,1-.18.66,1.34,1.34,0,0,1-1.16.66l-32.79,0A1.34,1.34,0,0,1,32.18,25.35Z"/><text class="cls-2" transform="translate(35.9 73.88)">DDOS<tspan x="-9" y="12">Mitigation</tspan></text></svg>