<svg id="Layer_1" data-name="Layer 1" xmlns="http://www.w3.org/2000/svg" viewBox="0 0 100 100"><defs><style>.cls-1{fill:#f20505;}.cls-2{fill:#fff;}.cls-3{fill:none;stroke:#fff;stroke-width:2px;}</style></defs><path class="cls-1" d="M32.44,26.25a11.54,11.54,0,0,1,23.07,0"/><polygon class="cls-1" points="46.43 28.37 59.34 15.46 60.75 15.46 69.14 23.66 68.66 25.35 47.35 30.06 46.43 28.37"/><path class="cls-2" d="M60.05,16.17l8.39,8.2-21.3,4.71L60.05,16.17m1.4-1.43-2.82,0L45.72,27.67,47.57,31l21.3-4.7,1-3.39-8.39-8.2Z"/><path class="cls-3" d="M75.79,34.79a1.42,1.42,0,0,1-.8.71L58.5,39.31h-.32a1.27,1.27,0,0,1-1-.48L50.56,30,44,38.83a1.27,1.27,0,0,1-1,.48h-.32L26.14,35.5a1.42,1.42,0,0,1-.8-.71,1.2,1.2,0,0,1-.08-1l3.81-8.88a1.29,1.29,0,0,1,1.35-.79l20.14,2.54,20.15-2.54a1.29,1.29,0,0,1,1.35.79l3.81,8.88A1.23,1.23,0,0,1,75.79,34.79ZM48.27,28.84,31.05,26.69,28.2,33.36l14.19,3.25Zm22.6,11.74v3.33A3.89,3.89,0,0,1,68,47.56l-15.78,4.2a5.9,5.9,0,0,1-3.33,0l-15.78-4.2a3.89,3.89,0,0,1-2.86-3.65V40.58a1.27,1.27,0,0,1,2.54,0v3.33a1.26,1.26,0,0,0,1,1.19L49.3,49.22V39.31a1.27,1.27,0,1,1,2.53,0v9.91L67.38,45.1a1.27,1.27,0,0,0,1-1.19V40.58a1.27,1.27,0,1,1,2.54,0Zm2.06-7.22-2.85-6.67L52.86,28.84l5.87,7.77Z"/><path d="M24.4,62.81,27,69.15h.06l2.64-6.34h.77v7.28h-.62V64.21h-.06l-2.46,5.88h-.6l-2.46-5.88h-.06v5.88h-.62V62.81Z"/><path d="M35.77,64.63h.64v5.46h-.64v-.91h-.05a1.7,1.7,0,0,1-1.62,1,1.77,1.77,0,0,1-1.8-2V64.63h.64v3.49a1.31,1.31,0,0,0,1.34,1.42A1.47,1.47,0,0,0,35.77,68Z"/><path d="M38.7,70.09h-.63V62.81h.63Z"/><path d="M42.52,65.18H41.37v3.48c0,.69.39.89.82.89a1.13,1.13,0,0,0,.37,0l.14.57a1.43,1.43,0,0,1-.56.1,1.35,1.35,0,0,1-1.41-1.36V65.18h-.81v-.55h.81V63.32h.64v1.31h1.15Z"/><path d="M43.81,63.23a.47.47,0,0,1,.48-.45.46.46,0,0,1,.47.45.47.47,0,0,1-.47.46A.48.48,0,0,1,43.81,63.23Zm.15,1.4h.64v5.46H44Z"/><path d="M49.22,67.26h-3v-.59h3Z"/><path d="M56,65.08a2.2,2.2,0,0,0-2.21-1.75c-1.38,0-2.51,1.1-2.51,3.12s1.13,3.11,2.51,3.11A2.19,2.19,0,0,0,56,67.81h.67a2.84,2.84,0,0,1-2.88,2.38c-1.84,0-3.15-1.46-3.15-3.74s1.31-3.74,3.15-3.74a2.83,2.83,0,0,1,2.88,2.37Z"/><path d="M58.7,70.09h-.64V62.81h.64Z"/><path d="M60.08,67.38c0-1.67,1-2.83,2.41-2.83s2.4,1.16,2.4,2.83-1,2.82-2.4,2.82S60.08,69.05,60.08,67.38Zm4.17,0c0-1.22-.63-2.25-1.76-2.25s-1.77,1-1.77,2.25.63,2.24,1.77,2.24S64.25,68.61,64.25,67.38Z"/><path d="M69.74,64.63h.64v5.46h-.64v-.91h0a1.7,1.7,0,0,1-1.62,1,1.77,1.77,0,0,1-1.8-2V64.63h.64v3.49a1.31,1.31,0,0,0,1.34,1.42A1.47,1.47,0,0,0,69.74,68Z"/><path d="M71.76,67.37c0-1.68.91-2.82,2.26-2.82a1.73,1.73,0,0,1,1.67,1.12h0V62.81h.64v7.28h-.62v-1h-.07A1.76,1.76,0,0,1,74,70.2C72.67,70.2,71.76,69.07,71.76,67.37Zm4,0c0-1.31-.6-2.23-1.67-2.23s-1.68,1-1.68,2.23.59,2.26,1.68,2.26S75.75,68.68,75.75,67.36Z"/><path d="M18.56,82.19c-1.84,0-3.15-1.47-3.15-3.74s1.31-3.74,3.15-3.74,3.15,1.46,3.15,3.74S20.4,82.19,18.56,82.19Zm0-6.86c-1.43,0-2.51,1.15-2.51,3.12s1.07,3.11,2.51,3.11,2.5-1.15,2.5-3.11S20,75.33,18.56,75.33Z"/><path d="M23.31,74.81h.63v2.86H24a1.73,1.73,0,0,1,1.67-1.12c1.34,0,2.25,1.14,2.25,2.82S27,82.2,25.68,82.2A1.73,1.73,0,0,1,24,81.07h-.08v1h-.61Zm2.29,6.81c1.09,0,1.69-1,1.69-2.26s-.6-2.23-1.69-2.23-1.67.92-1.67,2.23S24.54,81.62,25.6,81.62Z"/><path d="M30,76.63v6a1.38,1.38,0,0,1-1.46,1.52h-.15v-.59h.13a.8.8,0,0,0,.83-.92v-6Zm-.8-1.4a.47.47,0,0,1,.48-.45.46.46,0,0,1,.47.45.47.47,0,0,1-.47.46A.48.48,0,0,1,29.15,75.23Z"/><path d="M31.34,79.39c0-1.65,1-2.84,2.4-2.84a2.37,2.37,0,0,1,2.31,2.68v.32H32a1.87,1.87,0,0,0,1.85,2.07,1.51,1.51,0,0,0,1.48-.89l.6.19a2.1,2.1,0,0,1-2.08,1.28A2.51,2.51,0,0,1,31.34,79.39ZM35.4,79a1.72,1.72,0,0,0-1.66-1.86A1.84,1.84,0,0,0,32,79Z"/><path d="M37.15,79.38c0-1.64,1-2.83,2.4-2.83a2,2,0,0,1,2.09,1.7H41a1.41,1.41,0,0,0-1.44-1.12c-1,0-1.77.91-1.77,2.23s.7,2.26,1.77,2.26A1.41,1.41,0,0,0,41,80.49h.64a2,2,0,0,1-2.09,1.71C38.1,82.2,37.15,81,37.15,79.38Z"/><path d="M45.15,77.18H44v3.48c0,.69.4.89.83.89a1.18,1.18,0,0,0,.37,0l.13.57a1.43,1.43,0,0,1-.56.1,1.35,1.35,0,0,1-1.41-1.36V77.18h-.81v-.55h.81V75.32H44v1.31h1.16Z"/><path d="M51.74,75.3c-1,0-1.72.57-1.72,1.36s.75,1.12,1.46,1.32l.76.22c.93.26,2,.74,2,2s-.95,2.06-2.52,2.06-2.43-.79-2.51-1.94h.69c.07.86.83,1.33,1.82,1.33s1.88-.58,1.88-1.46S53,79.06,52.06,78.8l-.88-.26c-1.14-.34-1.8-.92-1.8-1.86a2.41,2.41,0,0,1,4.74-.05h-.64A1.57,1.57,0,0,0,51.74,75.3Z"/><path d="M57.84,77.18H56.68v3.48c0,.69.39.89.82.89a1.09,1.09,0,0,0,.37,0l.14.57a1.43,1.43,0,0,1-.56.1A1.35,1.35,0,0,1,56,80.81V77.18h-.81v-.55H56V75.32h.64v1.31h1.16Z"/><path d="M58.93,79.38c0-1.67,1-2.83,2.4-2.83s2.41,1.16,2.41,2.83-1,2.82-2.41,2.82S58.93,81.05,58.93,79.38Zm4.17,0c0-1.22-.63-2.25-1.77-2.25s-1.76,1-1.76,2.25.63,2.24,1.76,2.24S63.1,80.61,63.1,79.38Z"/><path d="M65.12,76.63h.61v.84h0a1.56,1.56,0,0,1,1.49-.93l.34,0v.64a2.3,2.3,0,0,0-.38,0,1.39,1.39,0,0,0-1.48,1.4v3.53h-.63Z"/><path d="M68.41,80.56c0-1.08.87-1.42,2.1-1.58.92-.11,1.43-.12,1.43-.53v-.13a1.14,1.14,0,0,0-1.29-1.2,1.51,1.51,0,0,0-1.48.87l-.6-.21a2.1,2.1,0,0,1,2.07-1.23,1.73,1.73,0,0,1,1.93,1.83v3.71h-.63v-.87h0a1.78,1.78,0,0,1-1.69,1A1.64,1.64,0,0,1,68.41,80.56ZM71.94,80V79.2a3.61,3.61,0,0,1-1.43.34c-.92.11-1.46.39-1.46,1s.53,1,1.25,1A1.58,1.58,0,0,0,71.94,80Z"/><path d="M74.2,83.15l.52-.34a1.68,1.68,0,0,0,1.61.87c1,0,1.62-.47,1.62-1.49V81h-.06A1.7,1.7,0,0,1,76.22,82C74.91,82,74,81,74,79.34s.91-2.79,2.26-2.79a1.73,1.73,0,0,1,1.67,1.12H78v-1h.62v5.6c0,1.39-1,2-2.26,2A2.22,2.22,0,0,1,74.2,83.15ZM78,79.33c0-1.28-.6-2.2-1.67-2.2s-1.69,1-1.69,2.2.61,2.12,1.69,2.12S78,80.65,78,79.33Z"/><path d="M80,79.39c0-1.65,1-2.84,2.39-2.84a2.37,2.37,0,0,1,2.31,2.68v.32H80.61a1.87,1.87,0,0,0,1.86,2.07,1.51,1.51,0,0,0,1.47-.89l.61.19a2.11,2.11,0,0,1-2.08,1.28A2.51,2.51,0,0,1,80,79.39Zm4-.4a1.72,1.72,0,0,0-1.66-1.86A1.84,1.84,0,0,0,80.62,79Z"/><path d="M75.72,35.59a1.35,1.35,0,0,1-.8.71L58.43,40.11h-.32a1.29,1.29,0,0,1-1-.47l-6.59-8.81-6.58,8.81a1.29,1.29,0,0,1-1,.47h-.32L26.07,36.3a1.35,1.35,0,0,1-.8-.71,1.17,1.17,0,0,1-.08-1L29,25.68a1.28,1.28,0,0,1,1.35-.8l20.14,2.54,20.15-2.54a1.28,1.28,0,0,1,1.35.8l3.81,8.88A1.21,1.21,0,0,1,75.72,35.59Zm-27.53-6L31,27.5l-2.85,6.66,14.19,3.25ZM70.8,41.38v3.33a3.88,3.88,0,0,1-2.86,3.65l-15.78,4.2a6,6,0,0,1-1.67.24,6,6,0,0,1-1.66-.24l-15.78-4.2a3.88,3.88,0,0,1-2.86-3.65V41.38a1.27,1.27,0,1,1,2.54,0v3.33a1.25,1.25,0,0,0,1,1.19L49.23,50V40.11a1.27,1.27,0,1,1,2.53,0V50L67.31,45.9a1.26,1.26,0,0,0,1-1.19V41.38a1.27,1.27,0,1,1,2.54,0Zm2.06-7.22L70,27.5,52.79,29.64l5.87,7.77Z"/></svg>