<svg id="Layer_1" data-name="Layer 1" xmlns="http://www.w3.org/2000/svg" viewBox="0 0 100 100"><defs><style>.cls-1{fill:#f20505;}.cls-2{font-size:40.61px;font-family:FontAwesome5Pro-Light, "Font Awesome 5 Pro";font-weight:300;}.cls-3{font-size:20.45px;font-family:FontAwesome5Pro-Solid, "Font Awesome 5 Pro";}</style></defs><circle class="cls-1" cx="49.89" cy="47.92" r="5.61"/><text class="cls-2" transform="translate(26.78 50.41)"></text><path d="M30.47,66.68c-1.42,0-2.48,1.16-2.48,3.12s1.06,3.11,2.53,3.11a2.21,2.21,0,0,0,2.27-2.4H30.67v-.6h2.77v.6a2.81,2.81,0,0,1-2.92,3c-1.91,0-3.18-1.46-3.18-3.74s1.29-3.74,3.13-3.74a2.89,2.89,0,0,1,2.92,2.37h-.68A2.27,2.27,0,0,0,30.47,66.68Z"/><path d="M34.67,70.74c0-1.65,1-2.84,2.4-2.84a2.37,2.37,0,0,1,2.31,2.68v.32H35.31A1.87,1.87,0,0,0,37.16,73a1.51,1.51,0,0,0,1.48-.89l.6.19a2.1,2.1,0,0,1-2.08,1.28A2.51,2.51,0,0,1,34.67,70.74Zm4.06-.4a1.72,1.72,0,0,0-1.66-1.86,1.84,1.84,0,0,0-1.76,1.86Z"/><path d="M40.48,70.73c0-1.67,1-2.83,2.4-2.83s2.41,1.16,2.41,2.83-1,2.82-2.41,2.82S40.48,72.4,40.48,70.73Zm4.17,0c0-1.22-.63-2.25-1.77-2.25s-1.76,1-1.76,2.25S41.75,73,42.88,73,44.65,72,44.65,70.73Z"/><path d="M49.61,66.16h.67v6.68h3.47v.6H49.61Z"/><path d="M54.83,70.73c0-1.67,1-2.83,2.4-2.83s2.4,1.16,2.4,2.83-1,2.82-2.4,2.82S54.83,72.4,54.83,70.73Zm4.17,0c0-1.22-.64-2.25-1.77-2.25s-1.77,1-1.77,2.25S56.09,73,57.23,73,59,72,59,70.73Z"/><path d="M60.75,71.91c0-1.08.86-1.42,2.09-1.58.92-.11,1.43-.12,1.43-.53v-.13A1.14,1.14,0,0,0,63,68.47a1.52,1.52,0,0,0-1.48.87l-.6-.21A2.1,2.1,0,0,1,63,67.9a1.74,1.74,0,0,1,1.93,1.83v3.71h-.63v-.87h0a1.78,1.78,0,0,1-1.69,1A1.63,1.63,0,0,1,60.75,71.91Zm3.52-.57v-.78a3.81,3.81,0,0,1-1.43.33c-.92.11-1.46.39-1.46,1s.53,1,1.25,1A1.59,1.59,0,0,0,64.27,71.34Z"/><path d="M66.3,70.72c0-1.68.91-2.82,2.26-2.82A1.71,1.71,0,0,1,70.22,69h.06V66.16h.64v7.28H70.3v-1h-.08a1.74,1.74,0,0,1-1.67,1.12C67.21,73.55,66.3,72.42,66.3,70.72Zm4,0c0-1.31-.6-2.23-1.67-2.23s-1.68,1-1.68,2.23S67.53,73,68.62,73,70.29,72,70.29,70.71Z"/><path d="M27.56,78.16H30a1.87,1.87,0,0,1,2.14,1.9A1.52,1.52,0,0,1,31,81.65v.06a1.69,1.69,0,0,1,1.44,1.82c0,1.1-.72,1.91-2.28,1.91h-2.6Zm2.52,3.29a1.36,1.36,0,0,0,1.44-1.39c0-.77-.5-1.31-1.5-1.31H28.23v2.7Zm.08,3.39c1.12,0,1.64-.56,1.64-1.31A1.5,1.5,0,0,0,30.18,82H28.23v2.8Z"/><path d="M33.64,83.91c0-1.08.86-1.42,2.09-1.58.92-.11,1.43-.12,1.43-.53v-.13a1.14,1.14,0,0,0-1.28-1.2,1.53,1.53,0,0,0-1.49.87l-.6-.21a2.1,2.1,0,0,1,2.07-1.23,1.75,1.75,0,0,1,1.94,1.83v3.71h-.64v-.87h0a1.78,1.78,0,0,1-1.69,1A1.63,1.63,0,0,1,33.64,83.91Zm3.52-.57v-.78a3.81,3.81,0,0,1-1.43.33c-.92.11-1.46.39-1.46,1s.53,1,1.25,1A1.58,1.58,0,0,0,37.16,83.34Z"/><path d="M40.1,85.44h-.63V78.16h.63Z"/><path d="M41.5,83.91c0-1.08.87-1.42,2.1-1.58.92-.11,1.43-.12,1.43-.53v-.13a1.14,1.14,0,0,0-1.29-1.2,1.51,1.51,0,0,0-1.48.87l-.6-.21a2.09,2.09,0,0,1,2.06-1.23,1.74,1.74,0,0,1,1.94,1.83v3.71H45v-.87h0a1.79,1.79,0,0,1-1.69,1A1.64,1.64,0,0,1,41.5,83.91ZM45,83.34v-.78a3.86,3.86,0,0,1-1.43.33c-.92.11-1.47.39-1.47,1s.54,1,1.25,1A1.59,1.59,0,0,0,45,83.34Z"/><path d="M48,85.44h-.63V80H48v.85H48a1.64,1.64,0,0,1,1.6-.92,1.78,1.78,0,0,1,1.86,2v3.54h-.64v-3.5a1.32,1.32,0,0,0-1.37-1.45A1.43,1.43,0,0,0,48,82Z"/><path d="M52.85,82.73c0-1.64,1-2.83,2.4-2.83a2,2,0,0,1,2.09,1.7H56.7a1.41,1.41,0,0,0-1.44-1.12c-1,0-1.77.91-1.77,2.23S54.19,85,55.26,85a1.41,1.41,0,0,0,1.45-1.12h.64a2,2,0,0,1-2.09,1.7C53.8,85.55,52.85,84.36,52.85,82.73Z"/><path d="M58.55,78.58a.47.47,0,0,1,.48-.45A.46.46,0,1,1,59,79,.48.48,0,0,1,58.55,78.58ZM58.7,80h.64v5.46H58.7Z"/><path d="M61.65,85.44H61V80h.62v.85h.06a1.64,1.64,0,0,1,1.6-.92,1.78,1.78,0,0,1,1.86,2v3.54h-.64v-3.5a1.32,1.32,0,0,0-1.38-1.45A1.42,1.42,0,0,0,61.65,82Z"/><path d="M66.76,86.51l.52-.35a1.68,1.68,0,0,0,1.61.87c1,0,1.62-.47,1.62-1.49V84.31h-.06a1.7,1.7,0,0,1-1.67,1.07c-1.31,0-2.25-1-2.25-2.69s.91-2.79,2.26-2.79A1.76,1.76,0,0,1,70.47,81h.06V80h.62v5.6c0,1.39-1,2-2.26,2A2.23,2.23,0,0,1,66.76,86.51Zm3.76-3.83c0-1.28-.6-2.2-1.67-2.2s-1.68,1-1.68,2.2.6,2.12,1.68,2.12S70.52,84,70.52,82.68Z"/><circle class="cls-1" cx="49.97" cy="22.05" r="5.61"/><text class="cls-3" transform="translate(37.59 27.07) rotate(32.55)"></text><circle class="cls-1" cx="42.13" cy="35.37" r="5.61"/><text class="cls-3" transform="matrix(-0.02, 1, -1, -0.02, 54.78, 40.03)"></text><text class="cls-3" transform="matrix(0.88, -0.48, 0.48, 0.88, 40.03, 47.76)"></text></svg>