<svg id="Layer_1" data-name="Layer 1" xmlns="http://www.w3.org/2000/svg" viewBox="0 0 100 100"><defs><style>.cls-1{font-size:10px;font-family:Inter-Light, Inter;font-weight:300;}.cls-2{letter-spacing:-0.02em;}.cls-3{fill:#f20505;}</style></defs><text class="cls-1" transform="translate(37 75.36)">Mic<tspan class="cls-2" x="16.69" y="0">r</tspan><tspan x="20.09" y="0">o</tspan><tspan x="-19.52" y="12">Segmentation</tspan></text><rect class="cls-3" x="26.59" y="28.27" width="12.49" height="10.09"/><rect class="cls-3" x="61.69" y="11.07" width="12.49" height="10.09"/><rect class="cls-3" x="51.78" y="44.72" width="21.1" height="10.09"/><path d="M75.91,12.68v6.48a3.19,3.19,0,0,1-3.24,3.23H27.33a3.19,3.19,0,0,1-3.24-3.23V12.68a3.2,3.2,0,0,1,3.24-3.24H72.67A3.2,3.2,0,0,1,75.91,12.68Zm0,17.37v6.48a3.2,3.2,0,0,1-3.24,3.24H27.33a3.2,3.2,0,0,1-3.24-3.24V30.05a3.19,3.19,0,0,1,3.24-3.23H72.67A3.19,3.19,0,0,1,75.91,30.05Zm0,17.45V54a3.2,3.2,0,0,1-3.24,3.24H27.33A3.2,3.2,0,0,1,24.09,54V47.5a3.2,3.2,0,0,1,3.24-3.24H72.67A3.2,3.2,0,0,1,75.91,47.5ZM59.72,12.68H27.33v6.48H59.72ZM37,30.05H27.33v6.48H37ZM50,47.5H27.33V54H50ZM72.67,30.05H40.28v6.48H72.67Zm0,17.45H53.24V54H72.67Zm0-34.82H63v6.48h9.72Z"/></svg>