<svg id="Layer_1" data-name="Layer 1" xmlns="http://www.w3.org/2000/svg" viewBox="0 0 100 100"><defs><style>.cls-1{font-size:10px;font-family:Inter-Light, Inter;}.cls-1,.cls-3{font-weight:300;}.cls-2{letter-spacing:-0.01em;}.cls-3{font-size:40.61px;font-family:FontAwesome6Pro-Light, "Font Awesome 6 Pro";}.cls-4{fill:#f20505;}.cls-5{fill:#fff;}</style></defs><text class="cls-1" transform="translate(19.81 72.12)">Multi-Cloud <tspan x="0.86" y="12">File S</tspan><tspan class="cls-2" x="26.25" y="12">t</tspan><tspan x="29.78" y="12">orage</tspan></text><text class="cls-3" transform="translate(22.9 49.69)"></text><path class="cls-4" d="M61.69,55.15A2.67,2.67,0,0,1,59,52.48V43.84a1.36,1.36,0,0,1,.13-.61,1.44,1.44,0,0,1-.13-.62v-7.4a2.67,2.67,0,0,1,2.67-2.68H79a2.68,2.68,0,0,1,2.67,2.68v7.4a1.6,1.6,0,0,1-.13.62,1.51,1.51,0,0,1,.13.61v8.64A2.68,2.68,0,0,1,79,55.15Z"/><path class="cls-5" d="M79,34a1.24,1.24,0,0,1,1.23,1.24v7.4H60.45v-7.4A1.25,1.25,0,0,1,61.69,34H79m-12,6.17h.62a.31.31,0,0,0,.31-.31v-.92h4.93v.92a.31.31,0,0,0,.31.31h.62a.31.31,0,0,0,.31-.31V38.29a.61.61,0,0,0-.62-.61H67.24a.61.61,0,0,0-.62.61v1.54a.31.31,0,0,0,.31.31m13.26,3.7v8.64A1.23,1.23,0,0,1,79,53.71H61.69a1.24,1.24,0,0,1-1.24-1.23V43.84H80.19M66.93,50h.62a.31.31,0,0,0,.31-.31v-.92h4.93v.92a.31.31,0,0,0,.31.31h.62A.31.31,0,0,0,74,49.7V48.16a.61.61,0,0,0-.62-.61H67.24a.61.61,0,0,0-.62.61V49.7a.31.31,0,0,0,.31.31M79,31.1H61.69a4.11,4.11,0,0,0-4.11,4.11v7.4a3.18,3.18,0,0,0,.06.62,3.08,3.08,0,0,0-.06.61v8.64a4.11,4.11,0,0,0,4.11,4.11H79a4.11,4.11,0,0,0,4.11-4.11V43.84a3.08,3.08,0,0,0-.06-.61,3.18,3.18,0,0,0,.06-.62v-7.4A4.11,4.11,0,0,0,79,31.1Z"/></svg>