<svg id="Layer_1" data-name="Layer 1" xmlns="http://www.w3.org/2000/svg" viewBox="0 0 100 100"><defs><style>.cls-1{fill:#f20505;}.cls-2{font-size:10px;font-family:Inter-Light, Inter;}.cls-2,.cls-3{font-weight:300;}.cls-3{font-size:47.34px;font-family:FontAwesome6Pro-Light, "Font Awesome 6 Pro";}</style></defs><path class="cls-1" d="M49.83,17.91V61L44.1,58s-3.47-3.82-4.51-4.69a35.68,35.68,0,0,1-4.34-5.72c-.17-.52-3.12-6.6-3.12-6.6l-1.39-7.12-.17-7.46Z"/><text class="cls-2" transform="translate(36.32 82.77)">SIEM</text><text class="cls-3" transform="translate(26.25 57.17)"></text><path d="M31.3,38.09l1.39,4.19L29,43.5a.54.54,0,0,1-.69-.35l-.18-.52-1.57.52a.55.55,0,0,1-.7-.35l-.35-1a.56.56,0,0,1,.35-.7l1.57-.52L27.28,40a.55.55,0,0,1,.35-.7Z"/><path d="M34.32,45.79l2.06,3.91L33,51.5a.55.55,0,0,1-.74-.23L32,50.78l-1.47.77a.55.55,0,0,1-.74-.23l-.52-1a.56.56,0,0,1,.23-.75l1.47-.77-.26-.49a.55.55,0,0,1,.24-.74Z"/><path d="M39,52.61l2.93,3.3L39,58.48a.55.55,0,0,1-.78,0L37.87,58l-1.24,1.1a.55.55,0,0,1-.78,0l-.74-.83a.55.55,0,0,1,0-.78l1.24-1.1L36,56a.55.55,0,0,1,0-.78Z"/><path d="M72.37,39.88a.55.55,0,0,1,.35.7l-.17.53,1.57.52a.56.56,0,0,1,.35.7l-.35,1.05a.56.56,0,0,1-.7.35l-1.57-.53-.18.53a.55.55,0,0,1-.69.35l-3.67-1.22,1.39-4.2Z"/><path d="M69.1,48.16a.56.56,0,0,1,.24.75l-.26.49,1.47.77a.56.56,0,0,1,.23.75l-.52,1a.54.54,0,0,1-.74.24l-1.47-.77-.26.48a.55.55,0,0,1-.74.24l-3.43-1.8,2.06-3.92Z"/><path d="M63.92,55.75a.55.55,0,0,1,0,.78L63.6,57l1.24,1.1a.55.55,0,0,1,0,.78l-.74.82a.55.55,0,0,1-.78.05l-1.24-1.1-.36.41a.55.55,0,0,1-.78.05L58.1,56.49,61,53.18Z"/></svg>