<svg id="Layer_1" data-name="Layer 1" xmlns="http://www.w3.org/2000/svg" viewBox="0 0 100 100"><defs><style>.cls-1{font-size:40.61px;font-family:FontAwesome5Pro-Light, "Font Awesome 5 Pro";font-weight:300;}.cls-2{fill:#f12800;}</style></defs><path d="M28.46,67.08a2.21,2.21,0,0,0-2.22-1.75c-1.38,0-2.5,1.1-2.5,3.11s1.12,3.12,2.5,3.12a2.21,2.21,0,0,0,2.22-1.75h.67a2.84,2.84,0,0,1-2.89,2.37c-1.84,0-3.14-1.46-3.14-3.74s1.3-3.74,3.14-3.74a2.85,2.85,0,0,1,2.89,2.38Z"/><path d="M30.27,69.38c0-1.68,1-2.83,2.4-2.83s2.41,1.15,2.41,2.83a2.52,2.52,0,0,1-2.41,2.82C31.26,72.2,30.27,71,30.27,69.38Zm4.17,0c0-1.22-.63-2.26-1.77-2.26s-1.77,1-1.77,2.26.64,2.24,1.77,2.24S34.44,70.6,34.44,69.38Z"/><path d="M36.46,66.62h.61v.84h.06a1.61,1.61,0,0,1,2.94.08h0a1.64,1.64,0,0,1,1.61-1c1,0,1.65.65,1.65,1.88v3.65h-.64V68.43a1.14,1.14,0,0,0-1.2-1.3,1.24,1.24,0,0,0-1.3,1.36v3.59h-.65V68.37a1.12,1.12,0,0,0-1.18-1.24,1.36,1.36,0,0,0-1.32,1.46v3.49h-.63Z"/><path d="M45,66.62h.61v1h.08a1.73,1.73,0,0,1,1.67-1.11c1.35,0,2.26,1.13,2.26,2.82s-.91,2.83-2.25,2.83a1.75,1.75,0,0,1-1.68-1.13h-.06v3.06H45Zm2.29,5c1.09,0,1.69-1,1.69-2.26s-.59-2.24-1.69-2.24-1.67.93-1.67,2.24S46.26,71.62,47.32,71.62Z"/><path d="M51.66,72.08H51V64.8h.63Z"/><path d="M53.19,65.23a.47.47,0,0,1,.47-.46.48.48,0,0,1,.48.46.47.47,0,0,1-.48.45A.46.46,0,0,1,53.19,65.23Zm.15,1.39H54v5.46h-.63Z"/><path d="M55.38,70.56c0-1.08.86-1.43,2.1-1.58.91-.11,1.43-.12,1.43-.53v-.13a1.14,1.14,0,0,0-1.29-1.2,1.5,1.5,0,0,0-1.48.87l-.61-.22a2.1,2.1,0,0,1,2.07-1.22,1.74,1.74,0,0,1,1.94,1.83v3.7h-.63v-.86h0a1.82,1.82,0,0,1-1.7,1A1.64,1.64,0,0,1,55.38,70.56ZM58.91,70V69.2a3.91,3.91,0,0,1-1.43.33c-.93.12-1.47.4-1.47,1.06s.53,1,1.25,1A1.59,1.59,0,0,0,58.91,70Z"/><path d="M61.85,72.08h-.64V66.62h.62v.86h.06a1.64,1.64,0,0,1,1.6-.93,1.78,1.78,0,0,1,1.85,2v3.53h-.63V68.59a1.32,1.32,0,0,0-1.38-1.46,1.43,1.43,0,0,0-1.48,1.54Z"/><path d="M66.73,69.38c0-1.64,1-2.83,2.4-2.83a2,2,0,0,1,2.09,1.69h-.64a1.42,1.42,0,0,0-1.44-1.12c-1,0-1.78.91-1.78,2.24s.71,2.26,1.78,2.26a1.41,1.41,0,0,0,1.45-1.13h.63a2,2,0,0,1-2.08,1.71C67.67,72.2,66.73,71,66.73,69.38Z"/><path d="M72.29,69.39c0-1.66,1-2.84,2.39-2.84A2.37,2.37,0,0,1,77,69.23v.31H72.93a1.87,1.87,0,0,0,1.85,2.08,1.52,1.52,0,0,0,1.48-.9l.6.2a2.11,2.11,0,0,1-2.08,1.28A2.52,2.52,0,0,1,72.29,69.39ZM76.35,69a1.72,1.72,0,0,0-1.67-1.86A1.85,1.85,0,0,0,72.93,69Z"/><path d="M43.24,79.08A2.19,2.19,0,0,0,41,77.33c-1.38,0-2.51,1.1-2.51,3.11s1.13,3.12,2.51,3.12a2.19,2.19,0,0,0,2.21-1.75h.67A2.83,2.83,0,0,1,41,84.18c-1.84,0-3.15-1.46-3.15-3.74S39.19,76.7,41,76.7a2.84,2.84,0,0,1,2.88,2.38Z"/><path d="M45,76.8H50.3v.6H48v6.68h-.67V77.4H45Z"/><path d="M51.79,76.8h2.35A2.09,2.09,0,0,1,56.49,79a2,2,0,0,1-1.38,2l1.68,3.08H56l-1.59-3h-2v2.94h-.67Zm2.34,3.73c1.14,0,1.7-.59,1.7-1.55a1.5,1.5,0,0,0-1.71-1.58H52.46v3.13Z"/><path d="M58.1,76.8h.67v6.69h3.47v.59H58.1Z"/><text class="cls-1" transform="translate(34.77 49.72)"></text><path class="cls-2" d="M44.27,35.68l-2.94-3a.42.42,0,0,1,0-.6l1-1a.43.43,0,0,1,.61,0l1.63,1.66L48.35,29a.43.43,0,0,1,.6,0l1,1a.42.42,0,0,1,0,.6l-5.09,5.05A.4.4,0,0,1,44.27,35.68Z"/><path class="cls-2" d="M45.63,42.15a1.9,1.9,0,1,1-1.9-1.9A1.89,1.89,0,0,1,45.63,42.15Z"/></svg>