<svg id="Layer_1" data-name="Layer 1" xmlns="http://www.w3.org/2000/svg" viewBox="0 0 100 100"><defs><style>.cls-1{font-size:10px;font-family:Inter-Light, Inter;}.cls-1,.cls-2{font-weight:300;}.cls-2{font-size:40.61px;font-family:FontAwesome6Pro-Light, "Font Awesome 6 Pro";}.cls-3{fill:#f20505;}.cls-4{fill:none;}.cls-5{fill:#fff;}</style></defs><text class="cls-1" transform="translate(19.33 77.66)">Public Cloud </text><text class="cls-2" transform="translate(75.04 24.22) rotate(180)"></text><path class="cls-3" d="M68.38,56.19a9,9,0,1,1,9-9A9,9,0,0,1,68.38,56.19Z"/><path d="M68.38,39.33a7.87,7.87,0,1,1-7.87,7.87,7.86,7.86,0,0,1,7.87-7.87m0-2.25A10.12,10.12,0,1,0,78.49,47.2,10.13,10.13,0,0,0,68.38,37.08Z"/><path class="cls-4" d="M64.78,50.58h2.45a4.17,4.17,0,0,1,4.13,3.9c.25-.11.51-.23.75-.36A4.89,4.89,0,0,0,70.37,51h1.78a3.82,3.82,0,0,1,2.5,1,7.76,7.76,0,0,0,1.59-4.72A7.87,7.87,0,1,0,62,51.73,4.09,4.09,0,0,1,64.78,50.58ZM71,44.06a2.69,2.69,0,0,1,0,5.37,2.77,2.77,0,0,1-1.92-.79,3.8,3.8,0,0,0,.77-2.28,3.7,3.7,0,0,0-.46-1.77A2.82,2.82,0,0,1,71,44.06Zm-5-.77a3.07,3.07,0,1,1-3.07,3.07A3.06,3.06,0,0,1,66,43.29Z"/><path class="cls-5" d="M70.37,51a4.89,4.89,0,0,1,1.74,3.15,7.79,7.79,0,0,0,2.54-2.2,3.82,3.82,0,0,0-2.5-1Z"/><circle class="cls-5" cx="66.01" cy="46.36" r="3.07"/><path class="cls-5" d="M69.08,48.64a2.77,2.77,0,0,0,1.92.79,2.69,2.69,0,0,0,0-5.37,2.82,2.82,0,0,0-1.61.53,3.7,3.7,0,0,1,.46,1.77A3.8,3.8,0,0,1,69.08,48.64Z"/><path class="cls-5" d="M67.23,50.58H64.78A4.09,4.09,0,0,0,62,51.73a7.86,7.86,0,0,0,6.43,3.33,8,8,0,0,0,3-.58A4.17,4.17,0,0,0,67.23,50.58Z"/></svg>