<svg id="Layer_1" data-name="Layer 1" xmlns="http://www.w3.org/2000/svg" viewBox="0 0 100 100"><defs><style>.cls-1{font-size:10px;font-family:Inter-Light, Inter;}.cls-1,.cls-4{font-weight:300;}.cls-2{letter-spacing:-0.02em;}.cls-3{letter-spacing:-0.01em;}.cls-4{font-size:40.61px;font-family:FontAwesome6Pro-Light, "Font Awesome 6 Pro";}.cls-5{fill:#f20505;}.cls-6{fill:none;}.cls-7{fill:#fff;}</style></defs><text class="cls-1" transform="translate(17.34 77.62)">Pri<tspan class="cls-2" x="12.14" y="0">v</tspan><tspan x="17.42" y="0">a</tspan><tspan class="cls-3" x="22.99" y="0">t</tspan><tspan x="26.51" y="0">e Cloud </tspan></text><text class="cls-4" transform="translate(74.32 24.26) rotate(180)"></text><path class="cls-5" d="M68.59,56.31a9,9,0,1,1,9-9A9,9,0,0,1,68.59,56.31Z"/><path d="M68.59,39.46a7.87,7.87,0,1,1-7.86,7.86,7.86,7.86,0,0,1,7.86-7.86m0-2.25A10.12,10.12,0,1,0,78.71,47.32,10.12,10.12,0,0,0,68.59,37.21Z"/><path class="cls-6" d="M68.53,45a1.92,1.92,0,0,0-1.92,1.92v1.92h3.84V46.87A1.92,1.92,0,0,0,68.53,45Z"/><path class="cls-6" d="M68.59,39.46A7.86,7.86,0,0,0,63.16,53V50.32a1.54,1.54,0,0,1,1.53-1.53h.39V46.87a3.45,3.45,0,1,1,6.9,0v1.92h.39a1.54,1.54,0,0,1,1.53,1.53v2.79a7.85,7.85,0,0,0-5.31-13.65Z"/><path class="cls-7" d="M72.37,48.79H72V46.87a3.45,3.45,0,1,0-6.9,0v1.92h-.39a1.54,1.54,0,0,0-1.53,1.53V53a7.82,7.82,0,0,0,10.74.11V50.32A1.54,1.54,0,0,0,72.37,48.79Zm-1.92,0H66.61V46.87a1.92,1.92,0,0,1,3.84,0Z"/></svg>