<?xml version="1.0" encoding="utf-8"?>
<!-- Generator: Adobe Illustrator 23.1.1, SVG Export Plug-In . SVG Version: 6.00 Build 0)  -->
<svg version="1.1" id="Layer_1" xmlns="http://www.w3.org/2000/svg" xmlns:xlink="http://www.w3.org/1999/xlink" x="0px" y="0px"
	 width="595.3px" height="516.2px" viewBox="0 0 595.3 516.2" style="enable-background:new 0 0 595.3 516.2;" xml:space="preserve"
	>
<style type="text/css">
	.st0{fill:#F20505;}
</style>
<g>
	<path class="st0" d="M307.3,220.4l-17.5,17.7l-5.7-5.8l11.8-12l-11.8-12l5.7-5.8L307.3,220.4z M255.6,220.4c0-4.1,3.3-7.4,7.4-7.4
		c4.1,0,7.4,3.3,7.4,7.4c0,4.1-3.3,7.4-7.4,7.4S255.6,224.5,255.6,220.4z M271.9,220.4c0-4.1,3.3-7.4,7.4-7.4c4.1,0,7.4,3.3,7.4,7.4
		c0,4.1-3.3,7.4-7.4,7.4S271.9,224.5,271.9,220.4z M218.6,220.4l17.5-17.7l5.7,5.8l-11.8,12l11.8,12l-5.7,5.8L218.6,220.4z
		 M239.2,220.4c0-4.1,3.3-7.4,7.4-7.4c4.1,0,7.4,3.3,7.4,7.4c0,4.1-3.3,7.4-7.4,7.4S239.2,224.5,239.2,220.4z"/>
	<path d="M439.1,298.1l9.2-42.7l1.9-11.6h20.6l-1.6,8.3c3.4-4.1,8.9-9.5,20.3-9.5c20.1,0,16.9,15.1,15.2,22.6l-7.1,32.8h-20.6
		l6.7-31.1c0.8-3.8,2.5-11.4-6-11.4c-9.2,0-11.2,9.5-11.6,11.4l-6.7,31.1H439.1z"/>
	<path d="M541.2,244.1h13l-2.8,13h-13.2l-4,18.8c-1.3,6.7-2,9.7,5.9,9.7c1.7,0,2.6,0,5.2-0.3l-2.7,12.7c-2.8,0.4-6.5,1-13.5,1
		c-16.4,0-18.5-5.4-16.3-15.9l5.6-26h-10.4l2.8-12.9h10.7l1.8-8.4l21.5-7.8L541.2,244.1z"/>
	<path d="M64.3,264.1h19.8c0.4-3.1,1.6-11.3-7.4-11.3C67.7,252.7,65.1,261.5,64.3,264.1z M102,275.1H62.6
		c-0.6,2.9-2.8,13.2,7.7,13.2c5.5,0,9.5-2.8,11.1-7.9h19.1C96.1,294,82,299.3,67.8,299.3c-19.1,0-27.4-9.5-23.5-27.4
		c3.9-18.1,15.4-29.9,35.6-29.9c15.3,0,21.1,6.2,23.2,13.8C104.5,260.4,104,265.6,102,275.1z"/>
	<polygon points="117.8,269.8 107.1,243.9 131,243.9 134.4,260.5 145.3,243.9 166.3,243.9 143.9,269.8 156.4,298.1 132.1,298.1 
		127.8,278 114.4,298.1 93.2,298.1 	"/>
	<path d="M183.8,270.8c-0.9,4.3-3,16.3,6.4,16.3c8.6,0,12.4-9.3,14.1-17.4c1.1-5.2,2.2-15.5-6.5-15.5
		C187.4,254.1,184.5,267.6,183.8,270.8z M169.1,243.9h20.1l-1.4,7.7c2.5-2.7,8.5-9.1,20-9.1c9.2,0,22.5,5.2,17.7,27.4
		c-4.5,21.1-18.3,29.3-30.8,29.3c-9.7,0-13.1-4.9-14.9-7.6l-5.8,27h-20.6l14.2-65.9C168.7,246.8,168.7,246.2,169.1,243.9z"/>
	<path d="M248.7,264.1h19.8c0.5-3.1,1.6-11.3-7.4-11.3C252.2,252.7,249.5,261.5,248.7,264.1z M285.5,275.1h-39.4
		c-0.6,2.9-2.8,13.2,7.7,13.2c5.5,0,9.5-2.8,11.1-7.9H284c-4.5,13.6-18.5,18.9-32.7,18.9c-19.1,0-27.4-9.5-23.5-27.4
		c3.9-18.1,15.4-29.9,35.6-29.9c15.3,0,21.1,6.2,23.1,13.8C288,260.4,287.5,265.6,285.5,275.1z"/>
	<path d="M317.6,287.4c7.4,0,12-7.4,14-16.6c2-9.1,0.5-16.2-6.7-16.2c-9.2,0-12.8,11.4-13.9,16.5
		C309.8,276.3,308.5,287.4,317.6,287.4z M342.2,220.1h20.5l-13.9,64.5c-1,4.5-1.7,9-2.4,13.5h-19.5l1.3-8c-2.9,3.1-8.4,9.3-20.6,9.3
		c-18.9,0-21-15.1-18.2-28.4c2.5-11.5,6.8-16.9,11.4-20.9c6.2-5.3,12.7-7.3,19.6-7.3c9.2,0,12.3,3.8,15.1,7.6L342.2,220.1z"/>
	<polygon points="365.2,234.8 368.4,220.4 389.3,220.4 386.2,234.8 	"/>
	<polygon points="351.8,298.1 363.5,243.9 384.1,243.9 372.4,298.1 	"/>
	<path d="M403.3,264.1h19.8c0.5-3.1,1.6-11.3-7.4-11.3C406.7,252.7,404,261.5,403.3,264.1z M440,275.1h-39.4
		c-0.6,2.9-2.8,13.2,7.6,13.2c5.5,0,9.5-2.8,11.1-7.9h19.1c-4.5,13.6-18.5,18.9-32.7,18.9c-19.1,0-27.4-9.5-23.5-27.4
		c3.9-18.1,15.4-29.9,35.6-29.9c15.3,0,21.1,6.2,23.1,13.8C442.5,260.4,442.1,265.6,440,275.1z"/>
</g>
</svg>
