<?xml version="1.0" encoding="UTF-8"?>
<!-- Generated by Pixelmator Pro 3.4.3 -->
<svg width="512" height="512" viewBox="0 0 512 512" xmlns="http://www.w3.org/2000/svg">
    <path id="Path" fill="#f20505" stroke="none" d="M 384 64 L 128 64 C 92.650002 64 64 92.660004 64 128 L 64 384 C 64 419.339996 92.650002 448 128 448 L 384 448 C 419.350006 448 448 419.339996 448 384 L 448 128 C 448 92.660004 419.299988 64 384 64 Z M 384 368 C 384 376.835999 376.838013 384 368 384 L 144 384 C 135.199997 384 128 376.799988 128 368 L 128 144 C 128 135.200012 135.199997 128 144 128 L 368 128 C 376.799988 128 384 135.200012 384 144 L 384 368 Z"/>
    <path id="path1" fill="#000000" stroke="none" opacity="0.4" d="M 0 160 C 0 168.835999 7.164 176 16 176 L 64 176 L 64 144 L 16 144 C 7.164 144 0 151.200012 0 160 Z M 0 256 C 0 264.835999 7.164 272 16 272 L 64 272 L 64 240 L 16 240 C 7.164 240 0 247.200012 0 256 Z M 176 16 C 176 7.164001 168.800003 0 160 0 C 151.199997 0 144 7.164001 144 16 L 144 64 L 176 64 L 176 16 Z M 0 352 C 0 360.835999 7.164 368 16 368 L 64 368 L 64 336 L 16 336 C 7.164 336 0 343.200012 0 352 Z M 272 16 C 272 7.164001 264.799988 0 256 0 C 247.199997 0 240 7.164001 240 16 L 240 64 L 272 64 L 272 16 Z M 512 160 C 512 151.164001 504.838013 144 496 144 L 448 144 L 448 176 L 496 176 C 504.799988 176 512 168.799988 512 160 Z M 496 336 L 448 336 L 448 368 L 496 368 C 504.838013 368 512 360.835999 512 352 C 512 343.164001 504.799988 336 496 336 Z M 352 0 C 343.164001 0 336 7.164001 336 16 L 336 64 L 368 64 L 368 16 C 368 7.164001 360.799988 0 352 0 Z M 496 240 L 448 240 L 448 272 L 496 272 C 504.799988 272 512 264.799988 512 256 C 512 247.200012 504.799988 240 496 240 Z M 144 496 C 144 504.799988 151.199997 512 160 512 C 168.837997 512 176 504.835999 176 496 L 176 448 L 144 448 L 144 496 Z M 336 496 C 336 504.835999 343.164001 512 352 512 C 360.838013 512 368 504.835999 368 496 L 368 448 L 336 448 L 336 496 Z M 240 496 C 240 504.835999 247.164001 512 256 512 C 264.838013 512 272 504.835999 272 496 L 272 448 L 240 448 L 240 496 Z M 160 352 L 352 352 L 352 160 L 160 160 L 160 352 Z"/>
</svg>
