<svg id="Layer_1" data-name="Layer 1" xmlns="http://www.w3.org/2000/svg" viewBox="0 0 100 100"><defs><style>.cls-1{font-size:40.61px;font-family:FontAwesome5Pro-Light, "Font Awesome 5 Pro";font-weight:300;}.cls-2{fill:#f20505;}.cls-3{fill:none;}.cls-4{fill:#fff;}</style></defs><path d="M27.81,64.83h2.35a2.25,2.25,0,1,1,0,4.5H28.48v2.79h-.67Zm2.34,3.91a1.66,1.66,0,1,0,0-3.31H28.48v3.31Z"/><path d="M33.6,69.42c0-1.66,1-2.84,2.39-2.84a2.37,2.37,0,0,1,2.31,2.68v.31H34.23a1.87,1.87,0,0,0,1.86,2.08,1.52,1.52,0,0,0,1.47-.9l.6.2a2.08,2.08,0,0,1-2.07,1.28A2.51,2.51,0,0,1,33.6,69.42Zm4-.4A1.71,1.71,0,0,0,36,67.16,1.83,1.83,0,0,0,34.24,69Z"/><path d="M39.68,66.66h.62v.83h0a1.58,1.58,0,0,1,1.5-.92h.33v.65a2.17,2.17,0,0,0-.38,0,1.39,1.39,0,0,0-1.47,1.4v3.53h-.64Z"/><path d="M46.34,68a1.23,1.23,0,0,0-1.27-.88c-.74,0-1.27.39-1.27.94s.32.75,1,.92l.82.2c.92.22,1.38.71,1.38,1.44,0,.93-.83,1.59-2,1.59a1.8,1.8,0,0,1-2-1.4l.6-.15a1.25,1.25,0,0,0,1.37,1c.84,0,1.38-.42,1.38-1s-.29-.75-.89-.89l-.89-.21c-1-.23-1.39-.73-1.39-1.46,0-.9.8-1.53,1.9-1.53a1.77,1.77,0,0,1,1.85,1.27Z"/><path d="M48.23,65.26a.47.47,0,0,1,.48-.45.46.46,0,0,1,.47.45.47.47,0,0,1-.47.46A.48.48,0,0,1,48.23,65.26Zm.15,1.4H49v5.46h-.64Z"/><path d="M53.78,68a1.22,1.22,0,0,0-1.26-.88c-.74,0-1.27.39-1.27.94s.32.75,1,.92l.82.2c.91.22,1.37.71,1.37,1.44,0,.93-.82,1.59-2,1.59a1.81,1.81,0,0,1-2-1.4l.61-.15a1.25,1.25,0,0,0,1.37,1c.83,0,1.38-.42,1.38-1s-.29-.75-.89-.89L52,69.57c-.95-.23-1.4-.73-1.4-1.46,0-.9.8-1.53,1.91-1.53a1.75,1.75,0,0,1,1.84,1.27Z"/><path d="M58,67.21H56.82v3.48c0,.69.39.89.82.89a1.49,1.49,0,0,0,.37,0l.14.57a1.43,1.43,0,0,1-.56.1,1.35,1.35,0,0,1-1.41-1.36V67.21h-.81v-.55h.81V65.35h.64v1.31H58Z"/><path d="M59.07,69.42c0-1.66,1-2.84,2.39-2.84a2.37,2.37,0,0,1,2.31,2.68v.31H59.7a1.87,1.87,0,0,0,1.86,2.08,1.53,1.53,0,0,0,1.48-.9l.6.2a2.11,2.11,0,0,1-2.08,1.28A2.51,2.51,0,0,1,59.07,69.42Zm4-.4a1.71,1.71,0,0,0-1.66-1.86A1.84,1.84,0,0,0,59.71,69Z"/><path d="M65.79,72.12h-.63V66.66h.61v.85h.06a1.64,1.64,0,0,1,1.6-.93,1.78,1.78,0,0,1,1.86,2v3.54h-.64v-3.5a1.33,1.33,0,0,0-1.38-1.46,1.43,1.43,0,0,0-1.48,1.54Z"/><path d="M73.1,67.21H72v3.48c0,.69.39.89.82.89a1.49,1.49,0,0,0,.37,0l.14.57a1.49,1.49,0,0,1-.57.1,1.34,1.34,0,0,1-1.4-1.36V67.21H70.5v-.55h.81V65.35H72v1.31H73.1Z"/><path d="M16,79.22a2.15,2.15,0,0,0-2.17-1.71c-1.34,0-2.44,1.07-2.44,3s1.1,3,2.44,3A2.15,2.15,0,0,0,16,81.89h.66a2.79,2.79,0,0,1-2.83,2.32c-1.79,0-3.08-1.43-3.08-3.66s1.29-3.66,3.08-3.66a2.79,2.79,0,0,1,2.83,2.33Z"/><path d="M17.61,81.47c0-1.64,1-2.77,2.35-2.77s2.35,1.13,2.35,2.77-1,2.76-2.35,2.76A2.47,2.47,0,0,1,17.61,81.47Zm4.08,0c0-1.2-.62-2.21-1.73-2.21s-1.73,1-1.73,2.21.62,2.19,1.73,2.19S21.69,82.67,21.69,81.47Z"/><path d="M24.1,84.12h-.62V78.77h.6v.84h.06a1.61,1.61,0,0,1,1.57-.91,1.74,1.74,0,0,1,1.81,2v3.46H26.9V80.69a1.3,1.3,0,0,0-1.35-1.42,1.4,1.4,0,0,0-1.45,1.51Z"/><path d="M31.07,79.31H29.94v3.41c0,.67.38.87.8.87a1.13,1.13,0,0,0,.37,0l.13.56a1.38,1.38,0,0,1-.55.1,1.31,1.31,0,0,1-1.38-1.33V79.31h-.79v-.54h.79V77.49h.63v1.28h1.13Z"/><path d="M32,82.62c0-1.05.85-1.39,2.06-1.54.89-.11,1.39-.12,1.39-.52v-.13a1.1,1.1,0,0,0-1.25-1.17,1.47,1.47,0,0,0-1.45.85l-.59-.21a2,2,0,0,1,2-1.2,1.69,1.69,0,0,1,1.89,1.79v3.63h-.62v-.85h0a1.78,1.78,0,0,1-1.66,1A1.61,1.61,0,0,1,32,82.62Zm3.45-.55v-.78a3.68,3.68,0,0,1-1.39.33c-.91.11-1.44.38-1.44,1s.52,1,1.22,1A1.55,1.55,0,0,0,35.46,82.07Z"/><path d="M37.4,77.41a.45.45,0,0,1,.46-.45.45.45,0,1,1,0,.89A.45.45,0,0,1,37.4,77.41Zm.14,1.36h.63v5.35h-.63Z"/><path d="M40.23,84.12h-.62V78.77h.6v.84h.06a1.61,1.61,0,0,1,1.57-.91,1.74,1.74,0,0,1,1.81,2v3.46H43V80.69a1.29,1.29,0,0,0-1.34-1.42,1.4,1.4,0,0,0-1.46,1.51Z"/><path d="M44.82,81.48c0-1.62,1-2.78,2.34-2.78a2.32,2.32,0,0,1,2.26,2.62v.31h-4a1.83,1.83,0,0,0,1.82,2,1.48,1.48,0,0,0,1.44-.88l.59.2a2.05,2.05,0,0,1-2,1.25A2.46,2.46,0,0,1,44.82,81.48Zm4-.4a1.68,1.68,0,0,0-1.63-1.82,1.8,1.8,0,0,0-1.71,1.82Z"/><path d="M50.59,78.77h.6v.82h.05a1.53,1.53,0,0,1,1.46-.9H53v.63c-.05,0-.2,0-.37,0a1.36,1.36,0,0,0-1.44,1.36v3.46h-.62Z"/><path d="M58.75,77.47c-1,0-1.68.57-1.68,1.33s.72,1.1,1.42,1.3l.75.21c.9.26,1.93.73,1.93,1.91s-.92,2-2.47,2a2.17,2.17,0,0,1-2.45-1.91h.67c.07.85.82,1.31,1.78,1.31s1.84-.57,1.84-1.43-.6-1-1.49-1.31l-.85-.25c-1.12-.33-1.76-.91-1.76-1.82a2.36,2.36,0,0,1,4.64-.06h-.64A1.53,1.53,0,0,0,58.75,77.47Z"/><path d="M64.52,79.31H63.39v3.41c0,.67.39.87.81.87a1.11,1.11,0,0,0,.36,0l.13.56a1.34,1.34,0,0,1-.55.1,1.31,1.31,0,0,1-1.37-1.33V79.31H62v-.54h.8V77.49h.62v1.28h1.13Z"/><path d="M65.4,81.47c0-1.64,1-2.77,2.36-2.77s2.35,1.13,2.35,2.77a2.38,2.38,0,1,1-4.71,0Zm4.08,0c0-1.2-.62-2.21-1.72-2.21S66,80.27,66,81.47s.62,2.19,1.73,2.19S69.48,82.67,69.48,81.47Z"/><path d="M71.27,78.77h.6v.82h0a1.54,1.54,0,0,1,1.46-.9h.33v.63c-.06,0-.21,0-.37,0a1.36,1.36,0,0,0-1.45,1.36v3.46h-.62Z"/><path d="M74.31,82.62c0-1.05.84-1.39,2-1.54.9-.11,1.4-.12,1.4-.52v-.13a1.11,1.11,0,0,0-1.26-1.17,1.48,1.48,0,0,0-1.45.85l-.59-.21a2,2,0,0,1,2-1.2,1.7,1.7,0,0,1,1.9,1.79v3.63h-.62v-.85h0a1.77,1.77,0,0,1-1.66,1A1.61,1.61,0,0,1,74.31,82.62Zm3.45-.55v-.78a3.69,3.69,0,0,1-1.4.33c-.91.11-1.43.38-1.43,1s.52,1,1.22,1A1.55,1.55,0,0,0,77.76,82.07Z"/><path d="M79.78,85.16l.51-.33a1.65,1.65,0,0,0,1.58.84c.94,0,1.58-.46,1.58-1.45V83h-.06a1.67,1.67,0,0,1-1.64,1c-1.28,0-2.2-1-2.2-2.63s.89-2.73,2.21-2.73a1.72,1.72,0,0,1,1.65,1.09h.06v-1h.6v5.49c0,1.35-.94,2-2.2,2A2.17,2.17,0,0,1,79.78,85.16Zm3.68-3.74c0-1.25-.59-2.16-1.63-2.16s-1.65,1-1.65,2.16.59,2.07,1.65,2.07S83.46,82.71,83.46,81.42Z"/><path d="M85.25,81.48c0-1.62,1-2.78,2.34-2.78a2.32,2.32,0,0,1,2.26,2.62v.31h-4a1.83,1.83,0,0,0,1.81,2,1.5,1.5,0,0,0,1.45-.88l.59.2a2.08,2.08,0,0,1-2,1.25A2.46,2.46,0,0,1,85.25,81.48Zm4-.4a1.69,1.69,0,0,0-1.63-1.82,1.81,1.81,0,0,0-1.72,1.82Z"/><text class="cls-1" transform="translate(29.97 49.75)"></text><path class="cls-2" d="M66.1,55.13a9,9,0,1,1,9-9A9,9,0,0,1,66.1,55.13Z"/><path d="M66.1,38.27a7.87,7.87,0,1,1-7.87,7.87,7.86,7.86,0,0,1,7.87-7.87m0-2.25A10.12,10.12,0,1,0,76.21,46.14,10.13,10.13,0,0,0,66.1,36Z"/><path class="cls-3" d="M59.89,45.25a1.16,1.16,0,0,1,.75-1.08l4.87-1.84a1.13,1.13,0,0,1,.52-.1,1.19,1.19,0,0,1,.53.1l4.87,1.84a1.15,1.15,0,0,1,.74,1.08v5.88A7.87,7.87,0,1,0,59.89,51Z"/><polygon class="cls-3" points="66.03 43.77 62.05 45.28 66.03 46.79 70.02 45.28 66.03 43.77"/><polygon class="cls-3" points="66.8 52.69 70.64 51.23 70.64 46.69 66.8 48.13 66.8 52.69"/><path class="cls-4" d="M71.43,44.17l-4.87-1.84a1.19,1.19,0,0,0-.53-.1,1.13,1.13,0,0,0-.52.1l-4.87,1.84a1.16,1.16,0,0,0-.75,1.08V51a7.86,7.86,0,0,0,12.28.17V45.25A1.15,1.15,0,0,0,71.43,44.17ZM66,46.79l-4-1.51,4-1.51,4,1.51Zm4.61,4.44L66.8,52.69V48.13l3.84-1.44Z"/></svg>