<svg id="Layer_1" data-name="Layer 1" xmlns="http://www.w3.org/2000/svg" viewBox="0 0 100 100"><defs><style>.cls-1{fill:#f20505;}.cls-2{font-size:10px;font-family:Inter-Light, Inter;font-weight:300;}.cls-3{letter-spacing:-0.01em;}.cls-4{fill:#fff;}</style></defs><path class="cls-1" d="M75.62,46.73a6.19,6.19,0,0,1-5.4,3.08H50.77a6.19,6.19,0,0,1-5.41-3.08,6.39,6.39,0,0,1,0-6.23l9.73-16.88a6.28,6.28,0,0,1,10.8,0L75.62,40.5A6.39,6.39,0,0,1,75.62,46.73Z"/><text class="cls-2" transform="translate(30.1 72.19)">Intrusion<tspan x="-2.51" y="12">De</tspan><tspan class="cls-3" x="10.47" y="12">t</tspan><tspan x="13.99" y="12">ection</tspan></text><path d="M43.35,48.1a14.39,14.39,0,0,0,1.33,1.75H28.89a5.36,5.36,0,0,1-5.32-5.32V17.93a5.36,5.36,0,0,1,5.32-5.32h26.6a5.36,5.36,0,0,1,5.32,5.32,9.31,9.31,0,0,0-2.66.42v-.42a2.63,2.63,0,0,0-2.66-2.66H28.89a2.63,2.63,0,0,0-2.66,2.66v26.6a2.63,2.63,0,0,0,2.66,2.66H43A6.48,6.48,0,0,0,43.35,48.1ZM32.88,20.59a1.31,1.31,0,0,1,1.33,1.33V32.56a1.33,1.33,0,1,1-2.66,0V21.92A1.31,1.31,0,0,1,32.88,20.59Zm5.32,0a1.31,1.31,0,0,1,1.33,1.33V32.56a1.33,1.33,0,1,1-2.66,0V21.92A1.31,1.31,0,0,1,38.2,20.59Zm5.32,0a1.31,1.31,0,0,1,1.33,1.33V32.56a1.33,1.33,0,1,1-2.66,0V21.92A1.31,1.31,0,0,1,43.52,20.59ZM75.6,46.77a6.17,6.17,0,0,1-5.4,3.08H50.75a6.19,6.19,0,0,1-5.4-3.08,6.39,6.39,0,0,1,0-6.23l9.73-16.87a6.27,6.27,0,0,1,10.8,0L75.6,40.54A6.39,6.39,0,0,1,75.6,46.77Zm-2-4.9L63.88,25a3.58,3.58,0,0,0-6.15,0L48,41.87a3.52,3.52,0,0,0,3.07,5.32H70.53A3.52,3.52,0,0,0,73.61,41.87ZM62.8,43.2a2,2,0,1,1-2-2A2,2,0,0,1,62.8,43.2Zm-3.32-5.32v-8a1.33,1.33,0,0,1,2.66,0v8a1.33,1.33,0,1,1-2.66,0Z"/><path class="cls-4" d="M62.84,43.15a2,2,0,1,1-2-2A2,2,0,0,1,62.84,43.15Z"/><path class="cls-4" d="M59.46,37.88v-8a1.33,1.33,0,0,1,2.66,0v8a1.33,1.33,0,0,1-2.66,0Z"/></svg>