<svg id="Layer_1" data-name="Layer 1" xmlns="http://www.w3.org/2000/svg" viewBox="0 0 100 100"><defs><style>.cls-1{font-size:10px;font-family:Inter-Light, Inter;font-weight:300;}.cls-2{fill:#f20505;}.cls-3{font-size:27.88px;font-family:FontAwesome5Pro-Regular, "Font Awesome 5 Pro";}.cls-4{fill:#fff;}.cls-5{font-size:12.71px;font-family:Inter-Bold, Inter;font-weight:700;}</style></defs><text class="cls-1" transform="translate(24.36 75.87)">OS Backup</text><rect class="cls-2" x="32.11" y="31.12" width="21.05" height="20.86"/><text class="cls-3" transform="translate(30.31 51.9)"></text><rect class="cls-4" x="46.55" y="28.63" width="10.33" height="15.4"/><path d="M69.69,28.11v14.6a2.61,2.61,0,0,1-2.61,2.62H47.91a2.62,2.62,0,0,1-2.62-2.62V23.54a2.61,2.61,0,0,1,2.62-2.61h14.6a3,3,0,0,1,1.85.76l4.56,4.57A3,3,0,0,1,69.69,28.11ZM67.08,42.39V28.25A.37.37,0,0,0,67,28l-4.26-4.27v5.46a1.31,1.31,0,0,1-1.31,1.3H51.83a1.31,1.31,0,0,1-1.31-1.3V23.54H48.23a.32.32,0,0,0-.32.33V42.39a.32.32,0,0,0,.32.32H66.75A.32.32,0,0,0,67.08,42.39ZM53.13,23.54V27.9h7V23.54Z"/><text class="cls-5" transform="translate(52.66 40.97)">S</text></svg>