<svg id="Layer_1" data-name="Layer 1" xmlns="http://www.w3.org/2000/svg" viewBox="0 0 100 100"><defs><style>.cls-1{fill:#f20505;}.cls-2{font-size:40.61px;font-family:FontAwesome5Pro-Light, "Font Awesome 5 Pro";font-weight:300;}</style></defs><circle class="cls-1" cx="50.03" cy="21.36" r="5.61"/><circle class="cls-1" cx="42.19" cy="34.68" r="5.61"/><circle class="cls-1" cx="49.95" cy="47.23" r="5.61"/><path d="M25.46,64.8h.67v6.69H29.6v.59H25.46Z"/><path d="M30.68,69.38c0-1.68,1-2.83,2.4-2.83s2.4,1.15,2.4,2.83-1,2.82-2.4,2.82S30.68,71,30.68,69.38Zm4.17,0c0-1.22-.64-2.26-1.77-2.26s-1.77,1-1.77,2.26.64,2.24,1.77,2.24S34.85,70.6,34.85,69.38Z"/><path d="M36.58,69.38A2.54,2.54,0,0,1,39,66.55a2,2,0,0,1,2.09,1.69h-.64A1.43,1.43,0,0,0,39,67.12c-1,0-1.78.91-1.78,2.24s.71,2.26,1.78,2.26a1.4,1.4,0,0,0,1.44-1.13h.64A2,2,0,0,1,39,72.2C37.53,72.2,36.58,71,36.58,69.38Z"/><path d="M42.16,70.56c0-1.08.86-1.43,2.1-1.58.91-.11,1.43-.12,1.43-.53v-.13a1.14,1.14,0,0,0-1.29-1.2,1.51,1.51,0,0,0-1.48.87l-.6-.22a2.1,2.1,0,0,1,2.06-1.22,1.74,1.74,0,0,1,1.94,1.83v3.7h-.63v-.86h0a1.81,1.81,0,0,1-1.7,1A1.64,1.64,0,0,1,42.16,70.56ZM45.69,70V69.2a3.91,3.91,0,0,1-1.43.33c-.93.12-1.47.4-1.47,1.06s.54,1,1.25,1A1.59,1.59,0,0,0,45.69,70Z"/><path d="M48.63,72.08H48V64.8h.64Z"/><path d="M53.24,64.8h.66v6.69h3.47v.59H53.24Z"/><path d="M58.45,69.38c0-1.68,1-2.83,2.41-2.83s2.4,1.15,2.4,2.83-1,2.82-2.4,2.82A2.52,2.52,0,0,1,58.45,69.38Zm4.17,0c0-1.22-.63-2.26-1.76-2.26s-1.77,1-1.77,2.26.63,2.24,1.77,2.24S62.62,70.6,62.62,69.38Z"/><path d="M64.37,70.56c0-1.08.87-1.43,2.1-1.58.92-.11,1.43-.12,1.43-.53v-.13a1.14,1.14,0,0,0-1.29-1.2,1.51,1.51,0,0,0-1.48.87l-.6-.22a2.1,2.1,0,0,1,2.06-1.22,1.74,1.74,0,0,1,1.94,1.83v3.7H67.9v-.86h0a1.8,1.8,0,0,1-1.69,1A1.65,1.65,0,0,1,64.37,70.56ZM67.9,70V69.2a3.86,3.86,0,0,1-1.43.33c-.92.12-1.46.4-1.46,1.06s.53,1,1.24,1A1.59,1.59,0,0,0,67.9,70Z"/><path d="M69.93,69.37c0-1.68.91-2.82,2.25-2.82a1.73,1.73,0,0,1,1.67,1.11h.06V64.8h.63v7.28h-.61v-1h-.08a1.75,1.75,0,0,1-1.68,1.13C70.83,72.2,69.93,71.06,69.93,69.37Zm4,0c0-1.31-.61-2.24-1.67-2.24s-1.69,1-1.69,2.24.6,2.26,1.69,2.26S73.92,70.68,73.92,69.36Z"/><path d="M28.27,76.8h2.46a1.88,1.88,0,0,1,2.14,1.91,1.52,1.52,0,0,1-1.16,1.59v0a1.7,1.7,0,0,1,1.44,1.82c0,1.11-.72,1.91-2.28,1.91h-2.6Zm2.52,3.29a1.35,1.35,0,0,0,1.44-1.38c0-.77-.5-1.31-1.5-1.31H28.94v2.69Zm.08,3.4c1.12,0,1.65-.56,1.65-1.32a1.51,1.51,0,0,0-1.63-1.49H28.94v2.81Z"/><path d="M34.35,82.56c0-1.08.86-1.43,2.09-1.58.92-.11,1.43-.12,1.43-.53v-.13a1.13,1.13,0,0,0-1.28-1.2A1.53,1.53,0,0,0,35.1,80l-.6-.22a2.1,2.1,0,0,1,2.07-1.22,1.74,1.74,0,0,1,1.94,1.83v3.7h-.64v-.86h0a1.79,1.79,0,0,1-1.69,1A1.64,1.64,0,0,1,34.35,82.56ZM37.87,82V81.2a3.81,3.81,0,0,1-1.43.33c-.92.12-1.46.4-1.46,1.06s.53,1,1.25,1A1.58,1.58,0,0,0,37.87,82Z"/><path d="M40.81,84.08h-.63V76.8h.63Z"/><path d="M42.21,82.56c0-1.08.87-1.43,2.1-1.58.92-.11,1.43-.12,1.43-.53v-.13a1.14,1.14,0,0,0-1.29-1.2A1.51,1.51,0,0,0,43,80l-.6-.22a2.1,2.1,0,0,1,2.06-1.22,1.74,1.74,0,0,1,1.94,1.83v3.7h-.63v-.86h0a1.8,1.8,0,0,1-1.69,1A1.64,1.64,0,0,1,42.21,82.56ZM45.74,82V81.2a3.86,3.86,0,0,1-1.43.33c-.93.12-1.47.4-1.47,1.06s.54,1,1.25,1A1.59,1.59,0,0,0,45.74,82Z"/><path d="M48.68,84.08h-.63V78.62h.61v.86h.06a1.65,1.65,0,0,1,1.6-.93,1.78,1.78,0,0,1,1.86,2v3.53h-.64V80.59a1.32,1.32,0,0,0-1.38-1.46,1.43,1.43,0,0,0-1.48,1.54Z"/><path d="M53.56,81.38c0-1.64,1-2.83,2.4-2.83a2,2,0,0,1,2.09,1.69h-.64A1.42,1.42,0,0,0,56,79.12c-1,0-1.77.91-1.77,2.24s.7,2.26,1.77,2.26a1.41,1.41,0,0,0,1.45-1.13h.64A2,2,0,0,1,56,84.2C54.51,84.2,53.56,83,53.56,81.38Z"/><path d="M59.26,77.23a.48.48,0,0,1,.48-.46.47.47,0,0,1,.47.46.46.46,0,0,1-.47.45A.47.47,0,0,1,59.26,77.23Zm.15,1.39h.64v5.46h-.64Z"/><path d="M62.36,84.08h-.64V78.62h.62v.86h.06a1.64,1.64,0,0,1,1.6-.93,1.78,1.78,0,0,1,1.86,2v3.53h-.64V80.59a1.32,1.32,0,0,0-1.38-1.46,1.43,1.43,0,0,0-1.48,1.54Z"/><path d="M67.47,85.15l.52-.34a1.68,1.68,0,0,0,1.61.87,1.42,1.42,0,0,0,1.62-1.49V83h-.06A1.7,1.7,0,0,1,69.49,84c-1.31,0-2.25-1-2.25-2.69s.91-2.79,2.26-2.79a1.75,1.75,0,0,1,1.68,1.11h.06v-1h.62v5.61c0,1.38-1,2-2.26,2A2.22,2.22,0,0,1,67.47,85.15Zm3.76-3.82c0-1.28-.6-2.21-1.67-2.21s-1.68,1-1.68,2.21.6,2.12,1.68,2.12S71.23,82.65,71.23,81.33Z"/><text class="cls-2" transform="translate(26.84 49.72)"></text></svg>