<svg id="Layer_1" data-name="Layer 1" xmlns="http://www.w3.org/2000/svg" viewBox="0 0 100 100"><defs><style>.cls-1{font-size:10px;font-family:Inter-Light, Inter;font-weight:300;}.cls-2{letter-spacing:-0.02em;}.cls-3{letter-spacing:-0.02em;}.cls-4{fill:#f20505;}.cls-5{fill:#fff;}</style></defs><text class="cls-1" transform="translate(28.73 71.5)">VM L<tspan class="cls-2" x="23.81" y="0">e</tspan><tspan class="cls-3" x="29.44" y="0">v</tspan><tspan x="34.7" y="0">el</tspan><tspan x="4.1" y="12">Backup</tspan></text><rect class="cls-4" x="30.44" y="25.6" width="28.55" height="8.59"/><path d="M60.8,27.25V47.17A3.82,3.82,0,0,1,57,51H32a3.82,3.82,0,0,1-3.81-3.81V27.25A3.82,3.82,0,0,1,32,23.44H57A3.82,3.82,0,0,1,60.8,27.25Zm-2.54,6.34V27.25A1.27,1.27,0,0,0,57,26H32a1.27,1.27,0,0,0-1.27,1.27v6.34Zm0,2.54H30.73v11A1.27,1.27,0,0,0,32,48.44H57a1.27,1.27,0,0,0,1.27-1.27Z"/><rect class="cls-5" x="40.83" y="14.8" width="29.87" height="24.59"/><path d="M71.81,17.11V37A3.82,3.82,0,0,1,68,40.84H43A3.82,3.82,0,0,1,39.2,37V17.11A3.82,3.82,0,0,1,43,13.3H68A3.82,3.82,0,0,1,71.81,17.11Zm-2.54,6.35V17.11A1.27,1.27,0,0,0,68,15.84H43a1.27,1.27,0,0,0-1.27,1.27v6.35Zm0,2.53H41.74V37A1.27,1.27,0,0,0,43,38.3H68A1.27,1.27,0,0,0,69.27,37Z"/></svg>