<svg id="Layer_1" data-name="Layer 1" xmlns="http://www.w3.org/2000/svg" viewBox="0 0 100 100"><defs><style>.cls-1{font-size:10px;font-family:Inter-Light, Inter;}.cls-1,.cls-3{font-weight:300;}.cls-2{letter-spacing:-0.01em;}.cls-3{font-size:40.61px;font-family:FontAwesome5Pro-Light, "Font Awesome 5 Pro";}.cls-4{fill:#f20505;}.cls-5{fill:#fff;}</style></defs><text class="cls-1" transform="translate(27.76 74.6)">End <tspan class="cls-2" x="20.67" y="0">P</tspan><tspan x="26.87" y="0">oint</tspan><tspan x="3.06" y="12">Security</tspan></text><text class="cls-3" transform="translate(19.74 47.21)"></text><path class="cls-4" d="M55.66,54.29V36.09h5.42L61,26.67l9.46.11,5.17-.06-.06,9.37H81v18.2Zm14.21-18.2,0-3.55-3.13,0,0,3.52Z"/><path class="cls-5" d="M61.78,27.43l8.69.1,4.42-.05,0,9.36h5.42v16.7H56.41V36.84h5.43l-.06-9.41m4.28,9.41h4.55l0-5.06-4.65,0,0,5M60.27,25.91v1.53l0,7.9H54.91V55H81.76V35.34H76.34l0-7.85V26l-1.52,0L70.45,26l-8.65-.1-1.53,0Zm7.26,7.4h1.62l0,2H67.54v-2Z"/><path class="cls-5" d="M70.12,42.74a2.52,2.52,0,1,1-3.56,0A2.52,2.52,0,0,1,70.12,42.74Z"/><rect class="cls-5" x="67.13" y="33.21" width="3.14" height="2.97"/></svg>