<svg id="Layer_1" data-name="Layer 1" xmlns="http://www.w3.org/2000/svg" viewBox="0 0 100 100"><defs><style>.cls-1{font-size:40.61px;font-family:FontAwesome6Pro-Light, "Font Awesome 6 Pro";font-weight:300;}.cls-2{fill:#f12800;}.cls-3{fill:#fff;}</style></defs><path d="M40.91,67a2.2,2.2,0,0,0-2.21-1.75c-1.38,0-2.51,1.1-2.51,3.12s1.13,3.11,2.51,3.11a2.19,2.19,0,0,0,2.21-1.75h.67a2.84,2.84,0,0,1-2.88,2.38c-1.84,0-3.15-1.46-3.15-3.74s1.31-3.74,3.15-3.74A2.83,2.83,0,0,1,41.58,67Z"/><path d="M43.64,72H43V64.73h.64Z"/><path d="M45,69.3c0-1.67,1-2.83,2.41-2.83s2.4,1.16,2.4,2.83-1,2.82-2.4,2.82S45,71,45,69.3Zm4.17,0c0-1.22-.63-2.25-1.76-2.25s-1.77,1-1.77,2.25.63,2.24,1.77,2.24S49.19,70.53,49.19,69.3Z"/><path d="M54.68,66.55h.64V72h-.64V71.1h0a1.7,1.7,0,0,1-1.62,1,1.76,1.76,0,0,1-1.8-2V66.55h.64v3.5a1.31,1.31,0,0,0,1.34,1.41,1.47,1.47,0,0,0,1.49-1.54Z"/><path d="M56.7,69.29c0-1.68.91-2.82,2.26-2.82a1.73,1.73,0,0,1,1.67,1.12h0V64.73h.64V72H60.7V71h-.07A1.77,1.77,0,0,1,59,72.12C57.61,72.12,56.7,71,56.7,69.29Zm4,0c0-1.31-.6-2.23-1.67-2.23s-1.68,1-1.68,2.23.59,2.26,1.68,2.26S60.69,70.6,60.69,69.28Z"/><path d="M20.29,84h-.65l-4.3-6.1h-.06V84h-.66V76.73h.64l4.32,6.1h.06v-6.1h.65Z"/><path d="M21.8,81.31c0-1.65,1-2.84,2.4-2.84a2.37,2.37,0,0,1,2.31,2.68v.32H22.44a1.87,1.87,0,0,0,1.85,2.07,1.51,1.51,0,0,0,1.48-.89l.6.19a2.1,2.1,0,0,1-2.08,1.28A2.51,2.51,0,0,1,21.8,81.31Zm4.06-.4a1.72,1.72,0,0,0-1.66-1.86,1.84,1.84,0,0,0-1.76,1.86Z"/><path d="M30,79.1H28.89v3.48c0,.69.39.89.82.89a1.13,1.13,0,0,0,.37,0l.14.57a1.49,1.49,0,0,1-.57.1,1.34,1.34,0,0,1-1.4-1.36V79.1h-.82v-.55h.82V77.24h.64v1.31H30Z"/><path d="M31,78.55h.66l1.3,4.5h0l1.3-4.5H35L36.29,83h.05l1.29-4.49h.67L36.65,84H36l-1.3-4.48h-.07L33.34,84h-.66Z"/><path d="M39.06,81.3c0-1.67,1-2.83,2.4-2.83s2.4,1.16,2.4,2.83-1,2.82-2.4,2.82S39.06,83,39.06,81.3Zm4.17,0c0-1.22-.63-2.25-1.77-2.25s-1.77,1-1.77,2.25.64,2.24,1.77,2.24S43.23,82.53,43.23,81.3Z"/><path d="M45.25,78.55h.61v.84h0a1.57,1.57,0,0,1,1.49-.92h.34v.64a2.3,2.3,0,0,0-.38,0,1.39,1.39,0,0,0-1.48,1.4V84h-.63Z"/><path d="M48.81,76.73h.64v4.39h.07l2.56-2.57h.8l-2.33,2.34L53,84h-.81L50.08,81.3l-.63.59V84h-.64Z"/><path d="M57,76.73h2.46a1.87,1.87,0,0,1,2.13,1.9,1.51,1.51,0,0,1-1.15,1.59v.06a1.7,1.7,0,0,1,1.44,1.82c0,1.1-.72,1.91-2.29,1.91H57ZM59.53,80A1.36,1.36,0,0,0,61,78.63c0-.77-.51-1.31-1.5-1.31h-1.8V80Zm.07,3.39c1.12,0,1.65-.56,1.65-1.31a1.5,1.5,0,0,0-1.62-1.49h-2v2.8Z"/><path d="M63.35,78.55H64v.84h0a1.58,1.58,0,0,1,1.5-.92h.33v.64a2.17,2.17,0,0,0-.38,0A1.4,1.4,0,0,0,64,80.48V84h-.63Z"/><path d="M66.77,77.15a.47.47,0,0,1,.48-.45.46.46,0,0,1,.47.45.47.47,0,0,1-.47.46A.48.48,0,0,1,66.77,77.15Zm.15,1.4h.64V84h-.64Z"/><path d="M69,81.29c0-1.68.91-2.82,2.26-2.82a1.73,1.73,0,0,1,1.67,1.12h.06V76.73h.63V84H73V83h-.07a1.76,1.76,0,0,1-1.68,1.12C69.86,84.12,69,83,69,81.29Zm4,0c0-1.31-.61-2.23-1.67-2.23s-1.69,1-1.69,2.23.6,2.26,1.69,2.26S73,82.6,73,81.28Z"/><path d="M75.32,85.07l.52-.34a1.68,1.68,0,0,0,1.61.87c1,0,1.62-.47,1.62-1.49V82.88H79A1.7,1.7,0,0,1,77.33,84c-1.3,0-2.24-1-2.24-2.69s.9-2.79,2.26-2.79A1.73,1.73,0,0,1,79,79.59h.07v-1h.62v5.6c0,1.39-1,2-2.26,2A2.22,2.22,0,0,1,75.32,85.07Zm3.76-3.82c0-1.28-.6-2.2-1.67-2.2s-1.69,1-1.69,2.2.6,2.12,1.69,2.12S79.08,82.57,79.08,81.25Z"/><path d="M81.1,81.31c0-1.65,1-2.84,2.39-2.84a2.37,2.37,0,0,1,2.31,2.68v.32H81.73a1.87,1.87,0,0,0,1.86,2.07,1.51,1.51,0,0,0,1.47-.89l.6.19a2.08,2.08,0,0,1-2.07,1.28A2.51,2.51,0,0,1,81.1,81.31Zm4.05-.4a1.72,1.72,0,0,0-1.66-1.86,1.83,1.83,0,0,0-1.75,1.86Z"/><text class="cls-1" transform="translate(24.39 49.8)"></text><path class="cls-2" d="M80.4,54.23a3.5,3.5,0,0,1-3.46-3l-1.39-.83a5,5,0,0,1-7.29-2.24H67.2a3.51,3.51,0,1,1,0-4h1.06a5.14,5.14,0,0,1,.67-1.1l-.49-1.05a3.51,3.51,0,1,1,4.42-3.39,3.45,3.45,0,0,1-.34,1.48l.49,1a5.06,5.06,0,0,1,2.61.82l1.29-1c0-.13,0-.25,0-.37a3.51,3.51,0,1,1,3.51,3.51,3.56,3.56,0,0,1-.86-.11l-1.73,1.3a4.39,4.39,0,0,1,.07.82c0,.13,0,.25,0,.38l1.39.84a3.42,3.42,0,0,1,1.14-.2,3.51,3.51,0,0,1,0,7Z"/><path class="cls-3" d="M69.34,36.65A2,2,0,0,1,70.82,40l1.28,2.75a3.16,3.16,0,0,1,.76-.09,3.51,3.51,0,0,1,3.52,3.51,3.42,3.42,0,0,1-.2,1.12l3,1.81a2,2,0,1,1-.81,1.6c0-.1,0-.21,0-.31l-3-1.8a3.49,3.49,0,0,1-2.55,1.11,3.51,3.51,0,0,1-2.13-6.3l-1.28-2.76h-.11a2,2,0,1,1,0-4m3.52,11.06a1.51,1.51,0,1,0-1.5-1.51,1.51,1.51,0,0,0,1.5,1.51m7.54-9.05a2,2,0,1,1-2,2,2,2,0,0,1,2-2m-2.56,3.55.6.81-1.5,1.13-.61-.81,1.51-1.13m-13.52,2a2,2,0,1,1-2,2,2,2,0,0,1,2-2m4.27,1.51v1H67.08v-1h1.51m.75-12.05a5,5,0,0,0-4.29,7.59,5.84,5.84,0,0,0-.73-.05A5,5,0,1,0,67.57,50a6.52,6.52,0,0,0,5.29,2.72,6.41,6.41,0,0,0,2.63-.57l.14.08a5,5,0,1,0,4.77-6.52,4,4,0,0,0-.6,0l.13-.09.47,0a5,5,0,1,0-5-5.48,6.43,6.43,0,0,0-1.2-.38,5,5,0,0,0-4.88-6.17Z"/></svg>