<svg id="Layer_1" data-name="Layer 1" xmlns="http://www.w3.org/2000/svg" viewBox="0 0 100 100"><defs><style>.cls-1{font-size:40.61px;font-family:FontAwesome5Pro-Light, "Font Awesome 5 Pro";font-weight:300;}.cls-2{fill:#f20505;}.cls-3{fill:#fff;}</style></defs><text class="cls-1" transform="translate(24.48 47.24)"></text><rect class="cls-2" x="65.95" y="45.96" width="13.95" height="6.93"/><path class="cls-3" d="M79.35,46.5v5.84H66.49V46.5H79.35m1.09-1.09h-15v8h15v-8Z"/><rect class="cls-2" x="51.58" y="45.96" width="13.95" height="6.93"/><path class="cls-3" d="M65,46.5v5.84H52.13V46.5H65m1.09-1.09H51v8h15v-8Z"/><rect class="cls-2" x="71.41" y="38.8" width="13.95" height="6.93"/><path class="cls-3" d="M84.81,39.34v5.85H72V39.34H84.81m1.09-1.09h-15v8h15v-8Z"/><rect class="cls-2" x="57.04" y="38.8" width="13.95" height="6.93"/><path class="cls-3" d="M70.45,39.34v5.85H57.59V39.34H70.45m1.08-1.09h-15v8h15v-8Z"/><rect class="cls-2" x="64.31" y="31.68" width="13.95" height="6.93"/><path class="cls-3" d="M77.72,32.23v5.84H64.86V32.23H77.72m1.08-1.09h-15v8h15v-8Z"/><path d="M12.52,67.28h.67l1.65,6.26h.06l1.65-6.26h.77L19,73.54H19l1.65-6.26h.68l-2,7.28h-.71L17,68.39h-.05l-1.69,6.17h-.71Z"/><path d="M21.62,71.87c0-1.66,1-2.84,2.4-2.84a2.37,2.37,0,0,1,2.31,2.68V72H22.26a1.88,1.88,0,0,0,1.85,2.08,1.52,1.52,0,0,0,1.48-.9l.6.2a2.11,2.11,0,0,1-2.08,1.28A2.52,2.52,0,0,1,21.62,71.87Zm4.06-.41A1.72,1.72,0,0,0,24,69.6a1.85,1.85,0,0,0-1.76,1.86Z"/><path d="M27.84,67.28h.64v2.86h.06A1.7,1.7,0,0,1,30.2,69c1.35,0,2.26,1.14,2.26,2.82s-.91,2.83-2.25,2.83a1.74,1.74,0,0,1-1.67-1.13h-.08v1h-.62Zm2.3,6.82c1.08,0,1.69-1,1.69-2.26s-.6-2.24-1.69-2.24-1.67.93-1.67,2.24S29.08,74.1,30.14,74.1Z"/><path d="M36.1,74.56l2.65-7.28h.71l2.65,7.28h-.7l-.78-2.19H37.58l-.78,2.19Zm4.32-2.79-1.29-3.62h-.05l-1.29,3.62Z"/><path d="M43.21,69.1h.61v1h.08A1.73,1.73,0,0,1,45.57,69c1.35,0,2.26,1.13,2.26,2.82s-.91,2.83-2.25,2.83a1.75,1.75,0,0,1-1.68-1.13h-.06v3.06h-.63Zm2.29,5c1.09,0,1.69-1,1.69-2.26S46.6,69.6,45.5,69.6s-1.67.93-1.67,2.24S44.45,74.1,45.5,74.1Z"/><path d="M49.2,69.1h.61v1h.08A1.73,1.73,0,0,1,51.56,69c1.35,0,2.26,1.13,2.26,2.82s-.91,2.83-2.25,2.83a1.75,1.75,0,0,1-1.68-1.13h-.06v3.06H49.2Zm2.29,5c1.09,0,1.69-1,1.69-2.26s-.59-2.24-1.69-2.24-1.66.93-1.66,2.24S50.44,74.1,51.49,74.1Z"/><path d="M55.83,74.56H55.2V67.28h.63Z"/><path d="M57.36,67.71a.47.47,0,0,1,.47-.46.46.46,0,1,1,0,.92A.47.47,0,0,1,57.36,67.71Zm.15,1.39h.64v5.46h-.64Z"/><path d="M59.54,71.86c0-1.64,1-2.83,2.4-2.83A2,2,0,0,1,64,70.72h-.64A1.42,1.42,0,0,0,62,69.6c-1,0-1.77.91-1.77,2.24s.7,2.26,1.77,2.26A1.41,1.41,0,0,0,63.4,73H64A2,2,0,0,1,62,74.68C60.49,74.68,59.54,73.49,59.54,71.86Z"/><path d="M65.11,73c0-1.08.87-1.43,2.1-1.58.92-.11,1.43-.12,1.43-.53V70.8a1.14,1.14,0,0,0-1.29-1.2,1.52,1.52,0,0,0-1.48.87l-.6-.22A2.1,2.1,0,0,1,67.34,69a1.73,1.73,0,0,1,1.93,1.83v3.7h-.63V73.7h0a1.8,1.8,0,0,1-1.69,1A1.65,1.65,0,0,1,65.11,73Zm3.53-.57v-.79a3.81,3.81,0,0,1-1.43.33c-.92.12-1.46.4-1.46,1.06s.53,1,1.24,1A1.59,1.59,0,0,0,68.64,72.47Z"/><path d="M73.1,69.65H71.94v3.49c0,.69.4.89.83.89a1.49,1.49,0,0,0,.37,0l.13.57a1.39,1.39,0,0,1-.56.1,1.34,1.34,0,0,1-1.4-1.36V69.65h-.82V69.1h.82V67.79h.63V69.1H73.1Z"/><path d="M74.39,67.71a.47.47,0,0,1,.47-.46.46.46,0,1,1,0,.92A.47.47,0,0,1,74.39,67.71Zm.15,1.39h.64v5.46h-.64Z"/><path d="M76.57,71.86c0-1.68,1-2.83,2.4-2.83s2.41,1.15,2.41,2.83A2.52,2.52,0,0,1,79,74.68C77.56,74.68,76.57,73.52,76.57,71.86Zm4.17,0c0-1.22-.63-2.26-1.77-2.26s-1.76,1-1.76,2.26S77.84,74.1,79,74.1,80.74,73.08,80.74,71.86Z"/><path d="M83.39,74.56h-.63V69.1h.62V70h.05A1.66,1.66,0,0,1,85,69a1.78,1.78,0,0,1,1.85,2v3.53h-.63V71.07a1.32,1.32,0,0,0-1.38-1.46,1.44,1.44,0,0,0-1.49,1.54Z"/><path d="M33.17,79.28h4.21v.6H33.83v2.74h3.22v.6H33.83v3.34h-.66Z"/><path d="M38.76,79.71a.47.47,0,0,1,.47-.46.46.46,0,1,1,0,.92A.47.47,0,0,1,38.76,79.71Zm.15,1.39h.63v5.46h-.63Z"/><path d="M41.22,81.1h.61v.84h.05A1.57,1.57,0,0,1,43.37,81h.34v.65a2.3,2.3,0,0,0-.38,0A1.39,1.39,0,0,0,41.85,83v3.52h-.63Z"/><path d="M44.33,83.87c0-1.66,1-2.84,2.39-2.84A2.37,2.37,0,0,1,49,83.71V84H45a1.87,1.87,0,0,0,1.85,2.08,1.52,1.52,0,0,0,1.48-.9l.6.2a2.12,2.12,0,0,1-2.08,1.28A2.52,2.52,0,0,1,44.33,83.87Zm4.06-.41a1.72,1.72,0,0,0-1.67-1.86A1.85,1.85,0,0,0,45,83.46Z"/><path d="M50,81.1h.67l1.29,4.51H52l1.29-4.51H54l1.28,4.5h.05l1.3-4.5h.66L55.6,86.56h-.66l-1.29-4.47h-.07l-1.29,4.47h-.66Z"/><path d="M58.2,85c0-1.08.86-1.43,2.1-1.58.91-.11,1.43-.12,1.43-.53V82.8a1.14,1.14,0,0,0-1.29-1.2,1.51,1.51,0,0,0-1.48.87l-.6-.22A2.09,2.09,0,0,1,60.42,81a1.74,1.74,0,0,1,1.94,1.83v3.7h-.63V85.7h0a1.81,1.81,0,0,1-1.7,1A1.64,1.64,0,0,1,58.2,85Zm3.53-.57v-.79A3.91,3.91,0,0,1,60.3,84c-.93.12-1.47.4-1.47,1.06s.54,1,1.25,1A1.59,1.59,0,0,0,61.73,84.47Z"/><path d="M64.67,86.56H64V79.28h.64Z"/><path d="M67,86.56h-.64V79.28H67Z"/></svg>