<svg id="Layer_1" data-name="Layer 1" xmlns="http://www.w3.org/2000/svg" viewBox="0 0 100 100"><defs><style>.cls-1{fill:#f20505;}.cls-2{font-size:40.61px;font-family:FontAwesome5Pro-Light, "Font Awesome 5 Pro";font-weight:300;}.cls-3{font-size:12.28px;fill:#fff;font-family:FontAwesome6Pro-Solid, "Font Awesome 6 Pro";}</style></defs><path d="M40,72.21V64.93h2.26c2.08,0,3.31,1.36,3.31,3.63s-1.25,3.65-3.44,3.65Zm2.09-.59C44,71.62,45,70.46,45,68.56s-1-3-2.71-3H40.69v6.09Z"/><path d="M46.8,70.69c0-1.08.86-1.43,2.09-1.58.92-.11,1.43-.12,1.43-.53v-.13A1.13,1.13,0,0,0,49,67.25a1.53,1.53,0,0,0-1.49.87L47,67.9A2.1,2.1,0,0,1,49,66.68,1.74,1.74,0,0,1,51,68.51v3.7h-.64v-.86h0a1.79,1.79,0,0,1-1.69,1A1.64,1.64,0,0,1,46.8,70.69Zm3.52-.57v-.79a3.81,3.81,0,0,1-1.43.33c-.92.12-1.46.4-1.46,1.06s.53,1,1.25,1A1.58,1.58,0,0,0,50.32,70.12Z"/><path d="M54.78,67.3H53.63v3.49c0,.68.39.89.82.89a1.49,1.49,0,0,0,.37-.05l.14.57a1.49,1.49,0,0,1-.57.1A1.34,1.34,0,0,1,53,70.94V67.3h-.81v-.55H53V65.44h.64v1.31h1.15Z"/><path d="M55.94,70.69c0-1.08.87-1.43,2.1-1.58.92-.11,1.43-.12,1.43-.53v-.13a1.14,1.14,0,0,0-1.29-1.2,1.51,1.51,0,0,0-1.48.87l-.6-.22a2.1,2.1,0,0,1,2.07-1.22,1.73,1.73,0,0,1,1.93,1.83v3.7h-.63v-.86h0a1.8,1.8,0,0,1-1.69,1A1.65,1.65,0,0,1,55.94,70.69Zm3.53-.57v-.79a3.81,3.81,0,0,1-1.43.33c-.92.12-1.46.4-1.46,1.06s.53,1,1.25,1A1.59,1.59,0,0,0,59.47,70.12Z"/><path d="M26.94,76.93h2.35a2.25,2.25,0,1,1,0,4.5H27.6v2.78h-.66Zm2.34,3.9a1.65,1.65,0,1,0,0-3.3H27.6v3.3Z"/><path d="M33.06,78.75h.61v.84h0a1.57,1.57,0,0,1,1.49-.92h.34v.64c-.06,0-.22,0-.38,0a1.39,1.39,0,0,0-1.48,1.4v3.52h-.63Z"/><path d="M36.17,81.51c0-1.68,1-2.83,2.41-2.83S41,79.83,41,81.51s-1,2.82-2.4,2.82A2.52,2.52,0,0,1,36.17,81.51Zm4.17,0c0-1.23-.63-2.26-1.76-2.26s-1.77,1-1.77,2.26.63,2.24,1.77,2.24S40.34,82.73,40.34,81.51Z"/><path d="M44.51,79.3H43.36v3.49c0,.68.39.89.82.89a1.49,1.49,0,0,0,.37-.05l.14.57a1.43,1.43,0,0,1-.56.1,1.35,1.35,0,0,1-1.41-1.36V79.3h-.81v-.55h.81V77.44h.64v1.31h1.15Z"/><path d="M45.61,81.52c0-1.66,1-2.84,2.39-2.84,1.19,0,2.31.85,2.31,2.68v.31H46.24a1.88,1.88,0,0,0,1.86,2.08,1.53,1.53,0,0,0,1.48-.9l.6.2a2.12,2.12,0,0,1-2.08,1.28A2.52,2.52,0,0,1,45.61,81.52Zm4-.41A1.72,1.72,0,0,0,48,79.25a1.84,1.84,0,0,0-1.75,1.86Z"/><path d="M51.41,81.51a2.54,2.54,0,0,1,2.41-2.83,2,2,0,0,1,2.09,1.69h-.64a1.43,1.43,0,0,0-1.44-1.12c-1,0-1.78.91-1.78,2.24s.71,2.26,1.78,2.26a1.4,1.4,0,0,0,1.44-1.13h.64a2,2,0,0,1-2.08,1.71C52.36,84.33,51.41,83.14,51.41,81.51Z"/><path d="M59.41,79.3H58.26v3.49c0,.68.39.89.82.89a1.49,1.49,0,0,0,.37-.05l.13.57a1.39,1.39,0,0,1-.56.1,1.34,1.34,0,0,1-1.4-1.36V79.3H56.8v-.55h.82V77.44h.64v1.31h1.15Z"/><path d="M60.7,77.36a.47.47,0,0,1,.47-.46.48.48,0,0,1,.48.46.47.47,0,0,1-.48.45A.46.46,0,0,1,60.7,77.36Zm.15,1.39h.64v5.46h-.64Z"/><path d="M62.88,81.51c0-1.68,1-2.83,2.4-2.83s2.41,1.15,2.41,2.83a2.52,2.52,0,0,1-2.41,2.82C63.87,84.33,62.88,83.17,62.88,81.51Zm4.17,0c0-1.23-.63-2.26-1.77-2.26s-1.76,1-1.76,2.26.63,2.24,1.76,2.24S67.05,82.73,67.05,81.51Z"/><path d="M69.7,84.21h-.63V78.75h.62v.86h0a1.66,1.66,0,0,1,1.61-.93,1.78,1.78,0,0,1,1.85,2v3.53h-.63V80.72a1.32,1.32,0,0,0-1.38-1.46A1.44,1.44,0,0,0,69.7,80.8Z"/><circle class="cls-1" cx="51.13" cy="31.01" r="9.9"/><path d="M51.13,22a9,9,0,1,1-9,9,9,9,0,0,1,9-9m0-1.75A10.78,10.78,0,1,0,61.91,31,10.79,10.79,0,0,0,51.13,20.24Z"/><text class="cls-2" transform="translate(30.68 49.59)"></text><text class="cls-3" transform="translate(45.79 35.48)"></text></svg>