<svg id="Layer_1" data-name="Layer 1" xmlns="http://www.w3.org/2000/svg" viewBox="0 0 100 100"><defs><style>.cls-1{fill:#f20505;}.cls-2{font-size:26.44px;font-family:FontAwesome5Pro-Regular, "Font Awesome 5 Pro";}.cls-3{fill:#fff;}</style></defs><path d="M31.87,70.24,34.52,63h.71l2.65,7.28h-.7l-.78-2.19H33.34l-.77,2.19Zm4.32-2.79L34.9,63.82h0l-1.29,3.63Z"/><path d="M39,64.78h.61v.84h0a1.56,1.56,0,0,1,1.49-.92h.33v.64s-.21,0-.38,0a1.38,1.38,0,0,0-1.47,1.39v3.53H39Z"/><path d="M42.1,67.54c0-1.65,1-2.83,2.4-2.83a2,2,0,0,1,2.09,1.69H46a1.41,1.41,0,0,0-1.44-1.12c-1,0-1.77.91-1.77,2.23s.7,2.27,1.77,2.27A1.41,1.41,0,0,0,46,68.65h.64a2,2,0,0,1-2.09,1.71C43.05,70.36,42.1,69.16,42.1,67.54Z"/><path d="M48.58,70.24h-.64V63h.64v2.68h.06a1.62,1.62,0,0,1,1.61-.93,1.78,1.78,0,0,1,1.87,2v3.54h-.64v-3.5a1.32,1.32,0,0,0-1.39-1.45,1.45,1.45,0,0,0-1.51,1.54Z"/><path d="M53.64,63.39a.47.47,0,0,1,.47-.46.48.48,0,0,1,.48.46.47.47,0,0,1-.48.45A.46.46,0,0,1,53.64,63.39Zm.15,1.39h.63v5.46h-.63Z"/><path d="M58.33,70.24h-.67l-2-5.46h.69L58,69.41H58l1.62-4.63h.69Z"/><path d="M61.11,68.72c0-1.08.87-1.43,2.1-1.58.92-.12,1.43-.12,1.43-.54v-.12a1.14,1.14,0,0,0-1.29-1.2,1.51,1.51,0,0,0-1.48.87l-.6-.22a2.1,2.1,0,0,1,2.06-1.22,1.74,1.74,0,0,1,1.94,1.82v3.71h-.63v-.86h0a1.8,1.8,0,0,1-1.69,1A1.65,1.65,0,0,1,61.11,68.72Zm3.53-.57v-.79a3.86,3.86,0,0,1-1.43.33c-.92.12-1.46.39-1.46,1s.53,1.05,1.24,1.05A1.59,1.59,0,0,0,64.64,68.15Z"/><path d="M67.58,70.24H67V63h.63Z"/><path d="M38.31,77.24a2.2,2.2,0,0,0-2.22-1.75c-1.38,0-2.5,1.1-2.5,3.11s1.12,3.12,2.5,3.12A2.2,2.2,0,0,0,38.31,80H39a2.85,2.85,0,0,1-2.89,2.37c-1.83,0-3.14-1.46-3.14-3.74s1.31-3.74,3.14-3.74A2.85,2.85,0,0,1,39,77.24Z"/><path d="M41,82.24H40.4V75H41Z"/><path d="M42.42,79.54c0-1.68,1-2.83,2.4-2.83s2.41,1.15,2.41,2.83a2.52,2.52,0,0,1-2.41,2.82C43.41,82.36,42.42,81.2,42.42,79.54Zm4.17,0c0-1.23-.63-2.26-1.77-2.26s-1.76,1-1.76,2.26.63,2.24,1.76,2.24S46.59,80.76,46.59,79.54Z"/><path d="M49.24,82.24h-.63V76.78h.62v.86h.05a1.66,1.66,0,0,1,1.61-.93,1.77,1.77,0,0,1,1.85,2v3.54h-.63v-3.5a1.32,1.32,0,0,0-1.38-1.45,1.44,1.44,0,0,0-1.49,1.54Z"/><path d="M54.27,75.39a.47.47,0,0,1,.94,0,.47.47,0,0,1-.94,0Zm.14,1.39h.64v5.46h-.64Z"/><path d="M57.36,82.24h-.63V76.78h.61v.86h.06a1.64,1.64,0,0,1,1.6-.93,1.78,1.78,0,0,1,1.86,2v3.54h-.64v-3.5a1.32,1.32,0,0,0-1.37-1.45,1.43,1.43,0,0,0-1.49,1.54Z"/><path d="M62.47,83.31,63,83a1.7,1.7,0,0,0,1.62.86,1.41,1.41,0,0,0,1.61-1.49V81.11h0a1.72,1.72,0,0,1-1.68,1.08c-1.31,0-2.25-1-2.25-2.69s.91-2.79,2.26-2.79a1.75,1.75,0,0,1,1.68,1.11h.06v-1h.62v5.6c0,1.39-1,2-2.25,2A2.24,2.24,0,0,1,62.47,83.31Zm3.76-3.82c0-1.28-.6-2.21-1.67-2.21s-1.68,1-1.68,2.21.6,2.12,1.68,2.12S66.23,80.81,66.23,79.49Z"/><rect class="cls-1" x="33.94" y="34.62" width="20.23" height="15.03"/><text class="cls-2" transform="translate(30.34 49.38)"></text><rect class="cls-3" x="45.91" y="23.88" width="20.72" height="14.53"/><text class="cls-2" transform="translate(43.22 38.65)"></text></svg>