<svg id="Layer_1" data-name="Layer 1" xmlns="http://www.w3.org/2000/svg" viewBox="0 0 100 100"><defs><style>.cls-1{font-size:40.61px;font-family:FontAwesome6Pro-Light, "Font Awesome 6 Pro";font-weight:300;}.cls-2{fill:#f20505;}.cls-3{fill:#fff;}</style></defs><path d="M22.62,69.13l2.64,6.34h.06L28,69.13h.77v7.28H28.1V70.53h-.05l-2.46,5.88H25l-2.46-5.88h-.06v5.88h-.62V69.13Z"/><path d="M34,71h.64v5.46H34V75.5h-.05a1.69,1.69,0,0,1-1.62,1,1.76,1.76,0,0,1-1.8-2V71h.64v3.5a1.31,1.31,0,0,0,1.34,1.42A1.48,1.48,0,0,0,34,74.32Z"/><path d="M36.92,76.41h-.63V69.13h.63Z"/><path d="M40.74,71.5H39.59V75c0,.68.39.88.82.88a1.13,1.13,0,0,0,.37-.05l.14.58a1.77,1.77,0,0,1-.57.09A1.33,1.33,0,0,1,39,75.13V71.5h-.81V71H39V69.64h.64V71h1.15Z"/><path d="M42,69.56a.48.48,0,1,1,.47.45A.47.47,0,0,1,42,69.56ZM42.18,71h.64v5.46h-.64Z"/><path d="M47.44,73.59h-3V73h3Z"/><path d="M54.19,71.41A2.19,2.19,0,0,0,52,69.66c-1.38,0-2.51,1.09-2.51,3.11S50.6,75.88,52,75.88a2.19,2.19,0,0,0,2.21-1.74h.67A2.84,2.84,0,0,1,52,76.51c-1.84,0-3.15-1.46-3.15-3.74S50.14,69,52,69a2.83,2.83,0,0,1,2.88,2.38Z"/><path d="M56.92,76.41h-.64V69.13h.64Z"/><path d="M58.3,73.71c0-1.68,1-2.83,2.41-2.83s2.4,1.15,2.4,2.83a2.43,2.43,0,1,1-4.81,0Zm4.17,0c0-1.23-.63-2.26-1.76-2.26s-1.77,1-1.77,2.26S59.57,76,60.71,76,62.47,74.93,62.47,73.71Z"/><path d="M68,71h.64v5.46H68V75.5h0a1.69,1.69,0,0,1-1.62,1,1.76,1.76,0,0,1-1.8-2V71h.64v3.5a1.31,1.31,0,0,0,1.34,1.42A1.48,1.48,0,0,0,68,74.32Z"/><path d="M70,73.69c0-1.68.91-2.81,2.26-2.81A1.7,1.7,0,0,1,73.9,72H74V69.13h.64v7.28H74v-1H73.9a1.73,1.73,0,0,1-1.67,1.12C70.89,76.52,70,75.39,70,73.69Zm4,0c0-1.3-.6-2.23-1.67-2.23s-1.68,1-1.68,2.23S71.21,76,72.3,76,74,75,74,73.68Z"/><path d="M31.39,81.13H35.6v.6H32.05v2.74h3.22v.6H32.05v3.34h-.66Z"/><path d="M37,81.56a.47.47,0,1,1,.47.45A.47.47,0,0,1,37,81.56ZM37.12,83h.64v5.46h-.64Z"/><path d="M39.44,83h.61v.84h.05a1.56,1.56,0,0,1,1.49-.92h.33v.64c-.05,0-.21,0-.38,0a1.38,1.38,0,0,0-1.47,1.39v3.53h-.63Z"/><path d="M42.55,85.71c0-1.65,1-2.83,2.39-2.83,1.19,0,2.31.85,2.31,2.68v.31H43.19A1.86,1.86,0,0,0,45,88a1.53,1.53,0,0,0,1.48-.9l.6.2A2.12,2.12,0,0,1,45,88.52,2.51,2.51,0,0,1,42.55,85.71Zm4.06-.4a1.72,1.72,0,0,0-1.67-1.86,1.84,1.84,0,0,0-1.75,1.86Z"/><path d="M48.2,83h.67l1.29,4.5h.05L51.5,83h.67l1.28,4.49h0L54.79,83h.67l-1.65,5.46h-.65l-1.29-4.48H51.8l-1.3,4.48h-.65Z"/><path d="M56.42,86.89c0-1.09.86-1.43,2.1-1.58.91-.12,1.42-.12,1.42-.54v-.12a1.14,1.14,0,0,0-1.28-1.21,1.53,1.53,0,0,0-1.49.88l-.6-.22a2.1,2.1,0,0,1,2.07-1.22,1.74,1.74,0,0,1,1.94,1.82v3.71h-.64v-.86h0a1.82,1.82,0,0,1-1.7,1A1.64,1.64,0,0,1,56.42,86.89Zm3.52-.57v-.79a3.8,3.8,0,0,1-1.42.33c-.93.12-1.47.39-1.47,1s.53,1,1.25,1A1.59,1.59,0,0,0,59.94,86.32Z"/><path d="M62.88,88.41h-.63V81.13h.63Z"/><path d="M65.19,88.41h-.64V81.13h.64Z"/><text class="cls-1" transform="translate(21.56 45.4)"></text><rect class="cls-2" x="60.26" y="43.71" width="13.95" height="6.93"/><path class="cls-3" d="M73.66,44.25V50.1H60.8V44.25H73.66m1.09-1.09h-15v8h15v-8Z"/><rect class="cls-2" x="45.9" y="43.71" width="13.95" height="6.93"/><path class="cls-3" d="M59.3,44.25V50.1H46.44V44.25H59.3m1.09-1.09h-15v8h15v-8Z"/><rect class="cls-2" x="65.72" y="36.55" width="13.95" height="6.93"/><path class="cls-3" d="M79.12,37.1v5.84H66.26V37.1H79.12M80.21,36h-15v8h15V36Z"/><rect class="cls-2" x="51.35" y="36.55" width="13.95" height="6.93"/><path class="cls-3" d="M64.76,37.1v5.84H51.9V37.1H64.76M65.84,36h-15v8h15V36Z"/><rect class="cls-2" x="58.63" y="29.44" width="13.95" height="6.93"/><path class="cls-3" d="M72,30v5.84H59.17V30H72m1.09-1.09h-15v8h15v-8Z"/></svg>