<?xml version="1.0" encoding="utf-8"?>
<!-- Generator: Adobe Illustrator 23.1.1, SVG Export Plug-In . SVG Version: 6.00 Build 0)  -->
<svg version="1.1" id="Layer_1" xmlns="http://www.w3.org/2000/svg" xmlns:xlink="http://www.w3.org/1999/xlink" x="0px" y="0px"
	 width="595.3px" height="516.2px" viewBox="0 0 595.3 516.2" style="enable-background:new 0 0 595.3 516.2;" xml:space="preserve"
	>
<style type="text/css">
	.st0{fill:#FFFFFF;}
	.st1{fill:#F20505;}
	.st2{fill:#181715;}
</style>
<g>
	<ellipse class="st0" cx="295.2" cy="257.5" rx="220.9" ry="73.9"/>
	<ellipse class="st1" cx="292" cy="226.4" rx="200" ry="76.3"/>
	<ellipse class="st2" cx="292" cy="222.4" rx="200" ry="76.3"/>
	<path class="st2" d="M294.7,155c-144.1,0.1-261.3,47.6-261.2,106v0l0.1,127.2c0,57.5,117,104,261.3,103.9
		C439.1,492,556.1,445.4,556.1,388L556,260.8C556,202.4,438.8,155,294.7,155z M462,295.6c-43.4,17.2-104.4,27.2-167.2,27.2
		c-62.8,0-123.8-9.8-167.2-27c-41.4-16.4-50.1-32.3-50.1-34.7s8.7-18.3,50.1-34.8C171,209,231.9,199.1,294.7,199s123.8,9.8,167.2,27
		c41.4,16.4,50.1,32.3,50.1,34.7C512,263.2,503.4,279.1,462,295.6z"/>
	<g>
		<path class="st1" d="M294.8,354.2c-137.1,0.1-248.2-44.1-248.3-98.7l0.1,131.1c0,54.6,111.2,98.8,248.3,98.7
			c137.1-0.1,248.2-44.4,248.2-98.9L543,255.3C543,309.9,431.9,354.1,294.8,354.2z"/>
	</g>
	<g>
		<path class="st2" d="M518.8,302.5l0,109.7c15.9-12.9,24.8-27.4,24.8-42.6l0-109.7C543.5,275.1,534.7,289.6,518.8,302.5z"/>
		<path class="st2" d="M46,260.1l0,109.6c0,12.5,6.1,24.5,17.2,35.6l0-109.7C52.1,284.6,46,272.6,46,260.1z"/>
		<path class="st2" d="M83.4,311.9l0.1,109.7c1.6,1,3.3,2.1,5,3.1L88.4,315C86.7,314,85,313,83.4,311.9z"/>
		<path class="st2" d="M74.3,305.5l0.1,109.7c1.6,1.2,3.2,2.4,4.9,3.6l-0.1-109.7C77.5,307.9,75.9,306.7,74.3,305.5z"/>
		<path class="st2" d="M509.6,309.4l0,109.7c1.3-0.9,2.5-1.8,3.8-2.7l0-109.7C512.1,307.7,510.9,308.5,509.6,309.4z"/>
		<path class="st2" d="M294.8,358.8c-83.4,0-157.2-16.3-202.2-41.4l0.1,109.7c45,25.1,118.8,41.4,202.2,41.4
			c88.8,0,166.7-18.6,210.5-46.6l0-109.7C461.5,340.2,383.6,358.8,294.8,358.8z"/>
	</g>
	<path class="st2" d="M294.9,473.7C157.8,473.7,46.6,429.5,46.6,375v4c0,54.6,111.2,98.8,248.3,98.7
		c137.1-0.1,248.2-44.4,248.2-98.9v-4C543,429.3,431.9,473.6,294.9,473.7z"/>
	<g>
		<g>
			<path class="st0" d="M131.7,381.9c3.5,1.5,5.6,3.5,6.5,6.1c0.9,2.6,0.6,5.6-0.9,9.1l-2.5,5.7c-1.5,3.5-3.5,5.9-6,7
				c-2.5,1.1-5.4,0.9-8.9-0.6l-3.2-1.4l-7.1,16.4l-6.9-3l18.9-43.7L131.7,381.9z M125.8,386.7l-6.4,14.8l3.2,1.4
				c1.1,0.5,2,0.5,2.9,0.2c0.8-0.3,1.6-1.3,2.3-2.9l2.8-6.6c0.7-1.6,0.9-2.8,0.5-3.6s-1-1.5-2.1-2L125.8,386.7z"/>
			<path class="st0" d="M153.2,389.9L142.3,425c-0.5,1.6-0.5,2.9-0.1,3.8c0.5,0.9,1.3,1.5,2.4,1.8c1.1,0.4,2.1,0.3,3-0.1
				s1.6-1.5,2.1-3.1l10.9-35.1l6.8,2.1l-10.7,34.6c-1.1,3.7-2.9,6.2-5.3,7.6c-2.4,1.4-5.4,1.6-8.9,0.5c-3.5-1.1-5.9-2.9-7.1-5.4
				s-1.2-5.6-0.1-9.3l10.7-34.6L153.2,389.9z"/>
			<path class="st0" d="M170.1,406.7c0.8-3.8,2.4-6.5,4.6-8.1s5.2-2,8.7-1.2s6.1,2.4,7.4,4.8c1.3,2.4,1.6,5.5,0.7,9.3l-0.3,1.5
				l-6.9-1.5l0.4-1.9c0.4-1.7,0.3-2.9-0.2-3.8s-1.3-1.4-2.5-1.6c-1.1-0.3-2.1-0.1-2.9,0.4s-1.4,1.6-1.8,3.3
				c-0.4,1.6-0.3,3.1,0.1,4.5c0.4,1.4,1.1,2.7,1.9,4c0.8,1.3,1.7,2.7,2.7,4c1,1.4,1.9,2.8,2.6,4.3c0.8,1.5,1.3,3.2,1.7,5
				c0.3,1.8,0.3,3.8-0.2,6c-0.8,3.8-2.4,6.4-4.7,8s-5.2,2-8.8,1.2s-6.1-2.4-7.4-4.9c-1.4-2.4-1.6-5.5-0.8-9.3l0.6-2.9l6.9,1.5
				l-0.8,3.3c-0.4,1.7-0.3,2.9,0.2,3.8c0.5,0.8,1.4,1.4,2.5,1.6c1.1,0.3,2.1,0.1,3-0.4c0.8-0.5,1.4-1.6,1.8-3.3
				c0.4-1.6,0.3-3.1-0.1-4.5c-0.4-1.4-1.1-2.7-1.9-4c-0.8-1.3-1.7-2.7-2.7-4s-1.9-2.8-2.6-4.3c-0.8-1.5-1.3-3.2-1.7-5
				C169.5,411,169.6,408.9,170.1,406.7z"/>
			<path class="st0" d="M200,449.7l-7.4-1.1l7.3-47.1l7.4,1.1l-3.1,20.2l8.4,1.3l3.1-20.2l7.5,1.2l-7.3,47.1l-7.5-1.2l3.1-20.2
				l-8.4-1.3L200,449.7z"/>
			<path class="st0" d="M254.3,408.1c3.9,0.3,6.6,1.4,8.3,3.3c1.6,1.9,2.3,4.7,2,8.4l-0.1,1.7c-0.2,2.4-0.7,4.4-1.6,6
				c-0.9,1.5-2.2,2.6-3.9,3.3c2,0.9,3.3,2.3,4,4.1c0.7,1.8,1,4,0.8,6.5l-0.3,3.9c-0.3,3.7-1.4,6.4-3.5,8.2s-4.9,2.5-8.7,2.3
				l-11.7-0.8l3.4-47.5L254.3,408.1z M248.6,434l-1,14.6l4.3,0.3c1.3,0.1,2.2-0.2,3-0.8c0.7-0.6,1.1-1.8,1.2-3.6l0.3-4.1
				c0.2-2.2-0.1-3.8-0.8-4.6c-0.7-0.9-1.9-1.4-3.6-1.5L248.6,434z M250,414.6l-0.9,12.6l2.9,0.2c1.4,0.1,2.5-0.2,3.4-0.9
				c0.8-0.7,1.3-2,1.5-3.9l0.2-2.6c0.1-1.7-0.1-3-0.6-3.8c-0.6-0.8-1.5-1.3-2.8-1.4L250,414.6z"/>
			<path class="st0" d="M279.5,409.3l-0.7,36.7c0,1.7,0.3,2.9,1,3.6c0.7,0.7,1.6,1,2.8,1.1c1.2,0,2.1-0.3,2.8-1
				c0.7-0.7,1.1-1.9,1.1-3.6l0.7-36.7l7.1,0.1l-0.7,36.3c-0.1,3.9-1.1,6.8-3,8.8c-1.9,2-4.7,3-8.4,2.9s-6.4-1.2-8.3-3.3
				s-2.7-5.1-2.6-8.9l0.7-36.3L279.5,409.3z"/>
			<path class="st0" d="M299,409.6l23.1-0.6l0.2,6.8l-7.8,0.2l1.1,40.8l-7.5,0.2l-1.1-40.8l-7.8,0.2L299,409.6z"/>
			<path class="st0" d="M325.1,408.8l23.1-1.7l0.5,6.8l-7.8,0.6l3,40.7l-7.5,0.5l-3-40.7l-7.8,0.6L325.1,408.8z"/>
			<path class="st0" d="M354,418c-0.5-3.8,0.1-6.9,1.8-9.2c1.7-2.3,4.3-3.7,8-4.1s6.6,0.2,8.8,2c2.2,1.8,3.5,4.6,4,8.4l3.1,24.6
				c0.5,3.8-0.1,6.9-1.8,9.2c-1.7,2.3-4.3,3.7-8,4.1c-3.6,0.5-6.6-0.2-8.8-2c-2.2-1.8-3.5-4.6-4-8.4L354,418z M364.6,442.1
				c0.2,1.7,0.7,2.9,1.5,3.5c0.8,0.6,1.8,0.8,2.9,0.7c1.2-0.1,2.1-0.6,2.7-1.4c0.6-0.8,0.8-2,0.6-3.7l-3.2-25.5
				c-0.2-1.7-0.7-2.9-1.5-3.5c-0.8-0.6-1.8-0.8-2.9-0.7c-1.2,0.1-2.1,0.6-2.7,1.4c-0.6,0.8-0.8,2-0.6,3.7L364.6,442.1z"/>
			<path class="st0" d="M390.5,414.5l6.5,33.9l-6.6,1.3l-9-46.8l9.2-1.8l12.9,26.5l-5.4-28l6.5-1.2l9,46.8l-7.5,1.4L390.5,414.5z"/>
			<path class="st0" d="M423.4,393.8l11.3-3.5c3.6-1.1,6.6-1,8.9,0.3c2.4,1.4,4.1,3.9,5.3,7.5l7.2,23c1.2,3.7,1.2,6.8,0,9.2
				c-1.1,2.5-3.5,4.2-7.1,5.4l-11.3,3.5L423.4,393.8z M432.6,398l10.2,32.5l4-1.3c1.1-0.4,1.9-1,2.4-1.8c0.5-0.9,0.4-2.1-0.1-3.8
				l-7.4-23.6c-0.5-1.6-1.2-2.7-2-3.1c-0.9-0.5-1.8-0.5-3-0.1L432.6,398z"/>
			<path class="st0" d="M484.1,422.2c-0.2-0.2-0.4-0.5-0.6-0.7s-0.4-0.5-0.6-0.8c-0.2-0.3-0.5-0.8-0.8-1.4s-0.6-1.3-1-2.2l-3-6.8
				c-0.9-2-1.9-3.3-3-3.8c-1.1-0.5-2.4-0.4-4,0.3l-2.4,1l7.9,17.7l-6.8,3L450.5,385l10.3-4.6c3.6-1.6,6.5-1.9,8.9-1
				c2.3,1,4.2,3.1,5.7,6.5l1.5,3.4c2,4.5,1.8,8.1-0.5,10.8c2-0.1,3.8,0.5,5.1,1.9c1.4,1.3,2.5,3.1,3.5,5.4l3,6.7
				c0.5,1.1,0.9,2,1.4,2.8s1,1.5,1.7,2.2L484.1,422.2z M460.1,388.2l6,13.4l2.7-1.2c1.3-0.6,2.1-1.4,2.6-2.3c0.4-1,0.3-2.4-0.5-4.1
				l-1.9-4.3c-0.7-1.6-1.5-2.6-2.4-3c-0.9-0.5-1.9-0.4-3.1,0.1L460.1,388.2z"/>
		</g>
	</g>
	<g>
		<g>
			<path class="st0" d="M184.9,357.4l14.9,2.9l-0.5,2.8l-11.6-2.2l-1.6,8.1l9.8,1.9l-0.5,2.8l-9.8-1.9l-1.8,9.4l12,2.3l-0.5,2.8
				l-15.2-2.9L184.9,357.4z"/>
			<path class="st0" d="M213.5,375.2l-5.3-13.5l3.6,0.5l2.6,7.1c0.5,1.3,0.9,2.4,1.5,4l0.2,0c0.9-1.4,1.6-2.4,2.4-3.5l4.4-6.2
				l3.5,0.5l-8.8,11.8l5.8,14.3l-3.6-0.5l-2.8-7.5c-0.5-1.4-1-2.8-1.6-4.5l-0.2,0c-1,1.5-1.8,2.7-2.6,3.9l-4.7,6.5l-3.5-0.5
				L213.5,375.2z"/>
			<path class="st0" d="M236.1,365.2l7.5,0.6c5.9,0.5,9.6,2.8,9.1,8.5c-0.5,5.5-4.6,7.8-10.4,7.3l-4.3-0.4l-0.9,10.4l-3.3-0.3
				L236.1,365.2z M242.2,378.9c4.6,0.4,6.9-1.1,7.2-4.8c0.3-3.8-1.9-5.2-6.5-5.6l-3.8-0.3l-0.9,10.4L242.2,378.9z"/>
			<path class="st0" d="M263.8,367.3l15.1,0.6l-0.1,2.8l-11.8-0.5l-0.3,8.2l10,0.4l-0.1,2.8l-10-0.4l-0.4,9.5l12.2,0.5l-0.1,2.8
				l-15.5-0.6L263.8,367.3z"/>
			<path class="st0" d="M290,368.1l6.6,0c8.1-0.1,12.4,4.6,12.5,12.9c0.1,8.4-4.2,13.3-12.2,13.3l-6.7,0L290,368.1z M296.5,391.6
				c6.1,0,9.2-4,9.1-10.6c0-6.6-3.1-10.3-9.3-10.2l-3,0l0.1,20.8L296.5,391.6z"/>
			<path class="st0" d="M319.7,367.5l3.3-0.1l1.2,26.2l-3.3,0.1L319.7,367.5z"/>
			<path class="st0" d="M335.5,366.7l15.1-1.2l0.2,2.8l-11.8,1l0.7,8.2l9.9-0.8l0.2,2.8l-9.9,0.8l0.8,9.5l12.2-1l0.2,2.8l-15.5,1.3
				L335.5,366.7z"/>
			<path class="st0" d="M361.5,364.3l3.4-0.5l11.6,15.1l3.5,5l0.2,0c-0.5-2.6-1.1-5.5-1.5-8.2l-1.8-13.4l3.1-0.4l3.5,26l-3.4,0.5
				l-11.6-15.1l-3.5-5l-0.2,0c0.5,2.6,1.2,5.3,1.5,8.1l1.8,13.6l-3.1,0.4L361.5,364.3z"/>
			<path class="st0" d="M398,361.5l-7.8,1.5l-0.5-2.8l18.9-3.7l0.5,2.8l-7.8,1.5l4.5,23l-3.3,0.6L398,361.5z"/>
		</g>
	</g>
	<ellipse class="st0" cx="294.2" cy="101.9" rx="151.6" ry="50.7"/>
	<g>
		<path class="st0" d="M294,170c-39.9,0-77.4-5.2-105.5-14.6c-25.6-8.6-40.9-20.2-40.9-31c0-10.9,15.3-22.5,41-31.1
			c28.1-9.4,65.6-14.6,105.6-14.6h0.2c39.9,0,77.4,5.2,105.5,14.6c25.6,8.6,40.9,20.2,40.9,31c0,10.9-15.3,22.5-41,31.1
			c-28.1,9.4-65.6,14.6-105.6,14.6L294,170L294,170z"/>
		<path class="st2" d="M294.4,83.6c39.4,0,76.3,5.1,103.9,14.3c27.7,9.2,37.5,20,37.5,26.3c0,6.4-9.8,17.1-37.6,26.4
			c-27.6,9.2-64.6,14.4-104,14.4h-0.1H294c-39.4,0-76.3-5.1-103.9-14.3c-27.7-9.2-37.5-19.9-37.5-26.3c0-6.4,9.8-17.1,37.6-26.4
			c27.6-9.2,64.6-14.3,104-14.4h0.1L294.4,83.6L294.4,83.6 M294.4,73.6c-0.1,0-0.1,0-0.2,0c-83.7,0-151.6,22.8-151.6,50.7
			c0,28,67.8,50.6,151.4,50.6c0.1,0,0.1,0,0.2,0c83.7,0,151.6-22.8,151.6-50.7C445.8,96.3,378,73.6,294.4,73.6L294.4,73.6z"/>
	</g>
	<g>
		<ellipse class="st2" cx="294.2" cy="138.9" rx="116.7" ry="48.8"/>
	</g>
	<g>
		<ellipse class="st1" cx="295.6" cy="110" rx="60.6" ry="12.9"/>
	</g>
	<path class="st0" d="M372.7,120c0,9.3-35.3,16.8-78.8,16.8c-36.2,0-66.7-5.2-76-12.2l0,52.7l155.4-0.1l0-57.2H372.7z"/>
	<path class="st2" d="M294.6,28.7c-100.9,0-182.9,33.3-182.9,74.2v0l0,89c0,40.2,81.9,72.8,182.9,72.7c101,0,182.9-32.7,182.9-72.9
		l0-89C477.6,61.8,395.5,28.6,294.6,28.7z M411.7,127.1c-30.4,12.1-73.1,19-117,19c-44,0-86.6-6.9-117.1-18.9
		c-29-11.5-35.1-22.6-35.1-24.3c0-1.7,6.1-12.8,35.1-24.3c30.4-12.1,73.1-19,117-19c44,0,86.6,6.9,117,18.9
		c29,11.5,35.1,22.6,35.1,24.3C446.8,104.4,440.7,115.6,411.7,127.1z"/>
	<g>
		<path class="st1" d="M294.7,174.7c-96,0-173.8-30.9-173.8-69.1l0,83.6c0,38.2,77.8,69.1,173.8,69.1c96,0,173.7-31.1,173.7-69.2
			l0-83.6C468.5,143.6,390.7,174.6,294.7,174.7z"/>
	</g>
	<g>
		<path class="st2" d="M143.9,231.1l12.7,0l0-80c-4.6-2.4-8.9-4.9-12.7-7.6L143.9,231.1z"/>
		<path class="st2" d="M254.3,261l26.9,0l0-82.9c-9.2-0.3-18.2-0.8-26.9-1.7L254.3,261z"/>
		<path class="st2" d="M420.3,238.3l26.9-9.9l0-86.1c-7.3,5.3-16.4,10.2-26.9,14.6L420.3,238.3z"/>
		<path class="st2" d="M248,261h3.3l0-84.9c-1.1-0.1-2.2-0.2-3.3-0.4L248,261z"/>
		<path class="st2" d="M404.1,243.6h7.7l0-83.5c-2.5,0.9-5.1,1.8-7.7,2.6L404.1,243.6z"/>
		<path class="st2" d="M377.5,253.5h7.7l0-85.3c-2.5,0.6-5.1,1.2-7.7,1.8L377.5,253.5z"/>
		<path class="st2" d="M126.7,126.8l0,94.9l12.7,0l0-81.6C134,136,129.7,131.5,126.7,126.8z"/>
		<path class="st2" d="M160.9,238.3h6.3l0-82.1c-2.2-0.9-4.3-1.9-6.3-2.9L160.9,238.3z"/>
	</g>
	<g>
		<path class="st2" d="M63.2,417.4v6.8c2.6,2.6,5.4,5.2,8.5,7.7v-6.8C68.6,422.6,65.8,420,63.2,417.4z"/>
		<path class="st2" d="M79.2,437.5c1.4,1,2.8,1.9,4.2,2.8v-6.8c-1.4-0.9-2.9-1.9-4.2-2.8V437.5z"/>
		<path class="st2" d="M88.4,438.3v5.2c1.4,0.8,2.8,1.6,4.2,2.4v-6.8c-1.3-0.7-2.5-1.4-3.8-2.1C88.6,437.3,88.4,437.8,88.4,438.3z"
			/>
		<path class="st2" d="M514.6,434.3c1.5-1.1,2.9-2.2,4.2-3.4v-6.8c-1.4,1.1-2.8,2.2-4.2,3.4V434.3z"/>
		<path class="st2" d="M505.4,440.7c1.5-0.9,2.9-1.9,4.2-2.8v-6.8c-1.4,0.9-2.8,1.9-4.2,2.8V440.7z"/>
		<path class="st2" d="M362,483.6c18.3-2,35.8-4.9,52.1-8.5l-1-6.6c-16.4,3.5-33.8,6.4-52.1,8.4L362,483.6z"/>
	</g>
</g>
</svg>
