<svg id="Layer_1" data-name="Layer 1" xmlns="http://www.w3.org/2000/svg" viewBox="0 0 100 100"><defs><style>.cls-1,.cls-3{fill:#fff;}.cls-2{fill:#f20505;}.cls-3{font-size:10.99px;font-family:Inter-Bold, Inter;font-weight:700;}</style></defs><path d="M29.65,66.24v4.82a2.57,2.57,0,0,1-2.76,2.59,2.57,2.57,0,0,1-2.76-2.59V66.24h.66V71a2,2,0,0,0,2.1,2A2,2,0,0,0,29,71V66.24Z"/><path d="M32.07,73.52h-.63V68.06h.61v.86h.06A1.66,1.66,0,0,1,33.72,68a1.77,1.77,0,0,1,1.85,2v3.54h-.63V70a1.32,1.32,0,0,0-1.38-1.45,1.44,1.44,0,0,0-1.49,1.54Z"/><path d="M37.09,66.67a.48.48,0,0,1,.48-.46.47.47,0,0,1,.47.46.46.46,0,0,1-.47.45A.47.47,0,0,1,37.09,66.67Zm.15,1.39h.64v5.46h-.64Z"/><path d="M41.8,68.61H40.59v4.91H40V68.61h-.84v-.55H40v-.8A1.35,1.35,0,0,1,41.4,65.9a1.77,1.77,0,0,1,.67.12l-.18.56a1.32,1.32,0,0,0-.44-.08.79.79,0,0,0-.86.89v.67H41.8Z"/><path d="M42.92,66.67a.47.47,0,0,1,.47-.46.48.48,0,0,1,.48.46.47.47,0,0,1-.48.45A.46.46,0,0,1,42.92,66.67Zm.15,1.39h.64v5.46h-.64Z"/><path d="M45.1,70.82c0-1.65,1-2.83,2.39-2.83,1.19,0,2.31.85,2.31,2.68V71H45.74a1.86,1.86,0,0,0,1.85,2.08,1.53,1.53,0,0,0,1.48-.9l.6.2a2.12,2.12,0,0,1-2.08,1.28A2.52,2.52,0,0,1,45.1,70.82Zm4.06-.4a1.72,1.72,0,0,0-1.67-1.86,1.84,1.84,0,0,0-1.75,1.86Z"/><path d="M50.91,70.81c0-1.69.91-2.82,2.25-2.82a1.73,1.73,0,0,1,1.67,1.11h.06V66.24h.63v7.28h-.61v-1h-.08a1.74,1.74,0,0,1-1.68,1.13C51.81,73.64,50.91,72.5,50.91,70.81Zm4,0c0-1.3-.6-2.23-1.67-2.23s-1.69,1-1.69,2.23.6,2.27,1.69,2.27S54.9,72.11,54.9,70.79Z"/><path d="M60.26,66.24h.67v6.68H64.4v.6H60.26Z"/><path d="M65.48,70.82c0-1.68,1-2.83,2.4-2.83s2.4,1.15,2.4,2.83-1,2.82-2.4,2.82S65.48,72.48,65.48,70.82Zm4.17,0c0-1.23-.64-2.26-1.77-2.26s-1.77,1-1.77,2.26.64,2.24,1.77,2.24S69.65,72,69.65,70.82Z"/><path d="M71.62,74.59l.52-.34a1.7,1.7,0,0,0,1.61.87,1.42,1.42,0,0,0,1.62-1.5V72.4h-.06a1.72,1.72,0,0,1-1.68,1.07c-1.31,0-2.24-1-2.24-2.69S72.29,68,73.64,68a1.73,1.73,0,0,1,1.68,1.11h.07v-1H76v5.6c0,1.39-1,2-2.25,2A2.22,2.22,0,0,1,71.62,74.59Zm3.76-3.82c0-1.28-.6-2.21-1.67-2.21S72,69.54,72,70.77s.6,2.12,1.69,2.12S75.38,72.09,75.38,70.77Z"/><path d="M21.08,78.24l2.64,6.34h.07l2.64-6.34h.77v7.28h-.63V79.65h-.06l-2.45,5.87h-.61L21,79.65h0v5.87h-.63V78.24Z"/><path d="M28.72,84c0-1.08.86-1.43,2.1-1.58.91-.12,1.42-.12,1.42-.54v-.12A1.13,1.13,0,0,0,31,80.56a1.53,1.53,0,0,0-1.49.87l-.6-.22A2.1,2.1,0,0,1,30.94,80a1.74,1.74,0,0,1,1.94,1.82v3.71h-.64v-.86h0a1.82,1.82,0,0,1-1.7,1A1.64,1.64,0,0,1,28.72,84Zm3.52-.57v-.79a3.8,3.8,0,0,1-1.42.33c-.93.12-1.47.39-1.47,1.06s.53,1,1.25,1A1.59,1.59,0,0,0,32.24,83.43Z"/><path d="M35.18,85.52h-.63V80.06h.62v.86h0A1.66,1.66,0,0,1,36.83,80a1.77,1.77,0,0,1,1.85,2v3.54h-.63V82a1.32,1.32,0,0,0-1.38-1.45,1.44,1.44,0,0,0-1.49,1.54Z"/><path d="M40.08,84c0-1.08.86-1.43,2.1-1.58.91-.12,1.42-.12,1.42-.54v-.12a1.13,1.13,0,0,0-1.28-1.2,1.5,1.5,0,0,0-1.48.87l-.61-.22A2.1,2.1,0,0,1,42.3,80a1.74,1.74,0,0,1,1.94,1.82v3.71H43.6v-.86h0a1.82,1.82,0,0,1-1.7,1A1.64,1.64,0,0,1,40.08,84Zm3.52-.57v-.79a3.8,3.8,0,0,1-1.42.33c-.93.12-1.47.39-1.47,1.06s.53,1,1.25,1A1.59,1.59,0,0,0,43.6,83.43Z"/><path d="M45.86,86.59l.52-.34a1.71,1.71,0,0,0,1.62.87,1.41,1.41,0,0,0,1.61-1.5V84.4h0a1.72,1.72,0,0,1-1.68,1.07c-1.31,0-2.25-1-2.25-2.69S46.54,80,47.89,80a1.75,1.75,0,0,1,1.68,1.11h.06v-1h.62v5.6c0,1.39-1,2-2.25,2A2.24,2.24,0,0,1,45.86,86.59Zm3.76-3.82c0-1.28-.6-2.21-1.67-2.21s-1.68,1-1.68,2.21.6,2.12,1.68,2.12S49.62,84.09,49.62,82.77Z"/><path d="M51.64,82.82c0-1.65,1-2.83,2.39-2.83,1.19,0,2.31.85,2.31,2.68V83H52.28a1.86,1.86,0,0,0,1.85,2.08,1.53,1.53,0,0,0,1.48-.9l.6.2a2.12,2.12,0,0,1-2.08,1.28A2.52,2.52,0,0,1,51.64,82.82Zm4.06-.4A1.72,1.72,0,0,0,54,80.56a1.84,1.84,0,0,0-1.75,1.86Z"/><path d="M57.73,80.06h.61v.84h.06a1.61,1.61,0,0,1,2.94.08h0A1.66,1.66,0,0,1,63,80c1,0,1.64.65,1.64,1.87v3.66H64V81.86a1.14,1.14,0,0,0-1.2-1.29,1.24,1.24,0,0,0-1.3,1.36v3.59h-.65V81.81a1.12,1.12,0,0,0-1.18-1.24A1.35,1.35,0,0,0,58.36,82v3.5h-.63Z"/><path d="M66,82.82C66,81.17,67,80,68.42,80a2.37,2.37,0,0,1,2.31,2.68V83H66.66a1.88,1.88,0,0,0,1.85,2.08,1.52,1.52,0,0,0,1.48-.9l.6.2a2.11,2.11,0,0,1-2.08,1.28A2.52,2.52,0,0,1,66,82.82Zm4-.4a1.72,1.72,0,0,0-1.66-1.86,1.84,1.84,0,0,0-1.75,1.86Z"/><path d="M72.75,85.52h-.64V80.06h.62v.86h0A1.66,1.66,0,0,1,74.39,80a1.77,1.77,0,0,1,1.85,2v3.54h-.63V82a1.32,1.32,0,0,0-1.38-1.45,1.43,1.43,0,0,0-1.48,1.54Z"/><path d="M80.06,80.61H78.9V84.1a.77.77,0,0,0,.83.89,1.57,1.57,0,0,0,.37,0l.13.57a1.7,1.7,0,0,1-.56.09,1.33,1.33,0,0,1-1.4-1.35V80.61h-.82v-.55h.82V78.75h.63v1.31h1.16Z"/><path d="M65.79,45.61v5.57h1.33a1.33,1.33,0,0,1,0,2.66H36.54a5.36,5.36,0,0,1-5.32-5.32V17.93a6.67,6.67,0,0,1,6.65-6.65h26.6a4,4,0,0,1,4,4v26.6A4,4,0,0,1,65.79,45.61ZM33.88,44a4.74,4.74,0,0,1,2.66-.75h5.34V13.94h-4a4,4,0,0,0-4,4Zm29.26,1.91H36.54a2.66,2.66,0,0,0,0,5.32h26.6Zm2.65-4V15.27a1.31,1.31,0,0,0-1.32-1.33H41.86V43.2H64.47A1.31,1.31,0,0,0,65.79,41.87Z"/><rect class="cls-1" x="39.19" y="13.94" width="6.66" height="29.23"/><circle class="cls-2" cx="49.59" cy="28.69" r="9.9"/><path d="M49.59,19.66a9,9,0,1,1-9,9,9,9,0,0,1,9-9m0-1.75A10.78,10.78,0,1,0,60.37,28.69,10.8,10.8,0,0,0,49.59,17.91Z"/><text class="cls-3" transform="translate(43.83 31.47)">U</text><text class="cls-3" transform="translate(48.77 34.04)">L</text></svg>