<svg id="Layer_1" data-name="Layer 1" xmlns="http://www.w3.org/2000/svg" viewBox="0 0 100 100"><defs><style>.cls-1{fill:#f20505;}.cls-2{font-size:40.61px;font-family:FontAwesome5Pro-Light, "Font Awesome 5 Pro";font-weight:300;}</style></defs><rect class="cls-1" x="34.82" y="20.76" width="10.98" height="6.61" transform="translate(28.82 -21.45) rotate(45)"/><rect class="cls-1" x="53.97" y="39.83" width="10.98" height="6.61" transform="translate(47.92 -29.41) rotate(45)"/><rect class="cls-1" x="53.97" y="21.09" width="10.98" height="6.61" transform="translate(0.17 49.19) rotate(-45)"/><rect class="cls-1" x="34.65" y="39.91" width="10.98" height="6.61" transform="translate(-18.8 41.04) rotate(-45)"/><path d="M14.4,72.42l2.38-2.67c.92-1,1.29-1.56,1.29-2.25a1.38,1.38,0,0,0-1.49-1.38,1.41,1.41,0,0,0-1.49,1.48h-.63a2,2,0,0,1,2.14-2.07,2,2,0,0,1,2.1,2c0,.81-.36,1.41-1.57,2.75l-1.81,2v0h3.6v.6H14.4Z"/><path d="M20.17,70.81l3.25-5.18h.78v5.12h1v.6h-1v1.56h-.63V71.35h-3.4Zm3.4-4.27h-.05L20.91,70.7v0h2.66Z"/><path d="M29.06,69.74l-1.8,1.8-.41-.41,1.8-1.8-1.8-1.8.41-.41,1.8,1.79,1.8-1.79.41.41-1.79,1.8,1.79,1.8-.41.41Z"/><path d="M36.65,66.27v0H32.83v-.6h4.52v.62L34,72.91h-.7Z"/><path d="M47.24,65.63v4.82a2.76,2.76,0,0,1-5.51,0V65.63h.66V70.4a2.1,2.1,0,0,0,4.19,0V65.63Z"/><path d="M51.39,66.12c-1,0-1.72.58-1.72,1.36s.74,1.12,1.45,1.32l.77.22c.92.26,2,.75,2,2s-.95,2-2.53,2-2.42-.79-2.5-1.94h.68c.07.86.84,1.34,1.82,1.34s1.88-.59,1.88-1.47-.62-1.08-1.52-1.34l-.87-.25C49.69,69,49,68.44,49,67.51a2.42,2.42,0,0,1,4.74-.06h-.65A1.56,1.56,0,0,0,51.39,66.12Z"/><path d="M58.28,65.63h2.45a1.87,1.87,0,0,1,2.14,1.9,1.52,1.52,0,0,1-1.16,1.59v.06A1.7,1.7,0,0,1,63.15,71c0,1.1-.72,1.91-2.28,1.91H58.28Zm2.51,3.29a1.36,1.36,0,0,0,1.44-1.39c0-.77-.5-1.3-1.5-1.3H58.94v2.69Zm.08,3.39c1.12,0,1.65-.56,1.65-1.31a1.51,1.51,0,0,0-1.62-1.49h-2v2.8Z"/><path d="M64.35,71.38c0-1.08.86-1.42,2.1-1.57.91-.12,1.42-.12,1.42-.54v-.13a1.13,1.13,0,0,0-1.28-1.2,1.5,1.5,0,0,0-1.48.87l-.61-.21a2.11,2.11,0,0,1,2.07-1.23,1.75,1.75,0,0,1,1.94,1.83v3.71h-.64v-.86h0a1.82,1.82,0,0,1-1.7,1A1.63,1.63,0,0,1,64.35,71.38Zm3.52-.56V70a3.8,3.8,0,0,1-1.42.33c-.93.11-1.47.39-1.47,1s.53,1,1.25,1A1.59,1.59,0,0,0,67.87,70.82Z"/><path d="M73.27,68.81A1.22,1.22,0,0,0,72,67.93c-.73,0-1.26.39-1.26.95s.31.74,1,.91l.83.2c.91.23,1.37.72,1.37,1.44,0,.93-.83,1.59-2,1.59a1.8,1.8,0,0,1-2-1.4l.61-.15a1.24,1.24,0,0,0,1.36,1c.84,0,1.39-.43,1.39-1s-.29-.74-.89-.89l-.9-.21c-.94-.23-1.39-.72-1.39-1.46,0-.9.8-1.53,1.9-1.53a1.78,1.78,0,0,1,1.85,1.28Z"/><path d="M75,70.21c0-1.65,1-2.84,2.39-2.84a2.37,2.37,0,0,1,2.31,2.68v.32H75.67a1.86,1.86,0,0,0,1.85,2.07A1.52,1.52,0,0,0,79,71.55l.6.19A2.11,2.11,0,0,1,77.52,73,2.51,2.51,0,0,1,75,70.21Zm4.06-.4A1.72,1.72,0,0,0,77.42,68a1.84,1.84,0,0,0-1.75,1.86Z"/><path d="M80.84,70.19c0-1.68.91-2.82,2.25-2.82a1.73,1.73,0,0,1,1.67,1.12h.06V65.63h.63v7.28h-.62v-1h-.07A1.76,1.76,0,0,1,83.08,73C81.74,73,80.84,71.89,80.84,70.19Zm4,0c0-1.3-.61-2.23-1.67-2.23s-1.69,1-1.69,2.23.6,2.26,1.69,2.26S84.83,71.5,84.83,70.18Z"/><path d="M34.47,78.12c-1,0-1.72.58-1.72,1.36s.74,1.12,1.45,1.32L35,81c.92.26,2,.75,2,2s-.94,2-2.52,2-2.43-.79-2.5-1.94h.68c.07.86.84,1.34,1.82,1.34S36.3,83.84,36.3,83s-.62-1.08-1.52-1.34l-.87-.25c-1.14-.34-1.8-.93-1.8-1.86a2.13,2.13,0,0,1,2.37-2,2.14,2.14,0,0,1,2.36,1.92H36.2A1.56,1.56,0,0,0,34.47,78.12Z"/><path d="M41.88,79.45h.63v5.46h-.63V84h-.05a1.71,1.71,0,0,1-1.63,1,1.76,1.76,0,0,1-1.79-2V79.45H39V83a1.32,1.32,0,0,0,1.35,1.42,1.48,1.48,0,0,0,1.49-1.55Z"/><path d="M44.16,79.45h.62v1h.08a1.72,1.72,0,0,1,1.67-1.12c1.35,0,2.25,1.14,2.25,2.82S47.87,85,46.54,85a1.73,1.73,0,0,1-1.68-1.12H44.8V87h-.64Zm2.3,5c1.09,0,1.69-1,1.69-2.26S47.56,80,46.46,80s-1.67.93-1.67,2.23S45.4,84.44,46.46,84.44Z"/><path d="M50.15,79.45h.62v1h.08a1.72,1.72,0,0,1,1.67-1.12c1.35,0,2.25,1.14,2.25,2.82S53.86,85,52.53,85a1.73,1.73,0,0,1-1.68-1.12h-.06V87h-.64Zm2.3,5c1.09,0,1.69-1,1.69-2.26S53.55,80,52.45,80s-1.67.93-1.67,2.23S51.39,84.44,52.45,84.44Z"/><path d="M55.88,82.2c0-1.67,1-2.83,2.4-2.83s2.4,1.16,2.4,2.83-1,2.82-2.4,2.82S55.88,83.87,55.88,82.2Zm4.17,0c0-1.22-.64-2.25-1.77-2.25s-1.77,1-1.77,2.25.64,2.24,1.77,2.24S60.05,83.43,60.05,82.2Z"/><path d="M62.07,79.45h.61v.84h0a1.56,1.56,0,0,1,1.49-.92h.34V80a2.65,2.65,0,0,0-.39,0,1.38,1.38,0,0,0-1.47,1.39v3.53h-.63Z"/><path d="M68.12,80H67v3.48c0,.69.39.89.82.89a1.13,1.13,0,0,0,.37-.05l.14.58a1.7,1.7,0,0,1-.56.09,1.34,1.34,0,0,1-1.41-1.36V80h-.81v-.55h.81V78.14H67v1.31h1.15Z"/><text class="cls-2" transform="translate(29.69 48.9)"></text></svg>