<svg id="Layer_1" data-name="Layer 1" xmlns="http://www.w3.org/2000/svg" viewBox="0 0 100 100"><defs><style>.cls-1{font-size:10px;font-family:Inter-Light, Inter;}.cls-1,.cls-2{font-weight:300;}.cls-2{font-size:40.61px;font-family:FontAwesome5Pro-Light, "Font Awesome 5 Pro";}.cls-3{fill:#f20505;}</style></defs><text class="cls-1" transform="translate(10.22 78.84)">Operations CTRL</text><text class="cls-2" transform="translate(24.62 54.97)"></text><path d="M43.54,28.46a.81.81,0,0,1,.11,1.2l-4.38,5.25a.77.77,0,0,1-.66.33.66.66,0,0,1-.54-.22l-2.63-2.18a.82.82,0,0,1-.11-1.21.81.81,0,0,1,1.2-.11l2,1.59,3.83-4.54A.82.82,0,0,1,43.54,28.46Zm0,8.75a.82.82,0,0,1,.11,1.21l-4.38,5.25a.77.77,0,0,1-.66.33.7.7,0,0,1-.54-.22l-2.63-2.19a.85.85,0,1,1,1.09-1.31l2,1.58,3.83-4.54A.82.82,0,0,1,43.54,37.21Zm2.08-5.47a.86.86,0,0,1,.87-.87H62.25a.88.88,0,1,1,0,1.75H46.49A.87.87,0,0,1,45.62,31.74ZM63.13,40.5a.87.87,0,0,1-.88.87H46.49a.88.88,0,0,1,0-1.75H62.25A.87.87,0,0,1,63.13,40.5Z"/><path class="cls-3" d="M43.54,37.21a.82.82,0,0,1,.11,1.21l-4.38,5.25a.77.77,0,0,1-.66.33.7.7,0,0,1-.54-.22l-2.63-2.19a.85.85,0,1,1,1.09-1.31l2,1.58,3.83-4.54A.82.82,0,0,1,43.54,37.21Z"/></svg>