<svg id="Layer_1" data-name="Layer 1" xmlns="http://www.w3.org/2000/svg" viewBox="0 0 100 100"><defs><style>.cls-1{font-size:10px;font-family:Inter-Light, Inter;}.cls-1,.cls-2{font-weight:300;}.cls-2{font-size:47.59px;font-family:FontAwesome6Pro-Light, "Font Awesome 6 Pro";}.cls-3{fill:#f20505;}</style></defs><text class="cls-1" transform="translate(32.37 76.37)">Identity<tspan x="-13.02" y="12">Management</tspan></text><text class="cls-2" transform="translate(27.33 51.8)"></text><path class="cls-3" d="M39.88,23.91A1.38,1.38,0,0,1,40.06,26a13,13,0,0,0-2.79,8.36,59.16,59.16,0,0,1-1,11.44A1.39,1.39,0,0,1,34.86,47h-.28a1.39,1.39,0,0,1-1.21-1.67,61.7,61.7,0,0,0,.93-11A15.77,15.77,0,0,1,37.83,24.1,1.39,1.39,0,0,1,39.88,23.91ZM60.32,35a75,75,0,0,1-1.11,14.5,1.49,1.49,0,0,1-1.4,1.3.36.36,0,0,1-.28-.09A1.35,1.35,0,0,1,56.33,49a78.27,78.27,0,0,0,1-13.94A6.37,6.37,0,0,0,46.57,30.7a5.59,5.59,0,0,0-1.68,4.09,68,68,0,0,1-1.3,14.5,1.54,1.54,0,0,1-1.76,1.21,1.56,1.56,0,0,1-1.21-1.77,58.09,58.09,0,0,0,1.3-13.85,8.85,8.85,0,0,1,2.6-6.32,9.22,9.22,0,0,1,6.6-2.6A9.37,9.37,0,0,1,60.32,35ZM68,34.7c0,3.81-.19,7.71-.56,11.43A1.5,1.5,0,0,1,66,47.43h-.18a1.44,1.44,0,0,1-1.3-1.58,109.36,109.36,0,0,0,.55-11.06C65,27.35,58.56,21.13,50.84,21a14.45,14.45,0,0,0-3.44.38,1.48,1.48,0,0,1-.65-2.89,15.71,15.71,0,0,1,4.19-.46A17.34,17.34,0,0,1,68,34.7Z"/></svg>