<svg id="Layer_1" data-name="Layer 1" xmlns="http://www.w3.org/2000/svg" viewBox="0 0 54 54"><defs><style>.cls-1{fill:#414042;}</style></defs><title>Expedient </title><path class="cls-1" d="M42.05,37l-3.22-3.25L45.46,27l-6.63-6.71L42.05,17l9.84,10ZM32,27a4.15,4.15,0,1,1,4.15,4.18A4.16,4.16,0,0,1,32,27m-5,4.18A4.18,4.18,0,1,1,31.15,27,4.17,4.17,0,0,1,27,31.18m-9.18,0A4.18,4.18,0,1,1,22,27a4.17,4.17,0,0,1-4.15,4.18M11.95,37,2.11,27l9.84-10,3.22,3.25L8.54,27l6.63,6.71ZM27,0A27,27,0,1,0,54,27,27,27,0,0,0,27,0"/></svg>
