<svg id="Layer_1" data-name="Layer 1" xmlns="http://www.w3.org/2000/svg" viewBox="0 0 54 54"><defs><style>.cls-1{fill:#414042;}</style></defs><title>Firewall</title><path class="cls-1" d="M27,0A27,27,0,1,0,54,27,27,27,0,0,0,27,0Zm1.34,15.83a.59.59,0,0,1,.59-.58l8.55.06a.59.59,0,0,1,.58.59l0,5.68a.59.59,0,0,1-.59.58l-8.55-.06a.59.59,0,0,1-.58-.59Zm5.94,7.65a.59.59,0,0,1,.58.59l0,5.68a.59.59,0,0,1-.59.58l-4.29,0a10.87,10.87,0,0,0-2.75-3,19.85,19.85,0,0,0-2.08-1.42V24a.59.59,0,0,1,.59-.58Zm-8.14-8.25a.59.59,0,0,1,.58.59l0,5.68a.59.59,0,0,1-.59.58H24.77a9.74,9.74,0,0,0-3.64-6.88Zm2.1,18.7a3.76,3.76,0,0,1-.24.69c-.81,1.77-3,3-4.66,3.67a2.59,2.59,0,0,0,.53-1.73,2.25,2.25,0,0,0-1-1.51,15.66,15.66,0,0,0-2.49-1.35h0a4,4,0,0,1-2.17-2.32,4.3,4.3,0,0,1-.19-.78c-.05-.34-.31-1.6.1-1.89-.19.14-7.39,5.31-3.06,10.11-11.79-6.49-.67-15.66-.67-15.66a10,10,0,0,1-1.09,4.21A7.75,7.75,0,0,0,15.23,23c5.49-2.52,4.13-6,4.16-6h0a8.6,8.6,0,0,1,1.1,1,7.05,7.05,0,0,1,1.78,4,8.33,8.33,0,0,1,0,1.34,13.92,13.92,0,0,1-1.9,6l-.16.27.16-.08a4.06,4.06,0,0,0,2-2.29s.42.2,1,.55a19.1,19.1,0,0,1,1.61,1,12.41,12.41,0,0,1,1.7,1.45A4,4,0,0,1,28.23,33.93Zm11.09,4.16a.59.59,0,0,1-.59.58l-8.55-.06a.59.59,0,0,1-.58-.59V36.77a6.41,6.41,0,0,0,1.05-2.28,5.3,5.3,0,0,0-.08-2.73l8.2.06a.59.59,0,0,1,.58.59Zm4.9,0a.59.59,0,0,1-.59.58l-2.1,0a.59.59,0,0,1-.58-.59l0-5.68a.58.58,0,0,1,.59-.58h2.1a.58.58,0,0,1,.58.59Zm.06-8.31a.59.59,0,0,1-.59.58l-6.66,0a.58.58,0,0,1-.58-.59l0-5.68a.58.58,0,0,1,.59-.58l6.66,0a.59.59,0,0,1,.58.59Zm.06-8.19a.59.59,0,0,1-.59.58l-3.51,0a.59.59,0,0,1-.58-.59l0-5.68a.59.59,0,0,1,.59-.58l3.51,0a.59.59,0,0,1,.58.59Z"/></svg>