<svg id="Layer_1" data-name="Layer 1" xmlns="http://www.w3.org/2000/svg" viewBox="0 0 54 54"><defs><style>.cls-1{fill:#414042;}</style></defs><title>Floorplan</title><path class="cls-1" d="M27.38,40.22H17.89V37.51h9.49ZM38.22,11.07H28.73V28H27.38V20.56H24.67V19.2h0a2.06,2.06,0,0,0-2-1.6v-.74a2.24,2.24,0,0,1,.34,0,2.37,2.37,0,0,1,2.37,2.37h2V11.07H15.86V19.2H21v1.36H15.86V33.44h6a2,2,0,0,0-2-1.59V31.1a2.24,2.24,0,0,1,.34,0,2.37,2.37,0,0,1,2.37,2.37v1.36H15.86v8.13H31.45V34.79H26.7V33.44a2.37,2.37,0,0,1,2.37-2.37,2.24,2.24,0,0,1,.34,0v.75a2,2,0,0,0-2,1.59H45V28H38.22Z"/><path class="cls-1" d="M33.48,35.47V45H13.82V9H40.26V26H47v9.49ZM27,0A27,27,0,1,0,54,27,27,27,0,0,0,27,0"/></svg>