<svg id="Layer_1" data-name="Layer 1" xmlns="http://www.w3.org/2000/svg" viewBox="0 0 54 54"><defs><style>.cls-1{fill:#414042;}</style></defs><title>Geo Diversity</title><path class="cls-1" d="M40.51,15.91a17.55,17.55,0,0,0-9.66-6A22.3,22.3,0,0,1,36,17.28a36.36,36.36,0,0,0,4.54-1.37"/><path class="cls-1" d="M20.41,17.53a36.55,36.55,0,0,0,5.36.67V10.71a19.44,19.44,0,0,0-5.36,6.82"/><path class="cls-1" d="M25.77,43.48v-7.6a36.28,36.28,0,0,0-5.4.68,19.56,19.56,0,0,0,5.4,6.93"/><path class="cls-1" d="M19.45,34.27a39,39,0,0,1,6.32-.81V28.25H18.3a22.28,22.28,0,0,0,1.15,6"/><path class="cls-1" d="M13.78,38.55A17.53,17.53,0,0,0,22.7,44a22.32,22.32,0,0,1-4.78-6.9,35.84,35.84,0,0,0-4.13,1.42"/><path class="cls-1" d="M17.07,19.23a38.08,38.08,0,0,1-4.8-1.71,17.41,17.41,0,0,0-2.77,8.31h6.33a24.76,24.76,0,0,1,1.24-6.6"/><path class="cls-1" d="M22.82,10a17.53,17.53,0,0,0-9.05,5.52A36.75,36.75,0,0,0,18,17,22.11,22.11,0,0,1,22.82,10"/><path class="cls-1" d="M15.84,28.25H9.51a17.41,17.41,0,0,0,2.77,8.31A39,39,0,0,1,17,34.86a24.69,24.69,0,0,1-1.21-6.61"/><path class="cls-1" d="M18.3,25.83h7.47V20.62a39,39,0,0,1-6.29-.8,22.31,22.31,0,0,0-1.17,6"/><path class="cls-1" d="M31.16,44a17.55,17.55,0,0,0,9.35-5.87,36.71,36.71,0,0,0-4.45-1.35A22.23,22.23,0,0,1,31.16,44"/><path class="cls-1" d="M36.83,19.55A24.72,24.72,0,0,1,38,25.83h6.47a17.38,17.38,0,0,0-2.52-7.9,39.85,39.85,0,0,1-5.1,1.62"/><path class="cls-1" d="M36.91,34.52a37.16,37.16,0,0,1,5,1.62,17.38,17.38,0,0,0,2.51-7.89H38a24.86,24.86,0,0,1-1.08,6.27"/><path class="cls-1" d="M41.15,41.11A19.86,19.86,0,0,1,27,47h-.32a19.91,19.91,0,0,1-15.72-8,1.33,1.33,0,0,1-.26-.35h0a19.81,19.81,0,0,1,.13-23.26,1.19,1.19,0,0,1,.12-.16,19.88,19.88,0,0,1,32.26.38,1.17,1.17,0,0,1,.32.43.08.08,0,0,1,0,0,19.81,19.81,0,0,1,3.34,10.73A1.23,1.23,0,0,1,47,27a1.18,1.18,0,0,1-.06.29,19.68,19.68,0,0,1-5.77,13.78M27,0A27,27,0,1,0,54,27,27,27,0,0,0,27,0"/><path class="cls-1" d="M28.19,10.86v7.38a36.75,36.75,0,0,0,5.31-.46,19.61,19.61,0,0,0-5.31-6.91"/><path class="cls-1" d="M28.19,35.84v7.58a19.54,19.54,0,0,0,5.4-7.1,36.66,36.66,0,0,0-5.4-.48"/><path class="cls-1" d="M35.52,28.25H28.19v5.17a39.35,39.35,0,0,1,6.29.59,22.37,22.37,0,0,0,1-5.76"/><path class="cls-1" d="M34.4,20.06a38.7,38.7,0,0,1-6.22.6v5.17h7.32a22.27,22.27,0,0,0-1.11-5.77"/></svg>