<svg id="Layer_1" data-name="Layer 1" xmlns="http://www.w3.org/2000/svg" viewBox="0 0 54 54"><defs><style>.cls-1{fill:#414042;}</style></defs><title>Hosted Storage</title><circle class="cls-1" cx="14.35" cy="23.91" r="1.99"/><circle class="cls-1" cx="14.35" cy="33.32" r="1.99"/><path class="cls-1" d="M27,0A27,27,0,1,0,54,27,27,27,0,0,0,27,0ZM43.6,33.45A3.58,3.58,0,0,1,40,37H27.73V39.1h.86c.17,0,.32.4.41,1h7.42v2.15H29c-.08.59-.23,1-.41,1h-4c-.17,0-.32-.4-.41-1H17.59V40.09H24.2c.08-.59.23-1,.41-1h1V37H14a3.58,3.58,0,0,1-3.58-3.58V33.2A3.58,3.58,0,0,1,14,29.62H40A3.58,3.58,0,0,1,43.6,33.2Zm0-9.42A3.58,3.58,0,0,1,40,27.61H14A3.58,3.58,0,0,1,10.4,24v-.26A3.58,3.58,0,0,1,14,20.2H40a3.58,3.58,0,0,1,3.58,3.58Zm0-9.42A3.58,3.58,0,0,1,40,18.2H14a3.58,3.58,0,0,1-3.58-3.58v-.26A3.58,3.58,0,0,1,14,10.78H40a3.58,3.58,0,0,1,3.58,3.58Z"/><circle class="cls-1" cx="14.35" cy="14.49" r="1.99"/></svg>
