<?xml version="1.0" encoding="UTF-8" standalone="no"?>
<svg
   id="Layer_1"
   data-name="Layer 1"
   viewBox="0 0 100 100"
   version="1.1"
   sodipodi:docname="EXP___HostedVirtualInstances.svg"
   inkscape:version="1.1.1 (3bf5ae0d25, 2021-09-20)"
   xmlns:inkscape="http://www.inkscape.org/namespaces/inkscape"
   xmlns:sodipodi="http://sodipodi.sourceforge.net/DTD/sodipodi-0.dtd"
   xmlns="http://www.w3.org/2000/svg"
   xmlns:svg="http://www.w3.org/2000/svg">
  <sodipodi:namedview
     id="namedview961"
     pagecolor="#ffffff"
     bordercolor="#666666"
     borderopacity="1.0"
     inkscape:pageshadow="2"
     inkscape:pageopacity="0.0"
     inkscape:pagecheckerboard="0"
     showgrid="false"
     inkscape:zoom="8.73"
     inkscape:cx="50"
     inkscape:cy="50"
     inkscape:window-width="3840"
     inkscape:window-height="2089"
     inkscape:window-x="3432"
     inkscape:window-y="-8"
     inkscape:window-maximized="1"
     inkscape:current-layer="Layer_1" />
  <defs
     id="defs900">
    <style
       id="style898">.cls-1{font-size:40.61px;font-family:FontAwesome6Pro-Light, &quot;Font Awesome 6 Pro&quot;;font-weight:300;}.cls-2{fill:#f20505;}.cls-3{fill:none;}.cls-4{fill:#fff;}</style>
  </defs>
  <text
     class="cls-1"
     transform="translate(74.32 18.26) rotate(180)"
     id="text946"></text>
  <path
     class="cls-2"
     d="M68.2,50.45a9,9,0,1,1,9-9A9,9,0,0,1,68.2,50.45Z"
     id="path948" />
  <path
     d="M68.2,33.59a7.87,7.87,0,1,1-7.87,7.87,7.87,7.87,0,0,1,7.87-7.87m0-2.25A10.12,10.12,0,1,0,78.31,41.46,10.13,10.13,0,0,0,68.2,31.34Z"
     id="path950" />
  <path
     class="cls-3"
     d="M62,40.57a1.17,1.17,0,0,1,.75-1.08l4.87-1.84a1.27,1.27,0,0,1,.52-.1,1.32,1.32,0,0,1,.53.1l4.87,1.84a1.16,1.16,0,0,1,.74,1.08v5.88a7.79,7.79,0,0,0,1.79-5A7.87,7.87,0,1,0,62,46.28Z"
     id="path952" />
  <polygon
     class="cls-3"
     points="68.13 39.09 64.15 40.6 68.13 42.11 72.12 40.6 68.13 39.09"
     id="polygon954" />
  <polygon
     class="cls-3"
     points="68.9 48.01 72.74 46.55 72.74 42.01 68.9 43.45 68.9 48.01"
     id="polygon956" />
  <path
     class="cls-4"
     d="M73.53,39.49l-4.87-1.84a1.32,1.32,0,0,0-.53-.1,1.27,1.27,0,0,0-.52.1l-4.87,1.84A1.17,1.17,0,0,0,62,40.57v5.71a7.84,7.84,0,0,0,12.28.17V40.57A1.16,1.16,0,0,0,73.53,39.49Zm-5.4,2.62-4-1.51,4-1.51,4,1.51Zm4.61,4.44L68.9,48V43.45L72.74,42Z"
     id="path958" />
</svg>
