<svg id="Layer_1" data-name="Layer 1" xmlns="http://www.w3.org/2000/svg" viewBox="0 0 54 54"><defs><style>.cls-1{fill:#414042;}</style></defs><title>Hosted SAN</title><path class="cls-1" d="M36.63,12.29A27.47,27.47,0,0,0,27,10.73a27.48,27.48,0,0,0-9.63,1.56c-2.38.95-2.89,1.86-2.89,2s.5,1.06,2.89,2A27.48,27.48,0,0,0,27,17.86a27.48,27.48,0,0,0,9.63-1.56c2.38-.95,2.89-1.86,2.89-2S39,13.24,36.63,12.29Z"/><path class="cls-1" d="M27,0A27,27,0,1,0,54,27,27,27,0,0,0,27,0ZM42.05,39.81c0,3.31-6.74,6-15.05,6s-15.05-2.68-15.05-6V32.49c0,3.31,6.74,6,15.05,6s15.05-2.68,15.05-6Zm0-9.2c0,3.31-6.74,6-15.05,6s-15.05-2.68-15.05-6V23.28c0,3.31,6.74,6,15.05,6s15.05-2.68,15.05-6Zm0-9c0,3.31-6.74,6-15.05,6s-15.05-2.68-15.05-6V14.29h0c0-3.36,6.75-6.1,15.05-6.1s15.05,2.74,15.05,6.1Z"/></svg>
