<svg id="Layer_1" data-name="Layer 1" xmlns="http://www.w3.org/2000/svg" viewBox="0 0 54 54"><defs><style>.cls-1{fill:#414042;}</style></defs><title>Host to Host Replication</title><path class="cls-1" d="M27,0A27,27,0,1,0,54,27,27,27,0,0,0,27,0ZM24.3,34.71c0,2-4.09,3.63-9.13,3.63S6,36.72,6,34.71V30.27c0,2,4.09,3.63,9.13,3.63s9.13-1.63,9.13-3.63Zm0-5.58c0,2-4.09,3.63-9.13,3.63S6,31.14,6,29.13V24.69c0,2,4.09,3.63,9.13,3.63s9.13-1.63,9.13-3.63Zm0-5.45c0,2-4.09,3.63-9.13,3.63S6,25.69,6,23.68V19.24H6c0-2,4.09-3.7,9.13-3.7s9.13,1.66,9.13,3.7Zm-2.54-8.34V13.73h0c0-2,4.09-3.7,9.13-3.7S40,11.69,40,13.73v4.44c0,2-4.09,3.63-9.13,3.63a19.64,19.64,0,0,1-5.33-.69V19.24C25.55,17.47,24,16.17,21.76,15.34Zm9.13,11.91a19.64,19.64,0,0,1-5.33-.69V22.12a19.64,19.64,0,0,0,5.33.69c5,0,9.13-1.63,9.13-3.63v4.44C40,25.62,35.92,27.25,30.88,27.25ZM40,24.75v2a8.67,8.67,0,0,0-1.18-.22A2.32,2.32,0,0,0,40,24.75ZM25.55,32.14V27.7a19.64,19.64,0,0,0,5.33.69c.43,0,.86,0,1.28,0a8.87,8.87,0,0,0-3.24,4.39A18.16,18.16,0,0,1,25.55,32.14Zm2,3.33h2c.43-3.7,2.31-6.27,5.88-7.38a7.85,7.85,0,0,1,7.28,1.37l-1.81,2.26a5.18,5.18,0,0,0-5.83-.35,5.08,5.08,0,0,0-2.55,4.08H34.7L31.1,40Zm19.66.79H46c-.15,0-.21,0-.22.19A8.1,8.1,0,0,1,39,43.87a8,8,0,0,1-6-1.47l-.14-.11,0-.06L34.51,40a5.16,5.16,0,0,0,6.18.14,5,5,0,0,0,2.24-3.87h-2.2l3.64-4.54L48,36.26Z"/><path class="cls-1" d="M36.72,14.94c1.45-.57,1.75-1.13,1.75-1.21s-.3-.64-1.75-1.21a16.66,16.66,0,0,0-5.84-.95,16.66,16.66,0,0,0-5.84.95c-1.45.57-1.75,1.13-1.75,1.21s.3.64,1.75,1.21a16.66,16.66,0,0,0,5.84.95A16.66,16.66,0,0,0,36.72,14.94Z"/><path class="cls-1" d="M21,18a16.66,16.66,0,0,0-5.84-.95A16.66,16.66,0,0,0,9.33,18c-1.45.57-1.75,1.13-1.75,1.21s.3.64,1.75,1.21a16.66,16.66,0,0,0,5.84.95A16.66,16.66,0,0,0,21,20.45c1.45-.57,1.75-1.13,1.75-1.21S22.46,18.6,21,18Z"/></svg>