<?xml version="1.0" encoding="UTF-8" standalone="no"?>
<svg
   id="Layer_1"
   data-name="Layer 1"
   viewBox="0 0 100 100"
   version="1.1"
   sodipodi:docname="EXP___IdentityManagement.svg"
   inkscape:version="1.1.1 (3bf5ae0d25, 2021-09-20)"
   xmlns:inkscape="http://www.inkscape.org/namespaces/inkscape"
   xmlns:sodipodi="http://sodipodi.sourceforge.net/DTD/sodipodi-0.dtd"
   xmlns="http://www.w3.org/2000/svg"
   xmlns:svg="http://www.w3.org/2000/svg">
  <sodipodi:namedview
     id="namedview1341"
     pagecolor="#ffffff"
     bordercolor="#666666"
     borderopacity="1.0"
     inkscape:pageshadow="2"
     inkscape:pageopacity="0.0"
     inkscape:pagecheckerboard="0"
     showgrid="false"
     inkscape:zoom="8.73"
     inkscape:cx="50"
     inkscape:cy="50"
     inkscape:window-width="3840"
     inkscape:window-height="2089"
     inkscape:window-x="3432"
     inkscape:window-y="-8"
     inkscape:window-maximized="1"
     inkscape:current-layer="Layer_1" />
  <defs
     id="defs1330">
    <style
       id="style1328">.cls-1{font-size:10px;font-family:Inter-Light, Inter;}.cls-1,.cls-2{font-weight:300;}.cls-2{font-size:47.59px;font-family:FontAwesome6Pro-Light, &quot;Font Awesome 6 Pro&quot;;}.cls-3{fill:#f20505;}</style>
  </defs>
  <text
     class="cls-2"
     transform="translate(27.33 51.8)"
     id="text1336"></text>
  <path
     class="cls-3"
     d="M39.88,23.91A1.38,1.38,0,0,1,40.06,26a13,13,0,0,0-2.79,8.36,59.16,59.16,0,0,1-1,11.44A1.39,1.39,0,0,1,34.86,47h-.28a1.39,1.39,0,0,1-1.21-1.67,61.7,61.7,0,0,0,.93-11A15.77,15.77,0,0,1,37.83,24.1,1.39,1.39,0,0,1,39.88,23.91ZM60.32,35a75,75,0,0,1-1.11,14.5,1.49,1.49,0,0,1-1.4,1.3.36.36,0,0,1-.28-.09A1.35,1.35,0,0,1,56.33,49a78.27,78.27,0,0,0,1-13.94A6.37,6.37,0,0,0,46.57,30.7a5.59,5.59,0,0,0-1.68,4.09,68,68,0,0,1-1.3,14.5,1.54,1.54,0,0,1-1.76,1.21,1.56,1.56,0,0,1-1.21-1.77,58.09,58.09,0,0,0,1.3-13.85,8.85,8.85,0,0,1,2.6-6.32,9.22,9.22,0,0,1,6.6-2.6A9.37,9.37,0,0,1,60.32,35ZM68,34.7c0,3.81-.19,7.71-.56,11.43A1.5,1.5,0,0,1,66,47.43h-.18a1.44,1.44,0,0,1-1.3-1.58,109.36,109.36,0,0,0,.55-11.06C65,27.35,58.56,21.13,50.84,21a14.45,14.45,0,0,0-3.44.38,1.48,1.48,0,0,1-.65-2.89,15.71,15.71,0,0,1,4.19-.46A17.34,17.34,0,0,1,68,34.7Z"
     id="path1338" />
</svg>
