<?xml version="1.0" encoding="UTF-8" standalone="no"?>
<svg
   id="Layer_1"
   data-name="Layer 1"
   viewBox="0 0 100 100"
   version="1.1"
   sodipodi:docname="EXP___KubernetesManagement.svg"
   inkscape:version="1.1.1 (3bf5ae0d25, 2021-09-20)"
   xmlns:inkscape="http://www.inkscape.org/namespaces/inkscape"
   xmlns:sodipodi="http://sodipodi.sourceforge.net/DTD/sodipodi-0.dtd"
   xmlns="http://www.w3.org/2000/svg"
   xmlns:svg="http://www.w3.org/2000/svg">
  <sodipodi:namedview
     id="namedview1105"
     pagecolor="#ffffff"
     bordercolor="#666666"
     borderopacity="1.0"
     inkscape:pageshadow="2"
     inkscape:pageopacity="0.0"
     inkscape:pagecheckerboard="0"
     showgrid="false"
     inkscape:zoom="8.73"
     inkscape:cx="50"
     inkscape:cy="50"
     inkscape:window-width="3840"
     inkscape:window-height="2089"
     inkscape:window-x="3432"
     inkscape:window-y="-8"
     inkscape:window-maximized="1"
     inkscape:current-layer="Layer_1" />
  <defs
     id="defs1056">
    <style
       id="style1054">.cls-1{fill:#f20505;}</style>
  </defs>
  <path
     d="M72.49,36.75a1,1,0,0,1-.68,1.62H67.68C66.25,45.65,58.8,51.06,50,51.06c-8.34,0-16.18-5-17.68-12.69H28.19a1,1,0,0,1-.68-1.62l5.32-5.32a1,1,0,0,1,1.35,0l5.31,5.32a1,1,0,0,1-.67,1.62h-3.9c1.35,5.46,6.95,9.65,13.81,10.11V28.68H44.61a1,1,0,0,1-1-.95V27.1a1,1,0,0,1,1-1h4.12V23.45a5.08,5.08,0,1,1,2.54,0v2.69h4.12a1,1,0,0,1,1,1v.63a.94.94,0,0,1-1,.95H51.27v19.8c6.86-.46,12.46-4.65,13.81-10.11h-3.9a1,1,0,0,1-.67-1.62l5.31-5.32a1,1,0,0,1,1.35,0ZM35,35.84,33.5,34.35,32,35.84ZM50,21.07a2.54,2.54,0,1,0-2.54-2.54A2.54,2.54,0,0,0,50,21.07ZM68,35.84,66.5,34.35,65,35.84Z"
     id="path1098" />
  <path
     class="cls-1"
     d="M50.14,23.82a5.29,5.29,0,1,1,3.73-1.55A5.26,5.26,0,0,1,50.14,23.82Z"
     id="path1100" />
  <path
     d="M50.14,14.38A4.16,4.16,0,1,1,47.2,15.6a4.12,4.12,0,0,1,2.94-1.22m0-2.25A6.33,6.33,0,0,0,45.61,14a6.41,6.41,0,1,0,4.53-1.88Z"
     id="path1102" />
</svg>
