<svg id="Layer_1" data-name="Layer 1" xmlns="http://www.w3.org/2000/svg" viewBox="0 0 54 54"><defs><style>.cls-1{fill:#414042;}</style></defs><title>Load Balancing</title><circle class="cls-1" cx="26.3" cy="17.2" r="0.09"/><circle class="cls-1" cx="26.3" cy="16.88" r="0.09"/><circle class="cls-1" cx="26.3" cy="16.55" r="0.09"/><circle class="cls-1" cx="26.61" cy="16.55" r="0.09"/><rect class="cls-1" x="26.48" y="16.8" width="0.27" height="0.16"/><rect class="cls-1" x="26.48" y="17.11" width="0.27" height="0.16"/><rect class="cls-1" x="24.36" y="16.44" width="0.18" height="0.84"/><rect class="cls-1" x="24.02" y="16.44" width="0.18" height="0.84"/><rect class="cls-1" x="24.7" y="16.44" width="0.18" height="0.84"/><rect class="cls-1" x="25.04" y="16.44" width="0.18" height="0.84"/><rect class="cls-1" x="25.38" y="16.44" width="0.18" height="0.84"/><rect class="cls-1" x="25.73" y="16.44" width="0.18" height="0.84"/><path class="cls-1" d="M4.55,27.51l2.6-.15v-.7l-2.6.19Zm.08-.59,2.43-.17v.54l-2.43.14Z"/><polygon class="cls-1" points="6.94 27.23 7 27.23 7 26.82 6.94 26.82 6.94 27.23"/><path class="cls-1" d="M4.55,26.58l2.6-.21v-.7l-2.6.25ZM4.62,26l2.43-.23v.54l-2.43.2Z"/><polygon class="cls-1" points="6.71 27.24 6.78 27.24 6.78 26.84 6.71 26.84 6.71 27.24"/><path class="cls-1" d="M4.55,25.66l2.6-.27v-.7L4.55,25Zm.08-.59,2.43-.29v.54l-2.43.26Z"/><polygon class="cls-1" points="6.83 27.24 6.89 27.23 6.89 26.83 6.83 26.83 6.83 27.24"/><path class="cls-1" d="M13.4,28.75a3.54,3.54,0,0,0-1.24-.2,3.54,3.54,0,0,0-1.24.2c-.31.12-.37.24-.37.26s.06.14.37.26a3.54,3.54,0,0,0,1.24.2,3.54,3.54,0,0,0,1.24-.2c.31-.12.37-.24.37-.26S13.7,28.87,13.4,28.75Z"/><path class="cls-1" d="M4.55,24.73l2.6-.33v-.7l-2.6.38Zm.08-.59,2.43-.35v.54l-2.43.32Z"/><rect class="cls-1" x="27.02" y="16.44" width="3.66" height="0.36"/><rect class="cls-1" x="27.02" y="16.93" width="3.66" height="0.36"/><path class="cls-1" d="M4.55,23.8l2.6-.39v-.7l-2.6.44Zm.08-.59,2.43-.41v.54l-2.43.37Z"/><path class="cls-1" d="M4.3,32.51l3.13.23V21.25l-3.13.63ZM4.43,22l2.85-.56V32.54l-2.85-.19Z"/><rect class="cls-1" x="26.47" y="26.96" width="0.27" height="0.16"/><rect class="cls-1" x="24.35" y="26.6" width="0.18" height="0.84"/><rect class="cls-1" x="25.37" y="26.6" width="0.18" height="0.84"/><rect class="cls-1" x="24.69" y="26.6" width="0.18" height="0.84"/><rect class="cls-1" x="25.03" y="26.6" width="0.18" height="0.84"/><rect class="cls-1" x="25.71" y="26.6" width="0.18" height="0.84"/><circle class="cls-1" cx="26.29" cy="27.36" r="0.09"/><rect class="cls-1" x="24.01" y="26.6" width="0.18" height="0.84"/><path class="cls-1" d="M31.09,26.31H22.91v1.43h8.18Zm-.27,1.27H23.18V26.47h7.65Z"/><circle class="cls-1" cx="26.29" cy="27.04" r="0.09"/><path class="cls-1" d="M31.09,28.34H22.91v1.43h8.18Zm-.27,1.27H23.18V28.5h7.65Z"/><rect class="cls-1" x="23.33" y="26.6" width="0.18" height="0.84"/><rect class="cls-1" x="23.67" y="26.6" width="0.18" height="0.84"/><rect class="cls-1" x="23.68" y="16.44" width="0.18" height="0.84"/><path class="cls-1" d="M31.09,18.18H22.91v1.43h8.18Zm-.27,1.27H23.18V18.34h7.65Z"/><path class="cls-1" d="M31.09,30.37H22.91v1.43h8.18Zm-.27,1.27H23.18V30.53h7.65Z"/><path class="cls-1" d="M31.09,24.28H22.91v1.43h8.18Zm-.27,1.27H23.18V24.43h7.65Z"/><path class="cls-1" d="M31.09,22.25H22.91v1.43h8.18Zm-.27,1.27H23.18V22.4h7.65Z"/><circle class="cls-1" cx="26.29" cy="26.71" r="0.09"/><rect class="cls-1" x="23.34" y="16.44" width="0.18" height="0.84"/><path class="cls-1" d="M31.09,16.15H22.91v1.43h8.18Zm-.27,1.27H23.18V16.31h7.65Z"/><rect class="cls-1" x="27.01" y="26.6" width="3.66" height="0.36"/><polygon class="cls-1" points="6.6 27.25 6.66 27.25 6.66 26.84 6.6 26.85 6.6 27.25"/><rect class="cls-1" x="26.47" y="27.27" width="0.27" height="0.16"/><circle class="cls-1" cx="26.6" cy="26.71" r="0.09"/><rect class="cls-1" x="27.01" y="27.09" width="3.66" height="0.36"/><path class="cls-1" d="M31.09,20.21H22.91v1.43h8.18Zm-.27,1.27H23.18V20.37h7.65Z"/><polygon class="cls-1" points="5.76 22.11 4.63 22.32 4.63 22.48 5.76 22.28 5.76 22.11"/><polygon class="cls-1" points="5.76 22.34 4.63 22.55 4.63 22.71 5.76 22.51 5.76 22.34"/><path class="cls-1" d="M7.11,21.71l-2.6.5v.65l2.6-.46ZM7,22.35l-2.43.43v-.51L7,21.8Z"/><polygon class="cls-1" points="5.93 22.25 5.85 22.26 5.85 22.34 5.93 22.32 5.93 22.25"/><ellipse class="cls-1" cx="6.03" cy="31.91" rx="0.04" ry="0.03" transform="translate(-26.16 36.23) rotate(-86.94)"/><polygon class="cls-1" points="5.93 22.39 5.85 22.41 5.85 22.48 5.93 22.47 5.93 22.39"/><polygon class="cls-1" points="5.89 32.08 5.97 32.09 5.97 32.01 5.89 32.01 5.89 32.08"/><ellipse class="cls-1" cx="6.03" cy="32.06" rx="0.04" ry="0.03" transform="translate(-26.32 36.23) rotate(-86.7)"/><polygon class="cls-1" points="5.89 31.94 5.97 31.94 5.97 31.87 5.89 31.86 5.89 31.94"/><polygon class="cls-1" points="4.67 31.8 5.8 31.86 5.8 31.69 4.67 31.63 4.67 31.8"/><path class="cls-1" d="M5.92,22.13s0,0,0,0a0,0,0,0,0,0,0s0,0,0,0A0,0,0,0,0,5.92,22.13Z"/><polygon class="cls-1" points="4.67 32.02 5.8 32.09 5.8 31.92 4.67 31.86 4.67 32.02"/><ellipse class="cls-1" cx="5.93" cy="31.75" rx="0.04" ry="0.03" transform="translate(-26.08 36.07) rotate(-87.11)"/><polygon class="cls-1" points="6.74 21.92 6.68 21.93 6.68 22.34 6.74 22.33 6.74 21.92"/><polygon class="cls-1" points="6.85 21.9 6.79 21.91 6.79 22.32 6.85 22.31 6.85 21.9"/><polygon class="cls-1" points="6.62 21.95 6.56 21.96 6.56 22.36 6.62 22.35 6.62 21.95"/><polygon class="cls-1" points="6.51 21.97 6.45 21.98 6.45 22.38 6.51 22.37 6.51 21.97"/><polygon class="cls-1" points="6.96 21.88 6.9 21.89 6.9 22.3 6.96 22.29 6.96 21.88"/><path class="cls-1" d="M40.6,29.26a3.93,3.93,0,0,0,2.48,0c.31-.12.37-.24.37-.26s-.06-.14-.37-.26a3.93,3.93,0,0,0-2.48,0c-.31.12-.37.24-.37.26S40.3,29.14,40.6,29.26Z"/><polygon class="cls-1" points="6.29 22.01 6.23 22.02 6.23 22.42 6.29 22.41 6.29 22.01"/><path class="cls-1" d="M6,22.27s0,0,0,0a0,0,0,0,0,0,0s0,0,0,0A0,0,0,0,0,6,22.27Z"/><path class="cls-1" d="M6,22.11s0,0,0,0a0,0,0,0,0,0,0s0,0,0,0A0,0,0,0,0,6,22.11Z"/><polygon class="cls-1" points="6.18 22.03 6.12 22.04 6.12 22.44 6.18 22.43 6.18 22.03"/><polygon class="cls-1" points="6.4 21.99 6.34 22 6.34 22.4 6.4 22.39 6.4 21.99"/><path class="cls-1" d="M6,22.42s0,0,0,0a0,0,0,0,0,0,0s0,0,0,0A0,0,0,0,0,6,22.42Z"/><ellipse class="cls-1" cx="6.03" cy="26.94" rx="0.03" ry="0.04" transform="matrix(1, -0.07, 0.07, 1, -1.85, 0.48)"/><path class="cls-1" d="M4.55,28.44l2.6-.09v-.7l-2.6.13Zm.08-.59,2.43-.12v.54l-2.43.08Z"/><polygon class="cls-1" points="6.16 32.11 6.21 32.11 6.21 31.71 6.16 31.71 6.16 32.11"/><ellipse class="cls-1" cx="6.03" cy="27.25" rx="0.03" ry="0.04" transform="translate(-1.65 0.42) rotate(-3.48)"/><polygon class="cls-1" points="4.67 27.15 5.8 27.07 5.8 26.9 4.67 26.98 4.67 27.15"/><ellipse class="cls-1" cx="5.93" cy="26.95" rx="0.03" ry="0.04" transform="matrix(1, -0.07, 0.07, 1, -1.83, 0.47)"/><polygon class="cls-1" points="4.67 27.37 5.8 27.3 5.8 27.13 4.67 27.21 4.67 27.37"/><polygon class="cls-1" points="5.89 27.29 5.97 27.28 5.97 27.21 5.89 27.21 5.89 27.29"/><polygon class="cls-1" points="6.27 27.27 6.33 27.27 6.33 26.87 6.27 26.87 6.27 27.27"/><ellipse class="cls-1" cx="6.03" cy="27.1" rx="0.03" ry="0.04" transform="translate(-1.72 0.44) rotate(-3.67)"/><polygon class="cls-1" points="6.38 27.27 6.44 27.26 6.44 26.86 6.38 26.86 6.38 27.27"/><polygon class="cls-1" points="6.49 27.26 6.55 27.25 6.55 26.85 6.49 26.86 6.49 27.26"/><polygon class="cls-1" points="6.16 27.28 6.21 27.27 6.21 26.87 6.16 26.88 6.16 27.28"/><polygon class="cls-1" points="5.89 27.14 5.97 27.14 5.97 27.06 5.89 27.07 5.89 27.14"/><polygon class="cls-1" points="6.71 32.14 6.78 32.14 6.78 31.74 6.71 31.73 6.71 32.14"/><polygon class="cls-1" points="6.49 32.13 6.55 32.13 6.55 31.73 6.49 31.72 6.49 32.13"/><path class="cls-1" d="M4.55,29.37l2.6,0v-.7l-2.6.07Zm.08-.58,2.43-.06v.54l-2.43,0Z"/><polygon class="cls-1" points="6.27 32.11 6.33 32.12 6.33 31.71 6.27 31.71 6.27 32.11"/><polygon class="cls-1" points="6.38 32.12 6.44 32.12 6.44 31.72 6.38 31.72 6.38 32.12"/><polygon class="cls-1" points="6.6 32.13 6.66 32.14 6.66 31.73 6.6 31.73 6.6 32.13"/><path class="cls-1" d="M4.55,30.29l2.6,0v-.7H4.55Zm.08-.58H7.05v.54l-2.43,0Z"/><path class="cls-1" d="M4.55,31.22l2.6.1v-.7l-2.6-.06Zm.08-.58,2.43.06v.54l-2.43-.09Z"/><polygon class="cls-1" points="6.94 32.15 7 32.16 7 31.75 6.94 31.75 6.94 32.15"/><path class="cls-1" d="M4.55,32.15l2.6.16v-.7l-2.6-.12Zm.08-.58,2.43.12v.54l-2.43-.15Z"/><polygon class="cls-1" points="6.83 32.15 6.89 32.15 6.89 31.74 6.83 31.74 6.83 32.15"/><ellipse class="cls-1" cx="6.03" cy="31.75" rx="0.04" ry="0.03" transform="translate(-25.98 36.18) rotate(-87.13)"/><polygon class="cls-1" points="47.45 27.25 47.51 27.26 47.51 26.86 47.45 26.85 47.45 27.25"/><polygon class="cls-1" points="47.11 27.23 47.17 27.24 47.17 26.83 47.11 26.83 47.11 27.23"/><polygon class="cls-1" points="47.23 27.24 47.28 27.24 47.28 26.84 47.23 26.84 47.23 27.24"/><polygon class="cls-1" points="47.34 27.25 47.4 27.25 47.4 26.85 47.34 26.84 47.34 27.25"/><polygon class="cls-1" points="47.67 27.27 47.73 27.27 47.73 26.87 47.67 26.87 47.67 27.27"/><polygon class="cls-1" points="47.56 27.26 47.62 27.27 47.62 26.86 47.56 26.86 47.56 27.26"/><polygon class="cls-1" points="48.03 27.28 48.11 27.29 48.11 27.21 48.03 27.21 48.03 27.28"/><ellipse class="cls-1" cx="47.97" cy="26.94" rx="0.04" ry="0.03" transform="matrix(0.07, -1, 1, 0.07, 17.76, 72.92)"/><polygon class="cls-1" points="47.78 27.27 47.84 27.28 47.84 26.88 47.78 26.87 47.78 27.27"/><ellipse class="cls-1" cx="47.97" cy="27.25" rx="0.04" ry="0.03" transform="translate(17.85 73.47) rotate(-86.5)"/><polygon class="cls-1" points="48.03 27.14 48.11 27.14 48.11 27.07 48.03 27.06 48.03 27.14"/><ellipse class="cls-1" cx="47.97" cy="27.1" rx="0.04" ry="0.03" transform="translate(17.85 73.23) rotate(-86.32)"/><path class="cls-1" d="M46.89,22.41l2.6.46v-.65l-2.6-.5Zm.09-.6,2.43.46v.51L47,22.35Z"/><path class="cls-1" d="M46.86,32.31l2.6-.16v-.65l-2.6.12Zm.09-.62,2.43-.12v.51l-2.43.15Z"/><polygon class="cls-1" points="48.2 31.86 49.33 31.8 49.33 31.63 48.2 31.69 48.2 31.86"/><polygon class="cls-1" points="48.03 31.94 48.11 31.94 48.11 31.86 48.03 31.87 48.03 31.94"/><polygon class="cls-1" points="48.2 32.09 49.33 32.02 49.33 31.86 48.2 31.92 48.2 32.09"/><path class="cls-1" d="M46.86,29.34l2.6,0v-.65l-2.6-.07Zm.09-.62,2.43.06v.51l-2.43,0Z"/><path class="cls-1" d="M46.86,31.32l2.6-.1v-.65l-2.6.06Zm.09-.62,2.43-.06v.51l-2.43.09Z"/><ellipse class="cls-1" cx="48.07" cy="26.95" rx="0.04" ry="0.03" transform="translate(17.88 73.05) rotate(-86.05)"/><path class="cls-1" d="M46.86,28.35l2.6.09v-.65l-2.6-.13Zm.09-.62,2.43.12v.51l-2.43-.08Z"/><polygon class="cls-1" points="47 27.23 47.06 27.23 47.06 26.82 47 26.82 47 27.23"/><polygon class="cls-1" points="48.03 32.09 48.11 32.08 48.11 32.01 48.03 32.01 48.03 32.09"/><path class="cls-1" d="M46.86,30.33l2.6,0v-.65h-2.6Zm.09-.62h2.43v.51l-2.43,0Z"/><polygon class="cls-1" points="47.82 22.43 47.88 22.44 47.88 22.04 47.82 22.03 47.82 22.43"/><polygon class="cls-1" points="47.71 22.41 47.77 22.42 47.77 22.02 47.71 22.01 47.71 22.41"/><polygon class="cls-1" points="47.26 22.33 47.32 22.34 47.32 21.93 47.26 21.92 47.26 22.33"/><polygon class="cls-1" points="47.49 22.37 47.55 22.38 47.55 21.98 47.49 21.97 47.49 22.37"/><polygon class="cls-1" points="47.38 22.35 47.44 22.36 47.44 21.96 47.38 21.95 47.38 22.35"/><polygon class="cls-1" points="47.6 22.39 47.66 22.4 47.66 22 47.6 21.99 47.6 22.39"/><polygon class="cls-1" points="48.07 22.32 48.15 22.34 48.15 22.26 48.07 22.25 48.07 22.32"/><path class="cls-1" d="M48,22.42s0,0,0,0,0,0,0,0a0,0,0,0,0,0,0S48,22.39,48,22.42Z"/><polygon class="cls-1" points="48.07 22.47 48.15 22.48 48.15 22.41 48.07 22.39 48.07 22.47"/><path class="cls-1" d="M48,22.11a0,0,0,0,0,0,0s0,0,0,0a0,0,0,0,0,0,0S48,22.09,48,22.11Z"/><path class="cls-1" d="M48,22.27a0,0,0,0,0,0,0s0,0,0,0a0,0,0,0,0,0,0S48,22.24,48,22.27Z"/><polygon class="cls-1" points="48.24 22.28 49.37 22.48 49.37 22.32 48.24 22.11 48.24 22.28"/><path class="cls-1" d="M46.86,27.36l2.6.15v-.65l-2.6-.19Zm.09-.61,2.43.17v.51l-2.43-.14Z"/><path class="cls-1" d="M46.86,25.39l2.6.27V25l-2.6-.31Zm.09-.61,2.43.29v.51l-2.43-.26Z"/><path class="cls-1" d="M46.86,26.38l2.6.21v-.65l-2.6-.25Zm.09-.61,2.43.23v.51l-2.43-.2Z"/><polygon class="cls-1" points="48.2 27.3 49.33 27.37 49.33 27.21 48.2 27.13 48.2 27.3"/><polygon class="cls-1" points="48.24 22.51 49.37 22.71 49.37 22.55 48.24 22.34 48.24 22.51"/><polygon class="cls-1" points="47.04 22.29 47.1 22.3 47.1 21.89 47.04 21.88 47.04 22.29"/><path class="cls-1" d="M48.14,22.14a0,0,0,0,0,0,0s0,0,0,0a0,0,0,0,0,0,0S48.14,22.16,48.14,22.14Z"/><polygon class="cls-1" points="47.15 22.31 47.21 22.32 47.21 21.91 47.15 21.9 47.15 22.31"/><path class="cls-1" d="M46.86,24.4l2.6.33v-.65l-2.6-.38Zm.09-.61,2.43.35v.51l-2.43-.32Z"/><path class="cls-1" d="M46.86,23.41l2.6.39v-.65l-2.6-.44Zm.09-.61,2.43.41v.51l-2.43-.37Z"/><polygon class="cls-1" points="48.2 27.07 49.33 27.15 49.33 26.98 48.2 26.9 48.2 27.07"/><rect class="cls-1" x="25.37" y="36.76" width="0.18" height="0.84"/><rect class="cls-1" x="24.01" y="36.76" width="0.18" height="0.84"/><rect class="cls-1" x="23.67" y="36.76" width="0.18" height="0.84"/><rect class="cls-1" x="25.03" y="36.76" width="0.18" height="0.84"/><rect class="cls-1" x="23.33" y="36.76" width="0.18" height="0.84"/><rect class="cls-1" x="24.69" y="36.76" width="0.18" height="0.84"/><rect class="cls-1" x="24.35" y="36.76" width="0.18" height="0.84"/><polygon class="cls-1" points="47 32.16 47.06 32.15 47.06 31.75 47 31.75 47 32.16"/><path class="cls-1" d="M46.57,32.74l3.13-.23V21.88l-3.13-.63Zm.15-11.27,2.85.56V32.35l-2.85.19Z"/><path class="cls-1" d="M31.92,15.29H22.08V38.74h9.84Zm-.43,23.07h-9V15.67h9Z"/><path class="cls-1" d="M31.09,36.47H22.91V37.9h8.18Zm-.27,1.27H23.18V36.63h7.65Z"/><path class="cls-1" d="M27,0A27,27,0,1,0,54,27,27,27,0,0,0,27,0ZM39.91,29c0-.43.87-.79,1.94-.79s1.94.35,1.94.79h0v.94c0,.43-.87.77-1.94.77s-1.94-.35-1.94-.77Zm0,1.16c0,.43.87.77,1.94.77s1.94-.35,1.94-.77v.94c0,.43-.87.77-1.94.77s-1.94-.35-1.94-.77ZM7.8,33.23,4,32.92V21.5l3.81-.81,4.37.93v6.27c-1.2,0-2.17.39-2.17.88v3.75c0,.18.14.35.39.49Zm6.3-.94c0,.43-.87.77-1.94.77s-1.94-.35-1.94-.77v-.94c0,.43.87.77,1.94.77s1.94-.35,1.94-.77Zm0-1.19c0,.43-.87.77-1.94.77s-1.94-.35-1.94-.77v-.94c0,.43.87.77,1.94.77s1.94-.35,1.94-.77Zm0-1.16c0,.43-.87.77-1.94.77s-1.94-.35-1.94-.77V29h0c0-.43.87-.79,1.94-.79s1.94.35,1.94.79Zm5.79-.56H15.22V29h4.67ZM33,39.69H21V14.31H33Zm5.79-10.3H34.11V29h4.67Zm1.12,2.9v-.94c0,.43.87.77,1.94.77s1.94-.35,1.94-.77v.94c0,.43-.87.77-1.94.77S39.91,32.72,39.91,32.29ZM50,32.75v.17l-3.81.32L43.62,33c.24-.14.39-.31.39-.49V28.77c0-.49-1-.88-2.17-.88V21.62l4.37-.93L50,21.5V32.75Z"/><rect class="cls-1" x="26.47" y="37.12" width="0.27" height="0.16"/><rect class="cls-1" x="27.01" y="36.76" width="3.66" height="0.36"/><rect class="cls-1" x="27.01" y="37.25" width="3.66" height="0.36"/><path class="cls-1" d="M31.09,32.41H22.91v1.43h8.18Zm-.27,1.27H23.18V32.56h7.65Z"/><circle class="cls-1" cx="26.6" cy="36.87" r="0.09"/><path class="cls-1" d="M31.09,34.44H22.91v1.43h8.18Zm-.27,1.27H23.18V34.6h7.65Z"/><polygon class="cls-1" points="47.11 32.15 47.17 32.15 47.17 31.74 47.11 31.74 47.11 32.15"/><circle class="cls-1" cx="26.29" cy="37.2" r="0.09"/><rect class="cls-1" x="25.71" y="36.76" width="0.18" height="0.84"/><circle class="cls-1" cx="26.29" cy="37.52" r="0.09"/><circle class="cls-1" cx="26.29" cy="36.87" r="0.09"/><rect class="cls-1" x="26.47" y="37.43" width="0.27" height="0.16"/><ellipse class="cls-1" cx="48.07" cy="31.75" rx="0.03" ry="0.04" transform="translate(-1.54 2.46) rotate(-2.89)"/><polygon class="cls-1" points="47.67 32.12 47.73 32.11 47.73 31.71 47.67 31.71 47.67 32.12"/><ellipse class="cls-1" cx="47.97" cy="32.06" rx="0.03" ry="0.04" transform="translate(-1.77 2.83) rotate(-3.32)"/><polygon class="cls-1" points="47.56 32.12 47.62 32.12 47.62 31.72 47.56 31.72 47.56 32.12"/><polygon class="cls-1" points="47.45 32.13 47.51 32.13 47.51 31.72 47.45 31.73 47.45 32.13"/><ellipse class="cls-1" cx="47.97" cy="31.91" rx="0.03" ry="0.04" transform="translate(-1.64 2.62) rotate(-3.07)"/><ellipse class="cls-1" cx="47.97" cy="31.75" rx="0.03" ry="0.04" transform="translate(-1.54 2.46) rotate(-2.89)"/><polygon class="cls-1" points="47.78 32.11 47.84 32.11 47.84 31.71 47.78 31.71 47.78 32.11"/><polygon class="cls-1" points="47.34 32.14 47.4 32.13 47.4 31.73 47.34 31.73 47.34 32.14"/><polygon class="cls-1" points="47.23 32.14 47.28 32.14 47.28 31.73 47.23 31.74 47.23 32.14"/></svg>
