<svg id="Layer_1" data-name="Layer 1" xmlns="http://www.w3.org/2000/svg" viewBox="0 0 54 54"><defs><style>.cls-1{fill:#414042;}</style></defs><title>Main Phone</title><path class="cls-1" d="M27,0A27,27,0,1,0,54,27,27,27,0,0,0,27,0ZM23.26,6.53s.63-.09.76.38L26,14.51a.67.67,0,0,1-.14.83l-1.79.8L21.41,6.85ZM39.79,44.11a.85.85,0,0,1-.39.23s-1.75.85-6.68.92a1.31,1.31,0,0,1-.91-.38s-7.74-7.32-11.43-14.05c-4-6.57-6.45-16.93-6.45-16.93a1.3,1.3,0,0,1,.12-1c2.52-4.23,4.13-5.33,4.13-5.33a.85.85,0,0,1,.4-.23l1.31-.24,2.8,9.71-1.83.86c-1.27.68-.71,1.56-.71,1.56L25.2,28l5.07,8.77s.49.92,1.71.17l1.66-1.16,7,7.28Zm3.06-3.64-1.2,1.44L34.93,35l1.59-1.14a.67.67,0,0,1,.79.29l5.6,5.48C43.24,40,42.86,40.47,42.86,40.47Z"/></svg>
