<svg id="Layer_1" data-name="Layer 1" xmlns="http://www.w3.org/2000/svg" viewBox="0 0 54 54"><defs><style>.cls-1{fill:#414042;}</style></defs><title>Managed Hosting</title><path class="cls-1" d="M27,0A27,27,0,1,0,54,27,27,27,0,0,0,27,0ZM43.33,34.1c-.94.49-1.89,1-2.84,1.44l-9.84,4.91a7.21,7.21,0,0,1-3.63.86,8.22,8.22,0,0,1-3.88-1c-4-2-8.09-4.05-12.13-6.08a3.44,3.44,0,0,1-.79-.51,1.38,1.38,0,0,1,.23-2.37l.21-.13.34.19c4,2,8.09,4,12.13,6.08a8.22,8.22,0,0,0,3.88,1,7.21,7.21,0,0,0,3.63-.86l9.84-4.91c.95-.47,1.9-.94,2.84-1.44l.05,0,.32.21A1.5,1.5,0,0,1,43.33,34.1Zm0-5.66c-.94.49-1.89,1-2.84,1.44l-9.84,4.91a7.21,7.21,0,0,1-3.63.86,8.22,8.22,0,0,1-3.88-1c-4-2-8.09-4.05-12.13-6.08a3.44,3.44,0,0,1-.79-.51,1.38,1.38,0,0,1,.23-2.37l.21-.13.34.19c4,2,8.09,4,12.13,6.08a8.22,8.22,0,0,0,3.88,1A7.21,7.21,0,0,0,30.66,32l9.84-4.91c.95-.47,1.9-.94,2.84-1.44l.05,0,.32.21A1.5,1.5,0,0,1,43.33,28.45Zm0-5.66c-.94.49-1.89,1-2.84,1.44l-9.84,4.91A7.21,7.21,0,0,1,27,30a8.22,8.22,0,0,1-3.88-1C19.11,27,15.06,25,11,23a3.44,3.44,0,0,1-.79-.51,1.38,1.38,0,0,1,.23-2.37,16.58,16.58,0,0,1,2-1.08c3.65-1.83,7.31-3.64,10.95-5.48a8.12,8.12,0,0,1,3.95-.81,7.93,7.93,0,0,1,3.45.92c4,2,8,4,12,6a5.25,5.25,0,0,1,.83.5A1.5,1.5,0,0,1,43.33,22.79Z"/></svg>