<svg id="Layer_1" data-name="Layer 1" xmlns="http://www.w3.org/2000/svg" viewBox="0 0 54 54"><defs><style>.cls-1{fill:#414042;}</style></defs><title>Managed Backup</title><circle class="cls-1" cx="27.01" cy="20.1" r="0.49" transform="translate(6.86 47.07) rotate(-89.89)"/><circle class="cls-1" cx="24.96" cy="23.64" r="0.49" transform="translate(-8.46 15.58) rotate(-29.89)"/><circle class="cls-1" cx="24.96" cy="21.28" r="0.49" transform="translate(-5.97 32.19) rotate(-59.88)"/><circle class="cls-1" cx="27" cy="24.83" r="0.49" transform="translate(2.12 51.79) rotate(-89.89)"/><polygon class="cls-1" points="33.76 24.04 33.76 24.04 33.76 24.04 33.76 24.04"/><rect class="cls-1" x="30.12" y="37.7" width="3.06" height="4.95" transform="translate(-8.58 71.75) rotate(-89.89)"/><path class="cls-1" d="M20.11,36h-1.9v4.25A.79.79,0,0,0,19,41h4.54V39.25A4.49,4.49,0,0,1,20.11,36Z"/><path class="cls-1" d="M34.43,25.46a.35.35,0,0,0,.07-.3.82.82,0,0,0-.24-.44.77.77,0,0,0-.51-.24.31.31,0,0,0-.22.08h0L22.2,34.49h0a1,1,0,0,0-.27.19,1.16,1.16,0,0,0-.28,1A2.34,2.34,0,0,0,22.3,37a2.24,2.24,0,0,0,1.51.7h0a1.07,1.07,0,0,0,.78-.29,1,1,0,0,0,.19-.28v0l0,0,9.61-11.6ZM23.4,36.6a.79.79,0,1,1,.79-.79A.79.79,0,0,1,23.4,36.6Z"/><path class="cls-1" d="M27,21.31a1.15,1.15,0,1,0,1.15,1.16A1.15,1.15,0,0,0,27,21.31Zm0,1.63a.47.47,0,1,1,.47-.47A.47.47,0,0,1,27,22.94Z"/><path class="cls-1" d="M27,0A27,27,0,1,0,54,27,27,27,0,0,0,27,0ZM39,43.39a1.05,1.05,0,0,1-1.05,1l-22,0a1.05,1.05,0,0,1-1-1.05L15,10.61a1.05,1.05,0,0,1,1.05-1l22,0a1.05,1.05,0,0,1,1,1.05Z"/><path class="cls-1" d="M27,12.39h0a10.07,10.07,0,0,0-3.57,19.49l9.32-8.17a1.45,1.45,0,0,1,1-.39,1.91,1.91,0,0,1,1.33.58A2,2,0,0,1,35.64,25a1.48,1.48,0,0,1-.36,1.25L30.6,31.88A10.08,10.08,0,0,0,27,12.39Zm0,14.21a4.14,4.14,0,1,1,4.15-4.13A4.14,4.14,0,0,1,27,26.61Z"/><circle class="cls-1" cx="29.06" cy="23.65" r="0.49" transform="translate(-5.98 36.92) rotate(-59.89)"/><circle class="cls-1" cx="29.06" cy="21.28" r="0.49" transform="translate(-6.74 17.31) rotate(-29.88)"/></svg>