<svg id="Layer_1" data-name="Layer 1" xmlns="http://www.w3.org/2000/svg" viewBox="0 0 54 54"><defs><style>.cls-1{fill:#414042;}</style></defs><title>Managed Services</title><polygon class="cls-1" points="29.37 22.14 29.39 20.13 28.68 22.14 29.37 22.14"/><path class="cls-1" d="M27,0A27,27,0,1,0,54,27,27,27,0,0,0,27,0ZM23.54,17.77v1.65H21.61V17.13A1,1,0,0,1,22.75,16l2.61,0a1,1,0,0,1,1.12,1.12v1.72A2.22,2.22,0,0,1,26.13,20l-2.2,3.8,2.5,0v1.78l-4.93,0V24.31l3-5.28V17.77Zm7.74,1.71,0,2.68h.68V23.9h-.68v1.68H29.35V23.89l-2.92,0V22.72L28.79,16h1.88v.41l-1,3Zm-9.53,7.68v-.77l10.17.06V28l-10.17-.06Zm4.38,3.24v1.3h-1.9l0-3.06,5,0,0,1.24-2.16,8.26h-2l2-7.74Zm17.69,3.45a1.84,1.84,0,0,1-1.52.69H40.22L37.5,42.68a2.09,2.09,0,0,1-2,1.43l-3.63,0a1.92,1.92,0,0,1-1.71,1l-4.58,0a1.93,1.93,0,1,1,0-3.85l4.58,0A1.93,1.93,0,0,1,32,42.46l3.56,0a.47.47,0,0,0,.44-.32l2.55-7.65H35.36a.92.92,0,0,1-.92-.93l.06-10.42a.93.93,0,0,1,.93-.92h2.28A10.5,10.5,0,0,0,27.28,11.72h-.56A10.5,10.5,0,0,0,16.18,22.12h2.28a.92.92,0,0,1,.92.93l-.06,10.42a.92.92,0,0,1-.93.92l-3,0h0l-4,0a1.85,1.85,0,0,1-1.51-.71,10.25,10.25,0,0,1,0-10.85,1.85,1.85,0,0,1,1.53-.71h1A14.17,14.17,0,0,1,26.74,8h.56A14.17,14.17,0,0,1,41.38,22.27h1a1.86,1.86,0,0,1,1.52.72A10.25,10.25,0,0,1,43.81,33.85Z"/></svg>
