<svg id="Layer_1" data-name="Layer 1" xmlns="http://www.w3.org/2000/svg" viewBox="0 0 54 54"><defs><style>.cls-1{fill:#414042;}</style></defs><title>Managed Backups</title><path class="cls-1" d="M24.43,17.74c6.87,0,11.1-1.87,11.1-3.21s-4.22-3.21-11.1-3.21-11.09,1.87-11.09,3.21S17.55,17.74,24.43,17.74Z"/><path class="cls-1" d="M25.82,35c-.46,0-.92.06-1.4.06-5,0-9.3-1.22-11.4-3.14v3.46c0,2.11,4.68,4.46,11.4,4.46a26.36,26.36,0,0,0,3.22-.2,10.47,10.47,0,0,1-.72-1.13A10.34,10.34,0,0,1,25.82,35Z"/><path class="cls-1" d="M24.43,25.16c6.72,0,11.4-2.35,11.4-4.46V17.64c-2,1.74-6.8,2.64-11.4,2.64s-9.35-.9-11.4-2.63V20.7C13,22.81,17.71,25.16,24.43,25.16Z"/><path class="cls-1" d="M24.43,32.57c.48,0,.92,0,1.38-.06A10,10,0,0,1,26,31.34a10.21,10.21,0,0,1,1.8-3.78,27.65,27.65,0,0,1-3.4.23c-5,0-9.3-1.23-11.4-3.15v3.46C13,30.22,17.71,32.57,24.43,32.57Z"/><path class="cls-1" d="M27,0A27,27,0,1,0,54,27,27,27,0,0,0,27,0Zm9,44a10.25,10.25,0,0,1-7.67-3.46c.08.11.14.24.23.35a27.83,27.83,0,0,1-4.16.31c-7.16,0-12.77-2.56-12.77-5.83V31.74a3.13,3.13,0,0,1,.46-1.57l.15-.26a3.19,3.19,0,0,1-.61-1.8V24.43a3.13,3.13,0,0,1,.46-1.57l.18-.31a3.2,3.2,0,0,1-.64-1.84V17a3.11,3.11,0,0,1,.42-1.5l.08-.16a2.05,2.05,0,0,1-.19-.82c0-3,6.42-4.58,12.46-4.58s12.47,1.6,12.47,4.58a2,2,0,0,1-.2.82l.09.16A3.08,3.08,0,0,1,37.19,17V20.7a3.18,3.18,0,0,1-.63,1.84l.18.31a3.71,3.71,0,0,1,.28.64A10.3,10.3,0,0,1,36,44Z"/><path class="cls-1" d="M36.35,25.5H36a7.88,7.88,0,0,0-1.06.07A8.27,8.27,0,0,0,28.24,31a8.06,8.06,0,0,0-.32,1.22,9,9,0,0,0-.14,1.4s0,0,0,.07a8.25,8.25,0,1,0,8.57-8.24ZM41.9,36c0,.48-.31.39-.31.39H35.13v2.07c0,.61-.53.05-.53.05L30.17,34a.41.41,0,0,1,0-.62c.43-.43,4.58-4.45,4.58-4.45s.55-.56.55.18V31h6.38s.26,0,.26.33Z"/></svg>
