<svg id="Layer_1" data-name="Layer 1" xmlns="http://www.w3.org/2000/svg" viewBox="0 0 54 54"><defs><style>.cls-1{fill:#414042;}</style></defs><title>Management and Monitoring</title><path class="cls-1" d="M27,0A27,27,0,1,0,54,27,27,27,0,0,0,27,0ZM12.08,17.78V36.22H27.83a6.86,6.86,0,0,0,.07,1.36H12.35a1.8,1.8,0,0,1-1.8-1.8V18.23a1.8,1.8,0,0,1,1.8-1.8h27.3a1.8,1.8,0,0,1,1.8,1.8v8a8.06,8.06,0,0,0-1.53-.5V17.78H24.64l1.58,13L27.81,26l2,2.06,2-3.25,1.3,2.33a8.21,8.21,0,0,0-.8.68l-.54-1L30,29.7l-1.73-1.8-2.5,7.59L24.37,24,23,30.58l-1.14-2.34L20.4,34.6l-1.65-7.33-1,2.1H15.57v-1H17.1l2-4.22L20.41,30l1.12-4.8,1.09,2.22,2-9.64ZM46,39.12a.86.86,0,0,1-.71.32h-1L43,43.27a1,1,0,0,1-.94.67h-1.7a.9.9,0,0,1-.8.48H37.4a.9.9,0,1,1,0-1.81h2.15a.9.9,0,0,1,.83.56h1.67a.22.22,0,0,0,.21-.15l1.2-3.59H42a.43.43,0,0,1-.43-.44l0-4.89a.43.43,0,0,1,.44-.43h1.07a4.93,4.93,0,0,0-4.9-4.94h-.26a4.93,4.93,0,0,0-5,4.89H34a.43.43,0,0,1,.43.44l0,4.89a.43.43,0,0,1-.44.43H30.73A.87.87,0,0,1,30,39a3.89,3.89,0,0,1-.6-1.46h0a5.09,5.09,0,0,1-.09-.67h0a5.31,5.31,0,0,1,0-.68h0A4.31,4.31,0,0,1,30,33.93a.87.87,0,0,1,.72-.33h.49A6.62,6.62,0,0,1,33,29.13h0A6.62,6.62,0,0,1,37.94,27h.26a6.66,6.66,0,0,1,6.61,6.68h.46A.87.87,0,0,1,46,34,4.81,4.81,0,0,1,46,39.12Z"/></svg>
