<?xml version="1.0" encoding="UTF-8" standalone="no"?>
<svg
   id="Layer_1"
   data-name="Layer 1"
   viewBox="0 0 100 100"
   version="1.1"
   sodipodi:docname="EXP___MeteredPower.svg"
   inkscape:version="1.1.1 (3bf5ae0d25, 2021-09-20)"
   xmlns:inkscape="http://www.inkscape.org/namespaces/inkscape"
   xmlns:sodipodi="http://sodipodi.sourceforge.net/DTD/sodipodi-0.dtd"
   xmlns="http://www.w3.org/2000/svg"
   xmlns:svg="http://www.w3.org/2000/svg">
  <sodipodi:namedview
     id="namedview1368"
     pagecolor="#ffffff"
     bordercolor="#666666"
     borderopacity="1.0"
     inkscape:pageshadow="2"
     inkscape:pageopacity="0.0"
     inkscape:pagecheckerboard="0"
     showgrid="false"
     inkscape:zoom="8.73"
     inkscape:cx="50"
     inkscape:cy="50"
     inkscape:window-width="3840"
     inkscape:window-height="2089"
     inkscape:window-x="3432"
     inkscape:window-y="-8"
     inkscape:window-maximized="1"
     inkscape:current-layer="Layer_1" />
  <defs
     id="defs1335">
    <style
       id="style1333">.cls-1{font-size:10px;font-family:Inter-Light, Inter;font-weight:300;}.cls-2{letter-spacing:-0.01em;}.cls-3{letter-spacing:-0.02em;}.cls-4{letter-spacing:-0.01em;}.cls-5{letter-spacing:-0.02em;}.cls-6{fill:#f20505;}</style>
  </defs>
  <path
     d="M72.84,21.07v1.27h.64a1.9,1.9,0,0,1,1.9,1.9V35.66a1.91,1.91,0,0,1-1.9,1.91h-.64v1.27a3.8,3.8,0,0,1-3.8,3.8H28.43a3.8,3.8,0,0,1-3.81-3.8V21.07a3.81,3.81,0,0,1,3.81-3.81H69A3.81,3.81,0,0,1,72.84,21.07ZM28.43,19.8a1.27,1.27,0,0,0-1.27,1.27V38.84a1.27,1.27,0,0,0,1.27,1.26H69a1.26,1.26,0,0,0,1.26-1.26V35h2.54V24.88H70.3V21.07A1.26,1.26,0,0,0,69,19.8Z"
     id="path1353" />
  <rect
     class="cls-6"
     x="31.55"
     y="25.02"
     width="2.54"
     height="10.15"
     rx="0.48"
     id="rect1355" />
  <rect
     class="cls-6"
     x="36.62"
     y="25.02"
     width="2.54"
     height="10.15"
     rx="0.48"
     id="rect1357" />
  <rect
     class="cls-6"
     x="41.7"
     y="25.02"
     width="2.54"
     height="10.15"
     rx="0.48"
     id="rect1359" />
  <rect
     class="cls-6"
     x="46.78"
     y="25.02"
     width="2.54"
     height="10.15"
     rx="0.48"
     id="rect1361" />
  <rect
     class="cls-6"
     x="51.85"
     y="25.02"
     width="2.54"
     height="10.15"
     rx="0.48"
     id="rect1363" />
  <rect
     class="cls-6"
     x="56.93"
     y="25.02"
     width="2.54"
     height="10.15"
     rx="0.48"
     id="rect1365" />
</svg>
