<svg id="Layer_1" data-name="Layer 1" xmlns="http://www.w3.org/2000/svg" viewBox="0 0 54 54"><defs><style>.cls-1{fill:#414042;}.cls-2{fill:#fff;}</style></defs><title>Monitoring</title><path class="cls-1" d="M27,0A27,27,0,1,0,54,27,27,27,0,0,0,27,0Z"/><path class="cls-2" d="M44,13.65H10a2.19,2.19,0,0,0-2.19,2.19V38.17A2.19,2.19,0,0,0,10,40.35H44a2.19,2.19,0,0,0,2.19-2.19V15.83A2.19,2.19,0,0,0,44,13.65Zm-.67,24.06H10.67V16.29H43.33Z"/><polygon class="cls-2" points="36.95 27.92 36.56 28.45 33.85 24.41 31.41 27.76 28.94 25.63 27.22 29.97 25.28 17.42 22.66 26.87 21.36 24.66 20.08 29.19 18.55 23.55 15.92 28.2 12.96 28.2 12.96 29.73 17 29.73 17.98 28 20.05 35.67 21.94 28.96 23.33 31.33 24.81 25.39 26.44 36.58 29.68 28.41 31.72 30.17 33.79 27.33 36.49 31.35 37.9 29.45 41.04 29.45 41.04 27.92 36.95 27.92"/></svg>