<?xml version="1.0" encoding="UTF-8" standalone="no"?>
<svg
   id="Layer_1"
   data-name="Layer 1"
   viewBox="0 0 100 100"
   version="1.1"
   sodipodi:docname="EXP___MultiCloudObjectStorage.svg"
   inkscape:version="1.1.1 (3bf5ae0d25, 2021-09-20)"
   xmlns:inkscape="http://www.inkscape.org/namespaces/inkscape"
   xmlns:sodipodi="http://sodipodi.sourceforge.net/DTD/sodipodi-0.dtd"
   xmlns="http://www.w3.org/2000/svg"
   xmlns:svg="http://www.w3.org/2000/svg">
  <sodipodi:namedview
     id="namedview3107"
     pagecolor="#ffffff"
     bordercolor="#666666"
     borderopacity="1.0"
     inkscape:pageshadow="2"
     inkscape:pageopacity="0.0"
     inkscape:pagecheckerboard="0"
     showgrid="false"
     inkscape:zoom="8.73"
     inkscape:cx="50"
     inkscape:cy="50"
     inkscape:window-width="3840"
     inkscape:window-height="2089"
     inkscape:window-x="3432"
     inkscape:window-y="-8"
     inkscape:window-maximized="1"
     inkscape:current-layer="Layer_1" />
  <defs
     id="defs3046">
    <style
       id="style3044">.cls-1{fill:#f20505;}.cls-2{fill:#fff;}.cls-3{fill:none;stroke:#fff;stroke-width:2px;}</style>
  </defs>
  <path
     class="cls-1"
     d="M32.44,26.25a11.54,11.54,0,0,1,23.07,0"
     id="path3048" />
  <polygon
     class="cls-1"
     points="46.43 28.37 59.34 15.46 60.75 15.46 69.14 23.66 68.66 25.35 47.35 30.06 46.43 28.37"
     id="polygon3050" />
  <path
     class="cls-2"
     d="M60.05,16.17l8.39,8.2-21.3,4.71L60.05,16.17m1.4-1.43-2.82,0L45.72,27.67,47.57,31l21.3-4.7,1-3.39-8.39-8.2Z"
     id="path3052" />
  <path
     class="cls-3"
     d="M75.79,34.79a1.42,1.42,0,0,1-.8.71L58.5,39.31h-.32a1.27,1.27,0,0,1-1-.48L50.56,30,44,38.83a1.27,1.27,0,0,1-1,.48h-.32L26.14,35.5a1.42,1.42,0,0,1-.8-.71,1.2,1.2,0,0,1-.08-1l3.81-8.88a1.29,1.29,0,0,1,1.35-.79l20.14,2.54,20.15-2.54a1.29,1.29,0,0,1,1.35.79l3.81,8.88A1.23,1.23,0,0,1,75.79,34.79ZM48.27,28.84,31.05,26.69,28.2,33.36l14.19,3.25Zm22.6,11.74v3.33A3.89,3.89,0,0,1,68,47.56l-15.78,4.2a5.9,5.9,0,0,1-3.33,0l-15.78-4.2a3.89,3.89,0,0,1-2.86-3.65V40.58a1.27,1.27,0,0,1,2.54,0v3.33a1.26,1.26,0,0,0,1,1.19L49.3,49.22V39.31a1.27,1.27,0,1,1,2.53,0v9.91L67.38,45.1a1.27,1.27,0,0,0,1-1.19V40.58a1.27,1.27,0,1,1,2.54,0Zm2.06-7.22-2.85-6.67L52.86,28.84l5.87,7.77Z"
     id="path3054" />
  <path
     d="M75.72,35.59a1.35,1.35,0,0,1-.8.71L58.43,40.11h-.32a1.29,1.29,0,0,1-1-.47l-6.59-8.81-6.58,8.81a1.29,1.29,0,0,1-1,.47h-.32L26.07,36.3a1.35,1.35,0,0,1-.8-.71,1.17,1.17,0,0,1-.08-1L29,25.68a1.28,1.28,0,0,1,1.35-.8l20.14,2.54,20.15-2.54a1.28,1.28,0,0,1,1.35.8l3.81,8.88A1.21,1.21,0,0,1,75.72,35.59Zm-27.53-6L31,27.5l-2.85,6.66,14.19,3.25ZM70.8,41.38v3.33a3.88,3.88,0,0,1-2.86,3.65l-15.78,4.2a6,6,0,0,1-1.67.24,6,6,0,0,1-1.66-.24l-15.78-4.2a3.88,3.88,0,0,1-2.86-3.65V41.38a1.27,1.27,0,1,1,2.54,0v3.33a1.25,1.25,0,0,0,1,1.19L49.23,50V40.11a1.27,1.27,0,1,1,2.53,0V50L67.31,45.9a1.26,1.26,0,0,0,1-1.19V41.38a1.27,1.27,0,1,1,2.54,0Zm2.06-7.22L70,27.5,52.79,29.64l5.87,7.77Z"
     id="path3104" />
</svg>
