<svg id="Layer_1" data-name="Layer 1" xmlns="http://www.w3.org/2000/svg" viewBox="0 0 54 54"><defs><style>.cls-1{fill:#414042;}</style></defs><title>On-Site Staff</title><path class="cls-1" d="M39.63,34a13,13,0,0,0-3.71-6.5,8.62,8.62,0,0,1,4-2,4.87,4.87,0,1,1,3.53,0,8.65,8.65,0,0,1,6.88,8.47V34Zm-1.07,2.91H15.62v-.07a11.48,11.48,0,0,1,9.13-11.23,6.46,6.46,0,1,1,4.69,0,11.48,11.48,0,0,1,9.13,11.23ZM3.67,34v-.05a8.65,8.65,0,0,1,6.88-8.47,4.87,4.87,0,1,1,3.53,0,8.63,8.63,0,0,1,4.09,2.1A13,13,0,0,0,14.55,34ZM27,0A27,27,0,1,0,54,27,27,27,0,0,0,27,0"/></svg>
