<svg id="Layer_1" data-name="Layer 1" xmlns="http://www.w3.org/2000/svg" viewBox="0 0 54 54"><defs><style>.cls-1{fill:#414042;}</style></defs><title>Operations Support Center</title><path class="cls-1" d="M45.92,35.12a2.05,2.05,0,0,1-1.7.77H41.9l-3,9.11a2.33,2.33,0,0,1-2.23,1.6l-4.05,0a2.14,2.14,0,0,1-1.91,1.15l-5.12,0a2.15,2.15,0,1,1,0-4.3l5.12,0a2.15,2.15,0,0,1,2,1.34l4,0a.52.52,0,0,0,.49-.35L40,35.87H36.47a1,1,0,0,1-1-1l.07-11.64a1,1,0,0,1,1-1H39.1A11.73,11.73,0,0,0,27.45,10.4h-.62A11.73,11.73,0,0,0,15,22h2.54a1,1,0,0,1,1,1l-.06,11.64a1,1,0,0,1-1,1l-3.39,0h0l-4.41,0A2.07,2.07,0,0,1,8,34.91a11.45,11.45,0,0,1,.05-12.12A2.07,2.07,0,0,1,9.78,22h1.16A15.83,15.83,0,0,1,26.85,6.3h.62A15.83,15.83,0,0,1,43.2,22.18h1.1A2.08,2.08,0,0,1,46,23a11.45,11.45,0,0,1-.08,12.13M27,0A27,27,0,1,0,54,27,27,27,0,0,0,27,0"/></svg>
