<?xml version="1.0" encoding="UTF-8" standalone="no"?>
<svg
   id="Layer_1"
   data-name="Layer 1"
   viewBox="0 0 100 100"
   version="1.1"
   sodipodi:docname="EXP___OperationsCTRL.svg"
   inkscape:version="1.1.1 (3bf5ae0d25, 2021-09-20)"
   xmlns:inkscape="http://www.inkscape.org/namespaces/inkscape"
   xmlns:sodipodi="http://sodipodi.sourceforge.net/DTD/sodipodi-0.dtd"
   xmlns="http://www.w3.org/2000/svg"
   xmlns:svg="http://www.w3.org/2000/svg">
  <sodipodi:namedview
     id="namedview1474"
     pagecolor="#ffffff"
     bordercolor="#666666"
     borderopacity="1.0"
     inkscape:pageshadow="2"
     inkscape:pageopacity="0.0"
     inkscape:pagecheckerboard="0"
     showgrid="false"
     inkscape:zoom="8.73"
     inkscape:cx="50"
     inkscape:cy="50"
     inkscape:window-width="3840"
     inkscape:window-height="2089"
     inkscape:window-x="3432"
     inkscape:window-y="-8"
     inkscape:window-maximized="1"
     inkscape:current-layer="Layer_1" />
  <defs
     id="defs1463">
    <style
       id="style1461">.cls-1{font-size:10px;font-family:Inter-Light, Inter;}.cls-1,.cls-2{font-weight:300;}.cls-2{font-size:40.61px;font-family:FontAwesome5Pro-Light, &quot;Font Awesome 5 Pro&quot;;}.cls-3{fill:#f20505;}</style>
  </defs>
  <text
     class="cls-2"
     transform="translate(24.62 54.97)"
     id="text1467"></text>
  <path
     d="M43.54,28.46a.81.81,0,0,1,.11,1.2l-4.38,5.25a.77.77,0,0,1-.66.33.66.66,0,0,1-.54-.22l-2.63-2.18a.82.82,0,0,1-.11-1.21.81.81,0,0,1,1.2-.11l2,1.59,3.83-4.54A.82.82,0,0,1,43.54,28.46Zm0,8.75a.82.82,0,0,1,.11,1.21l-4.38,5.25a.77.77,0,0,1-.66.33.7.7,0,0,1-.54-.22l-2.63-2.19a.85.85,0,1,1,1.09-1.31l2,1.58,3.83-4.54A.82.82,0,0,1,43.54,37.21Zm2.08-5.47a.86.86,0,0,1,.87-.87H62.25a.88.88,0,1,1,0,1.75H46.49A.87.87,0,0,1,45.62,31.74ZM63.13,40.5a.87.87,0,0,1-.88.87H46.49a.88.88,0,0,1,0-1.75H62.25A.87.87,0,0,1,63.13,40.5Z"
     id="path1469" />
  <path
     class="cls-3"
     d="M43.54,37.21a.82.82,0,0,1,.11,1.21l-4.38,5.25a.77.77,0,0,1-.66.33.7.7,0,0,1-.54-.22l-2.63-2.19a.85.85,0,1,1,1.09-1.31l2,1.58,3.83-4.54A.82.82,0,0,1,43.54,37.21Z"
     id="path1471" />
</svg>
