<?xml version="1.0" encoding="UTF-8" standalone="no"?>
<svg
   id="Layer_1"
   data-name="Layer 1"
   viewBox="0 0 100 100"
   version="1.1"
   sodipodi:docname="EXP___OSManagement.svg"
   inkscape:version="1.1.1 (3bf5ae0d25, 2021-09-20)"
   xmlns:inkscape="http://www.inkscape.org/namespaces/inkscape"
   xmlns:sodipodi="http://sodipodi.sourceforge.net/DTD/sodipodi-0.dtd"
   xmlns="http://www.w3.org/2000/svg"
   xmlns:svg="http://www.w3.org/2000/svg">
  <sodipodi:namedview
     id="namedview3237"
     pagecolor="#ffffff"
     bordercolor="#666666"
     borderopacity="1.0"
     inkscape:pageshadow="2"
     inkscape:pageopacity="0.0"
     inkscape:pagecheckerboard="0"
     showgrid="false"
     inkscape:zoom="8.73"
     inkscape:cx="50"
     inkscape:cy="50"
     inkscape:window-width="3840"
     inkscape:window-height="2089"
     inkscape:window-x="3432"
     inkscape:window-y="-8"
     inkscape:window-maximized="1"
     inkscape:current-layer="Layer_1" />
  <defs
     id="defs3200">
    <style
       id="style3198">.cls-1{fill:#f20505;}.cls-2{font-size:10.99px;fill:#fff;font-family:Inter-Bold, Inter;font-weight:700;}</style>
  </defs>
  <path
     d="M44.19,48.63V45.08l1.27-.45a10.47,10.47,0,0,0,3.28-1.9l1-.87,3.08,1.78A14.35,14.35,0,0,0,55,39.85L52,38.08l.24-1.33a10.55,10.55,0,0,0,0-3.8L52,31.63,55,29.85a14.29,14.29,0,0,0-2.19-3.78l-3.08,1.78-1-.88a10.36,10.36,0,0,0-3.28-1.89l-1.27-.46V21.08a13.92,13.92,0,0,0-4.37,0v3.55l-1.27.45A10.31,10.31,0,0,0,35.28,27l-1,.87-3.08-1.77A14,14,0,0,0,29,29.86l3.07,1.78L31.82,33a10.55,10.55,0,0,0,0,3.8l.24,1.32L29,39.86a13.84,13.84,0,0,0,2.18,3.78l3.08-1.77,1,.87a10.23,10.23,0,0,0,3.27,1.9l1.27.45v3.54A13.92,13.92,0,0,0,44.19,48.63Zm26.7-1.32a1,1,0,0,1-.94.81H68.67a6.81,6.81,0,0,1-1.23,2.12l.64,1.1a1,1,0,0,1-.22,1.22A8.71,8.71,0,0,1,65.37,54a1,1,0,0,1-1.16-.42l-.64-1.1a6.73,6.73,0,0,1-2.45,0l-.63,1.1a1,1,0,0,1-1.17.42,8.71,8.71,0,0,1-2.49-1.44,1,1,0,0,1-.21-1.22l.63-1.1A6.81,6.81,0,0,1,56,48.12H54.74a1,1,0,0,1-.94-.8,8.91,8.91,0,0,1,0-2.87,1,1,0,0,1,.94-.81H56a6.7,6.7,0,0,1,1.23-2.12l-.63-1.11a.94.94,0,0,1,.21-1.21,8.71,8.71,0,0,1,2.49-1.44,1,1,0,0,1,1.17.42l.63,1.1a6.73,6.73,0,0,1,2.45,0l.64-1.1a.93.93,0,0,1,1.16-.42,8.71,8.71,0,0,1,2.49,1.44,1,1,0,0,1,.22,1.21l-.64,1.11a6.7,6.7,0,0,1,1.23,2.12H70a1,1,0,0,1,.94.79A8.7,8.7,0,0,1,70.89,47.31Zm0-24.24a1,1,0,0,1-.94.81H68.68A6.81,6.81,0,0,1,67.45,26l.63,1.1a1,1,0,0,1-.21,1.22,8.71,8.71,0,0,1-2.49,1.44,1,1,0,0,1-1.17-.42l-.63-1.1a6.73,6.73,0,0,1-2.45,0l-.64,1.1a.94.94,0,0,1-1.16.42,8.45,8.45,0,0,1-2.49-1.44,1,1,0,0,1-.22-1.22l.64-1.1A6.81,6.81,0,0,1,56,23.88H54.75a1,1,0,0,1-.94-.8,8.91,8.91,0,0,1,0-2.87,1,1,0,0,1,.94-.81H56a6.81,6.81,0,0,1,1.23-2.12l-.64-1.11A1,1,0,0,1,56.84,15a8.45,8.45,0,0,1,2.49-1.44,1,1,0,0,1,1.16.42l.64,1.1a6.73,6.73,0,0,1,2.45,0l.63-1.1a1,1,0,0,1,1.17-.42A8.66,8.66,0,0,1,67.86,15a1,1,0,0,1,.22,1.21l-.64,1.11a6.81,6.81,0,0,1,1.23,2.12H70a1,1,0,0,1,.94.8A8.91,8.91,0,0,1,70.9,23.07Zm-6-1.43a2.54,2.54,0,1,0-2.54,2.54A2.54,2.54,0,0,0,64.88,21.64Zm0,24.24a2.54,2.54,0,1,0-2.54,2.54A2.54,2.54,0,0,0,64.88,45.88Z"
     id="path3226" />
  <circle
     class="cls-1"
     cx="42.04"
     cy="34.75"
     r="9.9"
     id="circle3228" />
  <path
     d="M42,25.72a9,9,0,1,1-9,9,9,9,0,0,1,9-9M42,24A10.78,10.78,0,1,0,52.81,34.75,10.79,10.79,0,0,0,42,24Z"
     id="path3230" />
  <text
     class="cls-2"
     transform="translate(35.08 37.49)"
     id="text3232">O</text>
  <text
     class="cls-2"
     transform="translate(41.06 40.06)"
     id="text3234">S</text>
</svg>
