<svg id="Layer_1" data-name="Layer 1" xmlns="http://www.w3.org/2000/svg" viewBox="0 0 54 54"><defs><style>.cls-1{fill:#414042;}</style></defs><title>Partnerships</title><path class="cls-1" d="M43.56,33.39h-.4l-.13,0h0l-.1,0h0l-.13,0h0l-.11,0h-1l-.12,0h0l-.09,0h0l-.09,0h0l-.11,0h0l-.09,0h0l-.08,0h0l-.11,0h0l-.09,0,0,0-.08,0,0,0-.11-.06h0l-.1-.06,0,0-.08-.05,0,0L40,33a5.4,5.4,0,0,1-.9-1l-.09-.11c-1-1.32-2-2.66-3-3.92-.34-.4-.68-.79-1-1.17-.6-.64-1.25-1.25-1.9-1.84L33,24.84l-.09-.08,0,0-.06,0,0,0-.06,0,0,0-.07,0h0l-.09-.06h0l-.07,0,0,0-.06,0,0,0-.07,0h0L32,24.26h0l-.07,0h-1l-.08,0h0l-.06,0h0l-.06,0h0l-.09,0h0l-.07,0h0l-.06,0c-1.69.67-3.27,1.73-4.89,2.53l-.47.23-.1,0h0l-.1,0h0l-.1,0h0l-.1,0h0l-.1,0h0l-.1,0h-.68l-.08,0h0l-.08,0h0l-.09,0h0l-.07,0h0l-.09,0h0l-.07,0h0l-.07,0h0l-.08-.05h0l-.06,0h0l-.08-.06h0l-.07-.06,0,0-.06-.06h0l-.07-.07,0,0-.05-.06,0,0-.06-.08h0l-.05-.08,0,0,0-.07v0l-.05-.09v0l0-.08v0l0-.1a2,2,0,0,1-.15-.93h0a2,2,0,0,1,.12-.52l0-.07a1.92,1.92,0,0,1,.57-.75,6.69,6.69,0,0,1,.87-.58l0,0c2.67-1.49,5.4-2.88,8-4.5l0,0,.12-.07.06,0,.08,0,.07,0,.07,0,.07,0,.07,0,.07,0,.07,0,.07,0,.07,0,.08,0,.07,0,.08,0,.07,0,.08,0,.07,0,.08,0,.07,0,.07,0h1.64l.07,0,.07,0,.07,0,.08,0,.07,0,.08,0,.07,0,.08,0,.07,0,.08,0,.07,0,.07,0,.07,0,.07,0,.08,0,.07,0,.08,0,.06,0,.11.05,0,0c.31.16.62.33.93.51l.31.17c.41.23.82.46,1.25.66l.47.19a7.79,7.79,0,0,0,1.06.29l.25,0,.15,0h0l.15,0h.75l.13,0h.18l.13,0h0l.13,0h0l.1,0h0l.13,0h0l.13,0h0l.1,0h0l.13,0h.2l0,0h0l.06,0h0l.05,0h0l.07,0h0c1.24-.4,5.56-1.67,6.8-2.08l2.9,12.82c-1.08.32-8.15,2.31-9.23,2.62M39,34.67a2,2,0,0,1-2,1.81c-.27,0-.55,0-.82-.07a2.11,2.11,0,0,1-.79,2.19,2.33,2.33,0,0,1-2.35.15,2.1,2.1,0,0,1-.93,2.14,2.2,2.2,0,0,1-2.36-.06c0,.13,0,.22,0,.32a2.05,2.05,0,0,1-2.33,2A3,3,0,0,1,26,42.61a3,3,0,0,0-.44-2.53A2.77,2.77,0,0,0,23.62,39a2.71,2.71,0,0,0-.51-1.5,2.83,2.83,0,0,0-2-1.13s0-.1,0-.15a2.75,2.75,0,0,0-.68-1.57,2.71,2.71,0,0,0-1.8-.94,2.86,2.86,0,0,0-.57-1.58A2.77,2.77,0,0,0,15.85,31h-.29a4.37,4.37,0,0,0-2.44,1.06A4.42,4.42,0,0,0,11.85,34c-.59-.22-8-2.84-9.93-3.58l2.19-13c1.18.43,5.84,2.1,6,2.15,1.25.44,2.5.91,3.76,1.31a5,5,0,0,0,1.61.21,4,4,0,0,0,2-.83,20.16,20.16,0,0,1,3.91-2c.64-.23,1.32-.37,2-.55a2.88,2.88,0,0,1,1.36,0,5.42,5.42,0,0,1,3,1.9c-.74.41-1.47.8-2.2,1.22-1,.6-2.11,1.18-3.13,1.82a3,3,0,0,0-1.45,3.11,3,3,0,0,0,4.24,2.56c1-.45,2-1,3-1.45.81-.4,1.6-.84,2.42-1.22a2.19,2.19,0,0,1,1-.17,2.46,2.46,0,0,1,1.61.87c.68.7,1.36,1.42,2,2.18,1.11,1.36,2.16,2.77,3.25,4.15a2.71,2.71,0,0,1,.63,2m-14.27,7.7a3.07,3.07,0,0,1-2.24,2.15,1.83,1.83,0,0,1-.83.06,1.72,1.72,0,0,1-.72-.37,1.59,1.59,0,0,1-.37-1.87,7.78,7.78,0,0,1,.42-.87,1.85,1.85,0,0,1-.34.17,5.08,5.08,0,0,1-1.14.28A1.44,1.44,0,0,1,18,40a8.11,8.11,0,0,1,.44-1.14,6.84,6.84,0,0,1-1,.36,1.52,1.52,0,0,1-1.86-2,6.8,6.8,0,0,1,.4-.95,7,7,0,0,1-1.24.35,1.49,1.49,0,0,1-1.67-2,3.12,3.12,0,0,1,2.67-2.32,1.51,1.51,0,0,1,1.58,2.07,7.38,7.38,0,0,1-.42,1,7.83,7.83,0,0,1,.93-.35,1.58,1.58,0,0,1,1.69.43,1.65,1.65,0,0,1,.23,1.73,8.29,8.29,0,0,1-.42.88L19.5,38a2.37,2.37,0,0,1,1.38-.33,1.45,1.45,0,0,1,1.37,1.86,8.3,8.3,0,0,1-.45,1.17,7.31,7.31,0,0,1,1-.35,1.52,1.52,0,0,1,1.88,2M27,0A27,27,0,1,0,54,27,27,27,0,0,0,27,0"/><path class="cls-1" d="M27,3A24,24,0,1,1,3,27,24,24,0,0,1,27,3m0-3A27,27,0,1,0,54,27,27,27,0,0,0,27,0Z"/></svg>