<?xml version="1.0" encoding="UTF-8" standalone="no"?>
<svg
   id="Layer_1"
   data-name="Layer 1"
   viewBox="0 0 100 100"
   version="1.1"
   sodipodi:docname="EXP___PersistentContainerStorage.svg"
   inkscape:version="1.1.1 (3bf5ae0d25, 2021-09-20)"
   xmlns:inkscape="http://www.inkscape.org/namespaces/inkscape"
   xmlns:sodipodi="http://sodipodi.sourceforge.net/DTD/sodipodi-0.dtd"
   xmlns="http://www.w3.org/2000/svg"
   xmlns:svg="http://www.w3.org/2000/svg">
  <sodipodi:namedview
     id="namedview1742"
     pagecolor="#ffffff"
     bordercolor="#666666"
     borderopacity="1.0"
     inkscape:pageshadow="2"
     inkscape:pageopacity="0.0"
     inkscape:pagecheckerboard="0"
     showgrid="false"
     inkscape:zoom="8.73"
     inkscape:cx="50"
     inkscape:cy="50"
     inkscape:window-width="3840"
     inkscape:window-height="2089"
     inkscape:window-x="3432"
     inkscape:window-y="-8"
     inkscape:window-maximized="1"
     inkscape:current-layer="Layer_1" />
  <defs
     id="defs1673">
    <style
       id="style1671">.cls-1{font-size:40.61px;font-family:FontAwesome5Pro-Light, &quot;Font Awesome 5 Pro&quot;;font-weight:300;}.cls-2{fill:#f20505;}.cls-3{fill:none;}.cls-4{fill:#fff;}</style>
  </defs>
  <text
     class="cls-1"
     transform="translate(29.97 49.75)"
     id="text1727"></text>
  <path
     class="cls-2"
     d="M66.1,55.13a9,9,0,1,1,9-9A9,9,0,0,1,66.1,55.13Z"
     id="path1729" />
  <path
     d="M66.1,38.27a7.87,7.87,0,1,1-7.87,7.87,7.86,7.86,0,0,1,7.87-7.87m0-2.25A10.12,10.12,0,1,0,76.21,46.14,10.13,10.13,0,0,0,66.1,36Z"
     id="path1731" />
  <path
     class="cls-3"
     d="M59.89,45.25a1.16,1.16,0,0,1,.75-1.08l4.87-1.84a1.13,1.13,0,0,1,.52-.1,1.19,1.19,0,0,1,.53.1l4.87,1.84a1.15,1.15,0,0,1,.74,1.08v5.88A7.87,7.87,0,1,0,59.89,51Z"
     id="path1733" />
  <polygon
     class="cls-3"
     points="66.03 43.77 62.05 45.28 66.03 46.79 70.02 45.28 66.03 43.77"
     id="polygon1735" />
  <polygon
     class="cls-3"
     points="66.8 52.69 70.64 51.23 70.64 46.69 66.8 48.13 66.8 52.69"
     id="polygon1737" />
  <path
     class="cls-4"
     d="M71.43,44.17l-4.87-1.84a1.19,1.19,0,0,0-.53-.1,1.13,1.13,0,0,0-.52.1l-4.87,1.84a1.16,1.16,0,0,0-.75,1.08V51a7.86,7.86,0,0,0,12.28.17V45.25A1.15,1.15,0,0,0,71.43,44.17ZM66,46.79l-4-1.51,4-1.51,4,1.51Zm4.61,4.44L66.8,52.69V48.13l3.84-1.44Z"
     id="path1739" />
</svg>
