<svg id="Layer_1" data-name="Layer 1" xmlns="http://www.w3.org/2000/svg" viewBox="0 0 54 54"><defs><style>.cls-1{fill:#414042;}</style></defs><title>Private Cloud</title><path class="cls-1" d="M40.73,18.92a3.37,3.37,0,0,0-3.37,3.37v3.86h6.75V22.29A3.38,3.38,0,0,0,40.73,18.92Zm1.89,5.73H38.87V22.29a1.88,1.88,0,0,1,3.75,0Z"/><path class="cls-1" d="M41.81,31.5a1.29,1.29,0,1,0-1.77,0h0l-1,4.43h3.64l-.81-4.43Z"/><path class="cls-1" d="M27,0A27,27,0,1,0,54,27,27,27,0,0,0,27,0Zm5.64,26.15V36.62H11.88a6.94,6.94,0,0,1-5.82-6.85,6.84,6.84,0,0,1,6.8-6.85A6.73,6.73,0,0,1,14,23a6.36,6.36,0,0,1,6.32-6,6.25,6.25,0,0,1,2,.31,8.63,8.63,0,0,1,16.08-1,6.35,6.35,0,0,0-4,5.9v2.36H32.64Zm1.5,13.2V26.15h1.75V22.29a4.85,4.85,0,1,1,9.69,0v3.86h1.75v13.2Z"/></svg>
