<svg id="Layer_1" data-name="Layer 1" xmlns="http://www.w3.org/2000/svg" viewBox="0 0 54 54"><defs><style>.cls-1{fill:#414042;}</style></defs><title>Problem</title><path class="cls-1" d="M27,0A27,27,0,1,0,54,27,27,27,0,0,0,27,0ZM13,13c.44-.44,1.59-.36,1.59-.36H26.51V16c0,.49,0,.56-.14.6s-.51-.09-1.24-.09a3,3,0,0,0-2.77,3.05,3.09,3.09,0,0,0,2.77,3.05c.73,0,1-.17,1.24-.09s.14.11.14.6v3.35H22.58c-.76,0-1,0-1.21.19-.39.33.24.81.24,1.81a2,2,0,0,1-4,0c0-1,.63-1.48.24-1.81-.2-.17-.46-.19-1.21-.19H12.68v-12A2.17,2.17,0,0,1,13,13ZM26.71,36.21c-.17.2-.19.46-.19,1.21v3.94h-12a2.54,2.54,0,0,1-1.43-.46,2.39,2.39,0,0,1-.41-1.44V27.53H16c.49,0,.56,0,.6.14s-.09.51-.09,1.24a3,3,0,0,0,3.05,2.77,3.09,3.09,0,0,0,3.05-2.77c0-.73-.17-1-.09-1.24s.11-.14.6-.14h3.35v3.94c0,.76,0,1,.19,1.22.33.39.81-.24,1.81-.24a2,2,0,0,1,0,4C27.52,36.46,27,35.82,26.71,36.21ZM41,41a2.26,2.26,0,0,1-1.45.36h-12V38c0-.49,0-.56.14-.6s.51.09,1.24.09a3,3,0,0,0,2.77-3.05,3.09,3.09,0,0,0-2.77-3.05c-.73,0-1,.17-1.24.09s-.14-.11-.14-.6V27.53h3.94c.76,0,1,0,1.21-.19.39-.33-.24-.81-.24-1.81a2,2,0,1,1,4,0c0,1-.63,1.48-.24,1.81.2.17.46.19,1.21.19h3.94v12A2.37,2.37,0,0,1,41,41Zm2.15-15.89-3.24-.86c-.47-.13-.53-.19-.55-.29s.22-.47.41-1.18a3,3,0,0,0-2.24-3.46,3.09,3.09,0,0,0-3.66,1.9c-.19.71-.1,1.06-.23,1.22s-.14.11-.62,0l-3.24-.86,1-3.8c.2-.73.24-1,.12-1.22-.22-.46-.85,0-1.81-.23a2,2,0,0,1,1-3.88c1,.26,1.27,1,1.69.7.21-.15.3-.39.5-1.12l1-3.8L45,11.29s1,.2,1.24.7a2,2,0,0,1,0,1.32Z"/></svg>