<svg id="Layer_1" data-name="Layer 1" xmlns="http://www.w3.org/2000/svg" viewBox="0 0 54 54"><defs><style>.cls-1{fill:#414042;}</style></defs><title>Product Development</title><path class="cls-1" d="M30.5,13.9a9.52,9.52,0,0,0-14-.77,11,11,0,0,0-.81,14.82,9.52,9.52,0,0,0,14,.78A11,11,0,0,0,30.5,13.9"/><path class="cls-1" d="M42.81,43.68l-2.42,2.26A1.66,1.66,0,0,1,38,45.83l-6.5-8a1.94,1.94,0,0,1,0-2.4l.16-.21-2-2.41-.11-.16-.17-.26-.27.16A12,12,0,0,1,23,34.25a12.16,12.16,0,0,1-9.29-4.4,13.94,13.94,0,0,1,1-18.84,12,12,0,0,1,17.68,1,14,14,0,0,1-.38,18.18l-.19.21L34,33l.25-.18a1.64,1.64,0,0,1,2.24.25l6.5,8a2,2,0,0,1-.22,2.63M27,0A27,27,0,1,0,54,27,27,27,0,0,0,27,0"/></svg>