<svg id="Layer_1" data-name="Layer 1" xmlns="http://www.w3.org/2000/svg" viewBox="0 0 54 54"><defs><style>.cls-1{fill:#414042;}</style></defs><title>Public Cloud</title><path class="cls-1" d="M27,0A27,27,0,1,0,54,27,27,27,0,0,0,27,0ZM11.88,36.62a6.94,6.94,0,0,1-5.82-6.85,6.84,6.84,0,0,1,6.8-6.85A6.73,6.73,0,0,1,14,23a6.36,6.36,0,0,1,6.32-6,6.25,6.25,0,0,1,2,.31A8.64,8.64,0,0,1,39,18a9.32,9.32,0,0,1,7.69,14c-.17-.13-.34-.26-.52-.38a5,5,0,1,0-8.54-5,6.1,6.1,0,0,0-12,.19A5,5,0,1,0,17,31.64a7.71,7.71,0,0,0-3.39,5Zm26-5a7.71,7.71,0,0,0-.78.57q-.37-.26-.77-.48a6,6,0,0,0,.89-1.49A4.92,4.92,0,0,0,37.91,31.64Zm-11,.09a9.68,9.68,0,0,0-.83.53,7.73,7.73,0,0,0-.84-.62,4.92,4.92,0,0,0,.71-1.59A6,6,0,0,0,26.89,31.73Zm-12,6.41v0a6.16,6.16,0,0,1,4.9-6,3.47,3.47,0,1,1,2.52,0,6.12,6.12,0,0,1,2.51,1.18,9.73,9.73,0,0,0-2.68,4.89ZM39.8,40.21H23.45v0a8.18,8.18,0,0,1,5.82-7.83q.34-.1.69-.17a4.6,4.6,0,1,1,3.34,0,8.12,8.12,0,0,1,2,.69q.31.15.6.33a8.18,8.18,0,0,1,3.92,7Zm1.26-2.07a9.75,9.75,0,0,0-2.74-4.94,6.11,6.11,0,0,1,2.45-1.13,3.47,3.47,0,1,1,2.52,0,6.16,6.16,0,0,1,4.9,6v0Z"/></svg>