<svg id="Layer_1" data-name="Layer 1" xmlns="http://www.w3.org/2000/svg" viewBox="0 0 54 54"><defs><style>.cls-1{fill:#414042;}</style></defs><title>RAM</title><rect class="cls-1" x="20.93" y="33.6" width="0.74" height="1.42"/><rect class="cls-1" x="19.64" y="33.6" width="0.74" height="1.42"/><rect class="cls-1" x="22.22" y="33.6" width="0.74" height="1.42"/><rect class="cls-1" x="18.35" y="33.6" width="0.74" height="1.42"/><rect class="cls-1" x="23.51" y="33.6" width="0.74" height="1.42"/><polygon class="cls-1" points="24.8 35.03 25.54 35.03 25.54 35.03 25.54 33.6 24.8 33.6 24.8 35.03"/><polygon class="cls-1" points="25.26 28.65 24.67 28.65 24.67 28.24 25.26 28.24 25.26 27.82 24.67 27.82 24.67 27.41 25.26 27.41 25.26 26.99 24.67 26.99 24.67 26.58 25.26 26.58 25.26 26.16 24.67 26.16 24.67 25.75 25.26 25.75 25.26 25.33 24.67 25.33 24.67 24.92 25.26 24.92 25.26 24.5 24.67 24.5 24.67 24.09 25.26 24.09 25.26 23.67 24.67 23.67 24.67 23.26 25.26 23.26 25.26 22.84 24.67 22.84 24.67 22.43 25.26 22.43 25.26 22.01 24.67 22.01 24.67 21.15 20.28 21.15 20.28 22.01 19.75 22.01 19.75 22.43 20.28 22.43 20.28 22.84 19.75 22.84 19.75 23.26 20.28 23.26 20.28 23.67 19.75 23.67 19.75 24.09 20.28 24.09 20.28 24.5 19.75 24.5 19.75 24.92 20.28 24.92 20.28 25.33 19.75 25.33 19.75 25.75 20.28 25.75 20.28 26.16 19.75 26.16 19.75 26.58 20.28 26.58 20.28 26.99 19.75 26.99 19.75 27.41 20.28 27.41 20.28 27.82 19.75 27.82 19.75 28.24 20.28 28.24 20.28 28.65 19.75 28.65 19.75 29.07 20.28 29.07 20.28 29.81 24.67 29.81 24.67 29.81 24.67 29.07 25.26 29.07 25.26 28.65"/><rect class="cls-1" x="26.09" y="33.6" width="0.74" height="1.42"/><rect class="cls-1" x="13.19" y="33.6" width="0.74" height="1.42"/><rect class="cls-1" x="14.48" y="33.6" width="0.74" height="1.42"/><rect class="cls-1" x="17.06" y="33.6" width="0.74" height="1.42"/><rect class="cls-1" x="11.9" y="33.6" width="0.74" height="1.42"/><rect class="cls-1" x="15.77" y="33.6" width="0.74" height="1.42"/><polygon class="cls-1" points="15.92 21.15 11.53 21.15 11.53 22.01 11 22.01 11 22.43 11.53 22.43 11.53 22.84 11 22.84 11 23.26 11.53 23.26 11.53 23.67 11 23.67 11 24.09 11.53 24.09 11.53 24.5 11 24.5 11 24.92 11.53 24.92 11.53 25.33 11 25.33 11 25.75 11.53 25.75 11.53 26.16 11 26.16 11 26.58 11.53 26.58 11.53 26.99 11 26.99 11 27.41 11.53 27.41 11.53 27.82 11 27.82 11 28.24 11.53 28.24 11.53 28.65 11 28.65 11 29.07 11.53 29.07 11.53 29.81 15.92 29.81 15.92 29.07 16.51 29.07 16.51 28.65 15.92 28.65 15.92 28.24 16.51 28.24 16.51 27.82 15.92 27.82 15.92 27.41 16.51 27.41 16.51 26.99 15.92 26.99 15.92 26.58 16.51 26.58 16.51 26.16 15.92 26.16 15.92 25.75 16.51 25.75 16.51 25.33 15.92 25.33 15.92 24.92 16.51 24.92 16.51 24.5 15.92 24.5 15.92 24.09 16.51 24.09 16.51 23.67 15.92 23.67 15.92 23.26 16.51 23.26 16.51 22.84 15.92 22.84 15.92 22.43 16.51 22.43 16.51 22.01 15.92 22.01 15.92 21.15"/><rect class="cls-1" x="10.61" y="33.6" width="0.74" height="1.42"/><rect class="cls-1" x="40.28" y="33.6" width="0.74" height="1.42"/><rect class="cls-1" x="41.57" y="33.6" width="0.74" height="1.42"/><rect class="cls-1" x="36.41" y="33.6" width="0.74" height="1.42"/><rect class="cls-1" x="37.7" y="33.6" width="0.74" height="1.42"/><rect class="cls-1" x="38.99" y="33.6" width="0.74" height="1.42"/><path class="cls-1" d="M27,0A27,27,0,1,0,54,27,27,27,0,0,0,27,0ZM46.22,28.32V32L46,32a1.4,1.4,0,0,0-1.39,1.24v.37h0V35.7H9.39V33.61h0v-.37A1.4,1.4,0,0,0,8,32H8l-.21,0v-3.7a1.32,1.32,0,0,0,0-2.65V18.3H46.22v7.37a1.32,1.32,0,1,0,0,2.65Z"/><polygon class="cls-1" points="42.22 21.15 37.83 21.15 37.83 22.01 37.3 22.01 37.3 22.43 37.83 22.43 37.83 22.84 37.3 22.84 37.3 23.26 37.83 23.26 37.83 23.67 37.3 23.67 37.3 24.09 37.83 24.09 37.83 24.5 37.3 24.5 37.3 24.92 37.83 24.92 37.83 25.33 37.3 25.33 37.3 25.75 37.83 25.75 37.83 26.16 37.3 26.16 37.3 26.58 37.83 26.58 37.83 26.99 37.3 26.99 37.3 27.41 37.83 27.41 37.83 27.82 37.3 27.82 37.3 28.24 37.83 28.24 37.83 28.65 37.3 28.65 37.3 29.07 37.83 29.07 37.83 29.81 42.22 29.81 42.22 29.07 42.81 29.07 42.81 28.65 42.22 28.65 42.22 28.24 42.81 28.24 42.81 27.82 42.22 27.82 42.22 27.41 42.81 27.41 42.81 26.99 42.22 26.99 42.22 26.58 42.81 26.58 42.81 26.16 42.22 26.16 42.22 25.75 42.81 25.75 42.81 25.33 42.22 25.33 42.22 24.92 42.81 24.92 42.81 24.5 42.22 24.5 42.22 24.09 42.81 24.09 42.81 23.67 42.22 23.67 42.22 23.26 42.81 23.26 42.81 22.84 42.22 22.84 42.22 22.43 42.81 22.43 42.81 22.01 42.22 22.01 42.22 21.15"/><rect class="cls-1" x="27.38" y="33.6" width="0.74" height="1.42"/><rect class="cls-1" x="42.86" y="33.6" width="0.74" height="1.42"/><rect class="cls-1" x="31.25" y="33.6" width="0.74" height="1.42"/><rect class="cls-1" x="35.12" y="33.6" width="0.74" height="1.42"/><rect class="cls-1" x="28.67" y="33.6" width="0.74" height="1.42"/><rect class="cls-1" x="29.96" y="33.6" width="0.74" height="1.42"/><rect class="cls-1" x="33.83" y="33.6" width="0.74" height="1.42"/><polygon class="cls-1" points="34.04 28.65 33.45 28.65 33.45 28.24 34.04 28.24 34.04 27.82 33.45 27.82 33.45 27.41 34.04 27.41 34.04 26.99 33.45 26.99 33.45 26.58 34.04 26.58 34.04 26.16 33.45 26.16 33.45 25.75 34.04 25.75 34.04 25.33 33.45 25.33 33.45 24.92 34.04 24.92 34.04 24.5 33.45 24.5 33.45 24.09 34.04 24.09 34.04 23.67 33.45 23.67 33.45 23.26 34.04 23.26 34.04 22.84 33.45 22.84 33.45 22.43 34.04 22.43 34.04 22.01 33.45 22.01 33.45 21.15 29.06 21.15 29.06 22.01 28.52 22.01 28.52 22.43 29.06 22.43 29.06 22.84 28.52 22.84 28.52 23.26 29.06 23.26 29.06 23.67 28.52 23.67 28.52 24.09 29.06 24.09 29.06 24.5 28.52 24.5 28.52 24.92 29.06 24.92 29.06 25.33 28.52 25.33 28.52 25.75 29.06 25.75 29.06 26.16 28.52 26.16 28.52 26.58 29.06 26.58 29.06 26.99 28.52 26.99 28.52 27.41 29.06 27.41 29.06 27.82 28.52 27.82 28.52 28.24 29.06 28.24 29.06 28.65 28.52 28.65 28.52 29.07 29.06 29.07 29.06 29.81 33.44 29.81 33.44 29.07 34.04 29.07 34.04 28.65"/></svg>