<svg id="Layer_1" data-name="Layer 1" xmlns="http://www.w3.org/2000/svg" viewBox="0 0 54 54"><defs><style>.cls-1{fill:#414042;}.cls-2{fill:#fff;}</style></defs><title>Refresh</title><circle class="cls-1" cx="27" cy="27" r="27"/><g id="yrimZZ"><path class="cls-2" d="M38.2,27.89H33.45l7.86-9.81,7.74,9.81H47.43c-.83,0-1.67,0-2.5,0-.31,0-.45.07-.47.42a17.5,17.5,0,0,1-14.83,16,17.18,17.18,0,0,1-13-3.19l-.3-.24a.86.86,0,0,1-.09-.12L20,35.95c4.4,3,8.88,3.26,13.34.3A10.87,10.87,0,0,0,38.2,27.89Z"/><path class="cls-2" d="M15.75,26.16h4.66L12.65,36,4.95,26.18H9.33c.94-8,5-13.54,12.71-15.93,5.64-1.75,10.92-.57,15.73,3L33.86,18.1c-4.07-2.78-8.28-3.17-12.6-.76A11,11,0,0,0,15.75,26.16Z"/></g></svg>