<svg id="Layer_1" data-name="Layer 1" xmlns="http://www.w3.org/2000/svg" viewBox="0 0 54 54"><defs><style>.cls-1{fill:#414042;}</style></defs><title>Reliability</title><path class="cls-1" d="M27,0A27,27,0,1,0,54,27,27,27,0,0,0,27,0Zm7,32.14a1.34,1.34,0,0,1-1.9,1.9l-9.29-9.29-.7-.7-1.66-1.66a1.34,1.34,0,0,1,0-1.9,1.27,1.27,0,0,1,.22-.15,1.28,1.28,0,0,1,1.68.15l1.27,1.27,1.09,1.09h0l1.9,1.9h0L28.93,27l2.25,2.25h0ZM17.81,27l-6.3-6.3A4.62,4.62,0,0,1,10,17.43a4.68,4.68,0,0,1,1.57-3.28l2.62-2.62A4.68,4.68,0,0,1,17.43,10h0a4.62,4.62,0,0,1,3.27,1.55l6.3,6.3c1.85,1.85,2.06,3.93.65,5.83l-1.93-1.93c.35-.66.15-1.24-.61-2l-6.3-6.3a2.11,2.11,0,0,0-1.37-.76h0a2.17,2.17,0,0,0-1.39.78l-2.62,2.62a2.17,2.17,0,0,0-.78,1.39,2.1,2.1,0,0,0,.76,1.37l6.3,6.3c.76.76,1.34,1,2,.61l1.93,1.93C21.74,29.07,19.65,28.86,17.81,27ZM43.1,39.15a7.85,7.85,0,0,1-.63.71l-2.62,2.62A4.72,4.72,0,0,1,36.54,44a4.17,4.17,0,0,1-2.5-.89,6.66,6.66,0,0,1-.76-.65L27,36.2c-1.83-1.83-2-3.91-.63-5.81l1.93,1.93c-.35.66-.16,1.23.59,2l6.3,6.3a3.92,3.92,0,0,0,.45.39c.56.41,1.19.72,2.31-.41L40.58,38a5,5,0,0,0,.4-.45c.41-.55.74-1.2-.38-2.32l-6.3-6.3c-.75-.75-1.32-.94-2-.59l-1.93-1.93c1.9-1.41,4-1.21,5.81.63l6.3,6.3C44.32,35.11,44.54,37.25,43.1,39.15Z"/></svg>