<svg id="Layer_1" data-name="Layer 1" xmlns="http://www.w3.org/2000/svg" viewBox="0 0 54 54"><defs><style>.cls-1{fill:#414042;}</style></defs><title>Results</title><path class="cls-1" d="M46.78,18H43.6C43,26.05,33.25,33.45,20.52,35a36.15,36.15,0,0,1-13.26-.75A38.68,38.68,0,0,0,13.77,34c12.21-1.49,21.69-8.35,23-16H33.45l6.66-6.63ZM7.88,35.78a35,35,0,0,0,4.81.73v5.67a.49.49,0,0,1-.49.49H8.37a.49.49,0,0,1-.49-.49Zm6.69.83,1.24,0c1.18,0,2.37-.05,3.57-.16v5.7a.49.49,0,0,1-.49.49H15.06a.49.49,0,0,1-.49-.49Zm6.69-.35a39.86,39.86,0,0,0,4.8-1v6.87a.49.49,0,0,1-.49.49H21.74a.49.49,0,0,1-.49-.49Zm6.69-1.5q1-.32,2-.68,1.48-.56,2.85-1.24v9.33a.49.49,0,0,1-.49.49H28.43a.49.49,0,0,1-.49-.49Zm6.69-2.92A28.56,28.56,0,0,0,37.42,30a24.79,24.79,0,0,0,2-1.66V42.18a.49.49,0,0,1-.49.49H35.12a.49.49,0,0,1-.49-.49Zm6.69-5.46a18.25,18.25,0,0,0,1.36-1.84,14.25,14.25,0,0,0,2.1-5.13l0-.11h1.31V42.18a.49.49,0,0,1-.49.49H41.8a.49.49,0,0,1-.49-.49ZM54,27A27,27,0,1,0,27,54,27,27,0,0,0,54,27"/></svg>