<svg id="Layer_1" data-name="Layer 1" xmlns="http://www.w3.org/2000/svg" viewBox="0 0 54 54"><defs><style>.cls-1{fill:#414042;}</style></defs><title>Risk Mitigation</title><path class="cls-1" d="M35.31,20.29a.65.65,0,0,0-.92,0L24.17,30a.65.65,0,0,1-.91,0l-3.59-3.59a.65.65,0,0,0-.92,0l-2,2a.65.65,0,0,0,0,.92l6.44,6.44a.65.65,0,0,0,.91,0l13-12.52a.65.65,0,0,0,0-.92Z"/><path class="cls-1" d="M27,0A27,27,0,1,0,54,27,27,27,0,0,0,27,0Zm1,46.66a2.2,2.2,0,0,1-.89.27h0a2.2,2.2,0,0,1-.89-.27C12.84,39.82,8.93,27.12,10.37,15.06c0-.22.06-.44.1-.66a1.44,1.44,0,0,1,1.36-1.17C17,13,22,12.21,26.31,9.32A1.47,1.47,0,0,1,27,9.08h0a1.47,1.47,0,0,1,.74.24c4.33,2.89,9.28,3.68,14.47,3.9a1.44,1.44,0,0,1,1.36,1.17c0,.22.07.44.1.66C45.19,27.12,41.28,39.82,28,46.66Z"/></svg>