<svg id="Layer_1" data-name="Layer 1" xmlns="http://www.w3.org/2000/svg" viewBox="0 0 54 54"><defs><style>.cls-1{fill:#414042;}</style></defs><title>SAN to SAN</title><path class="cls-1" d="M18.62,18.83A15.25,15.25,0,0,0,13.28,18a15.25,15.25,0,0,0-5.35.87c-1.32.52-1.6,1-1.6,1.11s.28.59,1.6,1.11a15.26,15.26,0,0,0,5.35.87,15.25,15.25,0,0,0,5.35-.87c1.32-.52,1.6-1,1.6-1.11S19.95,19.36,18.62,18.83Z"/><path class="cls-1" d="M46.07,18.83A15.25,15.25,0,0,0,40.73,18a15.25,15.25,0,0,0-5.35.87c-1.32.52-1.6,1-1.6,1.11s.28.59,1.6,1.11a15.26,15.26,0,0,0,5.35.87,15.25,15.25,0,0,0,5.35-.87c1.32-.52,1.6-1,1.6-1.11S47.4,19.36,46.07,18.83Z"/><path class="cls-1" d="M27,0A27,27,0,1,0,54,27,27,27,0,0,0,27,0ZM21.63,34.11c0,1.84-3.74,3.33-8.36,3.33S4.92,36,4.92,34.11V30c0,1.84,3.74,3.33,8.36,3.33s8.36-1.49,8.36-3.33Zm0-5.11c0,1.84-3.74,3.33-8.36,3.33S4.92,30.84,4.92,29V24.94c0,1.84,3.74,3.33,8.36,3.33s8.36-1.49,8.36-3.33Zm0-5c0,1.84-3.74,3.33-8.36,3.33S4.92,25.85,4.92,24V19.95h0c0-1.87,3.75-3.39,8.36-3.39s8.36,1.52,8.36,3.39Zm8.74,3.46-2.59,2.66s-.31.32-.31,0V28.9H23.71s-.18,0-.18-.23V25.94c0-.2.15-.19.15-.19H27.4V24.63c0-.43.32-.1.32-.1l2.67,2.59A.24.24,0,0,1,30.37,27.48Zm18.71,6.64c0,1.84-3.74,3.33-8.36,3.33S32.37,36,32.37,34.11V30c0,1.84,3.74,3.33,8.36,3.33s8.36-1.49,8.36-3.33Zm0-5.11c0,1.84-3.74,3.33-8.36,3.33S32.37,30.84,32.37,29V24.94c0,1.84,3.74,3.33,8.36,3.33s8.36-1.49,8.36-3.33Zm-8.36-1.66c-4.62,0-8.36-1.49-8.36-3.33V19.95h0c0-1.87,3.75-3.39,8.36-3.39s8.36,1.52,8.36,3.39V24C49.08,25.85,45.34,27.34,40.73,27.34Z"/></svg>