<svg id="Layer_1" data-name="Layer 1" xmlns="http://www.w3.org/2000/svg" viewBox="0 0 54 54"><defs><style>.cls-1{fill:#414042;}</style></defs><title>Scale</title><path class="cls-1" d="M13.67,19.48h0a.64.64,0,0,0-.51.29L7.43,27.56a.47.47,0,0,0-.12.46c.06.11.22.18.44.18H19.57c.22,0,.38-.06.44-.18a.47.47,0,0,0-.12-.46l-5.71-7.79A.64.64,0,0,0,13.67,19.48Z"/><path class="cls-1" d="M27,0A27,27,0,1,0,54,27,27,27,0,0,0,27,0ZM40.32,31.89c-5,0-7-.87-7.83-1.6A1.87,1.87,0,0,1,32.24,28c.15-.25.36-.56.58-.85l6.1-8.3H29.35a.72.72,0,0,0-.72.72V41.07a1.34,1.34,0,0,0,1,1.25l8.63,2.18a1,1,0,0,1-1,1H16.33a1,1,0,0,1-1-1l9-2.18a1.34,1.34,0,0,0,1-1.25V19.53a.72.72,0,0,0-.72-.72H15l1,1.3,5.14,7c.21.29.43.61.58.85a1.87,1.87,0,0,1-.24,2.33c-.83.73-2.86,1.6-7.82,1.6s-7-.87-7.83-1.6h0A1.87,1.87,0,0,1,5.59,28c.15-.25.37-.56.58-.85l6.1-8.3H9.45a.91.91,0,0,1-.91-.91v-.62a.91.91,0,0,1,.91-.91H24.57a.72.72,0,0,0,.72-.72V9.29a1.19,1.19,0,0,1,1.19-1.19h1a1.19,1.19,0,0,1,1.19,1.19v6.36a.72.72,0,0,0,.72.72H44.52a.91.91,0,0,1,.91.91v.62a.91.91,0,0,1-.91.91H41.7l1,1.3,5.14,7c.21.29.43.61.58.85h0a1.87,1.87,0,0,1-.24,2.33C47.31,31,45.28,31.89,40.32,31.89Z"/><path class="cls-1" d="M40.83,19.77a.64.64,0,0,0-.51-.29h0a.64.64,0,0,0-.52.29l-5.71,7.79A.47.47,0,0,0,34,28c.06.11.22.18.44.18H46.22c.22,0,.38-.06.44-.18a.47.47,0,0,0-.12-.46Z"/></svg>