<svg id="Layer_1" data-name="Layer 1" xmlns="http://www.w3.org/2000/svg" viewBox="0 0 54 54"><defs><style>.cls-1{fill:#414042;}</style></defs><title>Security</title><path class="cls-1" d="M23,34.87a45.84,45.84,0,0,0,4.13,3.31s0,0,0,0l0,0c3.89-2.79,9.42-7.69,10-11.46,0,0,0-.44,0-.63V21.75A1.37,1.37,0,0,0,37,21Z"/><path class="cls-1" d="M31.58,16.09a1.69,1.69,0,0,0-1.42-.85H24.1a1.7,1.7,0,0,0-1.43.84,11.87,11.87,0,0,1-4.7,4.3,1.53,1.53,0,0,0-.89,1.35v4.36a4,4,0,0,0,0,.56v0s0,0,0,0a8.15,8.15,0,0,0,1.32,3.07L31.82,16.45C31.74,16.33,31.65,16.21,31.58,16.09Z"/><path class="cls-1" d="M27,0A27,27,0,1,0,54,27,27,27,0,0,0,27,0ZM43.92,25.92c0,8.46-12.72,17.54-16.1,19.81A1.47,1.47,0,0,1,27,46a1.48,1.48,0,0,1-.82-.25c-3.38-2.27-16.1-11.35-16.1-19.81V16.69a1,1,0,0,1,1-1A9.85,9.85,0,0,0,18.67,9a1.18,1.18,0,0,1,1.1-1H34.23a1.18,1.18,0,0,1,1.1,1A9.7,9.7,0,0,0,43,15.73a1,1,0,0,1,.93,1Z"/></svg>