<?xml version="1.0" encoding="UTF-8" standalone="no"?>
<svg
   id="Layer_1"
   data-name="Layer 1"
   viewBox="0 0 100 100"
   version="1.1"
   sodipodi:docname="EXP___SIEM.svg"
   inkscape:version="1.1.1 (3bf5ae0d25, 2021-09-20)"
   xmlns:inkscape="http://www.inkscape.org/namespaces/inkscape"
   xmlns:sodipodi="http://sodipodi.sourceforge.net/DTD/sodipodi-0.dtd"
   xmlns="http://www.w3.org/2000/svg"
   xmlns:svg="http://www.w3.org/2000/svg">
  <sodipodi:namedview
     id="namedview2090"
     pagecolor="#ffffff"
     bordercolor="#666666"
     borderopacity="1.0"
     inkscape:pageshadow="2"
     inkscape:pageopacity="0.0"
     inkscape:pagecheckerboard="0"
     showgrid="false"
     inkscape:zoom="8.73"
     inkscape:cx="50"
     inkscape:cy="50"
     inkscape:window-width="3840"
     inkscape:window-height="2089"
     inkscape:window-x="3432"
     inkscape:window-y="-8"
     inkscape:window-maximized="1"
     inkscape:current-layer="Layer_1" />
  <defs
     id="defs2069">
    <style
       id="style2067">.cls-1{fill:#f20505;}.cls-2{font-size:10px;font-family:Inter-Light, Inter;}.cls-2,.cls-3{font-weight:300;}.cls-3{font-size:47.34px;font-family:FontAwesome6Pro-Light, &quot;Font Awesome 6 Pro&quot;;}</style>
  </defs>
  <path
     class="cls-1"
     d="M49.83,17.91V61L44.1,58s-3.47-3.82-4.51-4.69a35.68,35.68,0,0,1-4.34-5.72c-.17-.52-3.12-6.6-3.12-6.6l-1.39-7.12-.17-7.46Z"
     id="path2071" />
  <text
     class="cls-3"
     transform="translate(26.25 57.17)"
     id="text2075"></text>
  <path
     d="M31.3,38.09l1.39,4.19L29,43.5a.54.54,0,0,1-.69-.35l-.18-.52-1.57.52a.55.55,0,0,1-.7-.35l-.35-1a.56.56,0,0,1,.35-.7l1.57-.52L27.28,40a.55.55,0,0,1,.35-.7Z"
     id="path2077" />
  <path
     d="M34.32,45.79l2.06,3.91L33,51.5a.55.55,0,0,1-.74-.23L32,50.78l-1.47.77a.55.55,0,0,1-.74-.23l-.52-1a.56.56,0,0,1,.23-.75l1.47-.77-.26-.49a.55.55,0,0,1,.24-.74Z"
     id="path2079" />
  <path
     d="M39,52.61l2.93,3.3L39,58.48a.55.55,0,0,1-.78,0L37.87,58l-1.24,1.1a.55.55,0,0,1-.78,0l-.74-.83a.55.55,0,0,1,0-.78l1.24-1.1L36,56a.55.55,0,0,1,0-.78Z"
     id="path2081" />
  <path
     d="M72.37,39.88a.55.55,0,0,1,.35.7l-.17.53,1.57.52a.56.56,0,0,1,.35.7l-.35,1.05a.56.56,0,0,1-.7.35l-1.57-.53-.18.53a.55.55,0,0,1-.69.35l-3.67-1.22,1.39-4.2Z"
     id="path2083" />
  <path
     d="M69.1,48.16a.56.56,0,0,1,.24.75l-.26.49,1.47.77a.56.56,0,0,1,.23.75l-.52,1a.54.54,0,0,1-.74.24l-1.47-.77-.26.48a.55.55,0,0,1-.74.24l-3.43-1.8,2.06-3.92Z"
     id="path2085" />
  <path
     d="M63.92,55.75a.55.55,0,0,1,0,.78L63.6,57l1.24,1.1a.55.55,0,0,1,0,.78l-.74.82a.55.55,0,0,1-.78.05l-1.24-1.1-.36.41a.55.55,0,0,1-.78.05L58.1,56.49,61,53.18Z"
     id="path2087" />
</svg>
