<svg id="Layer_1" data-name="Layer 1" xmlns="http://www.w3.org/2000/svg" viewBox="0 0 54 54"><defs><style>.cls-1{fill:#414042;}</style></defs><title>Site Location</title><polygon class="cls-1" points="25.53 29.59 27.09 28.03 28.56 29.5 29.58 28.48 28.12 27.01 29.59 25.53 28.47 24.41 26.99 25.88 25.52 24.41 24.49 25.44 25.97 26.91 24.41 28.47 25.53 29.59"/><path class="cls-1" d="M46.06,43.31,35.85,38.6l-1.47-.68V10.69l11.68,5.39ZM32.84,37.92,21.16,43.31V16.08l11.68-5.39ZM19.62,43.31,7.94,37.92V10.69l11.68,5.39ZM27,0A27,27,0,1,0,54,27,27,27,0,0,0,27,0"/></svg>