<svg id="Layer_1" data-name="Layer 1" xmlns="http://www.w3.org/2000/svg" viewBox="0 0 54 54"><defs><style>.cls-1{fill:#414042;}</style></defs><title>Solution</title><path class="cls-1" d="M43.7,27v.07a16.91,16.91,0,0,1-.63,2.76l-4.39-1.41a12.17,12.17,0,0,0,.46-2.05Zm0-4.7L39.13,23a12.17,12.17,0,0,0-.46-2l4.39-1.41a16.84,16.84,0,0,1,.64,2.76m-2.69-7-3.83,2.57a12.35,12.35,0,0,0-1.29-1.6l3.35-3.17A16.81,16.81,0,0,1,41,15.31m-5.45-5.14-2.34,4a12.21,12.21,0,0,0-1.85-.89L33,8.94a16.8,16.8,0,0,1,2.56,1.23M28.42,7.9,28,12.5c-.33,0-.67,0-1,0s-.7,0-1,0l-.39-4.6c.47,0,1-.06,1.41-.06s.95,0,1.42.06m-5.77,5.36a12.21,12.21,0,0,0-1.85.89l-2.35-4A16.94,16.94,0,0,1,21,9Zm-4.52,3a12.42,12.42,0,0,0-1.28,1.6L13,15.33a16.89,16.89,0,0,1,1.76-2.21ZM11,19.58l4.4,1.4a12.24,12.24,0,0,0-.46,2l-.57-.1-4-.52V22.3A16.82,16.82,0,0,1,11,19.58M10.34,27l4.57-.64a12.2,12.2,0,0,0,.45,2L11,29.8A16.8,16.8,0,0,1,10.34,27M13,34l3.84-2.56a12.27,12.27,0,0,0,1.28,1.61l-3.36,3.17A17,17,0,0,1,13,34m6.51-3.91A9.2,9.2,0,1,1,34.63,30c-1.28,2.15-3,4.43-3,6.91V37a.31.31,0,0,1-.31.31H22.74a.31.31,0,0,1-.31-.31v-.13c0-2.34-1.63-4.62-2.91-6.76m2.91,9.23a.92.92,0,0,1,.92-.92h7.34a.92.92,0,1,1,0,1.84H23.35a.92.92,0,0,1-.92-.92m0,2.93a.92.92,0,0,1,.92-.92h7.34a.92.92,0,1,1,0,1.84H23.35a.92.92,0,0,1-.92-.92m1.84,2h5.51c.17,0,.21.1.09.22l-1.4,1.4a.85.85,0,0,1-.52.22H26.1a.86.86,0,0,1-.52-.22l-1.4-1.4c-.12-.12-.08-.22.09-.22M35.89,33.1a12.27,12.27,0,0,0,1.29-1.6L41,34.07a16.93,16.93,0,0,1-1.77,2.21ZM54,27A27,27,0,1,0,27,54,27,27,0,0,0,54,27"/></svg>