<svg id="Layer_1" data-name="Layer 1" xmlns="http://www.w3.org/2000/svg" viewBox="0 0 54 54"><defs><style>.cls-1{fill:#414042;}</style></defs><title>Square Footage</title><polygon class="cls-1" points="30.65 31.36 32.03 31.36 32.03 23.86 33.47 23.86 33.47 22.61 29.22 22.61 29.22 23.86 30.65 23.86 30.65 31.36"/><path class="cls-1" d="M36.19,26.47H34.67a.57.57,0,0,1,0-.11c0-.84,1.6-1.44,1.6-3,0-.82-.41-1.28-1.2-1.28s-1.2.47-1.2,1.28v.5h.76v-.55c0-.36.16-.5.42-.5s.42.12.42.58c0,1.47-1.59,1.72-1.59,3.22v.63h2.32Z"/><polygon class="cls-1" points="26.58 27.75 28.35 27.75 28.35 26.5 26.58 26.5 26.58 23.86 28.84 23.86 28.84 22.61 25.2 22.61 25.2 31.36 26.58 31.36 26.58 27.75"/><path class="cls-1" d="M20.22,31.37H21.6V22.61h-.93a1.36,1.36,0,0,1-1.51,1.1v1h1.06Z"/><path class="cls-1" d="M27,0A27,27,0,1,0,54,27,27,27,0,0,0,27,0Zm2.13,9.1h11V7.47a.33.33,0,0,1,.66,0v3.9a.33.33,0,0,1-.66,0V9.75h-11a.33.33,0,0,1,0-.66ZM26.22,7.41A.72.72,0,0,0,27,6.83h.49v4.6h-.72V7.92h-.56ZM11.51,40.66H7.61a.33.33,0,0,1,0-.66H9.23V30.86a.33.33,0,1,1,.66,0V40h1.62a.33.33,0,0,1,0,.66ZM8.64,25.82v-.51a.72.72,0,0,0,.79-.58h.49v4.6H9.2V25.82ZM11.51,14H9.89v9.06a.33.33,0,0,1-.66,0V14H7.61a.33.33,0,1,1,0-.66h3.9a.33.33,0,0,1,0,.66Zm2-6.52a.33.33,0,1,1,.66,0V9.1h11a.33.33,0,0,1,0,.66h-11v1.62a.33.33,0,1,1-.66,0ZM40.8,40.66H13.48V13.34H40.8Z"/></svg>