<svg id="Layer_1" data-name="Layer 1" xmlns="http://www.w3.org/2000/svg" viewBox="0 0 54 54"><defs><style>.cls-1{fill:#414042;}</style></defs><title>SSL VPN</title><path class="cls-1" d="M37.39,25.19c0-.25,0-.52.06-.81,0-.07,0-.15,0-.23h2.81a.93.93,0,0,0,0-.1c-.05-.4-.1-.81-.16-1.21a10.3,10.3,0,0,0-.66-2.53,2.76,2.76,0,0,0-.69-1.06.57.57,0,0,0-.74-.1,1.07,1.07,0,0,0-.11.1h0a2,2,0,0,0-.54.68,8,8,0,0,0-.64,1.85c-.07.28-.11.56-.16.84q-.15.85-.23,1.7c0,.5-.09,1-.09,1.5q0,1.12,0,2.25c0,.63.07,1.25.13,1.87A10.05,10.05,0,0,0,36.55,31c.06.3.32,1.51.4,1.8v0h0a4.56,4.56,0,0,0,.8,1.74.74.74,0,0,0,.59.34.77.77,0,0,0,.59-.38,5.05,5.05,0,0,0,.84-1.91c.15-.59.26-1.18.38-1.78,0-.18,0-.36.07-.57H37.56c0-.13,0-.26,0-.4v-.06c0-.19,0-.38,0-.57h2.72c.08,0,.16,0,.16-.11,0-.37.05-.74.06-1.12,0-.53,0-1.06,0-1.6s0-.84,0-1.28Z"/><path class="cls-1" d="M27,0A27,27,0,1,0,54,27,27,27,0,0,0,27,0ZM49.32,30.31H40.77c0,.23-.06.44-.1.66a11.33,11.33,0,0,1-.92,3.32,2.25,2.25,0,0,1-1.1,1.16.47.47,0,0,1-.18,0H15.34a1.39,1.39,0,0,1-1.11-.56A6.61,6.61,0,0,1,13,32.23c-.16-.62-.26-1.25-.39-1.87l0,0H9.15L10.31,33,4.49,29.91l5.84-3.09L9.19,29.27h3.32a31.5,31.5,0,0,1-.06-4.08h-8v-1h8c0-.14.05-.28.07-.41a12.54,12.54,0,0,1,.82-3.35,4.07,4.07,0,0,1,.92-1.46,1.45,1.45,0,0,1,1-.42H38.32a1.22,1.22,0,0,1,.85.38,3.87,3.87,0,0,1,1,1.68,11.16,11.16,0,0,1,.5,2.13c.07.48.14,1,.21,1.44h4l-1.22-2.61,5.84,3.09-5.82,3.08,1.09-2.51H40.94c0,.27,0,.53,0,.8s0,.31,0,.47c0,.38,0,.76,0,1.14s-.06,1-.09,1.53c0,.09,0,.16.12.14h8.34Z"/></svg>