<svg id="Layer_1" data-name="Layer 1" xmlns="http://www.w3.org/2000/svg" viewBox="0 0 54 54"><defs><style>.cls-1{fill:#414042;}</style></defs><title>Technology</title><path class="cls-1" d="M19.27,34.73H34.65V19.27H19.27Zm1.61-13.85H33V33H20.88Z"/><path class="cls-1" d="M27,0A27,27,0,1,0,54,27,27,27,0,0,0,27,0ZM45.92,22.17H39.07v4h6V27.8h-6v4h6.84v4H44.31V33.44H39.07v5.63H33.44v5.23h2.42v1.61h-4V39.07h-4v6H26.19v-6h-4v6.84h-4V44.31h2.42V39.07H15V33.44H9.69v2.41H8.08v-4H15v-4H8.89V26.2H15v-4H8.08v-4H9.69v2.41H15V15h5.55V9.69H18.15V8.08h4V15h4V8.89H27.8V15h4V8.08h4V9.69H33.44V15h5.63v5.55h5.23V18.15h1.61Z"/></svg>