<svg id="Layer_1" data-name="Layer 1" xmlns="http://www.w3.org/2000/svg" viewBox="0 0 54 54"><defs><style>.cls-1{fill:#414042;}.cls-2{fill:#fff;}</style></defs><title>Tools</title><circle class="cls-1" cx="27" cy="27" r="27"/><path class="cls-2" d="M44,18.79l-6.1,1.34a3.18,3.18,0,0,1-1-1.71l-.34-1.57a3.18,3.18,0,0,1,.35-2.26l5.88-1.26L42.53,12A7.75,7.75,0,0,0,29.26,18.5L10.73,37a3.53,3.53,0,0,0,5,5L33.44,24.3a7.75,7.75,0,0,0,10.82-4.43Z"/><path class="cls-2" d="M10.66,13.51,21.49,24.34l2.08-2.07L12.74,11.44a1.47,1.47,0,0,0-.33-.25l.05.39-1.21-.5a1.45,1.45,0,0,0-.88.79l.43,1.25L10.34,13A1.46,1.46,0,0,0,10.66,13.51Z"/><path class="cls-2" d="M42.65,36.45l-9.54-9.54a3.2,3.2,0,0,0-4.53,0l-.19.19-3.86-3.86-2.08,2.07,3.87,3.87-.19.19a3.2,3.2,0,0,0,0,4.53l9.54,9.54a3.2,3.2,0,0,0,4.53,0L42.65,41A3.2,3.2,0,0,0,42.65,36.45Z"/></svg>