<?xml version="1.0" encoding="UTF-8" standalone="no"?>
<svg
   id="Layer_1"
   data-name="Layer 1"
   viewBox="0 0 100 100"
   version="1.1"
   sodipodi:docname="EXP___UnifiedLogManagement.svg"
   inkscape:version="1.1.1 (3bf5ae0d25, 2021-09-20)"
   xmlns:inkscape="http://www.inkscape.org/namespaces/inkscape"
   xmlns:sodipodi="http://sodipodi.sourceforge.net/DTD/sodipodi-0.dtd"
   xmlns="http://www.w3.org/2000/svg"
   xmlns:svg="http://www.w3.org/2000/svg">
  <sodipodi:namedview
     id="namedview1975"
     pagecolor="#ffffff"
     bordercolor="#666666"
     borderopacity="1.0"
     inkscape:pageshadow="2"
     inkscape:pageopacity="0.0"
     inkscape:pagecheckerboard="0"
     showgrid="false"
     inkscape:zoom="8.73"
     inkscape:cx="50"
     inkscape:cy="50"
     inkscape:window-width="3840"
     inkscape:window-height="2089"
     inkscape:window-x="3432"
     inkscape:window-y="-8"
     inkscape:window-maximized="1"
     inkscape:current-layer="Layer_1" />
  <defs
     id="defs1920">
    <style
       id="style1918">.cls-1,.cls-3{fill:#fff;}.cls-2{fill:#f20505;}.cls-3{font-size:10.99px;font-family:Inter-Bold, Inter;font-weight:700;}</style>
  </defs>
  <path
     d="M65.79,45.61v5.57h1.33a1.33,1.33,0,0,1,0,2.66H36.54a5.36,5.36,0,0,1-5.32-5.32V17.93a6.67,6.67,0,0,1,6.65-6.65h26.6a4,4,0,0,1,4,4v26.6A4,4,0,0,1,65.79,45.61ZM33.88,44a4.74,4.74,0,0,1,2.66-.75h5.34V13.94h-4a4,4,0,0,0-4,4Zm29.26,1.91H36.54a2.66,2.66,0,0,0,0,5.32h26.6Zm2.65-4V15.27a1.31,1.31,0,0,0-1.32-1.33H41.86V43.2H64.47A1.31,1.31,0,0,0,65.79,41.87Z"
     id="path1962" />
  <rect
     class="cls-1"
     x="39.19"
     y="13.94"
     width="6.66"
     height="29.23"
     id="rect1964" />
  <circle
     class="cls-2"
     cx="49.59"
     cy="28.69"
     r="9.9"
     id="circle1966" />
  <path
     d="M49.59,19.66a9,9,0,1,1-9,9,9,9,0,0,1,9-9m0-1.75A10.78,10.78,0,1,0,60.37,28.69,10.8,10.8,0,0,0,49.59,17.91Z"
     id="path1968" />
  <text
     class="cls-3"
     transform="translate(43.83 31.47)"
     id="text1970">U</text>
  <text
     class="cls-3"
     transform="translate(48.77 34.04)"
     id="text1972">L</text>
</svg>
