<svg id="Layer_1" data-name="Layer 1" xmlns="http://www.w3.org/2000/svg" viewBox="0 0 54 54"><defs><style>.cls-1{fill:#414042;}</style></defs><title>Virtual Colocation</title><path class="cls-1" d="M13.92,29.25l.22,0H37.46a7.42,7.42,0,0,0,0-14.84h-.51L36.88,14a6.83,6.83,0,0,0-13.34-.39l-.13.53L22.9,14A4.69,4.69,0,0,0,21,13.58a4.78,4.78,0,0,0-4.75,4.79c0,.06,0,.13,0,.19l0,.64L15.68,19a5.14,5.14,0,0,0-1.38-.19,5.21,5.21,0,0,0-.38,10.41Zm24.81-9.44,2.73.48-1.7.49L37,20.26Zm-5.38-.92,2.16.41-1.68.35-2.14-.37Zm-4.43-.84,1.91.33-1.93.36L27,18.39Zm-2.16.39,2.12.4,2.14-.4v1.87l-2.34-.49-1.92.4Zm2,1.44,2.24.47-2.06.47-2.24-.51Zm-4.35-1,1.75.36L24,19.64l-1.73-.4ZM19,19.8l1.81.46-2.7.51-1.77-.51Zm-3,.51,2,.59,3.12-.59v1.07l-.86.18.86.25.7.2,1,.28,3.2-.73-2.57-.66-1.61.33V19.3l2.12.49,2.56-.48v1l-.22,0,2.6.59L31,20.43h0l.25-.06h0V19.29l2.61.49,2-.46v1.91l-1.58-.33-2.57.66,3.2.73.94-.27.76-.22.82-.24-.82-.17V20.31l3.17.6,1.94-.56V24l-1.94.74-2.35-.59v1.45l-2.53,1h0l-2.83-.86v1.94l-3.24,1.24-3.22-1.24v-2l-2.85.86-2.53-1V24.18L18,24.75,16,24Zm7.51.65,2.27.58-2.83.65-2.23-.65Zm13.65.58-2.23.65-2.83-.65L34.33,21Z"/><path class="cls-1" d="M27,0A27,27,0,1,0,54,27,27,27,0,0,0,27,0ZM46.11,35.66l-1.82.53-1.83-.53,1.82-.46ZM14.3,17.91a6,6,0,0,1,1,.09A5.71,5.71,0,0,1,21,12.65a5.6,5.6,0,0,1,1.76.28,7.75,7.75,0,0,1,14.92.56,8.36,8.36,0,0,1-.24,16.7h-24a6.22,6.22,0,0,1-5.22-6.15A6.13,6.13,0,0,1,14.3,17.91ZM26.14,35,27,33.9,27.82,35h-.47v1.38h0v1.23h.47L27,38.8l-.84-1.14h.47V36.28h0V35ZM27,39.54l2.89.74-2.9.84-2.89-.84ZM9.73,35.2l1.82.46-1.83.53-1.82-.53Zm2.2,3.57-2.22.85-2.2-.84V35.66l2.2.64,2.22-.64Zm4.54-6.13-.33-.33-.87.87h0l-1,1,.33.33-1.4.22.22-1.4.33.33.87-.87h0l1-1-.33-.33,1.4-.22Zm14,12.5L27,46.46l-3.45-1.32V40.27l3.45,1,3.47-1Zm8.94-10.66.33-.33-1-1h0l-.87-.87-.33.33-.22-1.4,1.4.22-.33.33,1,1h0l.87.87.33-.33.22,1.4Zm4.91,5.14-2.22-.85V35.65l2.22.64,2.2-.64v3.11Z"/><path class="cls-1" d="M26.29,23.3l2.58.75,2.4-.7.23-.07.61-.18-.38-.1v-.29l-.46-.12v.28l-2.39-.61-2.6.66v-.36l-.29.07V23l-.36.09.49.14Zm2.62-.93,2.7.69-2.71.79-2.7-.78Z"/></svg>
