<?xml version="1.0" encoding="UTF-8" standalone="no"?>
<svg
   id="Layer_1"
   data-name="Layer 1"
   viewBox="0 0 100 100"
   version="1.1"
   sodipodi:docname="EXP___VMLevelBackup.svg"
   inkscape:version="1.1.1 (3bf5ae0d25, 2021-09-20)"
   xmlns:inkscape="http://www.inkscape.org/namespaces/inkscape"
   xmlns:sodipodi="http://sodipodi.sourceforge.net/DTD/sodipodi-0.dtd"
   xmlns="http://www.w3.org/2000/svg"
   xmlns:svg="http://www.w3.org/2000/svg">
  <sodipodi:namedview
     id="namedview2388"
     pagecolor="#ffffff"
     bordercolor="#666666"
     borderopacity="1.0"
     inkscape:pageshadow="2"
     inkscape:pageopacity="0.0"
     inkscape:pagecheckerboard="0"
     showgrid="false"
     inkscape:zoom="8.73"
     inkscape:cx="50"
     inkscape:cy="50"
     inkscape:window-width="3840"
     inkscape:window-height="2089"
     inkscape:window-x="3432"
     inkscape:window-y="-8"
     inkscape:window-maximized="1"
     inkscape:current-layer="Layer_1" />
  <defs
     id="defs2367">
    <style
       id="style2365">.cls-1{font-size:10px;font-family:Inter-Light, Inter;font-weight:300;}.cls-2{letter-spacing:-0.02em;}.cls-3{letter-spacing:-0.02em;}.cls-4{fill:#f20505;}.cls-5{fill:#fff;}</style>
  </defs>
  <rect
     class="cls-4"
     x="30.44"
     y="25.6"
     width="28.55"
     height="8.59"
     id="rect2379" />
  <path
     d="M60.8,27.25V47.17A3.82,3.82,0,0,1,57,51H32a3.82,3.82,0,0,1-3.81-3.81V27.25A3.82,3.82,0,0,1,32,23.44H57A3.82,3.82,0,0,1,60.8,27.25Zm-2.54,6.34V27.25A1.27,1.27,0,0,0,57,26H32a1.27,1.27,0,0,0-1.27,1.27v6.34Zm0,2.54H30.73v11A1.27,1.27,0,0,0,32,48.44H57a1.27,1.27,0,0,0,1.27-1.27Z"
     id="path2381" />
  <rect
     class="cls-5"
     x="40.83"
     y="14.8"
     width="29.87"
     height="24.59"
     id="rect2383" />
  <path
     d="M71.81,17.11V37A3.82,3.82,0,0,1,68,40.84H43A3.82,3.82,0,0,1,39.2,37V17.11A3.82,3.82,0,0,1,43,13.3H68A3.82,3.82,0,0,1,71.81,17.11Zm-2.54,6.35V17.11A1.27,1.27,0,0,0,68,15.84H43a1.27,1.27,0,0,0-1.27,1.27v6.35Zm0,2.53H41.74V37A1.27,1.27,0,0,0,43,38.3H68A1.27,1.27,0,0,0,69.27,37Z"
     id="path2385" />
</svg>
