<svg id="Layer_1" data-name="Layer 1" xmlns="http://www.w3.org/2000/svg" viewBox="0 0 54 54"><defs><style>.cls-1{fill:#414042;}</style></defs><title>Why</title><path class="cls-1" d="M36.37,24,31.15,29.5a4,4,0,0,0-.91,3V33.6a1.85,1.85,0,0,1-1.86,1.86H23.86A1.88,1.88,0,0,1,22,33.6V31.42c0-2,.21-3.46,1.76-5L29,21A4.44,4.44,0,0,0,30,17.63c0-2-.48-3.73-3.14-3.73-2,0-2.93,1.54-2.93,3.35v1.38a2,2,0,0,1-2,2H17.53a2,2,0,0,1-2-2V17.26c0-6.87,4.84-10.38,11.34-10.38,6.17,0,11.55,2.55,11.55,10.38,0,1.92-.37,5-2.08,6.76m-6,21.18a1.91,1.91,0,0,1-1.92,1.92H23.81a1.91,1.91,0,0,1-1.92-1.92V40.84a1.91,1.91,0,0,1,1.92-1.92h4.63a1.91,1.91,0,0,1,1.92,1.92ZM27,0A27,27,0,1,0,54,27,27,27,0,0,0,27,0"/></svg>